<?xml version="1.0" encoding="utf-8" standalone="no"?>
<!DOCTYPE svg PUBLIC "-//W3C//DTD SVG 1.1//EN"
  "http://www.w3.org/Graphics/SVG/1.1/DTD/svg11.dtd">
<svg xmlns:xlink="http://www.w3.org/1999/xlink" width="460.8pt" height="345.6pt" viewBox="0 0 460.8 345.6" xmlns="http://www.w3.org/2000/svg" version="1.1">
 <metadata>
  <rdf:RDF xmlns:dc="http://purl.org/dc/elements/1.1/" xmlns:cc="http://creativecommons.org/ns#" xmlns:rdf="http://www.w3.org/1999/02/22-rdf-syntax-ns#">
   <cc:Work>
    <dc:type rdf:resource="http://purl.org/dc/dcmitype/StillImage"/>
    <dc:date>2024-02-04T18:05:49.234814</dc:date>
    <dc:format>image/svg+xml</dc:format>
    <dc:creator>
     <cc:Agent>
      <dc:title>Matplotlib v3.8.0, https://matplotlib.org/</dc:title>
     </cc:Agent>
    </dc:creator>
   </cc:Work>
  </rdf:RDF>
 </metadata>
 <defs>
  <style type="text/css">*{stroke-linejoin: round; stroke-linecap: butt}</style>
 </defs>
 <g id="figure_1">
  <g id="patch_1">
   <path d="M 0 345.6 
L 460.8 345.6 
L 460.8 0 
L 0 0 
z
" style="fill: #ffffff"/>
  </g>
  <g id="axes_1">
   <g id="patch_2">
    <path d="M 369.216 174.528 
C 369.216 157.055246 365.774248 139.752393 359.087715 123.609673 
C 352.401182 107.466954 342.599903 92.798303 330.2448 80.4432 
C 317.889697 68.088097 303.221046 58.286818 287.078327 51.600285 
C 270.935607 44.913752 253.632754 41.472 236.16 41.472 
C 218.687246 41.472 201.384393 44.913752 185.241673 51.600285 
C 169.098954 58.286818 154.430303 68.088097 142.0752 80.4432 
C 129.720097 92.798303 119.918818 107.466954 113.232285 123.609673 
C 106.545752 139.752393 103.104 157.055246 103.104 174.528 
C 103.104 192.000754 106.545752 209.303607 113.232285 225.446327 
C 119.918818 241.589046 129.720097 256.257697 142.0752 268.6128 
C 154.430303 280.967903 169.098954 290.769182 185.241673 297.455715 
C 201.384393 304.142248 218.687246 307.584 236.16 307.584 
C 253.632754 307.584 270.935607 304.142248 287.078327 297.455715 
C 303.221046 290.769182 317.889697 280.967903 330.2448 268.6128 
C 342.599903 256.257697 352.401182 241.589046 359.087715 225.446327 
C 365.774248 209.303607 369.216 192.000754 369.216 174.528 
M 236.16 174.528 
C 236.16 174.528 236.16 174.528 236.16 174.528 
C 236.16 174.528 236.16 174.528 236.16 174.528 
C 236.16 174.528 236.16 174.528 236.16 174.528 
C 236.16 174.528 236.16 174.528 236.16 174.528 
C 236.16 174.528 236.16 174.528 236.16 174.528 
C 236.16 174.528 236.16 174.528 236.16 174.528 
C 236.16 174.528 236.16 174.528 236.16 174.528 
C 236.16 174.528 236.16 174.528 236.16 174.528 
C 236.16 174.528 236.16 174.528 236.16 174.528 
C 236.16 174.528 236.16 174.528 236.16 174.528 
C 236.16 174.528 236.16 174.528 236.16 174.528 
C 236.16 174.528 236.16 174.528 236.16 174.528 
C 236.16 174.528 236.16 174.528 236.16 174.528 
C 236.16 174.528 236.16 174.528 236.16 174.528 
C 236.16 174.528 236.16 174.528 236.16 174.528 
C 236.16 174.528 236.16 174.528 236.16 174.528 
z
" style="fill: #ffffff"/>
   </g>
   <g id="patch_3">
    <path d="M 236.16 174.528 
C 236.16 174.528 236.16 174.528 236.16 174.528 
C 236.16 174.528 236.16 174.528 236.16 174.528 
L 236.186354 174.226778 
C 236.17759 174.226011 236.168797 174.225627 236.16 174.225627 
C 236.151203 174.225627 236.14241 174.226011 236.133646 174.226778 
z
" clip-path="url(#p3ac236292a)" style="fill: #ff0000"/>
   </g>
   <g id="patch_4">
    <path d="M 236.16 174.528 
C 236.16 174.528 236.16 174.528 236.16 174.528 
C 236.16 174.528 236.16 174.528 236.16 174.528 
L 236.186354 174.226778 
C 236.17759 174.226011 236.168797 174.225627 236.16 174.225627 
C 236.151203 174.225627 236.14241 174.226011 236.133646 174.226778 
z
" clip-path="url(#p3ac236292a)" style="fill: #ffa500"/>
   </g>
   <g id="patch_5">
    <path d="M 236.16 174.528 
C 236.16 174.528 236.16 174.528 236.16 174.528 
C 236.16 174.528 236.16 174.528 236.16 174.528 
L 236.185601 174.235384 
C 236.177087 174.23464 236.168546 174.234267 236.16 174.234267 
C 236.151454 174.234267 236.142913 174.23464 236.134399 174.235384 
z
" clip-path="url(#p3ac236292a)" style="fill: #008000"/>
   </g>
   <g id="patch_6">
    <path d="M 236.16 174.528 
C 236.16 174.528 236.16 174.528 236.16 174.528 
C 236.16 174.528 236.16 174.528 236.16 174.528 
L 236.233788 174.25262 
C 236.225776 174.250474 236.217674 174.248677 236.209506 174.247237 
C 236.201338 174.245797 236.19311 174.244714 236.184848 174.243991 
z
" clip-path="url(#p3ac236292a)" style="fill: #ff0000"/>
   </g>
   <g id="patch_7">
    <path d="M 236.16 174.528 
C 236.16 174.528 236.16 174.528 236.16 174.528 
C 236.16 174.528 236.16 174.528 236.16 174.528 
L 236.233788 174.25262 
C 236.225776 174.250474 236.217674 174.248677 236.209506 174.247237 
C 236.201338 174.245797 236.19311 174.244714 236.184848 174.243991 
z
" clip-path="url(#p3ac236292a)" style="fill: #ffa500"/>
   </g>
   <g id="patch_8">
    <path d="M 236.16 174.528 
C 236.16 174.528 236.16 174.528 236.16 174.528 
C 236.16 174.528 236.16 174.528 236.16 174.528 
L 236.233788 174.25262 
C 236.225776 174.250474 236.217674 174.248677 236.209506 174.247237 
C 236.201338 174.245797 236.19311 174.244714 236.184848 174.243991 
z
" clip-path="url(#p3ac236292a)" style="fill: #008000"/>
   </g>
   <g id="patch_9">
    <path d="M 236.16 174.528 
C 236.16 174.528 236.16 174.528 236.16 174.528 
C 236.16 174.528 236.16 174.528 236.16 174.528 
L 236.236673 174.363574 
C 236.231889 174.361344 236.22701 174.359323 236.22205 174.357518 
C 236.217091 174.355712 236.212054 174.354124 236.206956 174.352758 
z
" clip-path="url(#p3ac236292a)" style="fill: #ff0000"/>
   </g>
   <g id="patch_10">
    <path d="M 236.16 174.528 
C 236.16 174.528 236.16 174.528 236.16 174.528 
C 236.16 174.528 236.16 174.528 236.16 174.528 
L 236.236673 174.363574 
C 236.231889 174.361344 236.22701 174.359323 236.22205 174.357518 
C 236.217091 174.355712 236.212054 174.354124 236.206956 174.352758 
z
" clip-path="url(#p3ac236292a)" style="fill: #ffa500"/>
   </g>
   <g id="patch_11">
    <path d="M 236.16 174.528 
C 236.16 174.528 236.16 174.528 236.16 174.528 
C 236.16 174.528 236.16 174.528 236.16 174.528 
L 236.229371 174.379234 
C 236.225043 174.377216 236.220628 174.375387 236.216141 174.373754 
C 236.211653 174.372121 236.207097 174.370684 236.202484 174.369448 
z
" clip-path="url(#p3ac236292a)" style="fill: #008000"/>
   </g>
   <g id="patch_12">
    <path d="M 236.16 174.528 
C 236.16 174.528 236.16 174.528 236.16 174.528 
C 236.16 174.528 236.16 174.528 236.16 174.528 
L 236.407762 174.174158 
C 236.397468 174.16695 236.386864 174.160195 236.37598 174.153911 
C 236.365097 174.147627 236.353944 174.141822 236.342554 174.136511 
z
" clip-path="url(#p3ac236292a)" style="fill: #ff0000"/>
   </g>
   <g id="patch_13">
    <path d="M 236.16 174.528 
C 236.16 174.528 236.16 174.528 236.16 174.528 
C 236.16 174.528 236.16 174.528 236.16 174.528 
L 236.407762 174.174158 
C 236.397468 174.16695 236.386864 174.160195 236.37598 174.153911 
C 236.365097 174.147627 236.353944 174.141822 236.342554 174.136511 
z
" clip-path="url(#p3ac236292a)" style="fill: #ffa500"/>
   </g>
   <g id="patch_14">
    <path d="M 236.16 174.528 
C 236.16 174.528 236.16 174.528 236.16 174.528 
C 236.16 174.528 236.16 174.528 236.16 174.528 
L 236.402807 174.181235 
C 236.392719 174.174171 236.382327 174.167551 236.371661 174.161393 
C 236.360995 174.155235 236.350065 174.149545 236.338903 174.14434 
z
" clip-path="url(#p3ac236292a)" style="fill: #008000"/>
   </g>
   <g id="patch_15">
    <path d="M 236.16 174.528 
C 236.16 174.528 236.16 174.528 236.16 174.528 
C 236.16 174.528 236.16 174.528 236.16 174.528 
L 236.47766 174.21034 
C 236.468418 174.201098 236.458777 174.192264 236.448765 174.183863 
C 236.438753 174.175462 236.428379 174.167501 236.417673 174.160005 
z
" clip-path="url(#p3ac236292a)" style="fill: #ff0000"/>
   </g>
   <g id="patch_16">
    <path d="M 236.16 174.528 
C 236.16 174.528 236.16 174.528 236.16 174.528 
C 236.16 174.528 236.16 174.528 236.16 174.528 
L 236.47766 174.21034 
C 236.468418 174.201098 236.458777 174.192264 236.448765 174.183863 
C 236.438753 174.175462 236.428379 174.167501 236.417673 174.160005 
z
" clip-path="url(#p3ac236292a)" style="fill: #ffa500"/>
   </g>
   <g id="patch_17">
    <path d="M 236.16 174.528 
C 236.16 174.528 236.16 174.528 236.16 174.528 
C 236.16 174.528 236.16 174.528 236.16 174.528 
L 236.459334 174.228666 
C 236.450625 174.219958 236.44154 174.211633 236.432106 174.203717 
C 236.422671 174.1958 236.412896 174.188299 236.402807 174.181235 
z
" clip-path="url(#p3ac236292a)" style="fill: #008000"/>
   </g>
   <g id="patch_18">
    <path d="M 236.16 174.528 
C 236.16 174.528 236.16 174.528 236.16 174.528 
C 236.16 174.528 236.16 174.528 236.16 174.528 
L 236.952605 173.973012 
C 236.936458 173.949952 236.919313 173.927608 236.901219 173.906044 
C 236.883124 173.884479 236.864096 173.863715 236.844191 173.843809 
z
" clip-path="url(#p3ac236292a)" style="fill: #ff0000"/>
   </g>
   <g id="patch_19">
    <path d="M 236.16 174.528 
C 236.16 174.528 236.16 174.528 236.16 174.528 
C 236.16 174.528 236.16 174.528 236.16 174.528 
L 236.952605 173.973012 
C 236.936458 173.949952 236.919313 173.927608 236.901219 173.906044 
C 236.883124 173.884479 236.864096 173.863715 236.844191 173.843809 
z
" clip-path="url(#p3ac236292a)" style="fill: #ffa500"/>
   </g>
   <g id="patch_20">
    <path d="M 236.16 174.528 
C 236.16 174.528 236.16 174.528 236.16 174.528 
C 236.16 174.528 236.16 174.528 236.16 174.528 
L 236.89599 174.012654 
C 236.880997 173.991242 236.865077 173.970494 236.848274 173.950469 
C 236.831472 173.930445 236.813804 173.911164 236.79532 173.89268 
z
" clip-path="url(#p3ac236292a)" style="fill: #008000"/>
   </g>
   <g id="patch_21">
    <path d="M 236.16 174.528 
C 236.16 174.528 236.16 174.528 236.16 174.528 
C 236.16 174.528 236.16 174.528 236.16 174.528 
L 238.469787 173.450928 
C 238.438452 173.383729 238.404198 173.317929 238.367125 173.253716 
C 238.330052 173.189503 238.290194 173.126939 238.247665 173.066201 
z
" clip-path="url(#p3ac236292a)" style="fill: #ff0000"/>
   </g>
   <g id="patch_22">
    <path d="M 236.16 174.528 
C 236.16 174.528 236.16 174.528 236.16 174.528 
C 236.16 174.528 236.16 174.528 236.16 174.528 
L 238.391489 173.487439 
C 238.361216 173.422518 238.328124 173.358948 238.292307 173.296912 
C 238.256491 173.234876 238.217984 173.174432 238.176897 173.115754 
z
" clip-path="url(#p3ac236292a)" style="fill: #ffa500"/>
   </g>
   <g id="patch_23">
    <path d="M 236.16 174.528 
C 236.16 174.528 236.16 174.528 236.16 174.528 
C 236.16 174.528 236.16 174.528 236.16 174.528 
L 238.054809 173.644436 
C 238.029103 173.58931 238.001003 173.535331 237.970591 173.482655 
C 237.940178 173.429979 237.907481 173.378655 237.872593 173.32883 
z
" clip-path="url(#p3ac236292a)" style="fill: #008000"/>
   </g>
   <g id="patch_24">
    <path d="M 236.16 174.528 
C 236.16 174.528 236.16 174.528 236.16 174.528 
C 236.16 174.528 236.16 174.528 236.16 174.528 
L 244.079254 172.406042 
C 244.017519 172.175644 243.945758 171.94805 243.864178 171.723909 
C 243.782597 171.499768 243.691274 171.279294 243.590468 171.063116 
z
" clip-path="url(#p3ac236292a)" style="fill: #ff0000"/>
   </g>
   <g id="patch_25">
    <path d="M 236.16 174.528 
C 236.16 174.528 236.16 174.528 236.16 174.528 
C 236.16 174.528 236.16 174.528 236.16 174.528 
L 243.011114 172.69225 
C 242.957706 172.492927 242.895624 172.29603 242.825047 172.102121 
C 242.75447 171.908212 242.675464 171.717475 242.588256 171.530455 
z
" clip-path="url(#p3ac236292a)" style="fill: #ffa500"/>
   </g>
   <g id="patch_26">
    <path d="M 236.16 174.528 
C 236.16 174.528 236.16 174.528 236.16 174.528 
C 236.16 174.528 236.16 174.528 236.16 174.528 
L 240.07373 173.479319 
C 240.04322 173.365455 240.007756 173.252977 239.967439 173.142206 
C 239.927121 173.031434 239.881989 172.922475 239.83217 172.815639 
z
" clip-path="url(#p3ac236292a)" style="fill: #008000"/>
   </g>
   <g id="patch_27">
    <path d="M 236.16 174.528 
C 236.16 174.528 236.16 174.528 236.16 174.528 
C 236.16 174.528 236.16 174.528 236.16 174.528 
L 272.074256 171.38591 
C 271.982842 170.341041 271.845873 169.300658 271.66374 168.267733 
C 271.481607 167.234807 271.254485 166.210321 270.983019 165.1972 
z
" clip-path="url(#p3ac236292a)" style="fill: #ff0000"/>
   </g>
   <g id="patch_28">
    <path d="M 236.16 174.528 
C 236.16 174.528 236.16 174.528 236.16 174.528 
C 236.16 174.528 236.16 174.528 236.16 174.528 
L 261.454033 172.315059 
C 261.389651 171.579169 261.293185 170.846438 261.164911 170.11896 
C 261.036637 169.391481 260.876676 168.669946 260.685486 167.956416 
z
" clip-path="url(#p3ac236292a)" style="fill: #ffa500"/>
   </g>
   <g id="patch_29">
    <path d="M 236.16 174.528 
C 236.16 174.528 236.16 174.528 236.16 174.528 
C 236.16 174.528 236.16 174.528 236.16 174.528 
L 244.172502 173.826997 
C 244.152108 173.593886 244.12155 173.361775 244.080916 173.131329 
C 244.040282 172.900882 243.989611 172.672319 243.929047 172.44629 
z
" clip-path="url(#p3ac236292a)" style="fill: #008000"/>
   </g>
   <g id="patch_30">
    <path d="M 236.16 174.528 
C 236.16 174.528 236.16 174.528 236.16 174.528 
C 236.16 174.528 236.16 174.528 236.16 174.528 
L 311.336378 181.105081 
C 311.527728 178.917942 311.62354 176.723494 311.62354 174.528 
C 311.62354 172.332506 311.527728 170.138058 311.336378 167.950919 
z
" clip-path="url(#p3ac236292a)" style="fill: #ff0000"/>
   </g>
   <g id="patch_31">
    <path d="M 236.16 174.528 
C 236.16 174.528 236.16 174.528 236.16 174.528 
C 236.16 174.528 236.16 174.528 236.16 174.528 
L 289.372999 179.183534 
C 289.508444 177.635385 289.576264 176.082063 289.576264 174.528 
C 289.576264 172.973937 289.508444 171.420615 289.372999 169.872466 
z
" clip-path="url(#p3ac236292a)" style="fill: #ffa500"/>
   </g>
   <g id="patch_32">
    <path d="M 236.16 174.528 
C 236.16 174.528 236.16 174.528 236.16 174.528 
C 236.16 174.528 236.16 174.528 236.16 174.528 
L 251.272733 175.850193 
C 251.3112 175.410511 251.330461 174.969361 251.330461 174.528 
C 251.330461 174.086639 251.3112 173.645489 251.272733 173.205807 
z
" clip-path="url(#p3ac236292a)" style="fill: #008000"/>
   </g>
   <g id="patch_33">
    <path d="M 236.16 174.528 
C 236.16 174.528 236.16 174.528 236.16 174.528 
C 236.16 174.528 236.16 174.528 236.16 174.528 
L 286.145595 187.9216 
C 286.535261 186.467347 286.861277 184.996782 287.122714 183.514101 
C 287.38415 182.031421 287.580758 180.538037 287.711975 179.038213 
z
" clip-path="url(#p3ac236292a)" style="fill: #ff0000"/>
   </g>
   <g id="patch_34">
    <path d="M 236.16 174.528 
C 236.16 174.528 236.16 174.528 236.16 174.528 
C 236.16 174.528 236.16 174.528 236.16 174.528 
L 279.770137 186.213301 
C 280.110102 184.944532 280.394536 183.661532 280.622628 182.367961 
C 280.850719 181.07439 281.02225 179.771482 281.136732 178.462954 
z
" clip-path="url(#p3ac236292a)" style="fill: #ffa500"/>
   </g>
   <g id="patch_35">
    <path d="M 236.16 174.528 
C 236.16 174.528 236.16 174.528 236.16 174.528 
C 236.16 174.528 236.16 174.528 236.16 174.528 
L 253.667475 179.219114 
C 253.803956 178.709761 253.918143 178.194695 254.009712 177.675386 
C 254.10128 177.156076 254.170142 176.633018 254.216101 176.107704 
z
" clip-path="url(#p3ac236292a)" style="fill: #008000"/>
   </g>
   <g id="patch_36">
    <path d="M 236.16 174.528 
C 236.16 174.528 236.16 174.528 236.16 174.528 
C 236.16 174.528 236.16 174.528 236.16 174.528 
L 250.034383 180.997731 
C 250.22261 180.594078 250.393132 180.182402 250.545461 179.76388 
C 250.697791 179.345357 250.831784 178.920386 250.947057 178.49018 
z
" clip-path="url(#p3ac236292a)" style="fill: #ff0000"/>
   </g>
   <g id="patch_37">
    <path d="M 236.16 174.528 
C 236.16 174.528 236.16 174.528 236.16 174.528 
C 236.16 174.528 236.16 174.528 236.16 174.528 
L 249.885617 180.928361 
C 250.071826 180.529035 250.240519 180.121774 250.391216 179.707739 
C 250.541912 179.293704 250.674468 178.87329 250.788505 178.447696 
z
" clip-path="url(#p3ac236292a)" style="fill: #ffa500"/>
   </g>
   <g id="patch_38">
    <path d="M 236.16 174.528 
C 236.16 174.528 236.16 174.528 236.16 174.528 
C 236.16 174.528 236.16 174.528 236.16 174.528 
L 246.056851 179.142978 
C 246.191117 178.855044 246.312753 178.561389 246.421413 178.262849 
C 246.530072 177.964309 246.625652 177.66117 246.707878 177.354296 
z
" clip-path="url(#p3ac236292a)" style="fill: #008000"/>
   </g>
   <g id="patch_39">
    <path d="M 236.16 174.528 
C 236.16 174.528 236.16 174.528 236.16 174.528 
C 236.16 174.528 236.16 174.528 236.16 174.528 
L 240.094718 177.283119 
C 240.174874 177.168645 240.249996 177.050727 240.319869 176.929702 
C 240.389743 176.808677 240.454302 176.68466 240.513362 176.558006 
z
" clip-path="url(#p3ac236292a)" style="fill: #ff0000"/>
   </g>
   <g id="patch_40">
    <path d="M 236.16 174.528 
C 236.16 174.528 236.16 174.528 236.16 174.528 
C 236.16 174.528 236.16 174.528 236.16 174.528 
L 240.094718 177.283119 
C 240.174874 177.168645 240.249996 177.050727 240.319869 176.929702 
C 240.389743 176.808677 240.454302 176.68466 240.513362 176.558006 
z
" clip-path="url(#p3ac236292a)" style="fill: #ffa500"/>
   </g>
   <g id="patch_41">
    <path d="M 236.16 174.528 
C 236.16 174.528 236.16 174.528 236.16 174.528 
C 236.16 174.528 236.16 174.528 236.16 174.528 
L 239.797491 177.074998 
C 239.871592 176.969171 239.941039 176.860161 240.005635 176.748278 
C 240.07023 176.636395 240.129912 176.521747 240.184511 176.40466 
z
" clip-path="url(#p3ac236292a)" style="fill: #008000"/>
   </g>
   <g id="patch_42">
    <path d="M 236.16 174.528 
C 236.16 174.528 236.16 174.528 236.16 174.528 
C 236.16 174.528 236.16 174.528 236.16 174.528 
L 237.558926 175.926926 
C 237.599626 175.886226 237.63853 175.84377 237.675527 175.799678 
C 237.712525 175.755586 237.74758 175.709901 237.780594 175.662752 
z
" clip-path="url(#p3ac236292a)" style="fill: #ff0000"/>
   </g>
   <g id="patch_43">
    <path d="M 236.16 174.528 
C 236.16 174.528 236.16 174.528 236.16 174.528 
C 236.16 174.528 236.16 174.528 236.16 174.528 
L 237.558926 175.926926 
C 237.599626 175.886226 237.63853 175.84377 237.675527 175.799678 
C 237.712525 175.755586 237.74758 175.709901 237.780594 175.662752 
z
" clip-path="url(#p3ac236292a)" style="fill: #ffa500"/>
   </g>
   <g id="patch_44">
    <path d="M 236.16 174.528 
C 236.16 174.528 236.16 174.528 236.16 174.528 
C 236.16 174.528 236.16 174.528 236.16 174.528 
L 237.552817 175.920817 
C 237.593339 175.880295 237.632073 175.838024 237.668909 175.794125 
C 237.705745 175.750226 237.740648 175.70474 237.773517 175.657797 
z
" clip-path="url(#p3ac236292a)" style="fill: #008000"/>
   </g>
   <g id="patch_45">
    <path d="M 236.16 174.528 
C 236.16 174.528 236.16 174.528 236.16 174.528 
C 236.16 174.528 236.16 174.528 236.16 174.528 
L 236.714988 175.320605 
C 236.738048 175.304458 236.760392 175.287313 236.781956 175.269219 
C 236.803521 175.251124 236.824285 175.232096 236.844191 175.212191 
z
" clip-path="url(#p3ac236292a)" style="fill: #ff0000"/>
   </g>
   <g id="patch_46">
    <path d="M 236.16 174.528 
C 236.16 174.528 236.16 174.528 236.16 174.528 
C 236.16 174.528 236.16 174.528 236.16 174.528 
L 236.714988 175.320605 
C 236.738048 175.304458 236.760392 175.287313 236.781956 175.269219 
C 236.803521 175.251124 236.824285 175.232096 236.844191 175.212191 
z
" clip-path="url(#p3ac236292a)" style="fill: #ffa500"/>
   </g>
   <g id="patch_47">
    <path d="M 236.16 174.528 
C 236.16 174.528 236.16 174.528 236.16 174.528 
C 236.16 174.528 236.16 174.528 236.16 174.528 
L 236.710033 175.313528 
C 236.732886 175.297526 236.755031 175.280534 236.776403 175.2626 
C 236.797775 175.244667 236.818354 175.22581 236.838082 175.206082 
z
" clip-path="url(#p3ac236292a)" style="fill: #008000"/>
   </g>
   <g id="patch_48">
    <path d="M 236.16 174.528 
C 236.16 174.528 236.16 174.528 236.16 174.528 
C 236.16 174.528 236.16 174.528 236.16 174.528 
L 236.455738 175.162213 
C 236.47419 175.153609 236.492257 175.144204 236.509888 175.134024 
C 236.52752 175.123845 236.544698 175.112901 236.561375 175.101223 
z
" clip-path="url(#p3ac236292a)" style="fill: #ff0000"/>
   </g>
   <g id="patch_49">
    <path d="M 236.16 174.528 
C 236.16 174.528 236.16 174.528 236.16 174.528 
C 236.16 174.528 236.16 174.528 236.16 174.528 
L 236.455738 175.162213 
C 236.47419 175.153609 236.492257 175.144204 236.509888 175.134024 
C 236.52752 175.123845 236.544698 175.112901 236.561375 175.101223 
z
" clip-path="url(#p3ac236292a)" style="fill: #ffa500"/>
   </g>
   <g id="patch_50">
    <path d="M 236.16 174.528 
C 236.16 174.528 236.16 174.528 236.16 174.528 
C 236.16 174.528 236.16 174.528 236.16 174.528 
L 236.455738 175.162213 
C 236.47419 175.153609 236.492257 175.144204 236.509888 175.134024 
C 236.52752 175.123845 236.544698 175.112901 236.561375 175.101223 
z
" clip-path="url(#p3ac236292a)" style="fill: #008000"/>
   </g>
   <g id="patch_51">
    <path d="M 236.16 174.528 
C 236.16 174.528 236.16 174.528 236.16 174.528 
C 236.16 174.528 236.16 174.528 236.16 174.528 
L 236.531175 175.913244 
C 236.571476 175.902445 236.611287 175.889892 236.650494 175.875622 
C 236.689701 175.861352 236.728267 175.845378 236.766081 175.827745 
z
" clip-path="url(#p3ac236292a)" style="fill: #ff0000"/>
   </g>
   <g id="patch_52">
    <path d="M 236.16 174.528 
C 236.16 174.528 236.16 174.528 236.16 174.528 
C 236.16 174.528 236.16 174.528 236.16 174.528 
L 236.531175 175.913244 
C 236.571476 175.902445 236.611287 175.889892 236.650494 175.875622 
C 236.689701 175.861352 236.728267 175.845378 236.766081 175.827745 
z
" clip-path="url(#p3ac236292a)" style="fill: #ffa500"/>
   </g>
   <g id="patch_53">
    <path d="M 236.16 174.528 
C 236.16 174.528 236.16 174.528 236.16 174.528 
C 236.16 174.528 236.16 174.528 236.16 174.528 
L 236.531175 175.913244 
C 236.571476 175.902445 236.611287 175.889892 236.650494 175.875622 
C 236.689701 175.861352 236.728267 175.845378 236.766081 175.827745 
z
" clip-path="url(#p3ac236292a)" style="fill: #008000"/>
   </g>
   <g id="patch_54">
    <path d="M 236.16 174.528 
C 236.16 174.528 236.16 174.528 236.16 174.528 
C 236.16 174.528 236.16 174.528 236.16 174.528 
L 236.475489 178.134056 
C 236.580402 178.124878 236.684864 178.111125 236.788577 178.092838 
C 236.89229 178.07455 236.995156 178.051745 237.096881 178.024488 
z
" clip-path="url(#p3ac236292a)" style="fill: #ff0000"/>
   </g>
   <g id="patch_55">
    <path d="M 236.16 174.528 
C 236.16 174.528 236.16 174.528 236.16 174.528 
C 236.16 174.528 236.16 174.528 236.16 174.528 
L 236.475489 178.134056 
C 236.580402 178.124878 236.684864 178.111125 236.788577 178.092838 
C 236.89229 178.07455 236.995156 178.051745 237.096881 178.024488 
z
" clip-path="url(#p3ac236292a)" style="fill: #ffa500"/>
   </g>
   <g id="patch_56">
    <path d="M 236.16 174.528 
C 236.16 174.528 236.16 174.528 236.16 174.528 
C 236.16 174.528 236.16 174.528 236.16 174.528 
L 236.475489 178.134056 
C 236.580402 178.124878 236.684864 178.111125 236.788577 178.092838 
C 236.89229 178.07455 236.995156 178.051745 237.096881 178.024488 
z
" clip-path="url(#p3ac236292a)" style="fill: #008000"/>
   </g>
   <g id="patch_57">
    <path d="M 236.16 174.528 
C 236.16 174.528 236.16 174.528 236.16 174.528 
C 236.16 174.528 236.16 174.528 236.16 174.528 
L 235.705967 179.717623 
C 235.856951 179.730832 236.008439 179.737446 236.16 179.737446 
C 236.311561 179.737446 236.463049 179.730832 236.614033 179.717623 
z
" clip-path="url(#p3ac236292a)" style="fill: #ff0000"/>
   </g>
   <g id="patch_58">
    <path d="M 236.16 174.528 
C 236.16 174.528 236.16 174.528 236.16 174.528 
C 236.16 174.528 236.16 174.528 236.16 174.528 
L 235.705967 179.717623 
C 235.856951 179.730832 236.008439 179.737446 236.16 179.737446 
C 236.311561 179.737446 236.463049 179.730832 236.614033 179.717623 
z
" clip-path="url(#p3ac236292a)" style="fill: #ffa500"/>
   </g>
   <g id="patch_59">
    <path d="M 236.16 174.528 
C 236.16 174.528 236.16 174.528 236.16 174.528 
C 236.16 174.528 236.16 174.528 236.16 174.528 
L 235.705967 179.717623 
C 235.856951 179.730832 236.008439 179.737446 236.16 179.737446 
C 236.311561 179.737446 236.463049 179.730832 236.614033 179.717623 
z
" clip-path="url(#p3ac236292a)" style="fill: #008000"/>
   </g>
   <g id="patch_60">
    <path d="M 236.16 174.528 
C 236.16 174.528 236.16 174.528 236.16 174.528 
C 236.16 174.528 236.16 174.528 236.16 174.528 
L 235.404234 177.348556 
C 235.486294 177.370544 235.569274 177.38894 235.652938 177.403692 
C 235.736602 177.418445 235.820869 177.429539 235.9055 177.436943 
z
" clip-path="url(#p3ac236292a)" style="fill: #ff0000"/>
   </g>
   <g id="patch_61">
    <path d="M 236.16 174.528 
C 236.16 174.528 236.16 174.528 236.16 174.528 
C 236.16 174.528 236.16 174.528 236.16 174.528 
L 235.40647 177.340211 
C 235.488287 177.362134 235.571022 177.380476 235.654438 177.395184 
C 235.737854 177.409893 235.821873 177.420954 235.906253 177.428337 
z
" clip-path="url(#p3ac236292a)" style="fill: #ffa500"/>
   </g>
   <g id="patch_62">
    <path d="M 236.16 174.528 
C 236.16 174.528 236.16 174.528 236.16 174.528 
C 236.16 174.528 236.16 174.528 236.16 174.528 
L 235.40647 177.340211 
C 235.488287 177.362134 235.571022 177.380476 235.654438 177.395184 
C 235.737854 177.409893 235.821873 177.420954 235.906253 177.428337 
z
" clip-path="url(#p3ac236292a)" style="fill: #008000"/>
   </g>
   <g id="patch_63">
    <path d="M 236.16 174.528 
C 236.16 174.528 236.16 174.528 236.16 174.528 
C 236.16 174.528 236.16 174.528 236.16 174.528 
L 235.521059 175.898213 
C 235.560923 175.916802 235.60158 175.933642 235.642913 175.948686 
C 235.684245 175.96373 235.726215 175.976963 235.768701 175.988347 
z
" clip-path="url(#p3ac236292a)" style="fill: #ff0000"/>
   </g>
   <g id="patch_64">
    <path d="M 236.16 174.528 
C 236.16 174.528 236.16 174.528 236.16 174.528 
C 236.16 174.528 236.16 174.528 236.16 174.528 
L 235.521059 175.898213 
C 235.560923 175.916802 235.60158 175.933642 235.642913 175.948686 
C 235.684245 175.96373 235.726215 175.976963 235.768701 175.988347 
z
" clip-path="url(#p3ac236292a)" style="fill: #ffa500"/>
   </g>
   <g id="patch_65">
    <path d="M 236.16 174.528 
C 236.16 174.528 236.16 174.528 236.16 174.528 
C 236.16 174.528 236.16 174.528 236.16 174.528 
L 235.52471 175.890383 
C 235.564347 175.908866 235.604771 175.92561 235.645867 175.940568 
C 235.686964 175.955526 235.728693 175.968683 235.770937 175.980002 
z
" clip-path="url(#p3ac236292a)" style="fill: #008000"/>
   </g>
   <g id="patch_66">
    <path d="M 236.16 174.528 
C 236.16 174.528 236.16 174.528 236.16 174.528 
C 236.16 174.528 236.16 174.528 236.16 174.528 
L 235.46131 175.525833 
C 235.49034 175.54616 235.520244 175.565211 235.550935 175.582931 
C 235.581627 175.600651 235.613077 175.617023 235.645196 175.632 
z
" clip-path="url(#p3ac236292a)" style="fill: #ff0000"/>
   </g>
   <g id="patch_67">
    <path d="M 236.16 174.528 
C 236.16 174.528 236.16 174.528 236.16 174.528 
C 236.16 174.528 236.16 174.528 236.16 174.528 
L 235.46131 175.525833 
C 235.49034 175.54616 235.520244 175.565211 235.550935 175.582931 
C 235.581627 175.600651 235.613077 175.617023 235.645196 175.632 
z
" clip-path="url(#p3ac236292a)" style="fill: #ffa500"/>
   </g>
   <g id="patch_68">
    <path d="M 236.16 174.528 
C 236.16 174.528 236.16 174.528 236.16 174.528 
C 236.16 174.528 236.16 174.528 236.16 174.528 
L 235.466265 175.518756 
C 235.49509 175.538939 235.524781 175.557855 235.555255 175.575449 
C 235.585729 175.593043 235.616956 175.609299 235.648847 175.62417 
z
" clip-path="url(#p3ac236292a)" style="fill: #008000"/>
   </g>
   <g id="patch_69">
    <path d="M 236.16 174.528 
C 236.16 174.528 236.16 174.528 236.16 174.528 
C 236.16 174.528 236.16 174.528 236.16 174.528 
L 234.736639 175.951361 
C 234.778049 175.992772 234.821247 176.032355 234.866109 176.069999 
C 234.910971 176.107643 234.957455 176.143311 235.005427 176.176901 
z
" clip-path="url(#p3ac236292a)" style="fill: #ff0000"/>
   </g>
   <g id="patch_70">
    <path d="M 236.16 174.528 
C 236.16 174.528 236.16 174.528 236.16 174.528 
C 236.16 174.528 236.16 174.528 236.16 174.528 
L 234.736639 175.951361 
C 234.778049 175.992772 234.821247 176.032355 234.866109 176.069999 
C 234.910971 176.107643 234.957455 176.143311 235.005427 176.176901 
z
" clip-path="url(#p3ac236292a)" style="fill: #ffa500"/>
   </g>
   <g id="patch_71">
    <path d="M 236.16 174.528 
C 236.16 174.528 236.16 174.528 236.16 174.528 
C 236.16 174.528 236.16 174.528 236.16 174.528 
L 234.742747 175.945253 
C 234.78398 175.986485 234.826993 176.025899 234.871662 176.063381 
C 234.916332 176.100863 234.962616 176.136378 235.010382 176.169825 
z
" clip-path="url(#p3ac236292a)" style="fill: #008000"/>
   </g>
   <g id="patch_72">
    <path d="M 236.16 174.528 
C 236.16 174.528 236.16 174.528 236.16 174.528 
C 236.16 174.528 236.16 174.528 236.16 174.528 
L 233.265576 176.554697 
C 233.32454 176.638906 233.38715 176.720501 233.453229 176.799251 
C 233.519307 176.878 233.588791 176.953828 233.661481 177.026519 
z
" clip-path="url(#p3ac236292a)" style="fill: #ff0000"/>
   </g>
   <g id="patch_73">
    <path d="M 236.16 174.528 
C 236.16 174.528 236.16 174.528 236.16 174.528 
C 236.16 174.528 236.16 174.528 236.16 174.528 
L 233.265576 176.554697 
C 233.32454 176.638906 233.38715 176.720501 233.453229 176.799251 
C 233.519307 176.878 233.588791 176.953828 233.661481 177.026519 
z
" clip-path="url(#p3ac236292a)" style="fill: #ffa500"/>
   </g>
   <g id="patch_74">
    <path d="M 236.16 174.528 
C 236.16 174.528 236.16 174.528 236.16 174.528 
C 236.16 174.528 236.16 174.528 236.16 174.528 
L 233.329268 176.5101 
C 233.386934 176.592456 233.448167 176.672256 233.512791 176.749272 
C 233.577415 176.826288 233.64537 176.900448 233.716461 176.971539 
z
" clip-path="url(#p3ac236292a)" style="fill: #008000"/>
   </g>
   <g id="patch_75">
    <path d="M 236.16 174.528 
C 236.16 174.528 236.16 174.528 236.16 174.528 
C 236.16 174.528 236.16 174.528 236.16 174.528 
L 231.697021 176.609121 
C 231.757568 176.738965 231.823753 176.866104 231.895386 176.990176 
C 231.967019 177.114248 232.044033 177.235136 232.126207 177.352492 
z
" clip-path="url(#p3ac236292a)" style="fill: #ff0000"/>
   </g>
   <g id="patch_76">
    <path d="M 236.16 174.528 
C 236.16 174.528 236.16 174.528 236.16 174.528 
C 236.16 174.528 236.16 174.528 236.16 174.528 
L 231.704851 176.60547 
C 231.765292 176.735086 231.83136 176.862002 231.902868 176.985857 
C 231.974375 177.109711 232.051254 177.230386 232.133284 177.347537 
z
" clip-path="url(#p3ac236292a)" style="fill: #ffa500"/>
   </g>
   <g id="patch_77">
    <path d="M 236.16 174.528 
C 236.16 174.528 236.16 174.528 236.16 174.528 
C 236.16 174.528 236.16 174.528 236.16 174.528 
L 231.947574 176.492286 
C 232.004722 176.61484 232.067191 176.734842 232.134803 176.851949 
C 232.202414 176.969056 232.275104 177.083156 232.352665 177.193924 
z
" clip-path="url(#p3ac236292a)" style="fill: #008000"/>
   </g>
   <g id="patch_78">
    <path d="M 236.16 174.528 
C 236.16 174.528 236.16 174.528 236.16 174.528 
C 236.16 174.528 236.16 174.528 236.16 174.528 
L 224.90281 177.544355 
C 224.990566 177.871865 225.092573 178.19539 225.20854 178.514006 
C 225.324506 178.832621 225.454322 179.146024 225.597617 179.45332 
z
" clip-path="url(#p3ac236292a)" style="fill: #ff0000"/>
   </g>
   <g id="patch_79">
    <path d="M 236.16 174.528 
C 236.16 174.528 236.16 174.528 236.16 174.528 
C 236.16 174.528 236.16 174.528 236.16 174.528 
L 224.93619 177.535411 
C 225.023685 177.86195 225.12539 178.184516 225.241013 178.502186 
C 225.356635 178.819857 225.486066 179.132331 225.628936 179.438716 
z
" clip-path="url(#p3ac236292a)" style="fill: #ffa500"/>
   </g>
   <g id="patch_80">
    <path d="M 236.16 174.528 
C 236.16 174.528 236.16 174.528 236.16 174.528 
C 236.16 174.528 236.16 174.528 236.16 174.528 
L 226.112812 177.220136 
C 226.191135 177.512443 226.282178 177.801193 226.38568 178.085562 
C 226.489181 178.36993 226.605044 178.649647 226.732936 178.923912 
z
" clip-path="url(#p3ac236292a)" style="fill: #008000"/>
   </g>
   <g id="patch_81">
    <path d="M 236.16 174.528 
C 236.16 174.528 236.16 174.528 236.16 174.528 
C 236.16 174.528 236.16 174.528 236.16 174.528 
L 201.063346 177.598559 
C 201.152679 178.619642 201.28653 179.636339 201.464517 180.64575 
C 201.642503 181.655161 201.864455 182.656323 202.12974 183.646381 
z
" clip-path="url(#p3ac236292a)" style="fill: #ff0000"/>
   </g>
   <g id="patch_82">
    <path d="M 236.16 174.528 
C 236.16 174.528 236.16 174.528 236.16 174.528 
C 236.16 174.528 236.16 174.528 236.16 174.528 
L 201.295717 177.578229 
C 201.384459 178.592551 201.517424 179.602517 201.694232 180.605245 
C 201.87104 181.607972 202.091522 182.602507 202.355051 183.586009 
z
" clip-path="url(#p3ac236292a)" style="fill: #ffa500"/>
   </g>
   <g id="patch_83">
    <path d="M 236.16 174.528 
C 236.16 174.528 236.16 174.528 236.16 174.528 
C 236.16 174.528 236.16 174.528 236.16 174.528 
L 209.859026 176.829037 
C 209.925971 177.594223 210.026277 178.356123 210.159657 179.112562 
C 210.293038 179.869001 210.459366 180.61926 210.658167 181.361195 
z
" clip-path="url(#p3ac236292a)" style="fill: #008000"/>
   </g>
   <g id="patch_84">
    <path d="M 236.16 174.528 
C 236.16 174.528 236.16 174.528 236.16 174.528 
C 236.16 174.528 236.16 174.528 236.16 174.528 
L 156.82676 167.587241 
C 156.624829 169.895317 156.52372 172.211107 156.52372 174.528 
C 156.52372 176.844893 156.624829 179.160683 156.82676 181.468759 
z
" clip-path="url(#p3ac236292a)" style="fill: #ff0000"/>
   </g>
   <g id="patch_85">
    <path d="M 236.16 174.528 
C 236.16 174.528 236.16 174.528 236.16 174.528 
C 236.16 174.528 236.16 174.528 236.16 174.528 
L 159.735703 167.84174 
C 159.541176 170.065186 159.443774 172.296061 159.443774 174.528 
C 159.443774 176.759939 159.541176 178.990814 159.735703 181.21426 
z
" clip-path="url(#p3ac236292a)" style="fill: #ffa500"/>
   </g>
   <g id="patch_86">
    <path d="M 236.16 174.528 
C 236.16 174.528 236.16 174.528 236.16 174.528 
C 236.16 174.528 236.16 174.528 236.16 174.528 
L 194.333189 170.868628 
C 194.226725 172.085514 194.173417 173.306466 194.173417 174.528 
C 194.173417 175.749534 194.226725 176.970486 194.333189 178.187372 
z
" clip-path="url(#p3ac236292a)" style="fill: #008000"/>
   </g>
   <g id="patch_87">
    <path d="M 236.16 174.528 
C 236.16 174.528 236.16 174.528 236.16 174.528 
C 236.16 174.528 236.16 174.528 236.16 174.528 
L 113.757879 141.730451 
C 112.803686 145.291549 112.005354 148.892592 111.365162 152.523303 
C 110.724969 156.154013 110.243527 159.810933 109.922208 163.483624 
z
" clip-path="url(#p3ac236292a)" style="fill: #ff0000"/>
   </g>
   <g id="patch_88">
    <path d="M 236.16 174.528 
C 236.16 174.528 236.16 174.528 236.16 174.528 
C 236.16 174.528 236.16 174.528 236.16 174.528 
L 128.10266 145.574123 
C 127.260292 148.717882 126.55552 151.896906 125.990354 155.102119 
C 125.425189 158.307332 125.000168 161.535684 124.716506 164.777958 
z
" clip-path="url(#p3ac236292a)" style="fill: #ffa500"/>
   </g>
   <g id="patch_89">
    <path d="M 236.16 174.528 
C 236.16 174.528 236.16 174.528 236.16 174.528 
C 236.16 174.528 236.16 174.528 236.16 174.528 
L 198.716701 164.495098 
C 198.424809 165.584452 198.180596 166.686026 197.984759 167.796675 
C 197.788921 168.907324 197.641646 170.02599 197.543353 171.149481 
z
" clip-path="url(#p3ac236292a)" style="fill: #008000"/>
   </g>
   <g id="patch_90">
    <path d="M 236.16 174.528 
C 236.16 174.528 236.16 174.528 236.16 174.528 
C 236.16 174.528 236.16 174.528 236.16 174.528 
L 143.29872 131.226074 
C 142.038919 133.927728 140.897617 136.683073 139.878074 139.484245 
C 138.858531 142.285417 137.961717 145.129748 137.190191 148.00912 
z
" clip-path="url(#p3ac236292a)" style="fill: #ff0000"/>
   </g>
   <g id="patch_91">
    <path d="M 236.16 174.528 
C 236.16 174.528 236.16 174.528 236.16 174.528 
C 236.16 174.528 236.16 174.528 236.16 174.528 
L 162.982806 140.404914 
C 161.990048 142.53389 161.090672 144.705176 160.287245 146.912575 
C 159.483817 149.119975 158.777103 151.361384 158.169121 153.630407 
z
" clip-path="url(#p3ac236292a)" style="fill: #ffa500"/>
   </g>
   <g id="patch_92">
    <path d="M 236.16 174.528 
C 236.16 174.528 236.16 174.528 236.16 174.528 
C 236.16 174.528 236.16 174.528 236.16 174.528 
L 215.606808 164.943889 
C 215.327973 165.541852 215.075366 166.151699 214.849709 166.771688 
C 214.624051 167.391678 214.425557 168.02122 214.254794 168.658518 
z
" clip-path="url(#p3ac236292a)" style="fill: #008000"/>
   </g>
   <g id="patch_93">
    <path d="M 236.16 174.528 
C 236.16 174.528 236.16 174.528 236.16 174.528 
C 236.16 174.528 236.16 174.528 236.16 174.528 
L 198.766029 148.344459 
C 198.004259 149.432378 197.29033 150.553023 196.626278 151.703195 
C 195.962226 152.853367 195.348684 154.03197 194.787403 155.235641 
z
" clip-path="url(#p3ac236292a)" style="fill: #ff0000"/>
   </g>
   <g id="patch_94">
    <path d="M 236.16 174.528 
C 236.16 174.528 236.16 174.528 236.16 174.528 
C 236.16 174.528 236.16 174.528 236.16 174.528 
L 208.100368 154.880434 
C 207.528753 155.696785 206.993035 156.537693 206.494745 157.400757 
C 205.996455 158.263821 205.536066 159.14822 205.114893 160.051429 
z
" clip-path="url(#p3ac236292a)" style="fill: #ffa500"/>
   </g>
   <g id="patch_95">
    <path d="M 236.16 174.528 
C 236.16 174.528 236.16 174.528 236.16 174.528 
C 236.16 174.528 236.16 174.528 236.16 174.528 
L 227.816417 168.68576 
C 227.646446 168.928504 227.48715 169.178549 227.338982 169.435183 
C 227.190815 169.691817 227.053917 169.954794 226.928681 170.223365 
z
" clip-path="url(#p3ac236292a)" style="fill: #008000"/>
   </g>
   <g id="patch_96">
    <path d="M 236.16 174.528 
C 236.16 174.528 236.16 174.528 236.16 174.528 
C 236.16 174.528 236.16 174.528 236.16 174.528 
L 225.274034 163.642034 
C 224.957324 163.958744 224.654586 164.289125 224.366684 164.632233 
C 224.078782 164.975341 223.805991 165.33085 223.549088 165.697745 
z
" clip-path="url(#p3ac236292a)" style="fill: #ff0000"/>
   </g>
   <g id="patch_97">
    <path d="M 236.16 174.528 
C 236.16 174.528 236.16 174.528 236.16 174.528 
C 236.16 174.528 236.16 174.528 236.16 174.528 
L 227.479328 165.847328 
C 227.226778 166.099879 226.985369 166.36333 226.75579 166.636931 
C 226.526212 166.910532 226.308683 167.194021 226.103824 167.48659 
z
" clip-path="url(#p3ac236292a)" style="fill: #ffa500"/>
   </g>
   <g id="patch_98">
    <path d="M 236.16 174.528 
C 236.16 174.528 236.16 174.528 236.16 174.528 
C 236.16 174.528 236.16 174.528 236.16 174.528 
L 233.233862 171.601862 
C 233.148731 171.686994 233.067355 171.7758 232.989967 171.868027 
C 232.91258 171.960254 232.839253 172.055814 232.770198 172.154435 
z
" clip-path="url(#p3ac236292a)" style="fill: #008000"/>
   </g>
   <g id="patch_99">
    <path d="M 236.16 174.528 
C 236.16 174.528 236.16 174.528 236.16 174.528 
C 236.16 174.528 236.16 174.528 236.16 174.528 
L 233.444523 170.649897 
C 233.331696 170.7289 233.22237 170.812788 233.116857 170.901324 
C 233.011345 170.989859 232.909746 171.082957 232.812352 171.180352 
z
" clip-path="url(#p3ac236292a)" style="fill: #ff0000"/>
   </g>
   <g id="patch_100">
    <path d="M 236.16 174.528 
C 236.16 174.528 236.16 174.528 236.16 174.528 
C 236.16 174.528 236.16 174.528 236.16 174.528 
L 233.652644 170.947124 
C 233.548464 171.020071 233.447517 171.097531 233.350091 171.179281 
C 233.252665 171.261031 233.158853 171.346993 233.068923 171.436923 
z
" clip-path="url(#p3ac236292a)" style="fill: #ffa500"/>
   </g>
   <g id="patch_101">
    <path d="M 236.16 174.528 
C 236.16 174.528 236.16 174.528 236.16 174.528 
C 236.16 174.528 236.16 174.528 236.16 174.528 
L 235.054979 172.949867 
C 235.009066 172.982016 234.964577 173.016153 234.921641 173.052181 
C 234.878704 173.088209 234.83736 173.126094 234.797727 173.165727 
z
" clip-path="url(#p3ac236292a)" style="fill: #008000"/>
   </g>
   <g id="patch_102">
    <path d="M 236.16 174.528 
C 236.16 174.528 236.16 174.528 236.16 174.528 
C 236.16 174.528 236.16 174.528 236.16 174.528 
L 235.510106 173.134298 
C 235.469558 173.153205 235.429855 173.173874 235.39111 173.196243 
C 235.352365 173.218613 235.314614 173.242663 235.277966 173.268324 
z
" clip-path="url(#p3ac236292a)" style="fill: #ff0000"/>
   </g>
   <g id="patch_103">
    <path d="M 236.16 174.528 
C 236.16 174.528 236.16 174.528 236.16 174.528 
C 236.16 174.528 236.16 174.528 236.16 174.528 
L 235.553919 173.228255 
C 235.516105 173.245888 235.479079 173.265163 235.442945 173.286025 
C 235.406812 173.306886 235.371606 173.329315 235.337429 173.353246 
z
" clip-path="url(#p3ac236292a)" style="fill: #ffa500"/>
   </g>
   <g id="patch_104">
    <path d="M 236.16 174.528 
C 236.16 174.528 236.16 174.528 236.16 174.528 
C 236.16 174.528 236.16 174.528 236.16 174.528 
L 235.754729 173.658894 
C 235.729444 173.670684 235.704685 173.683573 235.680524 173.697522 
C 235.656362 173.711472 235.632821 173.726469 235.609967 173.742472 
z
" clip-path="url(#p3ac236292a)" style="fill: #008000"/>
   </g>
   <g id="patch_105">
    <path d="M 236.16 174.528 
C 236.16 174.528 236.16 174.528 236.16 174.528 
C 236.16 174.528 236.16 174.528 236.16 174.528 
L 235.947581 173.73524 
C 235.924517 173.74142 235.901733 173.748604 235.879295 173.75677 
C 235.856858 173.764937 235.834787 173.774079 235.813146 173.78417 
z
" clip-path="url(#p3ac236292a)" style="fill: #ff0000"/>
   </g>
   <g id="patch_106">
    <path d="M 236.16 174.528 
C 236.16 174.528 236.16 174.528 236.16 174.528 
C 236.16 174.528 236.16 174.528 236.16 174.528 
L 235.952053 173.75193 
C 235.929474 173.75798 235.90717 173.765012 235.885205 173.773007 
C 235.86324 173.781002 235.841634 173.789951 235.820449 173.79983 
z
" clip-path="url(#p3ac236292a)" style="fill: #ffa500"/>
   </g>
   <g id="patch_107">
    <path d="M 236.16 174.528 
C 236.16 174.528 236.16 174.528 236.16 174.528 
C 236.16 174.528 236.16 174.528 236.16 174.528 
L 235.985593 173.877102 
C 235.966656 173.882177 235.947949 173.888075 235.929527 173.89478 
C 235.911104 173.901485 235.892983 173.908991 235.875215 173.917277 
z
" clip-path="url(#p3ac236292a)" style="fill: #008000"/>
   </g>
   <g id="patch_108">
    <path d="M 236.16 174.528 
C 236.16 174.528 236.16 174.528 236.16 174.528 
C 236.16 174.528 236.16 174.528 236.16 174.528 
L 236.124611 174.123502 
C 236.112843 174.124532 236.101125 174.126074 236.089491 174.128126 
C 236.077858 174.130177 236.066319 174.132735 236.054908 174.135792 
z
" clip-path="url(#p3ac236292a)" style="fill: #ff0000"/>
   </g>
   <g id="patch_109">
    <path d="M 236.16 174.528 
C 236.16 174.528 236.16 174.528 236.16 174.528 
C 236.16 174.528 236.16 174.528 236.16 174.528 
L 236.124611 174.123502 
C 236.112843 174.124532 236.101125 174.126074 236.089491 174.128126 
C 236.077858 174.130177 236.066319 174.132735 236.054908 174.135792 
z
" clip-path="url(#p3ac236292a)" style="fill: #ffa500"/>
   </g>
   <g id="patch_110">
    <path d="M 236.16 174.528 
C 236.16 174.528 236.16 174.528 236.16 174.528 
C 236.16 174.528 236.16 174.528 236.16 174.528 
L 236.12687 174.149321 
C 236.115853 174.150285 236.104883 174.151729 236.093992 174.15365 
C 236.083101 174.15557 236.072299 174.157965 236.061616 174.160827 
z
" clip-path="url(#p3ac236292a)" style="fill: #008000"/>
   </g>
   <g id="matplotlib.axis_1">
    <g id="xtick_1">
     <g id="line2d_1">
      <path d="M 236.16 174.528 
L 236.16 41.472 
" clip-path="url(#p3ac236292a)" style="fill: none; stroke: #b0b0b0; stroke-width: 0.8; stroke-linecap: square"/>
     </g>
     <g id="text_1">
      <!-- 0° -->
      <g transform="translate(230.47875 30.231375) scale(0.1 -0.1)">
       <defs>
        <path id="DejaVuSans-30" d="M 2034 4250 
Q 1547 4250 1301 3770 
Q 1056 3291 1056 2328 
Q 1056 1369 1301 889 
Q 1547 409 2034 409 
Q 2525 409 2770 889 
Q 3016 1369 3016 2328 
Q 3016 3291 2770 3770 
Q 2525 4250 2034 4250 
z
M 2034 4750 
Q 2819 4750 3233 4129 
Q 3647 3509 3647 2328 
Q 3647 1150 3233 529 
Q 2819 -91 2034 -91 
Q 1250 -91 836 529 
Q 422 1150 422 2328 
Q 422 3509 836 4129 
Q 1250 4750 2034 4750 
z
" transform="scale(0.015625)"/>
        <path id="DejaVuSans-b0" d="M 1600 4347 
Q 1350 4347 1178 4173 
Q 1006 4000 1006 3750 
Q 1006 3503 1178 3333 
Q 1350 3163 1600 3163 
Q 1850 3163 2022 3333 
Q 2194 3503 2194 3750 
Q 2194 3997 2020 4172 
Q 1847 4347 1600 4347 
z
M 1600 4750 
Q 1800 4750 1984 4673 
Q 2169 4597 2303 4453 
Q 2447 4313 2519 4134 
Q 2591 3956 2591 3750 
Q 2591 3338 2302 3052 
Q 2013 2766 1594 2766 
Q 1172 2766 890 3047 
Q 609 3328 609 3750 
Q 609 4169 896 4459 
Q 1184 4750 1600 4750 
z
" transform="scale(0.015625)"/>
       </defs>
       <use xlink:href="#DejaVuSans-30"/>
       <use xlink:href="#DejaVuSans-b0" x="63.623047"/>
      </g>
     </g>
    </g>
    <g id="xtick_2">
     <g id="line2d_2">
      <path d="M 236.16 174.528 
L 330.2448 80.4432 
" clip-path="url(#p3ac236292a)" style="fill: none; stroke: #b0b0b0; stroke-width: 0.8; stroke-linecap: square"/>
     </g>
     <g id="text_2">
      <!-- 45° -->
      <g transform="translate(331.281795 73.30308) scale(0.1 -0.1)">
       <defs>
        <path id="DejaVuSans-34" d="M 2419 4116 
L 825 1625 
L 2419 1625 
L 2419 4116 
z
M 2253 4666 
L 3047 4666 
L 3047 1625 
L 3713 1625 
L 3713 1100 
L 3047 1100 
L 3047 0 
L 2419 0 
L 2419 1100 
L 313 1100 
L 313 1709 
L 2253 4666 
z
" transform="scale(0.015625)"/>
        <path id="DejaVuSans-35" d="M 691 4666 
L 3169 4666 
L 3169 4134 
L 1269 4134 
L 1269 2991 
Q 1406 3038 1543 3061 
Q 1681 3084 1819 3084 
Q 2600 3084 3056 2656 
Q 3513 2228 3513 1497 
Q 3513 744 3044 326 
Q 2575 -91 1722 -91 
Q 1428 -91 1123 -41 
Q 819 9 494 109 
L 494 744 
Q 775 591 1075 516 
Q 1375 441 1709 441 
Q 2250 441 2565 725 
Q 2881 1009 2881 1497 
Q 2881 1984 2565 2268 
Q 2250 2553 1709 2553 
Q 1456 2553 1204 2497 
Q 953 2441 691 2322 
L 691 4666 
z
" transform="scale(0.015625)"/>
       </defs>
       <use xlink:href="#DejaVuSans-34"/>
       <use xlink:href="#DejaVuSans-35" x="63.623047"/>
       <use xlink:href="#DejaVuSans-b0" x="127.246094"/>
      </g>
     </g>
    </g>
    <g id="xtick_3">
     <g id="line2d_3">
      <path d="M 236.16 174.528 
L 369.216 174.528 
" clip-path="url(#p3ac236292a)" style="fill: none; stroke: #b0b0b0; stroke-width: 0.8; stroke-linecap: square"/>
     </g>
     <g id="text_3">
      <!-- 90° -->
      <g transform="translate(374.3535 177.287375) scale(0.1 -0.1)">
       <defs>
        <path id="DejaVuSans-39" d="M 703 97 
L 703 672 
Q 941 559 1184 500 
Q 1428 441 1663 441 
Q 2288 441 2617 861 
Q 2947 1281 2994 2138 
Q 2813 1869 2534 1725 
Q 2256 1581 1919 1581 
Q 1219 1581 811 2004 
Q 403 2428 403 3163 
Q 403 3881 828 4315 
Q 1253 4750 1959 4750 
Q 2769 4750 3195 4129 
Q 3622 3509 3622 2328 
Q 3622 1225 3098 567 
Q 2575 -91 1691 -91 
Q 1453 -91 1209 -44 
Q 966 3 703 97 
z
M 1959 2075 
Q 2384 2075 2632 2365 
Q 2881 2656 2881 3163 
Q 2881 3666 2632 3958 
Q 2384 4250 1959 4250 
Q 1534 4250 1286 3958 
Q 1038 3666 1038 3163 
Q 1038 2656 1286 2365 
Q 1534 2075 1959 2075 
z
" transform="scale(0.015625)"/>
       </defs>
       <use xlink:href="#DejaVuSans-39"/>
       <use xlink:href="#DejaVuSans-30" x="63.623047"/>
       <use xlink:href="#DejaVuSans-b0" x="127.246094"/>
      </g>
     </g>
    </g>
    <g id="xtick_4">
     <g id="line2d_4">
      <path d="M 236.16 174.528 
L 330.2448 268.6128 
" clip-path="url(#p3ac236292a)" style="fill: none; stroke: #b0b0b0; stroke-width: 0.8; stroke-linecap: square"/>
     </g>
     <g id="text_4">
      <!-- 135° -->
      <g transform="translate(328.100545 281.27167) scale(0.1 -0.1)">
       <defs>
        <path id="DejaVuSans-31" d="M 794 531 
L 1825 531 
L 1825 4091 
L 703 3866 
L 703 4441 
L 1819 4666 
L 2450 4666 
L 2450 531 
L 3481 531 
L 3481 0 
L 794 0 
L 794 531 
z
" transform="scale(0.015625)"/>
        <path id="DejaVuSans-33" d="M 2597 2516 
Q 3050 2419 3304 2112 
Q 3559 1806 3559 1356 
Q 3559 666 3084 287 
Q 2609 -91 1734 -91 
Q 1441 -91 1130 -33 
Q 819 25 488 141 
L 488 750 
Q 750 597 1062 519 
Q 1375 441 1716 441 
Q 2309 441 2620 675 
Q 2931 909 2931 1356 
Q 2931 1769 2642 2001 
Q 2353 2234 1838 2234 
L 1294 2234 
L 1294 2753 
L 1863 2753 
Q 2328 2753 2575 2939 
Q 2822 3125 2822 3475 
Q 2822 3834 2567 4026 
Q 2313 4219 1838 4219 
Q 1578 4219 1281 4162 
Q 984 4106 628 3988 
L 628 4550 
Q 988 4650 1302 4700 
Q 1616 4750 1894 4750 
Q 2613 4750 3031 4423 
Q 3450 4097 3450 3541 
Q 3450 3153 3228 2886 
Q 3006 2619 2597 2516 
z
" transform="scale(0.015625)"/>
       </defs>
       <use xlink:href="#DejaVuSans-31"/>
       <use xlink:href="#DejaVuSans-33" x="63.623047"/>
       <use xlink:href="#DejaVuSans-35" x="127.246094"/>
       <use xlink:href="#DejaVuSans-b0" x="190.869141"/>
      </g>
     </g>
    </g>
    <g id="xtick_5">
     <g id="line2d_5">
      <path d="M 236.16 174.528 
L 236.16 307.584 
" clip-path="url(#p3ac236292a)" style="fill: none; stroke: #b0b0b0; stroke-width: 0.8; stroke-linecap: square"/>
     </g>
     <g id="text_5">
      <!-- 180° -->
      <g transform="translate(224.11625 324.343375) scale(0.1 -0.1)">
       <defs>
        <path id="DejaVuSans-38" d="M 2034 2216 
Q 1584 2216 1326 1975 
Q 1069 1734 1069 1313 
Q 1069 891 1326 650 
Q 1584 409 2034 409 
Q 2484 409 2743 651 
Q 3003 894 3003 1313 
Q 3003 1734 2745 1975 
Q 2488 2216 2034 2216 
z
M 1403 2484 
Q 997 2584 770 2862 
Q 544 3141 544 3541 
Q 544 4100 942 4425 
Q 1341 4750 2034 4750 
Q 2731 4750 3128 4425 
Q 3525 4100 3525 3541 
Q 3525 3141 3298 2862 
Q 3072 2584 2669 2484 
Q 3125 2378 3379 2068 
Q 3634 1759 3634 1313 
Q 3634 634 3220 271 
Q 2806 -91 2034 -91 
Q 1263 -91 848 271 
Q 434 634 434 1313 
Q 434 1759 690 2068 
Q 947 2378 1403 2484 
z
M 1172 3481 
Q 1172 3119 1398 2916 
Q 1625 2713 2034 2713 
Q 2441 2713 2670 2916 
Q 2900 3119 2900 3481 
Q 2900 3844 2670 4047 
Q 2441 4250 2034 4250 
Q 1625 4250 1398 4047 
Q 1172 3844 1172 3481 
z
" transform="scale(0.015625)"/>
       </defs>
       <use xlink:href="#DejaVuSans-31"/>
       <use xlink:href="#DejaVuSans-38" x="63.623047"/>
       <use xlink:href="#DejaVuSans-30" x="127.246094"/>
       <use xlink:href="#DejaVuSans-b0" x="190.869141"/>
      </g>
     </g>
    </g>
    <g id="xtick_6">
     <g id="line2d_6">
      <path d="M 236.16 174.528 
L 142.0752 268.6128 
" clip-path="url(#p3ac236292a)" style="fill: none; stroke: #b0b0b0; stroke-width: 0.8; stroke-linecap: square"/>
     </g>
     <g id="text_6">
      <!-- 225° -->
      <g transform="translate(120.131955 281.27167) scale(0.1 -0.1)">
       <defs>
        <path id="DejaVuSans-32" d="M 1228 531 
L 3431 531 
L 3431 0 
L 469 0 
L 469 531 
Q 828 903 1448 1529 
Q 2069 2156 2228 2338 
Q 2531 2678 2651 2914 
Q 2772 3150 2772 3378 
Q 2772 3750 2511 3984 
Q 2250 4219 1831 4219 
Q 1534 4219 1204 4116 
Q 875 4013 500 3803 
L 500 4441 
Q 881 4594 1212 4672 
Q 1544 4750 1819 4750 
Q 2544 4750 2975 4387 
Q 3406 4025 3406 3419 
Q 3406 3131 3298 2873 
Q 3191 2616 2906 2266 
Q 2828 2175 2409 1742 
Q 1991 1309 1228 531 
z
" transform="scale(0.015625)"/>
       </defs>
       <use xlink:href="#DejaVuSans-32"/>
       <use xlink:href="#DejaVuSans-32" x="63.623047"/>
       <use xlink:href="#DejaVuSans-35" x="127.246094"/>
       <use xlink:href="#DejaVuSans-b0" x="190.869141"/>
      </g>
     </g>
    </g>
    <g id="xtick_7">
     <g id="line2d_7">
      <path d="M 236.16 174.528 
L 103.104 174.528 
" clip-path="url(#p3ac236292a)" style="fill: none; stroke: #b0b0b0; stroke-width: 0.8; stroke-linecap: square"/>
     </g>
     <g id="text_7">
      <!-- 270° -->
      <g transform="translate(77.06025 177.287375) scale(0.1 -0.1)">
       <defs>
        <path id="DejaVuSans-37" d="M 525 4666 
L 3525 4666 
L 3525 4397 
L 1831 0 
L 1172 0 
L 2766 4134 
L 525 4134 
L 525 4666 
z
" transform="scale(0.015625)"/>
       </defs>
       <use xlink:href="#DejaVuSans-32"/>
       <use xlink:href="#DejaVuSans-37" x="63.623047"/>
       <use xlink:href="#DejaVuSans-30" x="127.246094"/>
       <use xlink:href="#DejaVuSans-b0" x="190.869141"/>
      </g>
     </g>
    </g>
    <g id="xtick_8">
     <g id="line2d_8">
      <path d="M 236.16 174.528 
L 142.0752 80.4432 
" clip-path="url(#p3ac236292a)" style="fill: none; stroke: #b0b0b0; stroke-width: 0.8; stroke-linecap: square"/>
     </g>
     <g id="text_8">
      <!-- 315° -->
      <g transform="translate(120.131955 73.30308) scale(0.1 -0.1)">
       <use xlink:href="#DejaVuSans-33"/>
       <use xlink:href="#DejaVuSans-31" x="63.623047"/>
       <use xlink:href="#DejaVuSans-35" x="127.246094"/>
       <use xlink:href="#DejaVuSans-b0" x="190.869141"/>
      </g>
     </g>
    </g>
   </g>
   <g id="patch_111">
    <path d="M 236.16 41.472 
C 218.687246 41.472 201.384393 44.913752 185.241673 51.600285 
C 169.098954 58.286818 154.430303 68.088097 142.0752 80.4432 
C 129.720097 92.798303 119.918818 107.466954 113.232285 123.609673 
C 106.545752 139.752393 103.104 157.055246 103.104 174.528 
C 103.104 192.000754 106.545752 209.303607 113.232285 225.446327 
C 119.918818 241.589046 129.720097 256.257697 142.0752 268.6128 
C 154.430303 280.967903 169.098954 290.769182 185.241673 297.455715 
C 201.384393 304.142248 218.687246 307.584 236.16 307.584 
C 253.632754 307.584 270.935607 304.142248 287.078327 297.455715 
C 303.221046 290.769182 317.889697 280.967903 330.2448 268.6128 
C 342.599903 256.257697 352.401182 241.589046 359.087715 225.446327 
C 365.774248 209.303607 369.216 192.000754 369.216 174.528 
C 369.216 157.055246 365.774248 139.752393 359.087715 123.609673 
C 352.401182 107.466954 342.599903 92.798303 330.2448 80.4432 
C 317.889697 68.088097 303.221046 58.286818 287.078327 51.600285 
C 270.935607 44.913752 253.632754 41.472 236.16 41.472 
" style="fill: none; stroke: #000000; stroke-width: 0.8; stroke-linejoin: miter; stroke-linecap: square"/>
   </g>
   <g id="text_9">
    <!-- Rose des vents -->
    <g transform="translate(190.808438 16.632938) scale(0.12 -0.12)">
     <defs>
      <path id="DejaVuSans-52" d="M 2841 2188 
Q 3044 2119 3236 1894 
Q 3428 1669 3622 1275 
L 4263 0 
L 3584 0 
L 2988 1197 
Q 2756 1666 2539 1819 
Q 2322 1972 1947 1972 
L 1259 1972 
L 1259 0 
L 628 0 
L 628 4666 
L 2053 4666 
Q 2853 4666 3247 4331 
Q 3641 3997 3641 3322 
Q 3641 2881 3436 2590 
Q 3231 2300 2841 2188 
z
M 1259 4147 
L 1259 2491 
L 2053 2491 
Q 2509 2491 2742 2702 
Q 2975 2913 2975 3322 
Q 2975 3731 2742 3939 
Q 2509 4147 2053 4147 
L 1259 4147 
z
" transform="scale(0.015625)"/>
      <path id="DejaVuSans-6f" d="M 1959 3097 
Q 1497 3097 1228 2736 
Q 959 2375 959 1747 
Q 959 1119 1226 758 
Q 1494 397 1959 397 
Q 2419 397 2687 759 
Q 2956 1122 2956 1747 
Q 2956 2369 2687 2733 
Q 2419 3097 1959 3097 
z
M 1959 3584 
Q 2709 3584 3137 3096 
Q 3566 2609 3566 1747 
Q 3566 888 3137 398 
Q 2709 -91 1959 -91 
Q 1206 -91 779 398 
Q 353 888 353 1747 
Q 353 2609 779 3096 
Q 1206 3584 1959 3584 
z
" transform="scale(0.015625)"/>
      <path id="DejaVuSans-73" d="M 2834 3397 
L 2834 2853 
Q 2591 2978 2328 3040 
Q 2066 3103 1784 3103 
Q 1356 3103 1142 2972 
Q 928 2841 928 2578 
Q 928 2378 1081 2264 
Q 1234 2150 1697 2047 
L 1894 2003 
Q 2506 1872 2764 1633 
Q 3022 1394 3022 966 
Q 3022 478 2636 193 
Q 2250 -91 1575 -91 
Q 1294 -91 989 -36 
Q 684 19 347 128 
L 347 722 
Q 666 556 975 473 
Q 1284 391 1588 391 
Q 1994 391 2212 530 
Q 2431 669 2431 922 
Q 2431 1156 2273 1281 
Q 2116 1406 1581 1522 
L 1381 1569 
Q 847 1681 609 1914 
Q 372 2147 372 2553 
Q 372 3047 722 3315 
Q 1072 3584 1716 3584 
Q 2034 3584 2315 3537 
Q 2597 3491 2834 3397 
z
" transform="scale(0.015625)"/>
      <path id="DejaVuSans-65" d="M 3597 1894 
L 3597 1613 
L 953 1613 
Q 991 1019 1311 708 
Q 1631 397 2203 397 
Q 2534 397 2845 478 
Q 3156 559 3463 722 
L 3463 178 
Q 3153 47 2828 -22 
Q 2503 -91 2169 -91 
Q 1331 -91 842 396 
Q 353 884 353 1716 
Q 353 2575 817 3079 
Q 1281 3584 2069 3584 
Q 2775 3584 3186 3129 
Q 3597 2675 3597 1894 
z
M 3022 2063 
Q 3016 2534 2758 2815 
Q 2500 3097 2075 3097 
Q 1594 3097 1305 2825 
Q 1016 2553 972 2059 
L 3022 2063 
z
" transform="scale(0.015625)"/>
      <path id="DejaVuSans-20" transform="scale(0.015625)"/>
      <path id="DejaVuSans-64" d="M 2906 2969 
L 2906 4863 
L 3481 4863 
L 3481 0 
L 2906 0 
L 2906 525 
Q 2725 213 2448 61 
Q 2172 -91 1784 -91 
Q 1150 -91 751 415 
Q 353 922 353 1747 
Q 353 2572 751 3078 
Q 1150 3584 1784 3584 
Q 2172 3584 2448 3432 
Q 2725 3281 2906 2969 
z
M 947 1747 
Q 947 1113 1208 752 
Q 1469 391 1925 391 
Q 2381 391 2643 752 
Q 2906 1113 2906 1747 
Q 2906 2381 2643 2742 
Q 2381 3103 1925 3103 
Q 1469 3103 1208 2742 
Q 947 2381 947 1747 
z
" transform="scale(0.015625)"/>
      <path id="DejaVuSans-76" d="M 191 3500 
L 800 3500 
L 1894 563 
L 2988 3500 
L 3597 3500 
L 2284 0 
L 1503 0 
L 191 3500 
z
" transform="scale(0.015625)"/>
      <path id="DejaVuSans-6e" d="M 3513 2113 
L 3513 0 
L 2938 0 
L 2938 2094 
Q 2938 2591 2744 2837 
Q 2550 3084 2163 3084 
Q 1697 3084 1428 2787 
Q 1159 2491 1159 1978 
L 1159 0 
L 581 0 
L 581 3500 
L 1159 3500 
L 1159 2956 
Q 1366 3272 1645 3428 
Q 1925 3584 2291 3584 
Q 2894 3584 3203 3211 
Q 3513 2838 3513 2113 
z
" transform="scale(0.015625)"/>
      <path id="DejaVuSans-74" d="M 1172 4494 
L 1172 3500 
L 2356 3500 
L 2356 3053 
L 1172 3053 
L 1172 1153 
Q 1172 725 1289 603 
Q 1406 481 1766 481 
L 2356 481 
L 2356 0 
L 1766 0 
Q 1100 0 847 248 
Q 594 497 594 1153 
L 594 3053 
L 172 3053 
L 172 3500 
L 594 3500 
L 594 4494 
L 1172 4494 
z
" transform="scale(0.015625)"/>
     </defs>
     <use xlink:href="#DejaVuSans-52"/>
     <use xlink:href="#DejaVuSans-6f" x="64.982422"/>
     <use xlink:href="#DejaVuSans-73" x="126.164062"/>
     <use xlink:href="#DejaVuSans-65" x="178.263672"/>
     <use xlink:href="#DejaVuSans-20" x="239.787109"/>
     <use xlink:href="#DejaVuSans-64" x="271.574219"/>
     <use xlink:href="#DejaVuSans-65" x="335.050781"/>
     <use xlink:href="#DejaVuSans-73" x="396.574219"/>
     <use xlink:href="#DejaVuSans-20" x="448.673828"/>
     <use xlink:href="#DejaVuSans-76" x="480.460938"/>
     <use xlink:href="#DejaVuSans-65" x="539.640625"/>
     <use xlink:href="#DejaVuSans-6e" x="601.164062"/>
     <use xlink:href="#DejaVuSans-74" x="664.542969"/>
     <use xlink:href="#DejaVuSans-73" x="703.751953"/>
    </g>
   </g>
   <g id="legend_1">
    <g id="patch_112">
     <path d="M 197.73475 93.506375 
L 362.216 93.506375 
Q 364.216 93.506375 364.216 91.506375 
L 364.216 48.472 
Q 364.216 46.472 362.216 46.472 
L 197.73475 46.472 
Q 195.73475 46.472 195.73475 48.472 
L 195.73475 91.506375 
Q 195.73475 93.506375 197.73475 93.506375 
z
" style="fill: #ffffff; opacity: 0.8; stroke: #cccccc; stroke-linejoin: miter"/>
    </g>
    <g id="patch_113">
     <path d="M 199.73475 58.070438 
L 219.73475 58.070438 
L 219.73475 51.070438 
L 199.73475 51.070438 
z
" style="fill: #ff0000"/>
    </g>
    <g id="text_10">
     <!-- Vitesse vent&gt;15kt -->
     <g transform="translate(227.73475 58.070438) scale(0.1 -0.1)">
      <defs>
       <path id="DejaVuSans-56" d="M 1831 0 
L 50 4666 
L 709 4666 
L 2188 738 
L 3669 4666 
L 4325 4666 
L 2547 0 
L 1831 0 
z
" transform="scale(0.015625)"/>
       <path id="DejaVuSans-69" d="M 603 3500 
L 1178 3500 
L 1178 0 
L 603 0 
L 603 3500 
z
M 603 4863 
L 1178 4863 
L 1178 4134 
L 603 4134 
L 603 4863 
z
" transform="scale(0.015625)"/>
       <path id="DejaVuSans-3e" d="M 678 3150 
L 678 3719 
L 4684 2266 
L 4684 1747 
L 678 294 
L 678 863 
L 3897 2003 
L 678 3150 
z
" transform="scale(0.015625)"/>
       <path id="DejaVuSans-6b" d="M 581 4863 
L 1159 4863 
L 1159 1991 
L 2875 3500 
L 3609 3500 
L 1753 1863 
L 3688 0 
L 2938 0 
L 1159 1709 
L 1159 0 
L 581 0 
L 581 4863 
z
" transform="scale(0.015625)"/>
      </defs>
      <use xlink:href="#DejaVuSans-56"/>
      <use xlink:href="#DejaVuSans-69" x="66.158203"/>
      <use xlink:href="#DejaVuSans-74" x="93.941406"/>
      <use xlink:href="#DejaVuSans-65" x="133.150391"/>
      <use xlink:href="#DejaVuSans-73" x="194.673828"/>
      <use xlink:href="#DejaVuSans-73" x="246.773438"/>
      <use xlink:href="#DejaVuSans-65" x="298.873047"/>
      <use xlink:href="#DejaVuSans-20" x="360.396484"/>
      <use xlink:href="#DejaVuSans-76" x="392.183594"/>
      <use xlink:href="#DejaVuSans-65" x="451.363281"/>
      <use xlink:href="#DejaVuSans-6e" x="512.886719"/>
      <use xlink:href="#DejaVuSans-74" x="576.265625"/>
      <use xlink:href="#DejaVuSans-3e" x="615.474609"/>
      <use xlink:href="#DejaVuSans-31" x="699.263672"/>
      <use xlink:href="#DejaVuSans-35" x="762.886719"/>
      <use xlink:href="#DejaVuSans-6b" x="826.509766"/>
      <use xlink:href="#DejaVuSans-74" x="884.419922"/>
     </g>
    </g>
    <g id="patch_114">
     <path d="M 199.73475 72.748563 
L 219.73475 72.748563 
L 219.73475 65.748563 
L 199.73475 65.748563 
z
" style="fill: #ffa500"/>
    </g>
    <g id="text_11">
     <!-- Vitesse vent ∈ [2.9;8.7] kt -->
     <g transform="translate(227.73475 72.748563) scale(0.1 -0.1)">
      <defs>
       <path id="DejaVuSans-2208" d="M 1072 1959 
Q 1094 1728 1291 1353 
Q 1522 919 1959 675 
Q 2388 438 2850 434 
L 5028 434 
L 5028 -63 
L 2850 -63 
Q 2250 -63 1695 246 
Q 1141 556 844 1106 
Q 547 1656 547 2241 
Q 547 2819 844 3369 
Q 1141 3919 1695 4231 
Q 2250 4544 2850 4544 
L 5028 4544 
L 5028 4047 
L 2850 4047 
Q 2388 4044 1959 3803 
Q 1525 3556 1291 3125 
Q 1091 2750 1063 2459 
L 5028 2459 
L 5028 1959 
L 1072 1959 
z
" transform="scale(0.015625)"/>
       <path id="DejaVuSans-5b" d="M 550 4863 
L 1875 4863 
L 1875 4416 
L 1125 4416 
L 1125 -397 
L 1875 -397 
L 1875 -844 
L 550 -844 
L 550 4863 
z
" transform="scale(0.015625)"/>
       <path id="DejaVuSans-2e" d="M 684 794 
L 1344 794 
L 1344 0 
L 684 0 
L 684 794 
z
" transform="scale(0.015625)"/>
       <path id="DejaVuSans-3b" d="M 750 3309 
L 1409 3309 
L 1409 2516 
L 750 2516 
L 750 3309 
z
M 750 794 
L 1409 794 
L 1409 256 
L 897 -744 
L 494 -744 
L 750 256 
L 750 794 
z
" transform="scale(0.015625)"/>
       <path id="DejaVuSans-5d" d="M 1947 4863 
L 1947 -844 
L 622 -844 
L 622 -397 
L 1369 -397 
L 1369 4416 
L 622 4416 
L 622 4863 
L 1947 4863 
z
" transform="scale(0.015625)"/>
      </defs>
      <use xlink:href="#DejaVuSans-56"/>
      <use xlink:href="#DejaVuSans-69" x="66.158203"/>
      <use xlink:href="#DejaVuSans-74" x="93.941406"/>
      <use xlink:href="#DejaVuSans-65" x="133.150391"/>
      <use xlink:href="#DejaVuSans-73" x="194.673828"/>
      <use xlink:href="#DejaVuSans-73" x="246.773438"/>
      <use xlink:href="#DejaVuSans-65" x="298.873047"/>
      <use xlink:href="#DejaVuSans-20" x="360.396484"/>
      <use xlink:href="#DejaVuSans-76" x="392.183594"/>
      <use xlink:href="#DejaVuSans-65" x="451.363281"/>
      <use xlink:href="#DejaVuSans-6e" x="512.886719"/>
      <use xlink:href="#DejaVuSans-74" x="576.265625"/>
      <use xlink:href="#DejaVuSans-20" x="615.474609"/>
      <use xlink:href="#DejaVuSans-2208" x="647.261719"/>
      <use xlink:href="#DejaVuSans-20" x="734.371094"/>
      <use xlink:href="#DejaVuSans-5b" x="766.158203"/>
      <use xlink:href="#DejaVuSans-32" x="805.171875"/>
      <use xlink:href="#DejaVuSans-2e" x="868.794922"/>
      <use xlink:href="#DejaVuSans-39" x="900.582031"/>
      <use xlink:href="#DejaVuSans-3b" x="964.205078"/>
      <use xlink:href="#DejaVuSans-38" x="997.896484"/>
      <use xlink:href="#DejaVuSans-2e" x="1061.519531"/>
      <use xlink:href="#DejaVuSans-37" x="1093.306641"/>
      <use xlink:href="#DejaVuSans-5d" x="1156.929688"/>
      <use xlink:href="#DejaVuSans-20" x="1195.943359"/>
      <use xlink:href="#DejaVuSans-6b" x="1227.730469"/>
      <use xlink:href="#DejaVuSans-74" x="1285.640625"/>
     </g>
    </g>
    <g id="patch_115">
     <path d="M 199.73475 87.426688 
L 219.73475 87.426688 
L 219.73475 80.426688 
L 199.73475 80.426688 
z
" style="fill: #008000"/>
    </g>
    <g id="text_12">
     <!-- Vitesse vent&lt;2.9kt -->
     <g transform="translate(227.73475 87.426688) scale(0.1 -0.1)">
      <defs>
       <path id="DejaVuSans-3c" d="M 4684 3150 
L 1459 2003 
L 4684 863 
L 4684 294 
L 678 1747 
L 678 2266 
L 4684 3719 
L 4684 3150 
z
" transform="scale(0.015625)"/>
      </defs>
      <use xlink:href="#DejaVuSans-56"/>
      <use xlink:href="#DejaVuSans-69" x="66.158203"/>
      <use xlink:href="#DejaVuSans-74" x="93.941406"/>
      <use xlink:href="#DejaVuSans-65" x="133.150391"/>
      <use xlink:href="#DejaVuSans-73" x="194.673828"/>
      <use xlink:href="#DejaVuSans-73" x="246.773438"/>
      <use xlink:href="#DejaVuSans-65" x="298.873047"/>
      <use xlink:href="#DejaVuSans-20" x="360.396484"/>
      <use xlink:href="#DejaVuSans-76" x="392.183594"/>
      <use xlink:href="#DejaVuSans-65" x="451.363281"/>
      <use xlink:href="#DejaVuSans-6e" x="512.886719"/>
      <use xlink:href="#DejaVuSans-74" x="576.265625"/>
      <use xlink:href="#DejaVuSans-3c" x="615.474609"/>
      <use xlink:href="#DejaVuSans-32" x="699.263672"/>
      <use xlink:href="#DejaVuSans-2e" x="762.886719"/>
      <use xlink:href="#DejaVuSans-39" x="794.673828"/>
      <use xlink:href="#DejaVuSans-6b" x="858.296875"/>
      <use xlink:href="#DejaVuSans-74" x="916.207031"/>
     </g>
    </g>
   </g>
  </g>
 </g>
 <defs>
  <clipPath id="p3ac236292a">
   <path d="M 369.216 174.528 
C 369.216 157.055246 365.774248 139.752393 359.087715 123.609673 
C 352.401182 107.466954 342.599903 92.798303 330.2448 80.4432 
C 317.889697 68.088097 303.221046 58.286818 287.078327 51.600285 
C 270.935607 44.913752 253.632754 41.472 236.16 41.472 
C 218.687246 41.472 201.384393 44.913752 185.241673 51.600285 
C 169.098954 58.286818 154.430303 68.088097 142.0752 80.4432 
C 129.720097 92.798303 119.918818 107.466954 113.232285 123.609673 
C 106.545752 139.752393 103.104 157.055246 103.104 174.528 
C 103.104 192.000754 106.545752 209.303607 113.232285 225.446327 
C 119.918818 241.589046 129.720097 256.257697 142.0752 268.6128 
C 154.430303 280.967903 169.098954 290.769182 185.241673 297.455715 
C 201.384393 304.142248 218.687246 307.584 236.16 307.584 
C 253.632754 307.584 270.935607 304.142248 287.078327 297.455715 
C 303.221046 290.769182 317.889697 280.967903 330.2448 268.6128 
C 342.599903 256.257697 352.401182 241.589046 359.087715 225.446327 
C 365.774248 209.303607 369.216 192.000754 369.216 174.528 
M 236.16 174.528 
C 236.16 174.528 236.16 174.528 236.16 174.528 
C 236.16 174.528 236.16 174.528 236.16 174.528 
C 236.16 174.528 236.16 174.528 236.16 174.528 
C 236.16 174.528 236.16 174.528 236.16 174.528 
C 236.16 174.528 236.16 174.528 236.16 174.528 
C 236.16 174.528 236.16 174.528 236.16 174.528 
C 236.16 174.528 236.16 174.528 236.16 174.528 
C 236.16 174.528 236.16 174.528 236.16 174.528 
C 236.16 174.528 236.16 174.528 236.16 174.528 
C 236.16 174.528 236.16 174.528 236.16 174.528 
C 236.16 174.528 236.16 174.528 236.16 174.528 
C 236.16 174.528 236.16 174.528 236.16 174.528 
C 236.16 174.528 236.16 174.528 236.16 174.528 
C 236.16 174.528 236.16 174.528 236.16 174.528 
C 236.16 174.528 236.16 174.528 236.16 174.528 
C 236.16 174.528 236.16 174.528 236.16 174.528 
z
"/>
  </clipPath>
 </defs>
</svg>
