<?xml version="1.0" encoding="utf-8" standalone="no"?>
<!DOCTYPE svg PUBLIC "-//W3C//DTD SVG 1.1//EN"
  "http://www.w3.org/Graphics/SVG/1.1/DTD/svg11.dtd">
<svg xmlns:xlink="http://www.w3.org/1999/xlink" width="460.8pt" height="345.6pt" viewBox="0 0 460.8 345.6" xmlns="http://www.w3.org/2000/svg" version="1.1">
 <metadata>
  <rdf:RDF xmlns:dc="http://purl.org/dc/elements/1.1/" xmlns:cc="http://creativecommons.org/ns#" xmlns:rdf="http://www.w3.org/1999/02/22-rdf-syntax-ns#">
   <cc:Work>
    <dc:type rdf:resource="http://purl.org/dc/dcmitype/StillImage"/>
    <dc:date>2024-01-30T00:26:42.729551</dc:date>
    <dc:format>image/svg+xml</dc:format>
    <dc:creator>
     <cc:Agent>
      <dc:title>Matplotlib v3.8.0, https://matplotlib.org/</dc:title>
     </cc:Agent>
    </dc:creator>
   </cc:Work>
  </rdf:RDF>
 </metadata>
 <defs>
  <style type="text/css">*{stroke-linejoin: round; stroke-linecap: butt}</style>
 </defs>
 <g id="figure_1">
  <g id="patch_1">
   <path d="M 0 345.6 
L 460.8 345.6 
L 460.8 0 
L 0 0 
z
" style="fill: #ffffff"/>
  </g>
  <g id="axes_1">
   <g id="patch_2">
    <path d="M 369.216 174.528 
C 369.216 157.055246 365.774248 139.752393 359.087715 123.609673 
C 352.401182 107.466954 342.599903 92.798303 330.2448 80.4432 
C 317.889697 68.088097 303.221046 58.286818 287.078327 51.600285 
C 270.935607 44.913752 253.632754 41.472 236.16 41.472 
C 218.687246 41.472 201.384393 44.913752 185.241673 51.600285 
C 169.098954 58.286818 154.430303 68.088097 142.0752 80.4432 
C 129.720097 92.798303 119.918818 107.466954 113.232285 123.609673 
C 106.545752 139.752393 103.104 157.055246 103.104 174.528 
C 103.104 192.000754 106.545752 209.303607 113.232285 225.446327 
C 119.918818 241.589046 129.720097 256.257697 142.0752 268.6128 
C 154.430303 280.967903 169.098954 290.769182 185.241673 297.455715 
C 201.384393 304.142248 218.687246 307.584 236.16 307.584 
C 253.632754 307.584 270.935607 304.142248 287.078327 297.455715 
C 303.221046 290.769182 317.889697 280.967903 330.2448 268.6128 
C 342.599903 256.257697 352.401182 241.589046 359.087715 225.446327 
C 365.774248 209.303607 369.216 192.000754 369.216 174.528 
M 236.16 174.528 
C 236.16 174.528 236.16 174.528 236.16 174.528 
C 236.16 174.528 236.16 174.528 236.16 174.528 
C 236.16 174.528 236.16 174.528 236.16 174.528 
C 236.16 174.528 236.16 174.528 236.16 174.528 
C 236.16 174.528 236.16 174.528 236.16 174.528 
C 236.16 174.528 236.16 174.528 236.16 174.528 
C 236.16 174.528 236.16 174.528 236.16 174.528 
C 236.16 174.528 236.16 174.528 236.16 174.528 
C 236.16 174.528 236.16 174.528 236.16 174.528 
C 236.16 174.528 236.16 174.528 236.16 174.528 
C 236.16 174.528 236.16 174.528 236.16 174.528 
C 236.16 174.528 236.16 174.528 236.16 174.528 
C 236.16 174.528 236.16 174.528 236.16 174.528 
C 236.16 174.528 236.16 174.528 236.16 174.528 
C 236.16 174.528 236.16 174.528 236.16 174.528 
C 236.16 174.528 236.16 174.528 236.16 174.528 
z
" style="fill: #ffffff"/>
   </g>
   <g id="patch_3">
    <path d="M 236.16 174.528 
C 236.16 174.528 236.16 174.528 236.16 174.528 
C 236.16 174.528 236.16 174.528 236.16 174.528 
L 242.915922 97.307464 
C 240.669311 97.110911 238.415192 97.012494 236.16 97.012494 
C 233.904808 97.012494 231.650689 97.110911 229.404078 97.307464 
z
" clip-path="url(#p03145d2cdd)" style="fill: #ff0000"/>
   </g>
   <g id="patch_4">
    <path d="M 236.16 174.528 
C 236.16 174.528 236.16 174.528 236.16 174.528 
C 236.16 174.528 236.16 174.528 236.16 174.528 
L 242.490288 102.172472 
C 240.385218 101.988302 238.273112 101.896086 236.16 101.896086 
C 234.046888 101.896086 231.934782 101.988302 229.829712 102.172472 
z
" clip-path="url(#p03145d2cdd)" style="fill: #ffa500"/>
   </g>
   <g id="patch_5">
    <path d="M 236.16 174.528 
C 236.16 174.528 236.16 174.528 236.16 174.528 
C 236.16 174.528 236.16 174.528 236.16 174.528 
L 240.906211 120.278565 
C 239.327908 120.140482 237.744331 120.071341 236.16 120.071341 
C 234.575669 120.071341 232.992092 120.140482 231.413789 120.278565 
z
" clip-path="url(#p03145d2cdd)" style="fill: #008000"/>
   </g>
   <g id="patch_6">
    <path d="M 236.16 174.528 
C 236.16 174.528 236.16 174.528 236.16 174.528 
C 236.16 174.528 236.16 174.528 236.16 174.528 
L 268.957549 52.125879 
C 265.396451 51.171686 261.795408 50.373354 258.164697 49.733162 
C 254.533987 49.092969 250.877067 48.611527 247.204376 48.290208 
z
" clip-path="url(#p03145d2cdd)" style="fill: #ff0000"/>
   </g>
   <g id="patch_7">
    <path d="M 236.16 174.528 
C 236.16 174.528 236.16 174.528 236.16 174.528 
C 236.16 174.528 236.16 174.528 236.16 174.528 
L 267.037751 59.290664 
C 263.685101 58.392325 260.294844 57.640723 256.876656 57.038004 
C 253.458469 56.435285 250.015606 55.982024 246.557895 55.679513 
z
" clip-path="url(#p03145d2cdd)" style="fill: #ffa500"/>
   </g>
   <g id="patch_8">
    <path d="M 236.16 174.528 
C 236.16 174.528 236.16 174.528 236.16 174.528 
C 236.16 174.528 236.16 174.528 236.16 174.528 
L 258.482128 91.220685 
C 256.058432 90.571258 253.607549 90.02791 251.136474 89.592193 
C 248.6654 89.156476 246.176488 88.828804 243.676841 88.610113 
z
" clip-path="url(#p03145d2cdd)" style="fill: #008000"/>
   </g>
   <g id="patch_9">
    <path d="M 236.16 174.528 
C 236.16 174.528 236.16 174.528 236.16 174.528 
C 236.16 174.528 236.16 174.528 236.16 174.528 
L 286.024487 67.593263 
C 282.913388 66.142534 279.74046 64.828264 276.514761 63.654206 
C 273.289061 62.480147 270.013662 61.447418 266.697911 60.558965 
z
" clip-path="url(#p03145d2cdd)" style="fill: #ff0000"/>
   </g>
   <g id="patch_10">
    <path d="M 236.16 174.528 
C 236.16 174.528 236.16 174.528 236.16 174.528 
C 236.16 174.528 236.16 174.528 236.16 174.528 
L 284.330535 71.225954 
C 281.325124 69.824508 278.259984 68.554886 275.143865 67.420711 
C 272.027746 66.286537 268.863615 65.28889 265.660504 64.430619 
z
" clip-path="url(#p03145d2cdd)" style="fill: #ffa500"/>
   </g>
   <g id="patch_11">
    <path d="M 236.16 174.528 
C 236.16 174.528 236.16 174.528 236.16 174.528 
C 236.16 174.528 236.16 174.528 236.16 174.528 
L 270.915216 99.995198 
C 268.746801 98.98405 266.535292 98.068012 264.287 97.249701 
C 262.038709 96.43139 259.755777 95.711585 257.444721 95.092339 
z
" clip-path="url(#p03145d2cdd)" style="fill: #008000"/>
   </g>
   <g id="patch_12">
    <path d="M 236.16 174.528 
C 236.16 174.528 236.16 174.528 236.16 174.528 
C 236.16 174.528 236.16 174.528 236.16 174.528 
L 280.39645 111.351802 
C 278.558438 110.064811 276.665136 108.858645 274.721949 107.736746 
C 272.778762 106.614846 270.78754 105.578282 268.753967 104.630011 
z
" clip-path="url(#p03145d2cdd)" style="fill: #ff0000"/>
   </g>
   <g id="patch_13">
    <path d="M 236.16 174.528 
C 236.16 174.528 236.16 174.528 236.16 174.528 
C 236.16 174.528 236.16 174.528 236.16 174.528 
L 279.867938 112.106595 
C 278.051885 110.834981 276.181203 109.643225 274.261233 108.534729 
C 272.341262 107.426234 270.37383 106.402054 268.364553 105.465113 
z
" clip-path="url(#p03145d2cdd)" style="fill: #ffa500"/>
   </g>
   <g id="patch_14">
    <path d="M 236.16 174.528 
C 236.16 174.528 236.16 174.528 236.16 174.528 
C 236.16 174.528 236.16 174.528 236.16 174.528 
L 270.909661 124.900341 
C 269.465822 123.889354 267.97855 122.941858 266.452092 122.060557 
C 264.925634 121.179256 263.361443 120.364989 261.763983 119.620082 
z
" clip-path="url(#p03145d2cdd)" style="fill: #008000"/>
   </g>
   <g id="patch_15">
    <path d="M 236.16 174.528 
C 236.16 174.528 236.16 174.528 236.16 174.528 
C 236.16 174.528 236.16 174.528 236.16 174.528 
L 270.496745 140.191255 
C 269.497772 139.192281 268.455678 138.237378 267.373439 137.329272 
C 266.2912 136.421166 265.169847 135.560721 264.01258 134.750394 
z
" clip-path="url(#p03145d2cdd)" style="fill: #ff0000"/>
   </g>
   <g id="patch_16">
    <path d="M 236.16 174.528 
C 236.16 174.528 236.16 174.528 236.16 174.528 
C 236.16 174.528 236.16 174.528 236.16 174.528 
L 270.350146 140.337854 
C 269.355438 139.343145 268.317793 138.392319 267.240175 137.48809 
C 266.162557 136.583861 265.045991 135.72709 263.893665 134.920222 
z
" clip-path="url(#p03145d2cdd)" style="fill: #ffa500"/>
   </g>
   <g id="patch_17">
    <path d="M 236.16 174.528 
C 236.16 174.528 236.16 174.528 236.16 174.528 
C 236.16 174.528 236.16 174.528 236.16 174.528 
L 265.414646 145.273354 
C 264.563528 144.422235 263.675672 143.608665 262.753613 142.834966 
C 261.831554 142.061266 260.876169 141.328174 259.890187 140.637781 
z
" clip-path="url(#p03145d2cdd)" style="fill: #008000"/>
   </g>
   <g id="patch_18">
    <path d="M 236.16 174.528 
C 236.16 174.528 236.16 174.528 236.16 174.528 
C 236.16 174.528 236.16 174.528 236.16 174.528 
L 263.766565 155.197675 
C 263.204179 154.394506 262.607011 153.616261 261.976764 152.865162 
C 261.346518 152.114064 260.683794 151.390827 259.990483 150.697517 
z
" clip-path="url(#p03145d2cdd)" style="fill: #ff0000"/>
   </g>
   <g id="patch_19">
    <path d="M 236.16 174.528 
C 236.16 174.528 236.16 174.528 236.16 174.528 
C 236.16 174.528 236.16 174.528 236.16 174.528 
L 263.691085 155.250527 
C 263.130237 154.449553 262.534702 153.673436 261.906179 152.924391 
C 261.277655 152.175346 260.616743 151.454087 259.925328 150.762672 
z
" clip-path="url(#p03145d2cdd)" style="fill: #ffa500"/>
   </g>
   <g id="patch_20">
    <path d="M 236.16 174.528 
C 236.16 174.528 236.16 174.528 236.16 174.528 
C 236.16 174.528 236.16 174.528 236.16 174.528 
L 258.860408 158.633003 
C 258.397968 157.97257 257.906927 157.332633 257.388686 156.715017 
C 256.870445 156.097402 256.325498 155.502697 255.755401 154.932599 
z
" clip-path="url(#p03145d2cdd)" style="fill: #008000"/>
   </g>
   <g id="patch_21">
    <path d="M 236.16 174.528 
C 236.16 174.528 236.16 174.528 236.16 174.528 
C 236.16 174.528 236.16 174.528 236.16 174.528 
L 258.833004 163.955405 
C 258.52541 163.295769 258.189177 162.649871 257.825264 162.019554 
C 257.46135 161.389237 257.070102 160.775102 256.652638 160.178901 
z
" clip-path="url(#p03145d2cdd)" style="fill: #ff0000"/>
   </g>
   <g id="patch_22">
    <path d="M 236.16 174.528 
C 236.16 174.528 236.16 174.528 236.16 174.528 
C 236.16 174.528 236.16 174.528 236.16 174.528 
L 258.624228 164.052758 
C 258.319467 163.399197 257.98633 162.759246 257.625768 162.134733 
C 257.265205 161.51022 256.87756 160.90174 256.463939 160.311029 
z
" clip-path="url(#p03145d2cdd)" style="fill: #ffa500"/>
   </g>
   <g id="patch_23">
    <path d="M 236.16 174.528 
C 236.16 174.528 236.16 174.528 236.16 174.528 
C 236.16 174.528 236.16 174.528 236.16 174.528 
L 253.676252 166.360037 
C 253.438618 165.850429 253.178858 165.351435 252.897713 164.864477 
C 252.616568 164.377519 252.314306 163.903063 251.991789 163.442462 
z
" clip-path="url(#p03145d2cdd)" style="fill: #008000"/>
   </g>
   <g id="patch_24">
    <path d="M 236.16 174.528 
C 236.16 174.528 236.16 174.528 236.16 174.528 
C 236.16 174.528 236.16 174.528 236.16 174.528 
L 256.786571 169.001127 
C 256.625775 168.401029 256.438868 167.808234 256.226382 167.224434 
C 256.013896 166.640634 255.776034 166.066385 255.513475 165.503326 
z
" clip-path="url(#p03145d2cdd)" style="fill: #ff0000"/>
   </g>
   <g id="patch_25">
    <path d="M 236.16 174.528 
C 236.16 174.528 236.16 174.528 236.16 174.528 
C 236.16 174.528 236.16 174.528 236.16 174.528 
L 256.297051 169.132293 
C 256.140072 168.546437 255.9576 167.967711 255.750157 167.397766 
C 255.542714 166.827821 255.310497 166.2672 255.05417 165.717504 
z
" clip-path="url(#p03145d2cdd)" style="fill: #ffa500"/>
   </g>
   <g id="patch_26">
    <path d="M 236.16 174.528 
C 236.16 174.528 236.16 174.528 236.16 174.528 
C 236.16 174.528 236.16 174.528 236.16 174.528 
L 250.912337 170.575123 
C 250.797334 170.145927 250.663656 169.721954 250.511684 169.304414 
C 250.359712 168.886874 250.189591 168.476166 250.001806 168.07346 
z
" clip-path="url(#p03145d2cdd)" style="fill: #008000"/>
   </g>
   <g id="patch_27">
    <path d="M 236.16 174.528 
C 236.16 174.528 236.16 174.528 236.16 174.528 
C 236.16 174.528 236.16 174.528 236.16 174.528 
L 253.348167 173.02423 
C 253.304417 172.524167 253.238865 172.026252 253.151699 171.531905 
C 253.064532 171.037558 252.955833 170.547251 252.825913 170.062382 
z
" clip-path="url(#p03145d2cdd)" style="fill: #ff0000"/>
   </g>
   <g id="patch_28">
    <path d="M 236.16 174.528 
C 236.16 174.528 236.16 174.528 236.16 174.528 
C 236.16 174.528 236.16 174.528 236.16 174.528 
L 252.544982 173.0945 
C 252.503276 172.617804 252.440787 172.143156 252.357694 171.67191 
C 252.274601 171.200663 252.170981 170.733267 252.047132 170.271056 
z
" clip-path="url(#p03145d2cdd)" style="fill: #ffa500"/>
   </g>
   <g id="patch_29">
    <path d="M 236.16 174.528 
C 236.16 174.528 236.16 174.528 236.16 174.528 
C 236.16 174.528 236.16 174.528 236.16 174.528 
L 248.666744 173.433802 
C 248.63491 173.069938 248.587212 172.707636 248.523786 172.347931 
C 248.46036 171.988226 248.381267 171.63146 248.286733 171.278652 
z
" clip-path="url(#p03145d2cdd)" style="fill: #008000"/>
   </g>
   <g id="patch_30">
    <path d="M 236.16 174.528 
C 236.16 174.528 236.16 174.528 236.16 174.528 
C 236.16 174.528 236.16 174.528 236.16 174.528 
L 251.994226 175.913315 
C 252.034529 175.452643 252.05471 174.990432 252.05471 174.528 
C 252.05471 174.065568 252.034529 173.603357 251.994226 173.142685 
z
" clip-path="url(#p03145d2cdd)" style="fill: #ff0000"/>
   </g>
   <g id="patch_31">
    <path d="M 236.16 174.528 
C 236.16 174.528 236.16 174.528 236.16 174.528 
C 236.16 174.528 236.16 174.528 236.16 174.528 
L 251.030403 175.828992 
C 251.068254 175.396361 251.087206 174.962284 251.087206 174.528 
C 251.087206 174.093716 251.068254 173.659639 251.030403 173.227008 
z
" clip-path="url(#p03145d2cdd)" style="fill: #ffa500"/>
   </g>
   <g id="patch_32">
    <path d="M 236.16 174.528 
C 236.16 174.528 236.16 174.528 236.16 174.528 
C 236.16 174.528 236.16 174.528 236.16 174.528 
L 247.450491 175.51579 
C 247.47923 175.187311 247.493619 174.857734 247.493619 174.528 
C 247.493619 174.198266 247.47923 173.868689 247.450491 173.54021 
z
" clip-path="url(#p03145d2cdd)" style="fill: #008000"/>
   </g>
   <g id="patch_33">
    <path d="M 236.16 174.528 
C 236.16 174.528 236.16 174.528 236.16 174.528 
C 236.16 174.528 236.16 174.528 236.16 174.528 
L 251.668867 178.683588 
C 251.789767 178.232382 251.89092 177.776115 251.972035 177.316088 
C 252.05315 176.856062 252.11415 176.392715 252.154863 175.927369 
z
" clip-path="url(#p03145d2cdd)" style="fill: #ff0000"/>
   </g>
   <g id="patch_34">
    <path d="M 236.16 174.528 
C 236.16 174.528 236.16 174.528 236.16 174.528 
C 236.16 174.528 236.16 174.528 236.16 174.528 
L 250.534072 178.379521 
C 250.646126 177.96133 250.739877 177.538448 250.815056 177.112082 
C 250.890236 176.685716 250.946774 176.256272 250.984507 175.824976 
z
" clip-path="url(#p03145d2cdd)" style="fill: #ffa500"/>
   </g>
   <g id="patch_35">
    <path d="M 236.16 174.528 
C 236.16 174.528 236.16 174.528 236.16 174.528 
C 236.16 174.528 236.16 174.528 236.16 174.528 
L 246.2174 177.222872 
C 246.295803 176.930268 246.3614 176.634381 246.414002 176.336057 
C 246.466605 176.037733 246.506164 175.737255 246.532565 175.435482 
z
" clip-path="url(#p03145d2cdd)" style="fill: #008000"/>
   </g>
   <g id="patch_36">
    <path d="M 236.16 174.528 
C 236.16 174.528 236.16 174.528 236.16 174.528 
C 236.16 174.528 236.16 174.528 236.16 174.528 
L 255.55523 183.572145 
C 255.818356 183.007871 256.056731 182.432383 256.269675 181.847323 
C 256.482619 181.262264 256.66993 180.66819 256.831073 180.066797 
z
" clip-path="url(#p03145d2cdd)" style="fill: #ff0000"/>
   </g>
   <g id="patch_37">
    <path d="M 236.16 174.528 
C 236.16 174.528 236.16 174.528 236.16 174.528 
C 236.16 174.528 236.16 174.528 236.16 174.528 
L 251.630254 181.741898 
C 251.840131 181.291815 252.030266 180.832787 252.200117 180.366125 
C 252.369969 179.899463 252.519374 179.425611 252.647906 178.945921 
z
" clip-path="url(#p03145d2cdd)" style="fill: #ffa500"/>
   </g>
   <g id="patch_38">
    <path d="M 236.16 174.528 
C 236.16 174.528 236.16 174.528 236.16 174.528 
C 236.16 174.528 236.16 174.528 236.16 174.528 
L 245.346116 178.811556 
C 245.470739 178.5443 245.58364 178.271733 245.684496 177.994633 
C 245.785352 177.717533 245.874068 177.436163 245.95039 177.151327 
z
" clip-path="url(#p03145d2cdd)" style="fill: #008000"/>
   </g>
   <g id="patch_39">
    <path d="M 236.16 174.528 
C 236.16 174.528 236.16 174.528 236.16 174.528 
C 236.16 174.528 236.16 174.528 236.16 174.528 
L 267.917928 196.76514 
C 268.564882 195.841193 269.171208 194.889453 269.735174 193.912636 
C 270.299139 192.935818 270.820208 191.934855 271.296892 190.912602 
z
" clip-path="url(#p03145d2cdd)" style="fill: #ff0000"/>
   </g>
   <g id="patch_40">
    <path d="M 236.16 174.528 
C 236.16 174.528 236.16 174.528 236.16 174.528 
C 236.16 174.528 236.16 174.528 236.16 174.528 
L 255.048702 187.754012 
C 255.433492 187.204474 255.794117 186.638406 256.129548 186.057424 
C 256.464978 185.476441 256.774895 184.881097 257.058413 184.27309 
z
" clip-path="url(#p03145d2cdd)" style="fill: #ffa500"/>
   </g>
   <g id="patch_41">
    <path d="M 236.16 174.528 
C 236.16 174.528 236.16 174.528 236.16 174.528 
C 236.16 174.528 236.16 174.528 236.16 174.528 
L 245.406218 181.002271 
C 245.594577 180.733267 245.771106 180.456171 245.935303 180.171774 
C 246.0995 179.887377 246.251207 179.595949 246.389992 179.298324 
z
" clip-path="url(#p03145d2cdd)" style="fill: #008000"/>
   </g>
   <g id="patch_42">
    <path d="M 236.16 174.528 
C 236.16 174.528 236.16 174.528 236.16 174.528 
C 236.16 174.528 236.16 174.528 236.16 174.528 
L 274.585229 212.953229 
C 275.703151 211.835307 276.771754 210.669131 277.787989 209.45803 
C 278.804223 208.246929 279.767121 206.992056 280.673934 205.696992 
z
" clip-path="url(#p03145d2cdd)" style="fill: #ff0000"/>
   </g>
   <g id="patch_43">
    <path d="M 236.16 174.528 
C 236.16 174.528 236.16 174.528 236.16 174.528 
C 236.16 174.528 236.16 174.528 236.16 174.528 
L 259.078312 197.446312 
C 259.745084 196.779539 260.382441 196.083986 260.988563 195.361638 
C 261.594685 194.63929 262.168995 193.890834 262.709854 193.118408 
z
" clip-path="url(#p03145d2cdd)" style="fill: #ffa500"/>
   </g>
   <g id="patch_44">
    <path d="M 236.16 174.528 
C 236.16 174.528 236.16 174.528 236.16 174.528 
C 236.16 174.528 236.16 174.528 236.16 174.528 
L 246.519663 184.887663 
C 246.821061 184.586265 247.109163 184.271857 247.383146 183.945337 
C 247.657128 183.618818 247.916731 183.280497 248.161213 182.93134 
z
" clip-path="url(#p03145d2cdd)" style="fill: #008000"/>
   </g>
   <g id="patch_45">
    <path d="M 236.16 174.528 
C 236.16 174.528 236.16 174.528 236.16 174.528 
C 236.16 174.528 236.16 174.528 236.16 174.528 
L 265.14888 215.928412 
C 266.353361 215.085026 267.520462 214.189478 268.646853 213.244323 
C 269.773244 212.299169 270.857851 211.305309 271.89758 210.26558 
z
" clip-path="url(#p03145d2cdd)" style="fill: #ff0000"/>
   </g>
   <g id="patch_46">
    <path d="M 236.16 174.528 
C 236.16 174.528 236.16 174.528 236.16 174.528 
C 236.16 174.528 236.16 174.528 236.16 174.528 
L 258.344289 206.210448 
C 259.26604 205.565031 260.159187 204.879696 261.021179 204.156399 
C 261.88317 203.433102 262.713187 202.672532 263.508859 201.876859 
z
" clip-path="url(#p03145d2cdd)" style="fill: #ffa500"/>
   </g>
   <g id="patch_47">
    <path d="M 236.16 174.528 
C 236.16 174.528 236.16 174.528 236.16 174.528 
C 236.16 174.528 236.16 174.528 236.16 174.528 
L 248.302562 191.869376 
C 248.807082 191.516107 249.295946 191.140989 249.767756 190.745093 
C 250.239567 190.349196 250.693877 189.932898 251.129388 189.497388 
z
" clip-path="url(#p03145d2cdd)" style="fill: #008000"/>
   </g>
   <g id="patch_48">
    <path d="M 236.16 174.528 
C 236.16 174.528 236.16 174.528 236.16 174.528 
C 236.16 174.528 236.16 174.528 236.16 174.528 
L 253.819933 212.399849 
C 254.921756 211.886061 256.000631 211.324434 257.053481 210.716571 
C 258.106331 210.108708 259.132152 209.455188 260.128017 208.757876 
z
" clip-path="url(#p03145d2cdd)" style="fill: #ff0000"/>
   </g>
   <g id="patch_49">
    <path d="M 236.16 174.528 
C 236.16 174.528 236.16 174.528 236.16 174.528 
C 236.16 174.528 236.16 174.528 236.16 174.528 
L 251.317947 207.034323 
C 252.263668 206.593326 253.189693 206.111268 254.093379 205.589524 
C 254.997066 205.067781 255.877553 204.506848 256.732328 203.908329 
z
" clip-path="url(#p03145d2cdd)" style="fill: #ffa500"/>
   </g>
   <g id="patch_50">
    <path d="M 236.16 174.528 
C 236.16 174.528 236.16 174.528 236.16 174.528 
C 236.16 174.528 236.16 174.528 236.16 174.528 
L 246.294504 196.261514 
C 246.926807 195.966667 247.545941 195.644366 248.15014 195.295532 
C 248.754339 194.946697 249.343027 194.571662 249.914524 194.171495 
z
" clip-path="url(#p03145d2cdd)" style="fill: #008000"/>
   </g>
   <g id="patch_51">
    <path d="M 236.16 174.528 
C 236.16 174.528 236.16 174.528 236.16 174.528 
C 236.16 174.528 236.16 174.528 236.16 174.528 
L 246.373089 212.643767 
C 247.482008 212.346633 248.577431 212.001247 249.656233 211.608595 
C 250.735035 211.215944 251.796188 210.7764 252.836663 210.291218 
z
" clip-path="url(#p03145d2cdd)" style="fill: #ff0000"/>
   </g>
   <g id="patch_52">
    <path d="M 236.16 174.528 
C 236.16 174.528 236.16 174.528 236.16 174.528 
C 236.16 174.528 236.16 174.528 236.16 174.528 
L 245.627826 209.862406 
C 246.655825 209.586954 247.671314 209.266772 248.671394 208.902773 
C 249.671474 208.538773 250.655193 208.131303 251.619743 207.681526 
z
" clip-path="url(#p03145d2cdd)" style="fill: #ffa500"/>
   </g>
   <g id="patch_53">
    <path d="M 236.16 174.528 
C 236.16 174.528 236.16 174.528 236.16 174.528 
C 236.16 174.528 236.16 174.528 236.16 174.528 
L 243.51724 201.985593 
C 244.316075 201.771545 245.10519 201.522738 245.88233 201.239882 
C 246.659471 200.957027 247.423897 200.640391 248.173428 200.290879 
z
" clip-path="url(#p03145d2cdd)" style="fill: #008000"/>
   </g>
   <g id="patch_54">
    <path d="M 236.16 174.528 
C 236.16 174.528 236.16 174.528 236.16 174.528 
C 236.16 174.528 236.16 174.528 236.16 174.528 
L 239.20167 209.294452 
C 240.213146 209.20596 241.220278 209.073368 242.220192 208.897057 
C 243.220106 208.720745 244.211849 208.500881 245.192592 208.238091 
z
" clip-path="url(#p03145d2cdd)" style="fill: #ff0000"/>
   </g>
   <g id="patch_55">
    <path d="M 236.16 174.528 
C 236.16 174.528 236.16 174.528 236.16 174.528 
C 236.16 174.528 236.16 174.528 236.16 174.528 
L 239.07117 207.802823 
C 240.039249 207.718127 241.00317 207.591224 241.960184 207.422477 
C 242.917197 207.253729 243.866391 207.043298 244.805055 206.791784 
z
" clip-path="url(#p03145d2cdd)" style="fill: #ffa500"/>
   </g>
   <g id="patch_56">
    <path d="M 236.16 174.528 
C 236.16 174.528 236.16 174.528 236.16 174.528 
C 236.16 174.528 236.16 174.528 236.16 174.528 
L 238.62546 202.708332 
C 239.445322 202.636604 240.261664 202.52913 241.072156 202.386219 
C 241.882647 202.243307 242.686516 202.065094 243.481467 201.852087 
z
" clip-path="url(#p03145d2cdd)" style="fill: #008000"/>
   </g>
   <g id="patch_57">
    <path d="M 236.16 174.528 
C 236.16 174.528 236.16 174.528 236.16 174.528 
C 236.16 174.528 236.16 174.528 236.16 174.528 
L 233.489755 205.049044 
C 234.377717 205.126731 235.268646 205.16563 236.16 205.16563 
C 237.051354 205.16563 237.942283 205.126731 238.830245 205.049044 
z
" clip-path="url(#p03145d2cdd)" style="fill: #ff0000"/>
   </g>
   <g id="patch_58">
    <path d="M 236.16 174.528 
C 236.16 174.528 236.16 174.528 236.16 174.528 
C 236.16 174.528 236.16 174.528 236.16 174.528 
L 233.527901 204.613029 
C 234.403178 204.689606 235.28138 204.727949 236.16 204.727949 
C 237.03862 204.727949 237.916822 204.689606 238.792099 204.613029 
z
" clip-path="url(#p03145d2cdd)" style="fill: #ffa500"/>
   </g>
   <g id="patch_59">
    <path d="M 236.16 174.528 
C 236.16 174.528 236.16 174.528 236.16 174.528 
C 236.16 174.528 236.16 174.528 236.16 174.528 
L 233.911372 200.229932 
C 234.65913 200.295352 235.409386 200.328109 236.16 200.328109 
C 236.910614 200.328109 237.66087 200.295352 238.408628 200.229932 
z
" clip-path="url(#p03145d2cdd)" style="fill: #008000"/>
   </g>
   <g id="patch_60">
    <path d="M 236.16 174.528 
C 236.16 174.528 236.16 174.528 236.16 174.528 
C 236.16 174.528 236.16 174.528 236.16 174.528 
L 227.956141 205.145218 
C 228.846901 205.383897 229.747653 205.583589 230.655826 205.743724 
C 231.563998 205.903859 232.478727 206.024286 233.3974 206.104659 
z
" clip-path="url(#p03145d2cdd)" style="fill: #ff0000"/>
   </g>
   <g id="patch_61">
    <path d="M 236.16 174.528 
C 236.16 174.528 236.16 174.528 236.16 174.528 
C 236.16 174.528 236.16 174.528 236.16 174.528 
L 227.997876 204.989462 
C 228.884104 205.226926 229.780274 205.425602 230.683827 205.584923 
C 231.587379 205.744244 232.497454 205.864057 233.411454 205.944022 
z
" clip-path="url(#p03145d2cdd)" style="fill: #ffa500"/>
   </g>
   <g id="patch_62">
    <path d="M 236.16 174.528 
C 236.16 174.528 236.16 174.528 236.16 174.528 
C 236.16 174.528 236.16 174.528 236.16 174.528 
L 229.607645 198.981723 
C 230.319087 199.172354 231.038511 199.331846 231.763861 199.459745 
C 232.489211 199.587643 233.219797 199.683827 233.953534 199.748021 
z
" clip-path="url(#p03145d2cdd)" style="fill: #008000"/>
   </g>
   <g id="patch_63">
    <path d="M 236.16 174.528 
C 236.16 174.528 236.16 174.528 236.16 174.528 
C 236.16 174.528 236.16 174.528 236.16 174.528 
L 217.351295 214.863399 
C 218.52479 215.410608 219.721607 215.906346 220.938329 216.349197 
C 222.155051 216.792048 223.39052 217.181589 224.64121 217.516711 
z
" clip-path="url(#p03145d2cdd)" style="fill: #ff0000"/>
   </g>
   <g id="patch_64">
    <path d="M 236.16 174.528 
C 236.16 174.528 236.16 174.528 236.16 174.528 
C 236.16 174.528 236.16 174.528 236.16 174.528 
L 217.36103 214.842521 
C 218.533918 215.389448 219.730115 215.884929 220.946208 216.32755 
C 222.1623 216.770172 223.39713 217.159512 224.647172 217.49446 
z
" clip-path="url(#p03145d2cdd)" style="fill: #ffa500"/>
   </g>
   <g id="patch_65">
    <path d="M 236.16 174.528 
C 236.16 174.528 236.16 174.528 236.16 174.528 
C 236.16 174.528 236.16 174.528 236.16 174.528 
L 223.299596 202.107224 
C 224.101971 202.481378 224.920291 202.820337 225.752222 203.123135 
C 226.584153 203.425933 227.428901 203.692281 228.284057 203.92142 
z
" clip-path="url(#p03145d2cdd)" style="fill: #008000"/>
   </g>
   <g id="patch_66">
    <path d="M 236.16 174.528 
C 236.16 174.528 236.16 174.528 236.16 174.528 
C 236.16 174.528 236.16 174.528 236.16 174.528 
L 213.777519 206.493496 
C 214.707505 207.144679 215.665466 207.754968 216.648668 208.322619 
C 217.631869 208.890271 218.639375 209.414745 219.668309 209.894545 
z
" clip-path="url(#p03145d2cdd)" style="fill: #ff0000"/>
   </g>
   <g id="patch_67">
    <path d="M 236.16 174.528 
C 236.16 174.528 236.16 174.528 236.16 174.528 
C 236.16 174.528 236.16 174.528 236.16 174.528 
L 213.936072 206.267058 
C 214.859471 206.913628 215.810646 207.519593 216.786882 208.083224 
C 217.763119 208.646855 218.763488 209.167614 219.785133 209.644015 
z
" clip-path="url(#p03145d2cdd)" style="fill: #ffa500"/>
   </g>
   <g id="patch_68">
    <path d="M 236.16 174.528 
C 236.16 174.528 236.16 174.528 236.16 174.528 
C 236.16 174.528 236.16 174.528 236.16 174.528 
L 224.440247 191.265541 
C 224.9272 191.606509 225.428801 191.926064 225.943618 192.223294 
C 226.458434 192.520523 226.985977 192.795145 227.52474 193.046374 
z
" clip-path="url(#p03145d2cdd)" style="fill: #008000"/>
   </g>
   <g id="patch_69">
    <path d="M 236.16 174.528 
C 236.16 174.528 236.16 174.528 236.16 174.528 
C 236.16 174.528 236.16 174.528 236.16 174.528 
L 216.906664 193.781336 
C 217.466809 194.341482 218.051133 194.876916 218.657967 195.38611 
C 219.264801 195.895305 219.893568 196.377774 220.542472 196.832142 
z
" clip-path="url(#p03145d2cdd)" style="fill: #ff0000"/>
   </g>
   <g id="patch_70">
    <path d="M 236.16 174.528 
C 236.16 174.528 236.16 174.528 236.16 174.528 
C 236.16 174.528 236.16 174.528 236.16 174.528 
L 217.150995 193.537005 
C 217.704033 194.090042 218.280941 194.618681 218.880074 195.121414 
C 219.479207 195.624146 220.099995 196.100493 220.740664 196.549094 
z
" clip-path="url(#p03145d2cdd)" style="fill: #ffa500"/>
   </g>
   <g id="patch_71">
    <path d="M 236.16 174.528 
C 236.16 174.528 236.16 174.528 236.16 174.528 
C 236.16 174.528 236.16 174.528 236.16 174.528 
L 224.790433 185.897567 
C 225.121212 186.228347 225.46627 186.544534 225.82462 186.845226 
C 226.182971 187.145918 226.554273 187.430828 226.937466 187.699143 
z
" clip-path="url(#p03145d2cdd)" style="fill: #008000"/>
   </g>
   <g id="patch_72">
    <path d="M 236.16 174.528 
C 236.16 174.528 236.16 174.528 236.16 174.528 
C 236.16 174.528 236.16 174.528 236.16 174.528 
L 217.327907 187.714373 
C 217.711544 188.262263 218.118909 188.793151 218.548837 189.30552 
C 218.978766 189.817889 219.43085 190.311252 219.903799 190.784201 
z
" clip-path="url(#p03145d2cdd)" style="fill: #ff0000"/>
   </g>
   <g id="patch_73">
    <path d="M 236.16 174.528 
C 236.16 174.528 236.16 174.528 236.16 174.528 
C 236.16 174.528 236.16 174.528 236.16 174.528 
L 217.648695 187.489756 
C 218.025797 188.028313 218.426222 188.550157 218.848827 189.053799 
C 219.271433 189.55744 219.715816 190.042399 220.180708 190.507292 
z
" clip-path="url(#p03145d2cdd)" style="fill: #ffa500"/>
   </g>
   <g id="patch_74">
    <path d="M 236.16 174.528 
C 236.16 174.528 236.16 174.528 236.16 174.528 
C 236.16 174.528 236.16 174.528 236.16 174.528 
L 224.573923 182.640658 
C 224.809948 182.977737 225.060571 183.304355 225.325076 183.61958 
C 225.589582 183.934806 225.867717 184.238338 226.15869 184.52931 
z
" clip-path="url(#p03145d2cdd)" style="fill: #008000"/>
   </g>
   <g id="patch_75">
    <path d="M 236.16 174.528 
C 236.16 174.528 236.16 174.528 236.16 174.528 
C 236.16 174.528 236.16 174.528 236.16 174.528 
L 219.72938 182.189724 
C 219.952285 182.667747 220.195946 183.135815 220.459666 183.592592 
C 220.723386 184.049369 221.006915 184.494419 221.309442 184.926473 
z
" clip-path="url(#p03145d2cdd)" style="fill: #ff0000"/>
   </g>
   <g id="patch_76">
    <path d="M 236.16 174.528 
C 236.16 174.528 236.16 174.528 236.16 174.528 
C 236.16 174.528 236.16 174.528 236.16 174.528 
L 219.97991 182.0729 
C 220.199417 182.543634 220.439362 183.004565 220.699061 183.454377 
C 220.95876 183.904189 221.237966 184.342453 221.53588 184.767919 
z
" clip-path="url(#p03145d2cdd)" style="fill: #ffa500"/>
   </g>
   <g id="patch_77">
    <path d="M 236.16 174.528 
C 236.16 174.528 236.16 174.528 236.16 174.528 
C 236.16 174.528 236.16 174.528 236.16 174.528 
L 225.011396 179.726679 
C 225.162643 180.051031 225.327974 180.368627 225.506915 180.678562 
C 225.685856 180.988497 225.878237 181.290475 226.08351 181.583635 
z
" clip-path="url(#p03145d2cdd)" style="fill: #008000"/>
   </g>
   <g id="patch_78">
    <path d="M 236.16 174.528 
C 236.16 174.528 236.16 174.528 236.16 174.528 
C 236.16 174.528 236.16 174.528 236.16 174.528 
L 214.04262 180.454334 
C 214.215037 181.097805 214.415454 181.733445 214.643297 182.359439 
C 214.871141 182.985434 215.126194 183.601188 215.40773 184.204943 
z
" clip-path="url(#p03145d2cdd)" style="fill: #ff0000"/>
   </g>
   <g id="patch_79">
    <path d="M 236.16 174.528 
C 236.16 174.528 236.16 174.528 236.16 174.528 
C 236.16 174.528 236.16 174.528 236.16 174.528 
L 214.576641 180.311244 
C 214.744896 180.939178 214.940473 181.55947 215.162815 182.17035 
C 215.385157 182.78123 215.634053 183.382117 215.908791 183.971294 
z
" clip-path="url(#p03145d2cdd)" style="fill: #ffa500"/>
   </g>
   <g id="patch_80">
    <path d="M 236.16 174.528 
C 236.16 174.528 236.16 174.528 236.16 174.528 
C 236.16 174.528 236.16 174.528 236.16 174.528 
L 220.717886 178.665702 
C 220.838265 179.114966 220.978194 179.558763 221.137272 179.995826 
C 221.29635 180.432889 221.474425 180.862801 221.67099 181.284336 
z
" clip-path="url(#p03145d2cdd)" style="fill: #008000"/>
   </g>
   <g id="patch_81">
    <path d="M 236.16 174.528 
C 236.16 174.528 236.16 174.528 236.16 174.528 
C 236.16 174.528 236.16 174.528 236.16 174.528 
L 203.826052 177.356854 
C 203.908353 178.29756 204.031667 179.234226 204.195643 180.164179 
C 204.359619 181.094131 204.5641 182.016486 204.808502 182.928608 
z
" clip-path="url(#p03145d2cdd)" style="fill: #ff0000"/>
   </g>
   <g id="patch_82">
    <path d="M 236.16 174.528 
C 236.16 174.528 236.16 174.528 236.16 174.528 
C 236.16 174.528 236.16 174.528 236.16 174.528 
L 204.858719 177.266507 
C 204.938391 178.177169 205.057767 179.08392 205.216506 179.984173 
C 205.375245 180.884425 205.573195 181.777322 205.809792 182.660314 
z
" clip-path="url(#p03145d2cdd)" style="fill: #ffa500"/>
   </g>
   <g id="patch_83">
    <path d="M 236.16 174.528 
C 236.16 174.528 236.16 174.528 236.16 174.528 
C 236.16 174.528 236.16 174.528 236.16 174.528 
L 216.103314 176.282733 
C 216.154365 176.866251 216.230857 177.447263 216.332571 178.024111 
C 216.434285 178.600959 216.561124 179.173093 216.712726 179.738881 
z
" clip-path="url(#p03145d2cdd)" style="fill: #008000"/>
   </g>
   <g id="patch_84">
    <path d="M 236.16 174.528 
C 236.16 174.528 236.16 174.528 236.16 174.528 
C 236.16 174.528 236.16 174.528 236.16 174.528 
L 180.740209 169.679397 
C 180.599147 171.291749 180.528515 172.909489 180.528515 174.528 
C 180.528515 176.146511 180.599147 177.764251 180.740209 179.376603 
z
" clip-path="url(#p03145d2cdd)" style="fill: #ff0000"/>
   </g>
   <g id="patch_85">
    <path d="M 236.16 174.528 
C 236.16 174.528 236.16 174.528 236.16 174.528 
C 236.16 174.528 236.16 174.528 236.16 174.528 
L 186.087129 170.147191 
C 185.959676 171.603983 185.895859 173.065643 185.895859 174.528 
C 185.895859 175.990357 185.959676 177.452017 186.087129 178.908809 
z
" clip-path="url(#p03145d2cdd)" style="fill: #ffa500"/>
   </g>
   <g id="patch_86">
    <path d="M 236.16 174.528 
C 236.16 174.528 236.16 174.528 236.16 174.528 
C 236.16 174.528 236.16 174.528 236.16 174.528 
L 208.599268 172.116748 
C 208.529116 172.918585 208.49399 173.723101 208.49399 174.528 
C 208.49399 175.332899 208.529116 176.137415 208.599268 176.939252 
z
" clip-path="url(#p03145d2cdd)" style="fill: #008000"/>
   </g>
   <g id="patch_87">
    <path d="M 236.16 174.528 
C 236.16 174.528 236.16 174.528 236.16 174.528 
C 236.16 174.528 236.16 174.528 236.16 174.528 
L 160.885255 154.358193 
C 160.298446 156.548194 159.807488 158.76276 159.413783 160.995571 
C 159.020078 163.228382 158.724001 165.477312 158.526397 167.73594 
z
" clip-path="url(#p03145d2cdd)" style="fill: #ff0000"/>
   </g>
   <g id="patch_88">
    <path d="M 236.16 174.528 
C 236.16 174.528 236.16 174.528 236.16 174.528 
C 236.16 174.528 236.16 174.528 236.16 174.528 
L 171.83269 157.291549 
C 171.331223 159.163052 170.911667 161.055547 170.575219 162.963634 
C 170.238772 164.87172 169.985755 166.793581 169.816888 168.72373 
z
" clip-path="url(#p03145d2cdd)" style="fill: #ffa500"/>
   </g>
   <g id="patch_89">
    <path d="M 236.16 174.528 
C 236.16 174.528 236.16 174.528 236.16 174.528 
C 236.16 174.528 236.16 174.528 236.16 174.528 
L 203.962969 165.900831 
C 203.711975 166.837554 203.501979 167.784783 203.333581 168.739817 
C 203.165183 169.69485 203.038543 170.656777 202.954022 171.622853 
z
" clip-path="url(#p03145d2cdd)" style="fill: #008000"/>
   </g>
   <g id="patch_90">
    <path d="M 236.16 174.528 
C 236.16 174.528 236.16 174.528 236.16 174.528 
C 236.16 174.528 236.16 174.528 236.16 174.528 
L 146.720638 132.821741 
C 145.50726 135.423839 144.408015 138.07765 143.426042 140.775599 
C 142.444068 143.473549 141.580302 146.213067 140.837207 148.986335 
z
" clip-path="url(#p03145d2cdd)" style="fill: #ff0000"/>
   </g>
   <g id="patch_91">
    <path d="M 236.16 174.528 
C 236.16 174.528 236.16 174.528 236.16 174.528 
C 236.16 174.528 236.16 174.528 236.16 174.528 
L 163.464421 140.629495 
C 162.478197 142.744459 161.58474 144.901455 160.786601 147.094326 
C 159.988461 149.287197 159.286398 151.513855 158.682417 153.767944 
z
" clip-path="url(#p03145d2cdd)" style="fill: #ffa500"/>
   </g>
   <g id="patch_92">
    <path d="M 236.16 174.528 
C 236.16 174.528 236.16 174.528 236.16 174.528 
C 236.16 174.528 236.16 174.528 236.16 174.528 
L 201.08574 158.172604 
C 200.609906 159.193035 200.178829 160.233745 199.793742 161.291764 
C 199.408654 162.349784 199.069922 163.424105 198.778512 164.511661 
z
" clip-path="url(#p03145d2cdd)" style="fill: #008000"/>
   </g>
   <g id="patch_93">
    <path d="M 236.16 174.528 
C 236.16 174.528 236.16 174.528 236.16 174.528 
C 236.16 174.528 236.16 174.528 236.16 174.528 
L 143.131727 109.388902 
C 141.236607 112.095414 139.460502 114.883341 137.808481 117.744724 
C 136.156461 120.606108 134.630098 123.538223 133.23375 126.532701 
z
" clip-path="url(#p03145d2cdd)" style="fill: #ff0000"/>
   </g>
   <g id="patch_94">
    <path d="M 236.16 174.528 
C 236.16 174.528 236.16 174.528 236.16 174.528 
C 236.16 174.528 236.16 174.528 236.16 174.528 
L 163.643235 123.751214 
C 162.165964 125.860976 160.781466 128.034202 159.493694 130.264688 
C 158.205923 132.495174 157.016103 134.780797 155.927631 137.115032 
z
" clip-path="url(#p03145d2cdd)" style="fill: #ffa500"/>
   </g>
   <g id="patch_95">
    <path d="M 236.16 174.528 
C 236.16 174.528 236.16 174.528 236.16 174.528 
C 236.16 174.528 236.16 174.528 236.16 174.528 
L 200.779065 149.754002 
C 200.058304 150.783355 199.382808 151.843672 198.754504 152.931927 
C 198.1262 154.020181 197.545686 155.135336 197.014621 156.27421 
z
" clip-path="url(#p03145d2cdd)" style="fill: #008000"/>
   </g>
   <g id="patch_96">
    <path d="M 236.16 174.528 
C 236.16 174.528 236.16 174.528 236.16 174.528 
C 236.16 174.528 236.16 174.528 236.16 174.528 
L 170.956019 109.324019 
C 169.059011 111.221027 167.245693 113.199917 165.521239 115.255041 
C 163.796785 117.310166 162.162838 119.439567 160.624062 121.637167 
z
" clip-path="url(#p03145d2cdd)" style="fill: #ff0000"/>
   </g>
   <g id="patch_97">
    <path d="M 236.16 174.528 
C 236.16 174.528 236.16 174.528 236.16 174.528 
C 236.16 174.528 236.16 174.528 236.16 174.528 
L 181.201661 119.569661 
C 179.602734 121.168588 178.074346 122.836531 176.620859 124.568729 
C 175.167372 126.300927 173.790171 128.095731 172.493186 129.948017 
z
" clip-path="url(#p03145d2cdd)" style="fill: #ffa500"/>
   </g>
   <g id="patch_98">
    <path d="M 236.16 174.528 
C 236.16 174.528 236.16 174.528 236.16 174.528 
C 236.16 174.528 236.16 174.528 236.16 174.528 
L 202.963469 141.331469 
C 201.997668 142.29727 201.074474 143.304759 200.196524 144.35106 
C 199.318573 145.397361 198.486701 146.481478 197.703282 147.600316 
z
" clip-path="url(#p03145d2cdd)" style="fill: #008000"/>
   </g>
   <g id="patch_99">
    <path d="M 236.16 174.528 
C 236.16 174.528 236.16 174.528 236.16 174.528 
C 236.16 174.528 236.16 174.528 236.16 174.528 
L 198.120352 120.201753 
C 196.539815 121.308457 195.008327 122.483609 193.53026 123.723855 
C 192.052193 124.9641 190.628954 126.268258 189.264606 127.632606 
z
" clip-path="url(#p03145d2cdd)" style="fill: #ff0000"/>
   </g>
   <g id="patch_100">
    <path d="M 236.16 174.528 
C 236.16 174.528 236.16 174.528 236.16 174.528 
C 236.16 174.528 236.16 174.528 236.16 174.528 
L 203.088365 127.29681 
C 201.714247 128.258977 200.382773 129.280653 199.097743 130.358922 
C 197.812713 131.43719 196.57535 132.571024 195.389187 133.757187 
z
" clip-path="url(#p03145d2cdd)" style="fill: #ffa500"/>
   </g>
   <g id="patch_101">
    <path d="M 236.16 174.528 
C 236.16 174.528 236.16 174.528 236.16 174.528 
C 236.16 174.528 236.16 174.528 236.16 174.528 
L 213.301858 141.88319 
C 212.352108 142.548212 211.431833 143.254365 210.543658 143.999632 
C 209.655483 144.744899 208.800254 145.528572 207.980413 146.348413 
z
" clip-path="url(#p03145d2cdd)" style="fill: #008000"/>
   </g>
   <g id="patch_102">
    <path d="M 236.16 174.528 
C 236.16 174.528 236.16 174.528 236.16 174.528 
C 236.16 174.528 236.16 174.528 236.16 174.528 
L 212.775678 124.38016 
C 211.316705 125.06049 209.888117 125.804166 208.49399 126.609065 
C 207.099864 127.413965 205.741527 128.279321 204.422857 129.202663 
z
" clip-path="url(#p03145d2cdd)" style="fill: #ff0000"/>
   </g>
   <g id="patch_103">
    <path d="M 236.16 174.528 
C 236.16 174.528 236.16 174.528 236.16 174.528 
C 236.16 174.528 236.16 174.528 236.16 174.528 
L 215.248458 129.683054 
C 213.943765 130.291442 212.666242 130.956478 211.419538 131.676263 
C 210.172834 132.396048 208.958135 133.169897 207.778908 133.9956 
z
" clip-path="url(#p03145d2cdd)" style="fill: #ffa500"/>
   </g>
   <g id="patch_104">
    <path d="M 236.16 174.528 
C 236.16 174.528 236.16 174.528 236.16 174.528 
C 236.16 174.528 236.16 174.528 236.16 174.528 
L 221.430408 142.940289 
C 220.511413 143.368823 219.611557 143.837259 218.733408 144.344258 
C 217.85526 144.851257 216.999655 145.396338 216.169035 145.977944 
z
" clip-path="url(#p03145d2cdd)" style="fill: #008000"/>
   </g>
   <g id="patch_105">
    <path d="M 236.16 174.528 
C 236.16 174.528 236.16 174.528 236.16 174.528 
C 236.16 174.528 236.16 174.528 236.16 174.528 
L 222.035769 121.815652 
C 220.502186 122.226575 218.987265 122.704227 217.495332 123.247247 
C 216.003399 123.790266 214.535874 124.398135 213.096945 125.069118 
z
" clip-path="url(#p03145d2cdd)" style="fill: #ff0000"/>
   </g>
   <g id="patch_106">
    <path d="M 236.16 174.528 
C 236.16 174.528 236.16 174.528 236.16 174.528 
C 236.16 174.528 236.16 174.528 236.16 174.528 
L 223.693235 128.001399 
C 222.339616 128.3641 221.00247 128.7857 219.685614 129.264997 
C 218.368758 129.744293 217.073445 130.280829 215.803373 130.873073 
z
" clip-path="url(#p03145d2cdd)" style="fill: #ffa500"/>
   </g>
   <g id="patch_107">
    <path d="M 236.16 174.528 
C 236.16 174.528 236.16 174.528 236.16 174.528 
C 236.16 174.528 236.16 174.528 236.16 174.528 
L 226.978356 140.261636 
C 225.981429 140.528762 224.996635 140.839266 224.026784 141.192263 
C 223.056933 141.54526 222.102949 141.940414 221.167554 142.376595 
z
" clip-path="url(#p03145d2cdd)" style="fill: #008000"/>
   </g>
   <g id="patch_108">
    <path d="M 236.16 174.528 
C 236.16 174.528 236.16 174.528 236.16 174.528 
C 236.16 174.528 236.16 174.528 236.16 174.528 
L 230.839586 113.715393 
C 229.070339 113.870182 227.308689 114.102108 225.559664 114.410508 
C 223.81064 114.718908 222.075907 115.103489 220.360417 115.563154 
z
" clip-path="url(#p03145d2cdd)" style="fill: #ff0000"/>
   </g>
   <g id="patch_109">
    <path d="M 236.16 174.528 
C 236.16 174.528 236.16 174.528 236.16 174.528 
C 236.16 174.528 236.16 174.528 236.16 174.528 
L 231.401743 120.140876 
C 229.819435 120.27931 228.243921 120.486731 226.6797 120.762545 
C 225.115478 121.03836 223.564038 121.382306 222.029807 121.793402 
z
" clip-path="url(#p03145d2cdd)" style="fill: #ffa500"/>
   </g>
   <g id="patch_110">
    <path d="M 236.16 174.528 
C 236.16 174.528 236.16 174.528 236.16 174.528 
C 236.16 174.528 236.16 174.528 236.16 174.528 
L 232.570227 133.496702 
C 231.376485 133.60114 230.18787 133.757625 229.007773 133.965707 
C 227.827677 134.17379 226.657223 134.433274 225.499753 134.743417 
z
" clip-path="url(#p03145d2cdd)" style="fill: #008000"/>
   </g>
   <g id="matplotlib.axis_1">
    <g id="xtick_1">
     <g id="line2d_1">
      <path d="M 236.16 174.528 
L 236.16 41.472 
" clip-path="url(#p03145d2cdd)" style="fill: none; stroke: #b0b0b0; stroke-width: 0.8; stroke-linecap: square"/>
     </g>
     <g id="text_1">
      <!-- 0° -->
      <g transform="translate(230.47875 30.231375) scale(0.1 -0.1)">
       <defs>
        <path id="DejaVuSans-30" d="M 2034 4250 
Q 1547 4250 1301 3770 
Q 1056 3291 1056 2328 
Q 1056 1369 1301 889 
Q 1547 409 2034 409 
Q 2525 409 2770 889 
Q 3016 1369 3016 2328 
Q 3016 3291 2770 3770 
Q 2525 4250 2034 4250 
z
M 2034 4750 
Q 2819 4750 3233 4129 
Q 3647 3509 3647 2328 
Q 3647 1150 3233 529 
Q 2819 -91 2034 -91 
Q 1250 -91 836 529 
Q 422 1150 422 2328 
Q 422 3509 836 4129 
Q 1250 4750 2034 4750 
z
" transform="scale(0.015625)"/>
        <path id="DejaVuSans-b0" d="M 1600 4347 
Q 1350 4347 1178 4173 
Q 1006 4000 1006 3750 
Q 1006 3503 1178 3333 
Q 1350 3163 1600 3163 
Q 1850 3163 2022 3333 
Q 2194 3503 2194 3750 
Q 2194 3997 2020 4172 
Q 1847 4347 1600 4347 
z
M 1600 4750 
Q 1800 4750 1984 4673 
Q 2169 4597 2303 4453 
Q 2447 4313 2519 4134 
Q 2591 3956 2591 3750 
Q 2591 3338 2302 3052 
Q 2013 2766 1594 2766 
Q 1172 2766 890 3047 
Q 609 3328 609 3750 
Q 609 4169 896 4459 
Q 1184 4750 1600 4750 
z
" transform="scale(0.015625)"/>
       </defs>
       <use xlink:href="#DejaVuSans-30"/>
       <use xlink:href="#DejaVuSans-b0" x="63.623047"/>
      </g>
     </g>
    </g>
    <g id="xtick_2">
     <g id="line2d_2">
      <path d="M 236.16 174.528 
L 330.2448 80.4432 
" clip-path="url(#p03145d2cdd)" style="fill: none; stroke: #b0b0b0; stroke-width: 0.8; stroke-linecap: square"/>
     </g>
     <g id="text_2">
      <!-- 45° -->
      <g transform="translate(331.281795 73.30308) scale(0.1 -0.1)">
       <defs>
        <path id="DejaVuSans-34" d="M 2419 4116 
L 825 1625 
L 2419 1625 
L 2419 4116 
z
M 2253 4666 
L 3047 4666 
L 3047 1625 
L 3713 1625 
L 3713 1100 
L 3047 1100 
L 3047 0 
L 2419 0 
L 2419 1100 
L 313 1100 
L 313 1709 
L 2253 4666 
z
" transform="scale(0.015625)"/>
        <path id="DejaVuSans-35" d="M 691 4666 
L 3169 4666 
L 3169 4134 
L 1269 4134 
L 1269 2991 
Q 1406 3038 1543 3061 
Q 1681 3084 1819 3084 
Q 2600 3084 3056 2656 
Q 3513 2228 3513 1497 
Q 3513 744 3044 326 
Q 2575 -91 1722 -91 
Q 1428 -91 1123 -41 
Q 819 9 494 109 
L 494 744 
Q 775 591 1075 516 
Q 1375 441 1709 441 
Q 2250 441 2565 725 
Q 2881 1009 2881 1497 
Q 2881 1984 2565 2268 
Q 2250 2553 1709 2553 
Q 1456 2553 1204 2497 
Q 953 2441 691 2322 
L 691 4666 
z
" transform="scale(0.015625)"/>
       </defs>
       <use xlink:href="#DejaVuSans-34"/>
       <use xlink:href="#DejaVuSans-35" x="63.623047"/>
       <use xlink:href="#DejaVuSans-b0" x="127.246094"/>
      </g>
     </g>
    </g>
    <g id="xtick_3">
     <g id="line2d_3">
      <path d="M 236.16 174.528 
L 369.216 174.528 
" clip-path="url(#p03145d2cdd)" style="fill: none; stroke: #b0b0b0; stroke-width: 0.8; stroke-linecap: square"/>
     </g>
     <g id="text_3">
      <!-- 90° -->
      <g transform="translate(374.3535 177.287375) scale(0.1 -0.1)">
       <defs>
        <path id="DejaVuSans-39" d="M 703 97 
L 703 672 
Q 941 559 1184 500 
Q 1428 441 1663 441 
Q 2288 441 2617 861 
Q 2947 1281 2994 2138 
Q 2813 1869 2534 1725 
Q 2256 1581 1919 1581 
Q 1219 1581 811 2004 
Q 403 2428 403 3163 
Q 403 3881 828 4315 
Q 1253 4750 1959 4750 
Q 2769 4750 3195 4129 
Q 3622 3509 3622 2328 
Q 3622 1225 3098 567 
Q 2575 -91 1691 -91 
Q 1453 -91 1209 -44 
Q 966 3 703 97 
z
M 1959 2075 
Q 2384 2075 2632 2365 
Q 2881 2656 2881 3163 
Q 2881 3666 2632 3958 
Q 2384 4250 1959 4250 
Q 1534 4250 1286 3958 
Q 1038 3666 1038 3163 
Q 1038 2656 1286 2365 
Q 1534 2075 1959 2075 
z
" transform="scale(0.015625)"/>
       </defs>
       <use xlink:href="#DejaVuSans-39"/>
       <use xlink:href="#DejaVuSans-30" x="63.623047"/>
       <use xlink:href="#DejaVuSans-b0" x="127.246094"/>
      </g>
     </g>
    </g>
    <g id="xtick_4">
     <g id="line2d_4">
      <path d="M 236.16 174.528 
L 330.2448 268.6128 
" clip-path="url(#p03145d2cdd)" style="fill: none; stroke: #b0b0b0; stroke-width: 0.8; stroke-linecap: square"/>
     </g>
     <g id="text_4">
      <!-- 135° -->
      <g transform="translate(328.100545 281.27167) scale(0.1 -0.1)">
       <defs>
        <path id="DejaVuSans-31" d="M 794 531 
L 1825 531 
L 1825 4091 
L 703 3866 
L 703 4441 
L 1819 4666 
L 2450 4666 
L 2450 531 
L 3481 531 
L 3481 0 
L 794 0 
L 794 531 
z
" transform="scale(0.015625)"/>
        <path id="DejaVuSans-33" d="M 2597 2516 
Q 3050 2419 3304 2112 
Q 3559 1806 3559 1356 
Q 3559 666 3084 287 
Q 2609 -91 1734 -91 
Q 1441 -91 1130 -33 
Q 819 25 488 141 
L 488 750 
Q 750 597 1062 519 
Q 1375 441 1716 441 
Q 2309 441 2620 675 
Q 2931 909 2931 1356 
Q 2931 1769 2642 2001 
Q 2353 2234 1838 2234 
L 1294 2234 
L 1294 2753 
L 1863 2753 
Q 2328 2753 2575 2939 
Q 2822 3125 2822 3475 
Q 2822 3834 2567 4026 
Q 2313 4219 1838 4219 
Q 1578 4219 1281 4162 
Q 984 4106 628 3988 
L 628 4550 
Q 988 4650 1302 4700 
Q 1616 4750 1894 4750 
Q 2613 4750 3031 4423 
Q 3450 4097 3450 3541 
Q 3450 3153 3228 2886 
Q 3006 2619 2597 2516 
z
" transform="scale(0.015625)"/>
       </defs>
       <use xlink:href="#DejaVuSans-31"/>
       <use xlink:href="#DejaVuSans-33" x="63.623047"/>
       <use xlink:href="#DejaVuSans-35" x="127.246094"/>
       <use xlink:href="#DejaVuSans-b0" x="190.869141"/>
      </g>
     </g>
    </g>
    <g id="xtick_5">
     <g id="line2d_5">
      <path d="M 236.16 174.528 
L 236.16 307.584 
" clip-path="url(#p03145d2cdd)" style="fill: none; stroke: #b0b0b0; stroke-width: 0.8; stroke-linecap: square"/>
     </g>
     <g id="text_5">
      <!-- 180° -->
      <g transform="translate(224.11625 324.343375) scale(0.1 -0.1)">
       <defs>
        <path id="DejaVuSans-38" d="M 2034 2216 
Q 1584 2216 1326 1975 
Q 1069 1734 1069 1313 
Q 1069 891 1326 650 
Q 1584 409 2034 409 
Q 2484 409 2743 651 
Q 3003 894 3003 1313 
Q 3003 1734 2745 1975 
Q 2488 2216 2034 2216 
z
M 1403 2484 
Q 997 2584 770 2862 
Q 544 3141 544 3541 
Q 544 4100 942 4425 
Q 1341 4750 2034 4750 
Q 2731 4750 3128 4425 
Q 3525 4100 3525 3541 
Q 3525 3141 3298 2862 
Q 3072 2584 2669 2484 
Q 3125 2378 3379 2068 
Q 3634 1759 3634 1313 
Q 3634 634 3220 271 
Q 2806 -91 2034 -91 
Q 1263 -91 848 271 
Q 434 634 434 1313 
Q 434 1759 690 2068 
Q 947 2378 1403 2484 
z
M 1172 3481 
Q 1172 3119 1398 2916 
Q 1625 2713 2034 2713 
Q 2441 2713 2670 2916 
Q 2900 3119 2900 3481 
Q 2900 3844 2670 4047 
Q 2441 4250 2034 4250 
Q 1625 4250 1398 4047 
Q 1172 3844 1172 3481 
z
" transform="scale(0.015625)"/>
       </defs>
       <use xlink:href="#DejaVuSans-31"/>
       <use xlink:href="#DejaVuSans-38" x="63.623047"/>
       <use xlink:href="#DejaVuSans-30" x="127.246094"/>
       <use xlink:href="#DejaVuSans-b0" x="190.869141"/>
      </g>
     </g>
    </g>
    <g id="xtick_6">
     <g id="line2d_6">
      <path d="M 236.16 174.528 
L 142.0752 268.6128 
" clip-path="url(#p03145d2cdd)" style="fill: none; stroke: #b0b0b0; stroke-width: 0.8; stroke-linecap: square"/>
     </g>
     <g id="text_6">
      <!-- 225° -->
      <g transform="translate(120.131955 281.27167) scale(0.1 -0.1)">
       <defs>
        <path id="DejaVuSans-32" d="M 1228 531 
L 3431 531 
L 3431 0 
L 469 0 
L 469 531 
Q 828 903 1448 1529 
Q 2069 2156 2228 2338 
Q 2531 2678 2651 2914 
Q 2772 3150 2772 3378 
Q 2772 3750 2511 3984 
Q 2250 4219 1831 4219 
Q 1534 4219 1204 4116 
Q 875 4013 500 3803 
L 500 4441 
Q 881 4594 1212 4672 
Q 1544 4750 1819 4750 
Q 2544 4750 2975 4387 
Q 3406 4025 3406 3419 
Q 3406 3131 3298 2873 
Q 3191 2616 2906 2266 
Q 2828 2175 2409 1742 
Q 1991 1309 1228 531 
z
" transform="scale(0.015625)"/>
       </defs>
       <use xlink:href="#DejaVuSans-32"/>
       <use xlink:href="#DejaVuSans-32" x="63.623047"/>
       <use xlink:href="#DejaVuSans-35" x="127.246094"/>
       <use xlink:href="#DejaVuSans-b0" x="190.869141"/>
      </g>
     </g>
    </g>
    <g id="xtick_7">
     <g id="line2d_7">
      <path d="M 236.16 174.528 
L 103.104 174.528 
" clip-path="url(#p03145d2cdd)" style="fill: none; stroke: #b0b0b0; stroke-width: 0.8; stroke-linecap: square"/>
     </g>
     <g id="text_7">
      <!-- 270° -->
      <g transform="translate(77.06025 177.287375) scale(0.1 -0.1)">
       <defs>
        <path id="DejaVuSans-37" d="M 525 4666 
L 3525 4666 
L 3525 4397 
L 1831 0 
L 1172 0 
L 2766 4134 
L 525 4134 
L 525 4666 
z
" transform="scale(0.015625)"/>
       </defs>
       <use xlink:href="#DejaVuSans-32"/>
       <use xlink:href="#DejaVuSans-37" x="63.623047"/>
       <use xlink:href="#DejaVuSans-30" x="127.246094"/>
       <use xlink:href="#DejaVuSans-b0" x="190.869141"/>
      </g>
     </g>
    </g>
    <g id="xtick_8">
     <g id="line2d_8">
      <path d="M 236.16 174.528 
L 142.0752 80.4432 
" clip-path="url(#p03145d2cdd)" style="fill: none; stroke: #b0b0b0; stroke-width: 0.8; stroke-linecap: square"/>
     </g>
     <g id="text_8">
      <!-- 315° -->
      <g transform="translate(120.131955 73.30308) scale(0.1 -0.1)">
       <use xlink:href="#DejaVuSans-33"/>
       <use xlink:href="#DejaVuSans-31" x="63.623047"/>
       <use xlink:href="#DejaVuSans-35" x="127.246094"/>
       <use xlink:href="#DejaVuSans-b0" x="190.869141"/>
      </g>
     </g>
    </g>
   </g>
   <g id="patch_111">
    <path d="M 236.16 41.472 
C 218.687246 41.472 201.384393 44.913752 185.241673 51.600285 
C 169.098954 58.286818 154.430303 68.088097 142.0752 80.4432 
C 129.720097 92.798303 119.918818 107.466954 113.232285 123.609673 
C 106.545752 139.752393 103.104 157.055246 103.104 174.528 
C 103.104 192.000754 106.545752 209.303607 113.232285 225.446327 
C 119.918818 241.589046 129.720097 256.257697 142.0752 268.6128 
C 154.430303 280.967903 169.098954 290.769182 185.241673 297.455715 
C 201.384393 304.142248 218.687246 307.584 236.16 307.584 
C 253.632754 307.584 270.935607 304.142248 287.078327 297.455715 
C 303.221046 290.769182 317.889697 280.967903 330.2448 268.6128 
C 342.599903 256.257697 352.401182 241.589046 359.087715 225.446327 
C 365.774248 209.303607 369.216 192.000754 369.216 174.528 
C 369.216 157.055246 365.774248 139.752393 359.087715 123.609673 
C 352.401182 107.466954 342.599903 92.798303 330.2448 80.4432 
C 317.889697 68.088097 303.221046 58.286818 287.078327 51.600285 
C 270.935607 44.913752 253.632754 41.472 236.16 41.472 
" style="fill: none; stroke: #000000; stroke-width: 0.8; stroke-linejoin: miter; stroke-linecap: square"/>
   </g>
  </g>
 </g>
 <defs>
  <clipPath id="p03145d2cdd">
   <path d="M 369.216 174.528 
C 369.216 157.055246 365.774248 139.752393 359.087715 123.609673 
C 352.401182 107.466954 342.599903 92.798303 330.2448 80.4432 
C 317.889697 68.088097 303.221046 58.286818 287.078327 51.600285 
C 270.935607 44.913752 253.632754 41.472 236.16 41.472 
C 218.687246 41.472 201.384393 44.913752 185.241673 51.600285 
C 169.098954 58.286818 154.430303 68.088097 142.0752 80.4432 
C 129.720097 92.798303 119.918818 107.466954 113.232285 123.609673 
C 106.545752 139.752393 103.104 157.055246 103.104 174.528 
C 103.104 192.000754 106.545752 209.303607 113.232285 225.446327 
C 119.918818 241.589046 129.720097 256.257697 142.0752 268.6128 
C 154.430303 280.967903 169.098954 290.769182 185.241673 297.455715 
C 201.384393 304.142248 218.687246 307.584 236.16 307.584 
C 253.632754 307.584 270.935607 304.142248 287.078327 297.455715 
C 303.221046 290.769182 317.889697 280.967903 330.2448 268.6128 
C 342.599903 256.257697 352.401182 241.589046 359.087715 225.446327 
C 365.774248 209.303607 369.216 192.000754 369.216 174.528 
M 236.16 174.528 
C 236.16 174.528 236.16 174.528 236.16 174.528 
C 236.16 174.528 236.16 174.528 236.16 174.528 
C 236.16 174.528 236.16 174.528 236.16 174.528 
C 236.16 174.528 236.16 174.528 236.16 174.528 
C 236.16 174.528 236.16 174.528 236.16 174.528 
C 236.16 174.528 236.16 174.528 236.16 174.528 
C 236.16 174.528 236.16 174.528 236.16 174.528 
C 236.16 174.528 236.16 174.528 236.16 174.528 
C 236.16 174.528 236.16 174.528 236.16 174.528 
C 236.16 174.528 236.16 174.528 236.16 174.528 
C 236.16 174.528 236.16 174.528 236.16 174.528 
C 236.16 174.528 236.16 174.528 236.16 174.528 
C 236.16 174.528 236.16 174.528 236.16 174.528 
C 236.16 174.528 236.16 174.528 236.16 174.528 
C 236.16 174.528 236.16 174.528 236.16 174.528 
C 236.16 174.528 236.16 174.528 236.16 174.528 
z
"/>
  </clipPath>
 </defs>
</svg>
