<?xml version="1.0" encoding="utf-8" standalone="no"?>
<!DOCTYPE svg PUBLIC "-//W3C//DTD SVG 1.1//EN"
  "http://www.w3.org/Graphics/SVG/1.1/DTD/svg11.dtd">
<svg xmlns:xlink="http://www.w3.org/1999/xlink" width="460.8pt" height="345.6pt" viewBox="0 0 460.8 345.6" xmlns="http://www.w3.org/2000/svg" version="1.1">
 <metadata>
  <rdf:RDF xmlns:dc="http://purl.org/dc/elements/1.1/" xmlns:cc="http://creativecommons.org/ns#" xmlns:rdf="http://www.w3.org/1999/02/22-rdf-syntax-ns#">
   <cc:Work>
    <dc:type rdf:resource="http://purl.org/dc/dcmitype/StillImage"/>
    <dc:date>2024-02-11T14:46:37.150259</dc:date>
    <dc:format>image/svg+xml</dc:format>
    <dc:creator>
     <cc:Agent>
      <dc:title>Matplotlib v3.8.0, https://matplotlib.org/</dc:title>
     </cc:Agent>
    </dc:creator>
   </cc:Work>
  </rdf:RDF>
 </metadata>
 <defs>
  <style type="text/css">*{stroke-linejoin: round; stroke-linecap: butt}</style>
 </defs>
 <g id="figure_1">
  <g id="patch_1">
   <path d="M 0 345.6 
L 460.8 345.6 
L 460.8 0 
L 0 0 
z
" style="fill: #ffffff"/>
  </g>
  <g id="axes_1">
   <g id="patch_2">
    <path d="M 369.216 174.528 
C 369.216 157.055246 365.774248 139.752393 359.087715 123.609673 
C 352.401182 107.466954 342.599903 92.798303 330.2448 80.4432 
C 317.889697 68.088097 303.221046 58.286818 287.078327 51.600285 
C 270.935607 44.913752 253.632754 41.472 236.16 41.472 
C 218.687246 41.472 201.384393 44.913752 185.241673 51.600285 
C 169.098954 58.286818 154.430303 68.088097 142.0752 80.4432 
C 129.720097 92.798303 119.918818 107.466954 113.232285 123.609673 
C 106.545752 139.752393 103.104 157.055246 103.104 174.528 
C 103.104 192.000754 106.545752 209.303607 113.232285 225.446327 
C 119.918818 241.589046 129.720097 256.257697 142.0752 268.6128 
C 154.430303 280.967903 169.098954 290.769182 185.241673 297.455715 
C 201.384393 304.142248 218.687246 307.584 236.16 307.584 
C 253.632754 307.584 270.935607 304.142248 287.078327 297.455715 
C 303.221046 290.769182 317.889697 280.967903 330.2448 268.6128 
C 342.599903 256.257697 352.401182 241.589046 359.087715 225.446327 
C 365.774248 209.303607 369.216 192.000754 369.216 174.528 
M 236.16 174.528 
C 236.16 174.528 236.16 174.528 236.16 174.528 
C 236.16 174.528 236.16 174.528 236.16 174.528 
C 236.16 174.528 236.16 174.528 236.16 174.528 
C 236.16 174.528 236.16 174.528 236.16 174.528 
C 236.16 174.528 236.16 174.528 236.16 174.528 
C 236.16 174.528 236.16 174.528 236.16 174.528 
C 236.16 174.528 236.16 174.528 236.16 174.528 
C 236.16 174.528 236.16 174.528 236.16 174.528 
C 236.16 174.528 236.16 174.528 236.16 174.528 
C 236.16 174.528 236.16 174.528 236.16 174.528 
C 236.16 174.528 236.16 174.528 236.16 174.528 
C 236.16 174.528 236.16 174.528 236.16 174.528 
C 236.16 174.528 236.16 174.528 236.16 174.528 
C 236.16 174.528 236.16 174.528 236.16 174.528 
C 236.16 174.528 236.16 174.528 236.16 174.528 
C 236.16 174.528 236.16 174.528 236.16 174.528 
z
" style="fill: #ffffff"/>
   </g>
   <g id="patch_3">
    <path d="M 236.16 174.528 
C 236.16 174.528 236.16 174.528 236.16 174.528 
C 236.16 174.528 236.16 174.528 236.16 174.528 
L 240.062479 129.922458 
C 238.764751 129.808922 237.462686 129.752072 236.16 129.752072 
C 234.857314 129.752072 233.555249 129.808922 232.257521 129.922458 
z
" clip-path="url(#p662edf15bd)" style="fill: #ff0000"/>
   </g>
   <g id="patch_4">
    <path d="M 236.16 174.528 
C 236.16 174.528 236.16 174.528 236.16 174.528 
C 236.16 174.528 236.16 174.528 236.16 174.528 
L 239.962621 131.063849 
C 238.698099 130.953217 237.429352 130.897823 236.16 130.897823 
C 234.890648 130.897823 233.621901 130.953217 232.357379 131.063849 
z
" clip-path="url(#p662edf15bd)" style="fill: #ffa500"/>
   </g>
   <g id="patch_5">
    <path d="M 236.16 174.528 
C 236.16 174.528 236.16 174.528 236.16 174.528 
C 236.16 174.528 236.16 174.528 236.16 174.528 
L 239.347491 138.094814 
C 238.287524 138.002079 237.224015 137.955646 236.16 137.955646 
C 235.095985 137.955646 234.032476 138.002079 232.972509 138.094814 
z
" clip-path="url(#p662edf15bd)" style="fill: #008000"/>
   </g>
   <g id="patch_6">
    <path d="M 236.16 174.528 
C 236.16 174.528 236.16 174.528 236.16 174.528 
C 236.16 174.528 236.16 174.528 236.16 174.528 
L 246.88296 134.509368 
C 245.718681 134.1974 244.541341 133.936391 243.354302 133.727084 
C 242.167264 133.517777 240.971656 133.360372 239.770892 133.255319 
z
" clip-path="url(#p662edf15bd)" style="fill: #ff0000"/>
   </g>
   <g id="patch_7">
    <path d="M 236.16 174.528 
C 236.16 174.528 236.16 174.528 236.16 174.528 
C 236.16 174.528 236.16 174.528 236.16 174.528 
L 246.764343 134.952052 
C 245.612943 134.643535 244.448627 134.385413 243.274719 134.178421 
C 242.100812 133.971429 240.91843 133.815766 239.730948 133.711875 
z
" clip-path="url(#p662edf15bd)" style="fill: #ffa500"/>
   </g>
   <g id="patch_8">
    <path d="M 236.16 174.528 
C 236.16 174.528 236.16 174.528 236.16 174.528 
C 236.16 174.528 236.16 174.528 236.16 174.528 
L 245.447697 139.865844 
C 244.439255 139.595633 243.419502 139.369559 242.391348 139.188268 
C 241.363194 139.006977 240.327618 138.870641 239.287575 138.779649 
z
" clip-path="url(#p662edf15bd)" style="fill: #008000"/>
   </g>
   <g id="patch_9">
    <path d="M 236.16 174.528 
C 236.16 174.528 236.16 174.528 236.16 174.528 
C 236.16 174.528 236.16 174.528 236.16 174.528 
L 254.017852 136.231714 
C 252.903681 135.712167 251.767368 135.241491 250.612156 134.821028 
C 249.456944 134.400565 248.283932 134.030716 247.09647 133.712537 
z
" clip-path="url(#p662edf15bd)" style="fill: #ff0000"/>
   </g>
   <g id="patch_10">
    <path d="M 236.16 174.528 
C 236.16 174.528 236.16 174.528 236.16 174.528 
C 236.16 174.528 236.16 174.528 236.16 174.528 
L 253.804797 136.688611 
C 252.703919 136.175263 251.581163 135.710202 250.439733 135.294756 
C 249.298303 134.879309 248.139287 134.513873 246.965992 134.199489 
z
" clip-path="url(#p662edf15bd)" style="fill: #ffa500"/>
   </g>
   <g id="patch_11">
    <path d="M 236.16 174.528 
C 236.16 174.528 236.16 174.528 236.16 174.528 
C 236.16 174.528 236.16 174.528 236.16 174.528 
L 251.693619 141.216046 
C 250.72446 140.76412 249.73604 140.354703 248.731181 139.988964 
C 247.726322 139.623225 246.70598 139.301513 245.673069 139.024745 
z
" clip-path="url(#p662edf15bd)" style="fill: #008000"/>
   </g>
   <g id="patch_12">
    <path d="M 236.16 174.528 
C 236.16 174.528 236.16 174.528 236.16 174.528 
C 236.16 174.528 236.16 174.528 236.16 174.528 
L 266.232349 131.580235 
C 264.982851 130.705327 263.695767 129.885364 262.37477 129.122686 
C 261.053774 128.360008 259.700123 127.655342 258.317681 127.010699 
z
" clip-path="url(#p662edf15bd)" style="fill: #ff0000"/>
   </g>
   <g id="patch_13">
    <path d="M 236.16 174.528 
C 236.16 174.528 236.16 174.528 236.16 174.528 
C 236.16 174.528 236.16 174.528 236.16 174.528 
L 265.548887 132.55632 
C 264.327786 131.701296 263.069954 130.899969 261.77898 130.154625 
C 260.488006 129.409281 259.16512 128.72063 257.814098 128.090638 
z
" clip-path="url(#p662edf15bd)" style="fill: #ffa500"/>
   </g>
   <g id="patch_14">
    <path d="M 236.16 174.528 
C 236.16 174.528 236.16 174.528 236.16 174.528 
C 236.16 174.528 236.16 174.528 236.16 174.528 
L 262.210435 137.324123 
C 261.128047 136.566226 260.013099 135.855926 258.868774 135.19525 
C 257.724449 134.534573 256.551837 133.92415 255.354285 133.365723 
z
" clip-path="url(#p662edf15bd)" style="fill: #008000"/>
   </g>
   <g id="patch_15">
    <path d="M 236.16 174.528 
C 236.16 174.528 236.16 174.528 236.16 174.528 
C 236.16 174.528 236.16 174.528 236.16 174.528 
L 274.529552 136.158448 
C 273.41325 135.042145 272.248764 133.975091 271.039418 132.960328 
C 269.830071 131.945566 268.577017 130.984064 267.28383 130.078564 
z
" clip-path="url(#p662edf15bd)" style="fill: #ff0000"/>
   </g>
   <g id="patch_16">
    <path d="M 236.16 174.528 
C 236.16 174.528 236.16 174.528 236.16 174.528 
C 236.16 174.528 236.16 174.528 236.16 174.528 
L 274.237892 136.450108 
C 273.130075 135.342291 271.974441 134.283347 270.774287 133.276299 
C 269.574133 132.26925 268.330603 131.315056 267.047247 130.41644 
z
" clip-path="url(#p662edf15bd)" style="fill: #ffa500"/>
   </g>
   <g id="patch_17">
    <path d="M 236.16 174.528 
C 236.16 174.528 236.16 174.528 236.16 174.528 
C 236.16 174.528 236.16 174.528 236.16 174.528 
L 271.062034 139.625966 
C 270.046614 138.610546 268.987364 137.639923 267.887308 136.716866 
C 266.787253 135.79381 265.647438 134.9192 264.471119 134.095532 
z
" clip-path="url(#p662edf15bd)" style="fill: #008000"/>
   </g>
   <g id="patch_18">
    <path d="M 236.16 174.528 
C 236.16 174.528 236.16 174.528 236.16 174.528 
C 236.16 174.528 236.16 174.528 236.16 174.528 
L 279.670892 144.061346 
C 278.784512 142.795464 277.843311 141.568868 276.849976 140.385056 
C 275.85664 139.201245 274.812116 138.061347 273.719385 136.968615 
z
" clip-path="url(#p662edf15bd)" style="fill: #ff0000"/>
   </g>
   <g id="patch_19">
    <path d="M 236.16 174.528 
C 236.16 174.528 236.16 174.528 236.16 174.528 
C 236.16 174.528 236.16 174.528 236.16 174.528 
L 279.445641 144.219068 
C 278.56385 142.95974 277.627522 141.739493 276.639329 140.56181 
C 275.651136 139.384127 274.612019 138.25013 273.524944 137.163056 
z
" clip-path="url(#p662edf15bd)" style="fill: #ffa500"/>
   </g>
   <g id="patch_20">
    <path d="M 236.16 174.528 
C 236.16 174.528 236.16 174.528 236.16 174.528 
C 236.16 174.528 236.16 174.528 236.16 174.528 
L 277.042969 145.901437 
C 276.210124 144.712011 275.325769 143.559497 274.392428 142.447184 
C 273.459086 141.334871 272.477648 140.26382 271.450914 139.237086 
z
" clip-path="url(#p662edf15bd)" style="fill: #008000"/>
   </g>
   <g id="patch_21">
    <path d="M 236.16 174.528 
C 236.16 174.528 236.16 174.528 236.16 174.528 
C 236.16 174.528 236.16 174.528 236.16 174.528 
L 285.754106 151.401889 
C 285.081288 149.959026 284.345824 148.546212 283.549812 147.167479 
C 282.753801 145.788747 281.898 144.445409 280.984853 143.1413 
z
" clip-path="url(#p662edf15bd)" style="fill: #ff0000"/>
   </g>
   <g id="patch_22">
    <path d="M 236.16 174.528 
C 236.16 174.528 236.16 174.528 236.16 174.528 
C 236.16 174.528 236.16 174.528 236.16 174.528 
L 285.587962 151.479363 
C 284.917398 150.041334 284.184397 148.633253 283.391052 147.259139 
C 282.597707 145.885026 281.744774 144.546188 280.834686 143.246448 
z
" clip-path="url(#p662edf15bd)" style="fill: #ffa500"/>
   </g>
   <g id="patch_23">
    <path d="M 236.16 174.528 
C 236.16 174.528 236.16 174.528 236.16 174.528 
C 236.16 174.528 236.16 174.528 236.16 174.528 
L 284.134198 152.157264 
C 283.483357 150.76153 282.771915 149.394863 282.001904 148.061165 
C 281.231893 146.727466 280.404045 145.428006 279.520725 144.166494 
z
" clip-path="url(#p662edf15bd)" style="fill: #008000"/>
   </g>
   <g id="patch_24">
    <path d="M 236.16 174.528 
C 236.16 174.528 236.16 174.528 236.16 174.528 
C 236.16 174.528 236.16 174.528 236.16 174.528 
L 273.920944 164.409986 
C 273.626576 163.31139 273.284405 162.226164 272.895409 161.157405 
C 272.506412 160.088645 272.07096 159.037371 271.590295 158.006582 
z
" clip-path="url(#p662edf15bd)" style="fill: #ff0000"/>
   </g>
   <g id="patch_25">
    <path d="M 236.16 174.528 
C 236.16 174.528 236.16 174.528 236.16 174.528 
C 236.16 174.528 236.16 174.528 236.16 174.528 
L 273.876675 164.421847 
C 273.582652 163.32454 273.240883 162.240586 272.852343 161.173079 
C 272.463802 160.105573 272.02886 159.055531 271.548759 158.025951 
z
" clip-path="url(#p662edf15bd)" style="fill: #ffa500"/>
   </g>
   <g id="patch_26">
    <path d="M 236.16 174.528 
C 236.16 174.528 236.16 174.528 236.16 174.528 
C 236.16 174.528 236.16 174.528 236.16 174.528 
L 272.947039 164.670943 
C 272.660263 163.600681 272.326918 162.543445 271.947954 161.50225 
C 271.56899 160.461056 271.144769 159.436895 270.676501 158.432691 
z
" clip-path="url(#p662edf15bd)" style="fill: #008000"/>
   </g>
   <g id="patch_27">
    <path d="M 236.16 174.528 
C 236.16 174.528 236.16 174.528 236.16 174.528 
C 236.16 174.528 236.16 174.528 236.16 174.528 
L 263.462061 172.139379 
C 263.392568 171.345068 263.288444 170.554169 263.149987 169.768937 
C 263.011529 168.983706 262.83887 168.20489 262.632502 167.434714 
z
" clip-path="url(#p662edf15bd)" style="fill: #ff0000"/>
   </g>
   <g id="patch_28">
    <path d="M 236.16 174.528 
C 236.16 174.528 236.16 174.528 236.16 174.528 
C 236.16 174.528 236.16 174.528 236.16 174.528 
L 263.462061 172.139379 
C 263.392568 171.345068 263.288444 170.554169 263.149987 169.768937 
C 263.011529 168.983706 262.83887 168.20489 262.632502 167.434714 
z
" clip-path="url(#p662edf15bd)" style="fill: #ffa500"/>
   </g>
   <g id="patch_29">
    <path d="M 236.16 174.528 
C 236.16 174.528 236.16 174.528 236.16 174.528 
C 236.16 174.528 236.16 174.528 236.16 174.528 
L 263.005505 172.179323 
C 262.937174 171.398295 262.834791 170.620621 262.698649 169.84852 
C 262.562507 169.07642 262.392735 168.310628 262.189818 167.553331 
z
" clip-path="url(#p662edf15bd)" style="fill: #008000"/>
   </g>
   <g id="patch_30">
    <path d="M 236.16 174.528 
C 236.16 174.528 236.16 174.528 236.16 174.528 
C 236.16 174.528 236.16 174.528 236.16 174.528 
L 256.065851 176.269536 
C 256.116518 175.690407 256.141888 175.109342 256.141888 174.528 
C 256.141888 173.946658 256.116518 173.365593 256.065851 172.786464 
z
" clip-path="url(#p662edf15bd)" style="fill: #ff0000"/>
   </g>
   <g id="patch_31">
    <path d="M 236.16 174.528 
C 236.16 174.528 236.16 174.528 236.16 174.528 
C 236.16 174.528 236.16 174.528 236.16 174.528 
L 256.065851 176.269536 
C 256.116518 175.690407 256.141888 175.109342 256.141888 174.528 
C 256.141888 173.946658 256.116518 173.365593 256.065851 172.786464 
z
" clip-path="url(#p662edf15bd)" style="fill: #ffa500"/>
   </g>
   <g id="patch_32">
    <path d="M 236.16 174.528 
C 236.16 174.528 236.16 174.528 236.16 174.528 
C 236.16 174.528 236.16 174.528 236.16 174.528 
L 255.97454 176.261548 
C 256.024974 175.685075 256.050228 175.106675 256.050228 174.528 
C 256.050228 173.949325 256.024974 173.370925 255.97454 172.794452 
z
" clip-path="url(#p662edf15bd)" style="fill: #008000"/>
   </g>
   <g id="patch_33">
    <path d="M 236.16 174.528 
C 236.16 174.528 236.16 174.528 236.16 174.528 
C 236.16 174.528 236.16 174.528 236.16 174.528 
L 254.885532 179.545491 
C 255.031508 179.000701 255.15364 178.4498 255.251579 177.894361 
C 255.349518 177.338921 255.423171 176.779472 255.472328 176.21761 
z
" clip-path="url(#p662edf15bd)" style="fill: #ff0000"/>
   </g>
   <g id="patch_34">
    <path d="M 236.16 174.528 
C 236.16 174.528 236.16 174.528 236.16 174.528 
C 236.16 174.528 236.16 174.528 236.16 174.528 
L 254.885532 179.545491 
C 255.031508 179.000701 255.15364 178.4498 255.251579 177.894361 
C 255.349518 177.338921 255.423171 176.779472 255.472328 176.21761 
z
" clip-path="url(#p662edf15bd)" style="fill: #ffa500"/>
   </g>
   <g id="patch_35">
    <path d="M 236.16 174.528 
C 236.16 174.528 236.16 174.528 236.16 174.528 
C 236.16 174.528 236.16 174.528 236.16 174.528 
L 254.531385 179.450598 
C 254.6746 178.916111 254.794422 178.375629 254.890509 177.830694 
C 254.986596 177.285759 255.058856 176.736891 255.107083 176.185655 
z
" clip-path="url(#p662edf15bd)" style="fill: #008000"/>
   </g>
   <g id="patch_36">
    <path d="M 236.16 174.528 
C 236.16 174.528 236.16 174.528 236.16 174.528 
C 236.16 174.528 236.16 174.528 236.16 174.528 
L 252.234472 182.023649 
C 252.452546 181.555988 252.650107 181.079032 252.826592 180.594143 
C 253.003077 180.109255 253.158317 179.616896 253.29187 179.118471 
z
" clip-path="url(#p662edf15bd)" style="fill: #ff0000"/>
   </g>
   <g id="patch_37">
    <path d="M 236.16 174.528 
C 236.16 174.528 236.16 174.528 236.16 174.528 
C 236.16 174.528 236.16 174.528 236.16 174.528 
L 252.234472 182.023649 
C 252.452546 181.555988 252.650107 181.079032 252.826592 180.594143 
C 253.003077 180.109255 253.158317 179.616896 253.29187 179.118471 
z
" clip-path="url(#p662edf15bd)" style="fill: #ffa500"/>
   </g>
   <g id="patch_38">
    <path d="M 236.16 174.528 
C 236.16 174.528 236.16 174.528 236.16 174.528 
C 236.16 174.528 236.16 174.528 236.16 174.528 
L 251.943719 181.888069 
C 252.157849 181.428866 252.351837 180.960538 252.525129 180.48442 
C 252.698422 180.008302 252.850854 179.524848 252.981991 179.035439 
z
" clip-path="url(#p662edf15bd)" style="fill: #008000"/>
   </g>
   <g id="patch_39">
    <path d="M 236.16 174.528 
C 236.16 174.528 236.16 174.528 236.16 174.528 
C 236.16 174.528 236.16 174.528 236.16 174.528 
L 253.50429 186.672603 
C 253.857618 186.167998 254.188757 185.648214 254.496761 185.114734 
C 254.804766 184.581255 255.089343 184.034588 255.349679 183.476294 
z
" clip-path="url(#p662edf15bd)" style="fill: #ff0000"/>
   </g>
   <g id="patch_40">
    <path d="M 236.16 174.528 
C 236.16 174.528 236.16 174.528 236.16 174.528 
C 236.16 174.528 236.16 174.528 236.16 174.528 
L 253.50429 186.672603 
C 253.857618 186.167998 254.188757 185.648214 254.496761 185.114734 
C 254.804766 184.581255 255.089343 184.034588 255.349679 183.476294 
z
" clip-path="url(#p662edf15bd)" style="fill: #ffa500"/>
   </g>
   <g id="patch_41">
    <path d="M 236.16 174.528 
C 236.16 174.528 236.16 174.528 236.16 174.528 
C 236.16 174.528 236.16 174.528 236.16 174.528 
L 253.166414 186.436019 
C 253.512859 185.941244 253.837547 185.431586 254.139552 184.908499 
C 254.441556 184.385412 254.720589 183.849395 254.975854 183.301977 
z
" clip-path="url(#p662edf15bd)" style="fill: #008000"/>
   </g>
   <g id="patch_42">
    <path d="M 236.16 174.528 
C 236.16 174.528 236.16 174.528 236.16 174.528 
C 236.16 174.528 236.16 174.528 236.16 174.528 
L 255.312369 193.680369 
C 255.869578 193.123161 256.402204 192.541902 256.908728 191.93825 
C 257.415252 191.334598 257.895191 190.709129 258.347176 190.063628 
z
" clip-path="url(#p662edf15bd)" style="fill: #ff0000"/>
   </g>
   <g id="patch_43">
    <path d="M 236.16 174.528 
C 236.16 174.528 236.16 174.528 236.16 174.528 
C 236.16 174.528 236.16 174.528 236.16 174.528 
L 255.247556 193.615556 
C 255.802879 193.060233 256.333702 192.480941 256.838512 191.879332 
C 257.343322 191.277723 257.821637 190.654371 258.272093 190.011054 
z
" clip-path="url(#p662edf15bd)" style="fill: #ffa500"/>
   </g>
   <g id="patch_44">
    <path d="M 236.16 174.528 
C 236.16 174.528 236.16 174.528 236.16 174.528 
C 236.16 174.528 236.16 174.528 236.16 174.528 
L 254.599422 192.967422 
C 255.135888 192.430956 255.648687 191.871333 256.136356 191.290153 
C 256.624024 190.708972 257.086098 190.106786 257.521257 189.485313 
z
" clip-path="url(#p662edf15bd)" style="fill: #008000"/>
   </g>
   <g id="patch_45">
    <path d="M 236.16 174.528 
C 236.16 174.528 236.16 174.528 236.16 174.528 
C 236.16 174.528 236.16 174.528 236.16 174.528 
L 254.5872 200.844769 
C 255.352845 200.308658 256.09473 199.73939 256.810736 199.138589 
C 257.526743 198.537788 258.21619 197.906027 258.877108 197.245108 
z
" clip-path="url(#p662edf15bd)" style="fill: #ff0000"/>
   </g>
   <g id="patch_46">
    <path d="M 236.16 174.528 
C 236.16 174.528 236.16 174.528 236.16 174.528 
C 236.16 174.528 236.16 174.528 236.16 174.528 
L 254.32433 200.469351 
C 255.079053 199.940889 255.810354 199.379741 256.516147 198.787511 
C 257.221939 198.195281 257.901551 197.572532 258.553041 196.921041 
z
" clip-path="url(#p662edf15bd)" style="fill: #ffa500"/>
   </g>
   <g id="patch_47">
    <path d="M 236.16 174.528 
C 236.16 174.528 236.16 174.528 236.16 174.528 
C 236.16 174.528 236.16 174.528 236.16 174.528 
L 253.062553 198.667347 
C 253.764849 198.175594 254.445351 197.653426 255.102116 197.102335 
C 255.758881 196.551244 256.391284 195.971754 256.997519 195.365519 
z
" clip-path="url(#p662edf15bd)" style="fill: #008000"/>
   </g>
   <g id="patch_48">
    <path d="M 236.16 174.528 
C 236.16 174.528 236.16 174.528 236.16 174.528 
C 236.16 174.528 236.16 174.528 236.16 174.528 
L 256.090292 217.268649 
C 257.333764 216.688809 258.55134 216.054979 259.739544 215.368969 
C 260.927748 214.682959 262.085449 213.945422 263.209342 213.158464 
z
" clip-path="url(#p662edf15bd)" style="fill: #ff0000"/>
   </g>
   <g id="patch_49">
    <path d="M 236.16 174.528 
C 236.16 174.528 236.16 174.528 236.16 174.528 
C 236.16 174.528 236.16 174.528 236.16 174.528 
L 255.354285 215.690277 
C 256.551837 215.13185 257.724449 214.521427 258.868774 213.86075 
C 260.013099 213.200074 261.128047 212.489774 262.210435 211.731877 
z
" clip-path="url(#p662edf15bd)" style="fill: #ffa500"/>
   </g>
   <g id="patch_50">
    <path d="M 236.16 174.528 
C 236.16 174.528 236.16 174.528 236.16 174.528 
C 236.16 174.528 236.16 174.528 236.16 174.528 
L 251.96478 208.421459 
C 252.950857 207.961644 253.916398 207.459015 254.858647 206.915007 
C 255.800897 206.370999 256.718957 205.786131 257.610207 205.16207 
z
" clip-path="url(#p662edf15bd)" style="fill: #008000"/>
   </g>
   <g id="patch_51">
    <path d="M 236.16 174.528 
C 236.16 174.528 236.16 174.528 236.16 174.528 
C 236.16 174.528 236.16 174.528 236.16 174.528 
L 260.464585 265.233948 
C 263.103533 264.526844 265.710366 263.704913 268.277643 262.7705 
C 270.844921 261.836087 273.370198 260.790083 275.846267 259.635474 
z
" clip-path="url(#p662edf15bd)" style="fill: #ff0000"/>
   </g>
   <g id="patch_52">
    <path d="M 236.16 174.528 
C 236.16 174.528 236.16 174.528 236.16 174.528 
C 236.16 174.528 236.16 174.528 236.16 174.528 
L 258.210866 256.822952 
C 260.605109 256.181417 262.970215 255.435702 265.299433 254.587935 
C 267.628652 253.740169 269.919765 252.791159 272.166232 251.743614 
z
" clip-path="url(#p662edf15bd)" style="fill: #ffa500"/>
   </g>
   <g id="patch_53">
    <path d="M 236.16 174.528 
C 236.16 174.528 236.16 174.528 236.16 174.528 
C 236.16 174.528 236.16 174.528 236.16 174.528 
L 252.825663 236.725099 
C 254.63519 236.240238 256.422696 235.676639 258.183079 235.035912 
C 259.943462 234.395185 261.675045 233.67794 263.372887 232.886224 
z
" clip-path="url(#p662edf15bd)" style="fill: #008000"/>
   </g>
   <g id="patch_54">
    <path d="M 236.16 174.528 
C 236.16 174.528 236.16 174.528 236.16 174.528 
C 236.16 174.528 236.16 174.528 236.16 174.528 
L 246.788963 296.017608 
C 250.323513 295.708374 253.842885 295.24504 257.337034 294.628928 
C 260.831183 294.012815 264.29678 293.244511 267.723935 292.326207 
z
" clip-path="url(#p662edf15bd)" style="fill: #ff0000"/>
   </g>
   <g id="patch_55">
    <path d="M 236.16 174.528 
C 236.16 174.528 236.16 174.528 236.16 174.528 
C 236.16 174.528 236.16 174.528 236.16 174.528 
L 246.153862 288.758364 
C 249.477216 288.467608 252.786298 288.031959 256.071664 287.45266 
C 259.357031 286.873362 262.615552 286.150965 265.837927 285.287532 
z
" clip-path="url(#p662edf15bd)" style="fill: #ffa500"/>
   </g>
   <g id="patch_56">
    <path d="M 236.16 174.528 
C 236.16 174.528 236.16 174.528 236.16 174.528 
C 236.16 174.528 236.16 174.528 236.16 174.528 
L 244.592071 270.907016 
C 247.396068 270.661698 250.188024 270.29413 252.959969 269.805361 
C 255.731915 269.316592 258.481211 268.707088 261.20001 267.978588 
z
" clip-path="url(#p662edf15bd)" style="fill: #008000"/>
   </g>
   <g id="patch_57">
    <path d="M 236.16 174.528 
C 236.16 174.528 236.16 174.528 236.16 174.528 
C 236.16 174.528 236.16 174.528 236.16 174.528 
L 227.408381 274.559466 
C 230.31864 274.81408 233.238624 274.94157 236.16 274.94157 
C 239.081376 274.94157 242.00136 274.81408 244.911619 274.559466 
z
" clip-path="url(#p662edf15bd)" style="fill: #ff0000"/>
   </g>
   <g id="patch_58">
    <path d="M 236.16 174.528 
C 236.16 174.528 236.16 174.528 236.16 174.528 
C 236.16 174.528 236.16 174.528 236.16 174.528 
L 227.775861 270.359149 
C 230.563918 270.603072 233.361293 270.725208 236.16 270.725208 
C 238.958707 270.725208 241.756082 270.603072 244.544139 270.359149 
z
" clip-path="url(#p662edf15bd)" style="fill: #ffa500"/>
   </g>
   <g id="patch_59">
    <path d="M 236.16 174.528 
C 236.16 174.528 236.16 174.528 236.16 174.528 
C 236.16 174.528 236.16 174.528 236.16 174.528 
L 228.682578 259.995323 
C 231.169116 260.212866 233.663964 260.321794 236.16 260.321794 
C 238.656036 260.321794 241.150884 260.212866 243.637422 259.995323 
z
" clip-path="url(#p662edf15bd)" style="fill: #008000"/>
   </g>
   <g id="patch_60">
    <path d="M 236.16 174.528 
C 236.16 174.528 236.16 174.528 236.16 174.528 
C 236.16 174.528 236.16 174.528 236.16 174.528 
L 219.280827 237.52193 
C 221.113537 238.013004 222.966805 238.423863 224.83534 238.753336 
C 226.703876 239.08281 228.5859 239.330583 230.476041 239.495949 
z
" clip-path="url(#p662edf15bd)" style="fill: #ff0000"/>
   </g>
   <g id="patch_61">
    <path d="M 236.16 174.528 
C 236.16 174.528 236.16 174.528 236.16 174.528 
C 236.16 174.528 236.16 174.528 236.16 174.528 
L 219.814603 235.529853 
C 221.589356 236.005396 223.384017 236.403263 225.193464 236.722317 
C 227.00291 237.041372 228.825418 237.281309 230.655787 237.441446 
z
" clip-path="url(#p662edf15bd)" style="fill: #ffa500"/>
   </g>
   <g id="patch_62">
    <path d="M 236.16 174.528 
C 236.16 174.528 236.16 174.528 236.16 174.528 
C 236.16 174.528 236.16 174.528 236.16 174.528 
L 221.593855 228.889593 
C 223.175421 229.313372 224.774727 229.66793 226.387209 229.952254 
C 227.999691 230.236578 229.623813 230.450398 231.254939 230.593103 
z
" clip-path="url(#p662edf15bd)" style="fill: #008000"/>
   </g>
   <g id="patch_63">
    <path d="M 236.16 174.528 
C 236.16 174.528 236.16 174.528 236.16 174.528 
C 236.16 174.528 236.16 174.528 236.16 174.528 
L 216.404025 216.894824 
C 217.636622 217.469593 218.893714 217.990298 220.171715 218.455452 
C 221.449715 218.920607 222.747407 219.329767 224.061085 219.681766 
z
" clip-path="url(#p662edf15bd)" style="fill: #ff0000"/>
   </g>
   <g id="patch_64">
    <path d="M 236.16 174.528 
C 236.16 174.528 236.16 174.528 236.16 174.528 
C 236.16 174.528 236.16 174.528 236.16 174.528 
L 216.578343 216.520999 
C 217.800063 217.090697 219.046064 217.606807 220.312788 218.067857 
C 221.579512 218.528907 222.865753 218.934457 224.16784 219.28335 
z
" clip-path="url(#p662edf15bd)" style="fill: #ffa500"/>
   </g>
   <g id="patch_65">
    <path d="M 236.16 174.528 
C 236.16 174.528 236.16 174.528 236.16 174.528 
C 236.16 174.528 236.16 174.528 236.16 174.528 
L 217.740459 214.028833 
C 218.889674 214.564721 220.061728 215.050202 221.253275 215.483889 
C 222.444823 215.917577 223.654729 216.299059 224.879541 216.627247 
z
" clip-path="url(#p662edf15bd)" style="fill: #008000"/>
   </g>
   <g id="patch_66">
    <path d="M 236.16 174.528 
C 236.16 174.528 236.16 174.528 236.16 174.528 
C 236.16 174.528 236.16 174.528 236.16 174.528 
L 212.97485 207.639826 
C 213.938186 208.314362 214.930501 208.946536 215.948962 209.534545 
C 216.967423 210.122553 218.011059 210.665836 219.076893 211.162842 
z
" clip-path="url(#p662edf15bd)" style="fill: #ff0000"/>
   </g>
   <g id="patch_67">
    <path d="M 236.16 174.528 
C 236.16 174.528 236.16 174.528 236.16 174.528 
C 236.16 174.528 236.16 174.528 236.16 174.528 
L 213.211433 207.30195 
C 214.16494 207.969603 215.147129 208.595327 216.155197 209.177335 
C 217.163265 209.759343 218.196252 210.297082 219.25121 210.789017 
z
" clip-path="url(#p662edf15bd)" style="fill: #ffa500"/>
   </g>
   <g id="patch_68">
    <path d="M 236.16 174.528 
C 236.16 174.528 236.16 174.528 236.16 174.528 
C 236.16 174.528 236.16 174.528 236.16 174.528 
L 214.920089 204.861736 
C 215.802602 205.479678 216.711661 206.058813 217.644673 206.597488 
C 218.577684 207.136162 219.533759 207.633863 220.510169 208.089171 
z
" clip-path="url(#p662edf15bd)" style="fill: #008000"/>
   </g>
   <g id="patch_69">
    <path d="M 236.16 174.528 
C 236.16 174.528 236.16 174.528 236.16 174.528 
C 236.16 174.528 236.16 174.528 236.16 174.528 
L 204.336604 206.351396 
C 205.262456 207.277248 206.228272 208.162254 207.231294 209.00389 
C 208.234316 209.845525 209.273589 210.642988 210.346148 211.394001 
z
" clip-path="url(#p662edf15bd)" style="fill: #ff0000"/>
   </g>
   <g id="patch_70">
    <path d="M 236.16 174.528 
C 236.16 174.528 236.16 174.528 236.16 174.528 
C 236.16 174.528 236.16 174.528 236.16 174.528 
L 204.855112 205.832888 
C 205.765879 206.743655 206.715958 207.614242 207.702637 208.442164 
C 208.689317 209.270087 209.711657 210.054556 210.76674 210.793333 
z
" clip-path="url(#p662edf15bd)" style="fill: #ffa500"/>
   </g>
   <g id="patch_71">
    <path d="M 236.16 174.528 
C 236.16 174.528 236.16 174.528 236.16 174.528 
C 236.16 174.528 236.16 174.528 236.16 174.528 
L 208.841138 201.846862 
C 209.635937 202.641662 210.465044 203.401398 211.32609 204.123901 
C 212.187137 204.846405 213.079303 205.530989 214.000043 206.175698 
z
" clip-path="url(#p662edf15bd)" style="fill: #008000"/>
   </g>
   <g id="patch_72">
    <path d="M 236.16 174.528 
C 236.16 174.528 236.16 174.528 236.16 174.528 
C 236.16 174.528 236.16 174.528 236.16 174.528 
L 193.737819 204.232331 
C 194.60202 205.466538 195.519671 206.662443 196.488151 207.816634 
C 197.456632 208.970824 198.475021 210.0822 199.54041 211.14759 
z
" clip-path="url(#p662edf15bd)" style="fill: #ff0000"/>
   </g>
   <g id="patch_73">
    <path d="M 236.16 174.528 
C 236.16 174.528 236.16 174.528 236.16 174.528 
C 236.16 174.528 236.16 174.528 236.16 174.528 
L 194.526196 203.680303 
C 195.374337 204.891574 196.274933 206.065254 197.225416 207.197995 
C 198.175898 208.330736 199.175361 209.421458 200.220951 210.467049 
z
" clip-path="url(#p662edf15bd)" style="fill: #ffa500"/>
   </g>
   <g id="patch_74">
    <path d="M 236.16 174.528 
C 236.16 174.528 236.16 174.528 236.16 174.528 
C 236.16 174.528 236.16 174.528 236.16 174.528 
L 199.894667 199.92126 
C 200.633444 200.976343 201.417913 201.998683 202.245836 202.985363 
C 203.073758 203.972042 203.944345 204.922121 204.855112 205.832888 
z
" clip-path="url(#p662edf15bd)" style="fill: #008000"/>
   </g>
   <g id="patch_75">
    <path d="M 236.16 174.528 
C 236.16 174.528 236.16 174.528 236.16 174.528 
C 236.16 174.528 236.16 174.528 236.16 174.528 
L 189.265741 196.395152 
C 189.901931 197.759467 190.597358 199.095369 191.350035 200.399045 
C 192.102713 201.702721 192.911925 202.972929 193.775361 204.206044 
z
" clip-path="url(#p662edf15bd)" style="fill: #ff0000"/>
   </g>
   <g id="patch_76">
    <path d="M 236.16 174.528 
C 236.16 174.528 236.16 174.528 236.16 174.528 
C 236.16 174.528 236.16 174.528 236.16 174.528 
L 190.345679 195.891569 
C 190.967219 197.224465 191.64663 198.529602 192.381974 199.803255 
C 193.117318 201.076908 193.907894 202.317864 194.751446 203.522581 
z
" clip-path="url(#p662edf15bd)" style="fill: #ffa500"/>
   </g>
   <g id="patch_77">
    <path d="M 236.16 174.528 
C 236.16 174.528 236.16 174.528 236.16 174.528 
C 236.16 174.528 236.16 174.528 236.16 174.528 
L 197.240672 192.676381 
C 197.768671 193.808678 198.345832 194.917393 198.970508 195.999363 
C 199.595183 197.081334 200.266779 198.135527 200.983377 199.158936 
z
" clip-path="url(#p662edf15bd)" style="fill: #008000"/>
   </g>
   <g id="patch_78">
    <path d="M 236.16 174.528 
C 236.16 174.528 236.16 174.528 236.16 174.528 
C 236.16 174.528 236.16 174.528 236.16 174.528 
L 178.301204 190.031218 
C 178.752246 191.714529 179.276533 193.377355 179.872568 195.01495 
C 180.468604 196.652544 181.135821 198.263348 181.872314 199.842764 
z
" clip-path="url(#p662edf15bd)" style="fill: #ff0000"/>
   </g>
   <g id="patch_79">
    <path d="M 236.16 174.528 
C 236.16 174.528 236.16 174.528 236.16 174.528 
C 236.16 174.528 236.16 174.528 236.16 174.528 
L 179.983403 189.580474 
C 180.421331 191.214844 180.930375 192.829325 181.509081 194.419308 
C 182.087788 196.009291 182.735606 197.573262 183.450686 199.106757 
z
" clip-path="url(#p662edf15bd)" style="fill: #ffa500"/>
   </g>
   <g id="patch_80">
    <path d="M 236.16 174.528 
C 236.16 174.528 236.16 174.528 236.16 174.528 
C 236.16 174.528 236.16 174.528 236.16 174.528 
L 189.058424 187.148829 
C 189.425608 188.519176 189.852418 189.872846 190.337638 191.205976 
C 190.822857 192.539106 191.366024 193.850426 191.965587 195.136193 
z
" clip-path="url(#p662edf15bd)" style="fill: #008000"/>
   </g>
   <g id="patch_81">
    <path d="M 236.16 174.528 
C 236.16 174.528 236.16 174.528 236.16 174.528 
C 236.16 174.528 236.16 174.528 236.16 174.528 
L 168.087469 180.483575 
C 168.260737 182.464039 168.520351 184.435998 168.865568 186.393824 
C 169.210786 188.35165 169.641279 190.293479 170.155818 192.213767 
z
" clip-path="url(#p662edf15bd)" style="fill: #ff0000"/>
   </g>
   <g id="patch_82">
    <path d="M 236.16 174.528 
C 236.16 174.528 236.16 174.528 236.16 174.528 
C 236.16 174.528 236.16 174.528 236.16 174.528 
L 170.735495 180.251902 
C 170.902023 182.155326 171.151537 184.050576 171.483326 185.932243 
C 171.815115 187.813909 172.228861 189.680201 172.723386 191.52579 
z
" clip-path="url(#p662edf15bd)" style="fill: #ffa500"/>
   </g>
   <g id="patch_83">
    <path d="M 236.16 174.528 
C 236.16 174.528 236.16 174.528 236.16 174.528 
C 236.16 174.528 236.16 174.528 236.16 174.528 
L 181.784155 179.28527 
C 181.922561 180.86725 182.129938 182.442437 182.405695 184.006334 
C 182.681453 185.570232 183.025327 187.12135 183.436338 188.655263 
z
" clip-path="url(#p662edf15bd)" style="fill: #008000"/>
   </g>
   <g id="patch_84">
    <path d="M 236.16 174.528 
C 236.16 174.528 236.16 174.528 236.16 174.528 
C 236.16 174.528 236.16 174.528 236.16 174.528 
L 153.79726 167.322194 
C 153.587618 169.718409 153.482647 172.122632 153.482647 174.528 
C 153.482647 176.933368 153.587618 179.337591 153.79726 181.733806 
z
" clip-path="url(#p662edf15bd)" style="fill: #ff0000"/>
   </g>
   <g id="patch_85">
    <path d="M 236.16 174.528 
C 236.16 174.528 236.16 174.528 236.16 174.528 
C 236.16 174.528 236.16 174.528 236.16 174.528 
L 155.66914 167.485962 
C 155.464263 169.827718 155.361678 172.177299 155.361678 174.528 
C 155.361678 176.878701 155.464263 179.228282 155.66914 181.570038 
z
" clip-path="url(#p662edf15bd)" style="fill: #ffa500"/>
   </g>
   <g id="patch_86">
    <path d="M 236.16 174.528 
C 236.16 174.528 236.16 174.528 236.16 174.528 
C 236.16 174.528 236.16 174.528 236.16 174.528 
L 168.270092 168.588403 
C 168.097288 170.563553 168.010763 172.545305 168.010763 174.528 
C 168.010763 176.510695 168.097288 178.492447 168.270092 180.467597 
z
" clip-path="url(#p662edf15bd)" style="fill: #008000"/>
   </g>
   <g id="patch_87">
    <path d="M 236.16 174.528 
C 236.16 174.528 236.16 174.528 236.16 174.528 
C 236.16 174.528 236.16 174.528 236.16 174.528 
L 148.906987 151.148626 
C 148.226801 153.687116 147.657719 156.25408 147.201365 158.842192 
C 146.745011 161.430305 146.40182 164.0371 146.172771 166.655138 
z
" clip-path="url(#p662edf15bd)" style="fill: #ff0000"/>
   </g>
   <g id="patch_88">
    <path d="M 236.16 174.528 
C 236.16 174.528 236.16 174.528 236.16 174.528 
C 236.16 174.528 236.16 174.528 236.16 174.528 
L 150.633455 151.611231 
C 149.966727 154.099492 149.408905 156.615665 148.961581 159.152566 
C 148.514257 161.689468 148.177857 164.244682 147.95334 166.810917 
z
" clip-path="url(#p662edf15bd)" style="fill: #ffa500"/>
   </g>
   <g id="patch_89">
    <path d="M 236.16 174.528 
C 236.16 174.528 236.16 174.528 236.16 174.528 
C 236.16 174.528 236.16 174.528 236.16 174.528 
L 161.523481 154.529205 
C 160.941647 156.700638 160.454852 158.896428 160.064485 161.110308 
C 159.674119 163.324188 159.380552 165.554049 159.184623 167.793527 
z
" clip-path="url(#p662edf15bd)" style="fill: #008000"/>
   </g>
   <g id="patch_90">
    <path d="M 236.16 174.528 
C 236.16 174.528 236.16 174.528 236.16 174.528 
C 236.16 174.528 236.16 174.528 236.16 174.528 
L 132.195136 126.048388 
C 130.784698 129.073083 129.506929 132.157889 128.365477 135.294002 
C 127.224025 138.430115 126.219978 141.614548 125.3562 144.838211 
z
" clip-path="url(#p662edf15bd)" style="fill: #ff0000"/>
   </g>
   <g id="patch_91">
    <path d="M 236.16 174.528 
C 236.16 174.528 236.16 174.528 236.16 174.528 
C 236.16 174.528 236.16 174.528 236.16 174.528 
L 133.399683 126.610077 
C 132.005586 129.599728 130.742622 132.648793 129.614395 135.748571 
C 128.486168 138.848349 127.493753 141.995886 126.639983 145.1822 
z
" clip-path="url(#p662edf15bd)" style="fill: #ffa500"/>
   </g>
   <g id="patch_92">
    <path d="M 236.16 174.528 
C 236.16 174.528 236.16 174.528 236.16 174.528 
C 236.16 174.528 236.16 174.528 236.16 174.528 
L 145.943586 132.459395 
C 144.719666 135.084101 143.610871 137.760968 142.620366 140.482358 
C 141.629861 143.203747 140.75859 145.967066 140.009039 148.764428 
z
" clip-path="url(#p662edf15bd)" style="fill: #008000"/>
   </g>
   <g id="patch_93">
    <path d="M 236.16 174.528 
C 236.16 174.528 236.16 174.528 236.16 174.528 
C 236.16 174.528 236.16 174.528 236.16 174.528 
L 132.357053 101.844394 
C 130.242437 104.864378 128.260621 107.975207 126.417261 111.168 
C 124.573901 114.360793 122.870752 117.632511 121.312677 120.973814 
z
" clip-path="url(#p662edf15bd)" style="fill: #ff0000"/>
   </g>
   <g id="patch_94">
    <path d="M 236.16 174.528 
C 236.16 174.528 236.16 174.528 236.16 174.528 
C 236.16 174.528 236.16 174.528 236.16 174.528 
L 133.933807 102.948449 
C 131.851312 105.92256 129.899599 108.986135 128.084239 112.13043 
C 126.26888 115.274726 124.591602 118.496746 123.057194 121.787295 
z
" clip-path="url(#p662edf15bd)" style="fill: #ffa500"/>
   </g>
   <g id="patch_95">
    <path d="M 236.16 174.528 
C 236.16 174.528 236.16 174.528 236.16 174.528 
C 236.16 174.528 236.16 174.528 236.16 174.528 
L 150.001677 114.199293 
C 148.246508 116.705934 146.601564 119.287978 145.071542 121.938054 
C 143.54152 124.58813 142.127876 127.303715 140.834645 130.077057 
z
" clip-path="url(#p662edf15bd)" style="fill: #008000"/>
   </g>
   <g id="patch_96">
    <path d="M 236.16 174.528 
C 236.16 174.528 236.16 174.528 236.16 174.528 
C 236.16 174.528 236.16 174.528 236.16 174.528 
L 152.971959 91.339959 
C 150.551733 93.760184 148.238278 96.284877 146.038199 98.90683 
C 143.838119 101.528783 141.753509 104.245499 139.79032 107.049224 
z
" clip-path="url(#p662edf15bd)" style="fill: #ff0000"/>
   </g>
   <g id="patch_97">
    <path d="M 236.16 174.528 
C 236.16 174.528 236.16 174.528 236.16 174.528 
C 236.16 174.528 236.16 174.528 236.16 174.528 
L 153.94416 92.31216 
C 151.552219 94.704101 149.265801 97.199288 147.091434 99.790599 
C 144.917066 102.381909 142.856819 105.066876 140.916573 107.837834 
z
" clip-path="url(#p662edf15bd)" style="fill: #ffa500"/>
   </g>
   <g id="patch_98">
    <path d="M 236.16 174.528 
C 236.16 174.528 236.16 174.528 236.16 174.528 
C 236.16 174.528 236.16 174.528 236.16 174.528 
L 165.513358 103.881358 
C 163.458004 105.936711 161.493326 108.080782 159.624929 110.30745 
C 157.756533 112.534118 155.986198 114.841263 154.318978 117.2223 
z
" clip-path="url(#p662edf15bd)" style="fill: #008000"/>
   </g>
   <g id="patch_99">
    <path d="M 236.16 174.528 
C 236.16 174.528 236.16 174.528 236.16 174.528 
C 236.16 174.528 236.16 174.528 236.16 174.528 
L 173.518035 85.066003 
C 170.915278 86.888473 168.393294 88.823659 165.95928 90.866039 
C 163.525266 92.90842 161.181541 95.056048 158.934794 97.302794 
z
" clip-path="url(#p662edf15bd)" style="fill: #ff0000"/>
   </g>
   <g id="patch_100">
    <path d="M 236.16 174.528 
C 236.16 174.528 236.16 174.528 236.16 174.528 
C 236.16 174.528 236.16 174.528 236.16 174.528 
L 174.017488 85.779296 
C 171.435484 87.587235 168.933607 89.506992 166.519 91.533088 
C 164.104393 93.559184 161.779355 95.689689 159.550522 97.918522 
z
" clip-path="url(#p662edf15bd)" style="fill: #ffa500"/>
   </g>
   <g id="patch_101">
    <path d="M 236.16 174.528 
C 236.16 174.528 236.16 174.528 236.16 174.528 
C 236.16 174.528 236.16 174.528 236.16 174.528 
L 181.351567 96.253445 
C 179.074291 97.848011 176.867687 99.541198 174.738052 101.328173 
C 172.608418 103.115148 170.557781 104.994211 168.591996 106.959996 
z
" clip-path="url(#p662edf15bd)" style="fill: #008000"/>
   </g>
   <g id="patch_102">
    <path d="M 236.16 174.528 
C 236.16 174.528 236.16 174.528 236.16 174.528 
C 236.16 174.528 236.16 174.528 236.16 174.528 
L 199.57271 96.066303 
C 197.289989 97.130753 195.054809 98.294314 192.873548 99.553666 
C 190.692287 100.813017 188.567023 102.16696 186.503822 103.611629 
z
" clip-path="url(#p662edf15bd)" style="fill: #ff0000"/>
   </g>
   <g id="patch_103">
    <path d="M 236.16 174.528 
C 236.16 174.528 236.16 174.528 236.16 174.528 
C 236.16 174.528 236.16 174.528 236.16 174.528 
L 199.998819 96.980097 
C 197.742684 98.03215 195.533535 99.18216 193.377678 100.426845 
C 191.221821 101.67153 189.121309 103.009704 187.082137 104.437547 
z
" clip-path="url(#p662edf15bd)" style="fill: #ffa500"/>
   </g>
   <g id="patch_104">
    <path d="M 236.16 174.528 
C 236.16 174.528 236.16 174.528 236.16 174.528 
C 236.16 174.528 236.16 174.528 236.16 174.528 
L 204.550441 106.741081 
C 202.578286 107.660712 200.647204 108.66597 198.762705 109.753985 
C 196.878207 110.842001 195.042087 112.011739 193.259586 113.259859 
z
" clip-path="url(#p662edf15bd)" style="fill: #008000"/>
   </g>
   <g id="patch_105">
    <path d="M 236.16 174.528 
C 236.16 174.528 236.16 174.528 236.16 174.528 
C 236.16 174.528 236.16 174.528 236.16 174.528 
L 217.845564 106.177593 
C 215.857016 106.710423 213.892667 107.32978 211.958125 108.033896 
C 210.023583 108.738011 208.12069 109.526215 206.254878 110.396258 
z
" clip-path="url(#p662edf15bd)" style="fill: #ff0000"/>
   </g>
   <g id="patch_106">
    <path d="M 236.16 174.528 
C 236.16 174.528 236.16 174.528 236.16 174.528 
C 236.16 174.528 236.16 174.528 236.16 174.528 
L 218.011627 106.797351 
C 216.04111 107.325349 214.094573 107.93909 212.177572 108.636821 
C 210.260572 109.334553 208.374933 110.11561 206.526038 110.977764 
z
" clip-path="url(#p662edf15bd)" style="fill: #ffa500"/>
   </g>
   <g id="patch_107">
    <path d="M 236.16 174.528 
C 236.16 174.528 236.16 174.528 236.16 174.528 
C 236.16 174.528 236.16 174.528 236.16 174.528 
L 220.336517 115.473957 
C 218.618432 115.934316 216.921255 116.469434 215.249831 117.077783 
C 213.578407 117.686131 211.934327 118.367132 210.322284 119.11884 
z
" clip-path="url(#p662edf15bd)" style="fill: #008000"/>
   </g>
   <g id="patch_108">
    <path d="M 236.16 174.528 
C 236.16 174.528 236.16 174.528 236.16 174.528 
C 236.16 174.528 236.16 174.528 236.16 174.528 
L 231.330832 119.330354 
C 229.724943 119.470851 228.125949 119.681363 226.538416 119.961288 
C 224.950883 120.241213 223.376322 120.590284 221.819227 121.007507 
z
" clip-path="url(#p662edf15bd)" style="fill: #ff0000"/>
   </g>
   <g id="patch_109">
    <path d="M 236.16 174.528 
C 236.16 174.528 236.16 174.528 236.16 174.528 
C 236.16 174.528 236.16 174.528 236.16 174.528 
L 231.414713 120.289122 
C 229.836718 120.427179 228.265499 120.634034 226.705541 120.909097 
C 225.145583 121.184159 223.598371 121.527168 222.068322 121.937143 
z
" clip-path="url(#p662edf15bd)" style="fill: #ffa500"/>
   </g>
   <g id="patch_110">
    <path d="M 236.16 174.528 
C 236.16 174.528 236.16 174.528 236.16 174.528 
C 236.16 174.528 236.16 174.528 236.16 174.528 
L 232.249532 129.831147 
C 230.949147 129.944916 229.654346 130.11538 228.368825 130.342052 
C 227.083304 130.568724 225.808287 130.851388 224.547414 131.189238 
z
" clip-path="url(#p662edf15bd)" style="fill: #008000"/>
   </g>
   <g id="matplotlib.axis_1">
    <g id="xtick_1">
     <g id="line2d_1">
      <path d="M 236.16 174.528 
L 259.264932 43.49342 
" clip-path="url(#p662edf15bd)" style="fill: none; stroke: #b0b0b0; stroke-width: 0.8; stroke-linecap: square"/>
     </g>
     <g id="text_1">
      <!-- 10° -->
      <g transform="translate(252.833506 32.465486) scale(0.1 -0.1)">
       <defs>
        <path id="DejaVuSans-31" d="M 794 531 
L 1825 531 
L 1825 4091 
L 703 3866 
L 703 4441 
L 1819 4666 
L 2450 4666 
L 2450 531 
L 3481 531 
L 3481 0 
L 794 0 
L 794 531 
z
" transform="scale(0.015625)"/>
        <path id="DejaVuSans-30" d="M 2034 4250 
Q 1547 4250 1301 3770 
Q 1056 3291 1056 2328 
Q 1056 1369 1301 889 
Q 1547 409 2034 409 
Q 2525 409 2770 889 
Q 3016 1369 3016 2328 
Q 3016 3291 2770 3770 
Q 2525 4250 2034 4250 
z
M 2034 4750 
Q 2819 4750 3233 4129 
Q 3647 3509 3647 2328 
Q 3647 1150 3233 529 
Q 2819 -91 2034 -91 
Q 1250 -91 836 529 
Q 422 1150 422 2328 
Q 422 3509 836 4129 
Q 1250 4750 2034 4750 
z
" transform="scale(0.015625)"/>
        <path id="DejaVuSans-b0" d="M 1600 4347 
Q 1350 4347 1178 4173 
Q 1006 4000 1006 3750 
Q 1006 3503 1178 3333 
Q 1350 3163 1600 3163 
Q 1850 3163 2022 3333 
Q 2194 3503 2194 3750 
Q 2194 3997 2020 4172 
Q 1847 4347 1600 4347 
z
M 1600 4750 
Q 1800 4750 1984 4673 
Q 2169 4597 2303 4453 
Q 2447 4313 2519 4134 
Q 2591 3956 2591 3750 
Q 2591 3338 2302 3052 
Q 2013 2766 1594 2766 
Q 1172 2766 890 3047 
Q 609 3328 609 3750 
Q 609 4169 896 4459 
Q 1184 4750 1600 4750 
z
" transform="scale(0.015625)"/>
       </defs>
       <use xlink:href="#DejaVuSans-31"/>
       <use xlink:href="#DejaVuSans-30" x="63.623047"/>
       <use xlink:href="#DejaVuSans-b0" x="127.246094"/>
      </g>
     </g>
    </g>
    <g id="xtick_2">
     <g id="line2d_2">
      <path d="M 236.16 174.528 
L 281.667832 49.496259 
" clip-path="url(#p662edf15bd)" style="fill: none; stroke: #b0b0b0; stroke-width: 0.8; stroke-linecap: square"/>
     </g>
     <g id="text_2">
      <!-- 20° -->
      <g transform="translate(277.593614 39.099937) scale(0.1 -0.1)">
       <defs>
        <path id="DejaVuSans-32" d="M 1228 531 
L 3431 531 
L 3431 0 
L 469 0 
L 469 531 
Q 828 903 1448 1529 
Q 2069 2156 2228 2338 
Q 2531 2678 2651 2914 
Q 2772 3150 2772 3378 
Q 2772 3750 2511 3984 
Q 2250 4219 1831 4219 
Q 1534 4219 1204 4116 
Q 875 4013 500 3803 
L 500 4441 
Q 881 4594 1212 4672 
Q 1544 4750 1819 4750 
Q 2544 4750 2975 4387 
Q 3406 4025 3406 3419 
Q 3406 3131 3298 2873 
Q 3191 2616 2906 2266 
Q 2828 2175 2409 1742 
Q 1991 1309 1228 531 
z
" transform="scale(0.015625)"/>
       </defs>
       <use xlink:href="#DejaVuSans-32"/>
       <use xlink:href="#DejaVuSans-30" x="63.623047"/>
       <use xlink:href="#DejaVuSans-b0" x="127.246094"/>
      </g>
     </g>
    </g>
    <g id="xtick_3">
     <g id="line2d_3">
      <path d="M 236.16 174.528 
L 302.688 59.298124 
" clip-path="url(#p662edf15bd)" style="fill: none; stroke: #b0b0b0; stroke-width: 0.8; stroke-linecap: square"/>
     </g>
     <g id="text_3">
      <!-- 30° -->
      <g transform="translate(300.8255 49.933143) scale(0.1 -0.1)">
       <defs>
        <path id="DejaVuSans-33" d="M 2597 2516 
Q 3050 2419 3304 2112 
Q 3559 1806 3559 1356 
Q 3559 666 3084 287 
Q 2609 -91 1734 -91 
Q 1441 -91 1130 -33 
Q 819 25 488 141 
L 488 750 
Q 750 597 1062 519 
Q 1375 441 1716 441 
Q 2309 441 2620 675 
Q 2931 909 2931 1356 
Q 2931 1769 2642 2001 
Q 2353 2234 1838 2234 
L 1294 2234 
L 1294 2753 
L 1863 2753 
Q 2328 2753 2575 2939 
Q 2822 3125 2822 3475 
Q 2822 3834 2567 4026 
Q 2313 4219 1838 4219 
Q 1578 4219 1281 4162 
Q 984 4106 628 3988 
L 628 4550 
Q 988 4650 1302 4700 
Q 1616 4750 1894 4750 
Q 2613 4750 3031 4423 
Q 3450 4097 3450 3541 
Q 3450 3153 3228 2886 
Q 3006 2619 2597 2516 
z
" transform="scale(0.015625)"/>
       </defs>
       <use xlink:href="#DejaVuSans-33"/>
       <use xlink:href="#DejaVuSans-30" x="63.623047"/>
       <use xlink:href="#DejaVuSans-b0" x="127.246094"/>
      </g>
     </g>
    </g>
    <g id="xtick_4">
     <g id="line2d_4">
      <path d="M 236.16 174.528 
L 321.686748 72.601191 
" clip-path="url(#p662edf15bd)" style="fill: none; stroke: #b0b0b0; stroke-width: 0.8; stroke-linecap: square"/>
     </g>
     <g id="text_4">
      <!-- 40° -->
      <g transform="translate(321.823275 64.635943) scale(0.1 -0.1)">
       <defs>
        <path id="DejaVuSans-34" d="M 2419 4116 
L 825 1625 
L 2419 1625 
L 2419 4116 
z
M 2253 4666 
L 3047 4666 
L 3047 1625 
L 3713 1625 
L 3713 1100 
L 3047 1100 
L 3047 0 
L 2419 0 
L 2419 1100 
L 313 1100 
L 313 1709 
L 2253 4666 
z
" transform="scale(0.015625)"/>
       </defs>
       <use xlink:href="#DejaVuSans-34"/>
       <use xlink:href="#DejaVuSans-30" x="63.623047"/>
       <use xlink:href="#DejaVuSans-b0" x="127.246094"/>
      </g>
     </g>
    </g>
    <g id="xtick_5">
     <g id="line2d_5">
      <path d="M 236.16 174.528 
L 338.086809 89.001252 
" clip-path="url(#p662edf15bd)" style="fill: none; stroke: #b0b0b0; stroke-width: 0.8; stroke-linecap: square"/>
     </g>
     <g id="text_5">
      <!-- 50° -->
      <g transform="translate(339.948932 82.7616) scale(0.1 -0.1)">
       <defs>
        <path id="DejaVuSans-35" d="M 691 4666 
L 3169 4666 
L 3169 4134 
L 1269 4134 
L 1269 2991 
Q 1406 3038 1543 3061 
Q 1681 3084 1819 3084 
Q 2600 3084 3056 2656 
Q 3513 2228 3513 1497 
Q 3513 744 3044 326 
Q 2575 -91 1722 -91 
Q 1428 -91 1123 -41 
Q 819 9 494 109 
L 494 744 
Q 775 591 1075 516 
Q 1375 441 1709 441 
Q 2250 441 2565 725 
Q 2881 1009 2881 1497 
Q 2881 1984 2565 2268 
Q 2250 2553 1709 2553 
Q 1456 2553 1204 2497 
Q 953 2441 691 2322 
L 691 4666 
z
" transform="scale(0.015625)"/>
       </defs>
       <use xlink:href="#DejaVuSans-35"/>
       <use xlink:href="#DejaVuSans-30" x="63.623047"/>
       <use xlink:href="#DejaVuSans-b0" x="127.246094"/>
      </g>
     </g>
    </g>
    <g id="xtick_6">
     <g id="line2d_6">
      <path d="M 236.16 174.528 
L 351.389876 108 
" clip-path="url(#p662edf15bd)" style="fill: none; stroke: #b0b0b0; stroke-width: 0.8; stroke-linecap: square"/>
     </g>
     <g id="text_6">
      <!-- 60° -->
      <g transform="translate(354.651732 103.759375) scale(0.1 -0.1)">
       <defs>
        <path id="DejaVuSans-36" d="M 2113 2584 
Q 1688 2584 1439 2293 
Q 1191 2003 1191 1497 
Q 1191 994 1439 701 
Q 1688 409 2113 409 
Q 2538 409 2786 701 
Q 3034 994 3034 1497 
Q 3034 2003 2786 2293 
Q 2538 2584 2113 2584 
z
M 3366 4563 
L 3366 3988 
Q 3128 4100 2886 4159 
Q 2644 4219 2406 4219 
Q 1781 4219 1451 3797 
Q 1122 3375 1075 2522 
Q 1259 2794 1537 2939 
Q 1816 3084 2150 3084 
Q 2853 3084 3261 2657 
Q 3669 2231 3669 1497 
Q 3669 778 3244 343 
Q 2819 -91 2113 -91 
Q 1303 -91 875 529 
Q 447 1150 447 2328 
Q 447 3434 972 4092 
Q 1497 4750 2381 4750 
Q 2619 4750 2861 4703 
Q 3103 4656 3366 4563 
z
" transform="scale(0.015625)"/>
       </defs>
       <use xlink:href="#DejaVuSans-36"/>
       <use xlink:href="#DejaVuSans-30" x="63.623047"/>
       <use xlink:href="#DejaVuSans-b0" x="127.246094"/>
      </g>
     </g>
    </g>
    <g id="xtick_7">
     <g id="line2d_7">
      <path d="M 236.16 174.528 
L 361.191741 129.020168 
" clip-path="url(#p662edf15bd)" style="fill: none; stroke: #b0b0b0; stroke-width: 0.8; stroke-linecap: square"/>
     </g>
     <g id="text_7">
      <!-- 70° -->
      <g transform="translate(365.484938 126.991261) scale(0.1 -0.1)">
       <defs>
        <path id="DejaVuSans-37" d="M 525 4666 
L 3525 4666 
L 3525 4397 
L 1831 0 
L 1172 0 
L 2766 4134 
L 525 4134 
L 525 4666 
z
" transform="scale(0.015625)"/>
       </defs>
       <use xlink:href="#DejaVuSans-37"/>
       <use xlink:href="#DejaVuSans-30" x="63.623047"/>
       <use xlink:href="#DejaVuSans-b0" x="127.246094"/>
      </g>
     </g>
    </g>
    <g id="xtick_8">
     <g id="line2d_8">
      <path d="M 236.16 174.528 
L 367.19458 151.423068 
" clip-path="url(#p662edf15bd)" style="fill: none; stroke: #b0b0b0; stroke-width: 0.8; stroke-linecap: square"/>
     </g>
     <g id="text_8">
      <!-- 80° -->
      <g transform="translate(372.119389 151.751369) scale(0.1 -0.1)">
       <defs>
        <path id="DejaVuSans-38" d="M 2034 2216 
Q 1584 2216 1326 1975 
Q 1069 1734 1069 1313 
Q 1069 891 1326 650 
Q 1584 409 2034 409 
Q 2484 409 2743 651 
Q 3003 894 3003 1313 
Q 3003 1734 2745 1975 
Q 2488 2216 2034 2216 
z
M 1403 2484 
Q 997 2584 770 2862 
Q 544 3141 544 3541 
Q 544 4100 942 4425 
Q 1341 4750 2034 4750 
Q 2731 4750 3128 4425 
Q 3525 4100 3525 3541 
Q 3525 3141 3298 2862 
Q 3072 2584 2669 2484 
Q 3125 2378 3379 2068 
Q 3634 1759 3634 1313 
Q 3634 634 3220 271 
Q 2806 -91 2034 -91 
Q 1263 -91 848 271 
Q 434 634 434 1313 
Q 434 1759 690 2068 
Q 947 2378 1403 2484 
z
M 1172 3481 
Q 1172 3119 1398 2916 
Q 1625 2713 2034 2713 
Q 2441 2713 2670 2916 
Q 2900 3119 2900 3481 
Q 2900 3844 2670 4047 
Q 2441 4250 2034 4250 
Q 1625 4250 1398 4047 
Q 1172 3844 1172 3481 
z
" transform="scale(0.015625)"/>
       </defs>
       <use xlink:href="#DejaVuSans-38"/>
       <use xlink:href="#DejaVuSans-30" x="63.623047"/>
       <use xlink:href="#DejaVuSans-b0" x="127.246094"/>
      </g>
     </g>
    </g>
    <g id="xtick_9">
     <g id="line2d_9">
      <path d="M 236.16 174.528 
L 369.216 174.528 
" clip-path="url(#p662edf15bd)" style="fill: none; stroke: #b0b0b0; stroke-width: 0.8; stroke-linecap: square"/>
     </g>
     <g id="text_9">
      <!-- 90° -->
      <g transform="translate(374.3535 177.287375) scale(0.1 -0.1)">
       <defs>
        <path id="DejaVuSans-39" d="M 703 97 
L 703 672 
Q 941 559 1184 500 
Q 1428 441 1663 441 
Q 2288 441 2617 861 
Q 2947 1281 2994 2138 
Q 2813 1869 2534 1725 
Q 2256 1581 1919 1581 
Q 1219 1581 811 2004 
Q 403 2428 403 3163 
Q 403 3881 828 4315 
Q 1253 4750 1959 4750 
Q 2769 4750 3195 4129 
Q 3622 3509 3622 2328 
Q 3622 1225 3098 567 
Q 2575 -91 1691 -91 
Q 1453 -91 1209 -44 
Q 966 3 703 97 
z
M 1959 2075 
Q 2384 2075 2632 2365 
Q 2881 2656 2881 3163 
Q 2881 3666 2632 3958 
Q 2384 4250 1959 4250 
Q 1534 4250 1286 3958 
Q 1038 3666 1038 3163 
Q 1038 2656 1286 2365 
Q 1534 2075 1959 2075 
z
" transform="scale(0.015625)"/>
       </defs>
       <use xlink:href="#DejaVuSans-39"/>
       <use xlink:href="#DejaVuSans-30" x="63.623047"/>
       <use xlink:href="#DejaVuSans-b0" x="127.246094"/>
      </g>
     </g>
    </g>
    <g id="xtick_10">
     <g id="line2d_10">
      <path d="M 236.16 174.528 
L 367.19458 197.632932 
" clip-path="url(#p662edf15bd)" style="fill: none; stroke: #b0b0b0; stroke-width: 0.8; stroke-linecap: square"/>
     </g>
     <g id="text_10">
      <!-- 100° -->
      <g transform="translate(368.938139 202.823381) scale(0.1 -0.1)">
       <use xlink:href="#DejaVuSans-31"/>
       <use xlink:href="#DejaVuSans-30" x="63.623047"/>
       <use xlink:href="#DejaVuSans-30" x="127.246094"/>
       <use xlink:href="#DejaVuSans-b0" x="190.869141"/>
      </g>
     </g>
    </g>
    <g id="xtick_11">
     <g id="line2d_11">
      <path d="M 236.16 174.528 
L 361.191741 220.035832 
" clip-path="url(#p662edf15bd)" style="fill: none; stroke: #b0b0b0; stroke-width: 0.8; stroke-linecap: square"/>
     </g>
     <g id="text_11">
      <!-- 110° -->
      <g transform="translate(362.303688 227.583489) scale(0.1 -0.1)">
       <use xlink:href="#DejaVuSans-31"/>
       <use xlink:href="#DejaVuSans-31" x="63.623047"/>
       <use xlink:href="#DejaVuSans-30" x="127.246094"/>
       <use xlink:href="#DejaVuSans-b0" x="190.869141"/>
      </g>
     </g>
    </g>
    <g id="xtick_12">
     <g id="line2d_12">
      <path d="M 236.16 174.528 
L 351.389876 241.056 
" clip-path="url(#p662edf15bd)" style="fill: none; stroke: #b0b0b0; stroke-width: 0.8; stroke-linecap: square"/>
     </g>
     <g id="text_12">
      <!-- 120° -->
      <g transform="translate(351.470482 250.815375) scale(0.1 -0.1)">
       <use xlink:href="#DejaVuSans-31"/>
       <use xlink:href="#DejaVuSans-32" x="63.623047"/>
       <use xlink:href="#DejaVuSans-30" x="127.246094"/>
       <use xlink:href="#DejaVuSans-b0" x="190.869141"/>
      </g>
     </g>
    </g>
    <g id="xtick_13">
     <g id="line2d_13">
      <path d="M 236.16 174.528 
L 338.086809 260.054748 
" clip-path="url(#p662edf15bd)" style="fill: none; stroke: #b0b0b0; stroke-width: 0.8; stroke-linecap: square"/>
     </g>
     <g id="text_13">
      <!-- 130° -->
      <g transform="translate(336.767682 271.81315) scale(0.1 -0.1)">
       <use xlink:href="#DejaVuSans-31"/>
       <use xlink:href="#DejaVuSans-33" x="63.623047"/>
       <use xlink:href="#DejaVuSans-30" x="127.246094"/>
       <use xlink:href="#DejaVuSans-b0" x="190.869141"/>
      </g>
     </g>
    </g>
    <g id="xtick_14">
     <g id="line2d_14">
      <path d="M 236.16 174.528 
L 321.686748 276.454809 
" clip-path="url(#p662edf15bd)" style="fill: none; stroke: #b0b0b0; stroke-width: 0.8; stroke-linecap: square"/>
     </g>
     <g id="text_14">
      <!-- 140° -->
      <g transform="translate(318.642025 289.938807) scale(0.1 -0.1)">
       <use xlink:href="#DejaVuSans-31"/>
       <use xlink:href="#DejaVuSans-34" x="63.623047"/>
       <use xlink:href="#DejaVuSans-30" x="127.246094"/>
       <use xlink:href="#DejaVuSans-b0" x="190.869141"/>
      </g>
     </g>
    </g>
    <g id="xtick_15">
     <g id="line2d_15">
      <path d="M 236.16 174.528 
L 302.688 289.757876 
" clip-path="url(#p662edf15bd)" style="fill: none; stroke: #b0b0b0; stroke-width: 0.8; stroke-linecap: square"/>
     </g>
     <g id="text_15">
      <!-- 150° -->
      <g transform="translate(297.64425 304.641607) scale(0.1 -0.1)">
       <use xlink:href="#DejaVuSans-31"/>
       <use xlink:href="#DejaVuSans-35" x="63.623047"/>
       <use xlink:href="#DejaVuSans-30" x="127.246094"/>
       <use xlink:href="#DejaVuSans-b0" x="190.869141"/>
      </g>
     </g>
    </g>
    <g id="xtick_16">
     <g id="line2d_16">
      <path d="M 236.16 174.528 
L 281.667832 299.559741 
" clip-path="url(#p662edf15bd)" style="fill: none; stroke: #b0b0b0; stroke-width: 0.8; stroke-linecap: square"/>
     </g>
     <g id="text_16">
      <!-- 160° -->
      <g transform="translate(274.412364 315.474813) scale(0.1 -0.1)">
       <use xlink:href="#DejaVuSans-31"/>
       <use xlink:href="#DejaVuSans-36" x="63.623047"/>
       <use xlink:href="#DejaVuSans-30" x="127.246094"/>
       <use xlink:href="#DejaVuSans-b0" x="190.869141"/>
      </g>
     </g>
    </g>
    <g id="xtick_17">
     <g id="line2d_17">
      <path d="M 236.16 174.528 
L 259.264932 305.56258 
" clip-path="url(#p662edf15bd)" style="fill: none; stroke: #b0b0b0; stroke-width: 0.8; stroke-linecap: square"/>
     </g>
     <g id="text_17">
      <!-- 170° -->
      <g transform="translate(249.652256 322.109264) scale(0.1 -0.1)">
       <use xlink:href="#DejaVuSans-31"/>
       <use xlink:href="#DejaVuSans-37" x="63.623047"/>
       <use xlink:href="#DejaVuSans-30" x="127.246094"/>
       <use xlink:href="#DejaVuSans-b0" x="190.869141"/>
      </g>
     </g>
    </g>
    <g id="xtick_18">
     <g id="line2d_18">
      <path d="M 236.16 174.528 
L 236.16 307.584 
" clip-path="url(#p662edf15bd)" style="fill: none; stroke: #b0b0b0; stroke-width: 0.8; stroke-linecap: square"/>
     </g>
     <g id="text_18">
      <!-- 180° -->
      <g transform="translate(224.11625 324.343375) scale(0.1 -0.1)">
       <use xlink:href="#DejaVuSans-31"/>
       <use xlink:href="#DejaVuSans-38" x="63.623047"/>
       <use xlink:href="#DejaVuSans-30" x="127.246094"/>
       <use xlink:href="#DejaVuSans-b0" x="190.869141"/>
      </g>
     </g>
    </g>
    <g id="xtick_19">
     <g id="line2d_19">
      <path d="M 236.16 174.528 
L 213.055068 305.56258 
" clip-path="url(#p662edf15bd)" style="fill: none; stroke: #b0b0b0; stroke-width: 0.8; stroke-linecap: square"/>
     </g>
     <g id="text_19">
      <!-- 190° -->
      <g transform="translate(198.580244 322.109264) scale(0.1 -0.1)">
       <use xlink:href="#DejaVuSans-31"/>
       <use xlink:href="#DejaVuSans-39" x="63.623047"/>
       <use xlink:href="#DejaVuSans-30" x="127.246094"/>
       <use xlink:href="#DejaVuSans-b0" x="190.869141"/>
      </g>
     </g>
    </g>
    <g id="xtick_20">
     <g id="line2d_20">
      <path d="M 236.16 174.528 
L 190.652168 299.559741 
" clip-path="url(#p662edf15bd)" style="fill: none; stroke: #b0b0b0; stroke-width: 0.8; stroke-linecap: square"/>
     </g>
     <g id="text_20">
      <!-- 200° -->
      <g transform="translate(173.820136 315.474813) scale(0.1 -0.1)">
       <use xlink:href="#DejaVuSans-32"/>
       <use xlink:href="#DejaVuSans-30" x="63.623047"/>
       <use xlink:href="#DejaVuSans-30" x="127.246094"/>
       <use xlink:href="#DejaVuSans-b0" x="190.869141"/>
      </g>
     </g>
    </g>
    <g id="xtick_21">
     <g id="line2d_21">
      <path d="M 236.16 174.528 
L 169.632 289.757876 
" clip-path="url(#p662edf15bd)" style="fill: none; stroke: #b0b0b0; stroke-width: 0.8; stroke-linecap: square"/>
     </g>
     <g id="text_21">
      <!-- 210° -->
      <g transform="translate(150.58825 304.641607) scale(0.1 -0.1)">
       <use xlink:href="#DejaVuSans-32"/>
       <use xlink:href="#DejaVuSans-31" x="63.623047"/>
       <use xlink:href="#DejaVuSans-30" x="127.246094"/>
       <use xlink:href="#DejaVuSans-b0" x="190.869141"/>
      </g>
     </g>
    </g>
    <g id="xtick_22">
     <g id="line2d_22">
      <path d="M 236.16 174.528 
L 150.633252 276.454809 
" clip-path="url(#p662edf15bd)" style="fill: none; stroke: #b0b0b0; stroke-width: 0.8; stroke-linecap: square"/>
     </g>
     <g id="text_22">
      <!-- 220° -->
      <g transform="translate(129.590475 289.938807) scale(0.1 -0.1)">
       <use xlink:href="#DejaVuSans-32"/>
       <use xlink:href="#DejaVuSans-32" x="63.623047"/>
       <use xlink:href="#DejaVuSans-30" x="127.246094"/>
       <use xlink:href="#DejaVuSans-b0" x="190.869141"/>
      </g>
     </g>
    </g>
    <g id="xtick_23">
     <g id="line2d_23">
      <path d="M 236.16 174.528 
L 134.233191 260.054748 
" clip-path="url(#p662edf15bd)" style="fill: none; stroke: #b0b0b0; stroke-width: 0.8; stroke-linecap: square"/>
     </g>
     <g id="text_23">
      <!-- 230° -->
      <g transform="translate(111.464818 271.81315) scale(0.1 -0.1)">
       <use xlink:href="#DejaVuSans-32"/>
       <use xlink:href="#DejaVuSans-33" x="63.623047"/>
       <use xlink:href="#DejaVuSans-30" x="127.246094"/>
       <use xlink:href="#DejaVuSans-b0" x="190.869141"/>
      </g>
     </g>
    </g>
    <g id="xtick_24">
     <g id="line2d_24">
      <path d="M 236.16 174.528 
L 120.930124 241.056 
" clip-path="url(#p662edf15bd)" style="fill: none; stroke: #b0b0b0; stroke-width: 0.8; stroke-linecap: square"/>
     </g>
     <g id="text_24">
      <!-- 240° -->
      <g transform="translate(96.762018 250.815375) scale(0.1 -0.1)">
       <use xlink:href="#DejaVuSans-32"/>
       <use xlink:href="#DejaVuSans-34" x="63.623047"/>
       <use xlink:href="#DejaVuSans-30" x="127.246094"/>
       <use xlink:href="#DejaVuSans-b0" x="190.869141"/>
      </g>
     </g>
    </g>
    <g id="xtick_25">
     <g id="line2d_25">
      <path d="M 236.16 174.528 
L 111.128259 220.035832 
" clip-path="url(#p662edf15bd)" style="fill: none; stroke: #b0b0b0; stroke-width: 0.8; stroke-linecap: square"/>
     </g>
     <g id="text_25">
      <!-- 250° -->
      <g transform="translate(85.928812 227.583489) scale(0.1 -0.1)">
       <use xlink:href="#DejaVuSans-32"/>
       <use xlink:href="#DejaVuSans-35" x="63.623047"/>
       <use xlink:href="#DejaVuSans-30" x="127.246094"/>
       <use xlink:href="#DejaVuSans-b0" x="190.869141"/>
      </g>
     </g>
    </g>
    <g id="xtick_26">
     <g id="line2d_26">
      <path d="M 236.16 174.528 
L 105.12542 197.632932 
" clip-path="url(#p662edf15bd)" style="fill: none; stroke: #b0b0b0; stroke-width: 0.8; stroke-linecap: square"/>
     </g>
     <g id="text_26">
      <!-- 260° -->
      <g transform="translate(79.294361 202.823381) scale(0.1 -0.1)">
       <use xlink:href="#DejaVuSans-32"/>
       <use xlink:href="#DejaVuSans-36" x="63.623047"/>
       <use xlink:href="#DejaVuSans-30" x="127.246094"/>
       <use xlink:href="#DejaVuSans-b0" x="190.869141"/>
      </g>
     </g>
    </g>
    <g id="xtick_27">
     <g id="line2d_27">
      <path d="M 236.16 174.528 
L 103.104 174.528 
" clip-path="url(#p662edf15bd)" style="fill: none; stroke: #b0b0b0; stroke-width: 0.8; stroke-linecap: square"/>
     </g>
     <g id="text_27">
      <!-- 270° -->
      <g transform="translate(77.06025 177.287375) scale(0.1 -0.1)">
       <use xlink:href="#DejaVuSans-32"/>
       <use xlink:href="#DejaVuSans-37" x="63.623047"/>
       <use xlink:href="#DejaVuSans-30" x="127.246094"/>
       <use xlink:href="#DejaVuSans-b0" x="190.869141"/>
      </g>
     </g>
    </g>
    <g id="xtick_28">
     <g id="line2d_28">
      <path d="M 236.16 174.528 
L 105.12542 151.423068 
" clip-path="url(#p662edf15bd)" style="fill: none; stroke: #b0b0b0; stroke-width: 0.8; stroke-linecap: square"/>
     </g>
     <g id="text_28">
      <!-- 280° -->
      <g transform="translate(79.294361 151.751369) scale(0.1 -0.1)">
       <use xlink:href="#DejaVuSans-32"/>
       <use xlink:href="#DejaVuSans-38" x="63.623047"/>
       <use xlink:href="#DejaVuSans-30" x="127.246094"/>
       <use xlink:href="#DejaVuSans-b0" x="190.869141"/>
      </g>
     </g>
    </g>
    <g id="xtick_29">
     <g id="line2d_29">
      <path d="M 236.16 174.528 
L 111.128259 129.020168 
" clip-path="url(#p662edf15bd)" style="fill: none; stroke: #b0b0b0; stroke-width: 0.8; stroke-linecap: square"/>
     </g>
     <g id="text_29">
      <!-- 290° -->
      <g transform="translate(85.928812 126.991261) scale(0.1 -0.1)">
       <use xlink:href="#DejaVuSans-32"/>
       <use xlink:href="#DejaVuSans-39" x="63.623047"/>
       <use xlink:href="#DejaVuSans-30" x="127.246094"/>
       <use xlink:href="#DejaVuSans-b0" x="190.869141"/>
      </g>
     </g>
    </g>
    <g id="xtick_30">
     <g id="line2d_30">
      <path d="M 236.16 174.528 
L 120.930124 108 
" clip-path="url(#p662edf15bd)" style="fill: none; stroke: #b0b0b0; stroke-width: 0.8; stroke-linecap: square"/>
     </g>
     <g id="text_30">
      <!-- 300° -->
      <g transform="translate(96.762018 103.759375) scale(0.1 -0.1)">
       <use xlink:href="#DejaVuSans-33"/>
       <use xlink:href="#DejaVuSans-30" x="63.623047"/>
       <use xlink:href="#DejaVuSans-30" x="127.246094"/>
       <use xlink:href="#DejaVuSans-b0" x="190.869141"/>
      </g>
     </g>
    </g>
    <g id="xtick_31">
     <g id="line2d_31">
      <path d="M 236.16 174.528 
L 134.233191 89.001252 
" clip-path="url(#p662edf15bd)" style="fill: none; stroke: #b0b0b0; stroke-width: 0.8; stroke-linecap: square"/>
     </g>
     <g id="text_31">
      <!-- 310° -->
      <g transform="translate(111.464818 82.7616) scale(0.1 -0.1)">
       <use xlink:href="#DejaVuSans-33"/>
       <use xlink:href="#DejaVuSans-31" x="63.623047"/>
       <use xlink:href="#DejaVuSans-30" x="127.246094"/>
       <use xlink:href="#DejaVuSans-b0" x="190.869141"/>
      </g>
     </g>
    </g>
    <g id="xtick_32">
     <g id="line2d_32">
      <path d="M 236.16 174.528 
L 150.633252 72.601191 
" clip-path="url(#p662edf15bd)" style="fill: none; stroke: #b0b0b0; stroke-width: 0.8; stroke-linecap: square"/>
     </g>
     <g id="text_32">
      <!-- 320° -->
      <g transform="translate(129.590475 64.635943) scale(0.1 -0.1)">
       <use xlink:href="#DejaVuSans-33"/>
       <use xlink:href="#DejaVuSans-32" x="63.623047"/>
       <use xlink:href="#DejaVuSans-30" x="127.246094"/>
       <use xlink:href="#DejaVuSans-b0" x="190.869141"/>
      </g>
     </g>
    </g>
    <g id="xtick_33">
     <g id="line2d_33">
      <path d="M 236.16 174.528 
L 169.632 59.298124 
" clip-path="url(#p662edf15bd)" style="fill: none; stroke: #b0b0b0; stroke-width: 0.8; stroke-linecap: square"/>
     </g>
     <g id="text_33">
      <!-- 330° -->
      <g transform="translate(150.58825 49.933143) scale(0.1 -0.1)">
       <use xlink:href="#DejaVuSans-33"/>
       <use xlink:href="#DejaVuSans-33" x="63.623047"/>
       <use xlink:href="#DejaVuSans-30" x="127.246094"/>
       <use xlink:href="#DejaVuSans-b0" x="190.869141"/>
      </g>
     </g>
    </g>
    <g id="xtick_34">
     <g id="line2d_34">
      <path d="M 236.16 174.528 
L 190.652168 49.496259 
" clip-path="url(#p662edf15bd)" style="fill: none; stroke: #b0b0b0; stroke-width: 0.8; stroke-linecap: square"/>
     </g>
     <g id="text_34">
      <!-- 340° -->
      <g transform="translate(173.820136 39.099937) scale(0.1 -0.1)">
       <use xlink:href="#DejaVuSans-33"/>
       <use xlink:href="#DejaVuSans-34" x="63.623047"/>
       <use xlink:href="#DejaVuSans-30" x="127.246094"/>
       <use xlink:href="#DejaVuSans-b0" x="190.869141"/>
      </g>
     </g>
    </g>
    <g id="xtick_35">
     <g id="line2d_35">
      <path d="M 236.16 174.528 
L 213.055068 43.49342 
" clip-path="url(#p662edf15bd)" style="fill: none; stroke: #b0b0b0; stroke-width: 0.8; stroke-linecap: square"/>
     </g>
     <g id="text_35">
      <!-- 350° -->
      <g transform="translate(198.580244 32.465486) scale(0.1 -0.1)">
       <use xlink:href="#DejaVuSans-33"/>
       <use xlink:href="#DejaVuSans-35" x="63.623047"/>
       <use xlink:href="#DejaVuSans-30" x="127.246094"/>
       <use xlink:href="#DejaVuSans-b0" x="190.869141"/>
      </g>
     </g>
    </g>
    <g id="xtick_36">
     <g id="line2d_36">
      <path d="M 236.16 174.528 
L 236.16 41.472 
" clip-path="url(#p662edf15bd)" style="fill: none; stroke: #b0b0b0; stroke-width: 0.8; stroke-linecap: square"/>
     </g>
     <g id="text_36">
      <!-- 360° -->
      <g transform="translate(224.11625 30.231375) scale(0.1 -0.1)">
       <use xlink:href="#DejaVuSans-33"/>
       <use xlink:href="#DejaVuSans-36" x="63.623047"/>
       <use xlink:href="#DejaVuSans-30" x="127.246094"/>
       <use xlink:href="#DejaVuSans-b0" x="190.869141"/>
      </g>
     </g>
    </g>
   </g>
   <g id="matplotlib.axis_2">
    <g id="ytick_1">
     <g id="line2d_37">
      <path d="M 236.16 152.59192 
C 239.04062 152.59192 241.893229 153.159339 244.554574 154.261705 
C 247.21592 155.36407 249.634245 156.979944 251.671151 159.016849 
C 253.708056 161.053755 255.32393 163.47208 256.426295 166.133426 
C 257.528661 168.794771 258.09608 171.64738 258.09608 174.528 
C 258.09608 177.40862 257.528661 180.261229 256.426295 182.922574 
C 255.32393 185.58392 253.708056 188.002245 251.671151 190.039151 
C 249.634245 192.076056 247.21592 193.69193 244.554574 194.794295 
C 241.893229 195.896661 239.04062 196.46408 236.16 196.46408 
C 233.27938 196.46408 230.426771 195.896661 227.765426 194.794295 
C 225.10408 193.69193 222.685755 192.076056 220.648849 190.039151 
C 218.611944 188.002245 216.99607 185.58392 215.893705 182.922574 
C 214.791339 180.261229 214.22392 177.40862 214.22392 174.528 
C 214.22392 171.64738 214.791339 168.794771 215.893705 166.133426 
C 216.99607 163.47208 218.611944 161.053755 220.648849 159.016849 
C 222.685755 156.979944 225.10408 155.36407 227.765426 154.261705 
C 230.426771 153.159339 233.27938 152.59192 236.16 152.59192 
" clip-path="url(#p662edf15bd)" style="fill: none; stroke: #b0b0b0; stroke-width: 0.8; stroke-linecap: square"/>
     </g>
     <g id="text_37">
      <!-- 1 -->
      <g transform="translate(251.671151 156.937162) scale(0.1 -0.1)">
       <use xlink:href="#DejaVuSans-31"/>
      </g>
     </g>
    </g>
    <g id="ytick_2">
     <g id="line2d_38">
      <path d="M 236.16 130.65584 
C 241.921239 130.65584 247.626458 131.790679 252.949149 133.99541 
C 258.27184 136.20014 263.10849 139.431887 267.182302 143.505698 
C 271.256113 147.57951 274.48786 152.41616 276.69259 157.738851 
C 278.897321 163.061542 280.03216 168.766761 280.03216 174.528 
C 280.03216 180.289239 278.897321 185.994458 276.69259 191.317149 
C 274.48786 196.63984 271.256113 201.47649 267.182302 205.550302 
C 263.10849 209.624113 258.27184 212.85586 252.949149 215.06059 
C 247.626458 217.265321 241.921239 218.40016 236.16 218.40016 
C 230.398761 218.40016 224.693542 217.265321 219.370851 215.06059 
C 214.04816 212.85586 209.21151 209.624113 205.137698 205.550302 
C 201.063887 201.47649 197.83214 196.63984 195.62741 191.317149 
C 193.422679 185.994458 192.28784 180.289239 192.28784 174.528 
C 192.28784 168.766761 193.422679 163.061542 195.62741 157.738851 
C 197.83214 152.41616 201.063887 147.57951 205.137698 143.505698 
C 209.21151 139.431887 214.04816 136.20014 219.370851 133.99541 
C 224.693542 131.790679 230.398761 130.65584 236.16 130.65584 
" clip-path="url(#p662edf15bd)" style="fill: none; stroke: #b0b0b0; stroke-width: 0.8; stroke-linecap: square"/>
     </g>
     <g id="text_38">
      <!-- 2 -->
      <g transform="translate(267.182302 141.426011) scale(0.1 -0.1)">
       <use xlink:href="#DejaVuSans-32"/>
      </g>
     </g>
    </g>
    <g id="ytick_3">
     <g id="line2d_39">
      <path d="M 236.16 108.71976 
C 244.801859 108.71976 253.359686 110.422018 261.343723 113.729114 
C 269.327759 117.036211 276.582735 121.883831 282.693452 127.994548 
C 288.804169 134.105265 293.651789 141.360241 296.958886 149.344277 
C 300.265982 157.328314 301.96824 165.886141 301.96824 174.528 
C 301.96824 183.169859 300.265982 191.727686 296.958886 199.711723 
C 293.651789 207.695759 288.804169 214.950735 282.693452 221.061452 
C 276.582735 227.172169 269.327759 232.019789 261.343723 235.326886 
C 253.359686 238.633982 244.801859 240.33624 236.16 240.33624 
C 227.518141 240.33624 218.960314 238.633982 210.976277 235.326886 
C 202.992241 232.019789 195.737265 227.172169 189.626548 221.061452 
C 183.515831 214.950735 178.668211 207.695759 175.361114 199.711723 
C 172.054018 191.727686 170.35176 183.169859 170.35176 174.528 
C 170.35176 165.886141 172.054018 157.328314 175.361114 149.344277 
C 178.668211 141.360241 183.515831 134.105265 189.626548 127.994548 
C 195.737265 121.883831 202.992241 117.036211 210.976277 113.729114 
C 218.960314 110.422018 227.518141 108.71976 236.16 108.71976 
" clip-path="url(#p662edf15bd)" style="fill: none; stroke: #b0b0b0; stroke-width: 0.8; stroke-linecap: square"/>
     </g>
     <g id="text_39">
      <!-- 3 -->
      <g transform="translate(282.693452 125.91486) scale(0.1 -0.1)">
       <use xlink:href="#DejaVuSans-33"/>
      </g>
     </g>
    </g>
    <g id="ytick_4">
     <g id="line2d_40">
      <path d="M 236.16 86.783681 
C 247.682478 86.783681 259.092915 89.053358 269.738297 93.462819 
C 280.383679 97.872281 290.056981 104.335774 298.204603 112.483397 
C 306.352226 120.631019 312.815719 130.304321 317.225181 140.949703 
C 321.634642 151.595085 323.904319 163.005522 323.904319 174.528 
C 323.904319 186.050478 321.634642 197.460915 317.225181 208.106297 
C 312.815719 218.751679 306.352226 228.424981 298.204603 236.572603 
C 290.056981 244.720226 280.383679 251.183719 269.738297 255.593181 
C 259.092915 260.002642 247.682478 262.272319 236.16 262.272319 
C 224.637522 262.272319 213.227085 260.002642 202.581703 255.593181 
C 191.936321 251.183719 182.263019 244.720226 174.115397 236.572603 
C 165.967774 228.424981 159.504281 218.751679 155.094819 208.106297 
C 150.685358 197.460915 148.415681 186.050478 148.415681 174.528 
C 148.415681 163.005522 150.685358 151.595085 155.094819 140.949703 
C 159.504281 130.304321 165.967774 120.631019 174.115397 112.483397 
C 182.263019 104.335774 191.936321 97.872281 202.581703 93.462819 
C 213.227085 89.053358 224.637522 86.783681 236.16 86.783681 
" clip-path="url(#p662edf15bd)" style="fill: none; stroke: #b0b0b0; stroke-width: 0.8; stroke-linecap: square"/>
     </g>
     <g id="text_40">
      <!-- 4 -->
      <g transform="translate(298.204603 110.403709) scale(0.1 -0.1)">
       <use xlink:href="#DejaVuSans-34"/>
      </g>
     </g>
    </g>
    <g id="ytick_5">
     <g id="line2d_41">
      <path d="M 236.16 64.847601 
C 250.563098 64.847601 264.826144 67.684697 278.132872 73.196524 
C 291.439599 78.708351 303.531226 86.787718 313.715754 96.972246 
C 323.900282 107.156774 331.979649 119.248401 337.491476 132.555128 
C 343.003303 145.861856 345.840399 160.124902 345.840399 174.528 
C 345.840399 188.931098 343.003303 203.194144 337.491476 216.500872 
C 331.979649 229.807599 323.900282 241.899226 313.715754 252.083754 
C 303.531226 262.268282 291.439599 270.347649 278.132872 275.859476 
C 264.826144 281.371303 250.563098 284.208399 236.16 284.208399 
C 221.756902 284.208399 207.493856 281.371303 194.187128 275.859476 
C 180.880401 270.347649 168.788774 262.268282 158.604246 252.083754 
C 148.419718 241.899226 140.340351 229.807599 134.828524 216.500872 
C 129.316697 203.194144 126.479601 188.931098 126.479601 174.528 
C 126.479601 160.124902 129.316697 145.861856 134.828524 132.555128 
C 140.340351 119.248401 148.419718 107.156774 158.604246 96.972246 
C 168.788774 86.787718 180.880401 78.708351 194.187128 73.196524 
C 207.493856 67.684697 221.756902 64.847601 236.16 64.847601 
" clip-path="url(#p662edf15bd)" style="fill: none; stroke: #b0b0b0; stroke-width: 0.8; stroke-linecap: square"/>
     </g>
     <g id="text_41">
      <!-- 5 -->
      <g transform="translate(313.715754 94.892558) scale(0.1 -0.1)">
       <use xlink:href="#DejaVuSans-35"/>
      </g>
     </g>
    </g>
    <g id="ytick_6">
     <g id="line2d_42">
      <path d="M 236.16 42.911521 
C 253.443718 42.911521 270.559373 46.316036 286.527446 52.930229 
C 302.495519 59.544421 317.005471 69.239661 329.226905 81.461095 
C 341.448339 93.682529 351.143579 108.192481 357.757771 124.160554 
C 364.371964 140.128627 367.776479 157.244282 367.776479 174.528 
C 367.776479 191.811718 364.371964 208.927373 357.757771 224.895446 
C 351.143579 240.863519 341.448339 255.373471 329.226905 267.594905 
C 317.005471 279.816339 302.495519 289.511579 286.527446 296.125771 
C 270.559373 302.739964 253.443718 306.144479 236.16 306.144479 
C 218.876282 306.144479 201.760627 302.739964 185.792554 296.125771 
C 169.824481 289.511579 155.314529 279.816339 143.093095 267.594905 
C 130.871661 255.373471 121.176421 240.863519 114.562229 224.895446 
C 107.948036 208.927373 104.543521 191.811718 104.543521 174.528 
C 104.543521 157.244282 107.948036 140.128627 114.562229 124.160554 
C 121.176421 108.192481 130.871661 93.682529 143.093095 81.461095 
C 155.314529 69.239661 169.824481 59.544421 185.792554 52.930229 
C 201.760627 46.316036 218.876282 42.911521 236.16 42.911521 
" clip-path="url(#p662edf15bd)" style="fill: none; stroke: #b0b0b0; stroke-width: 0.8; stroke-linecap: square"/>
     </g>
     <g id="text_42">
      <!-- 6 -->
      <g transform="translate(329.226905 79.381408) scale(0.1 -0.1)">
       <use xlink:href="#DejaVuSans-36"/>
      </g>
     </g>
    </g>
   </g>
   <g id="patch_111">
    <path d="M 236.16 41.472 
C 218.687246 41.472 201.384393 44.913752 185.241673 51.600285 
C 169.098954 58.286818 154.430303 68.088097 142.0752 80.4432 
C 129.720097 92.798303 119.918818 107.466954 113.232285 123.609673 
C 106.545752 139.752393 103.104 157.055246 103.104 174.528 
C 103.104 192.000754 106.545752 209.303607 113.232285 225.446327 
C 119.918818 241.589046 129.720097 256.257697 142.0752 268.6128 
C 154.430303 280.967903 169.098954 290.769182 185.241673 297.455715 
C 201.384393 304.142248 218.687246 307.584 236.16 307.584 
C 253.632754 307.584 270.935607 304.142248 287.078327 297.455715 
C 303.221046 290.769182 317.889697 280.967903 330.2448 268.6128 
C 342.599903 256.257697 352.401182 241.589046 359.087715 225.446327 
C 365.774248 209.303607 369.216 192.000754 369.216 174.528 
C 369.216 157.055246 365.774248 139.752393 359.087715 123.609673 
C 352.401182 107.466954 342.599903 92.798303 330.2448 80.4432 
C 317.889697 68.088097 303.221046 58.286818 287.078327 51.600285 
C 270.935607 44.913752 253.632754 41.472 236.16 41.472 
" style="fill: none; stroke: #000000; stroke-width: 0.8; stroke-linejoin: miter; stroke-linecap: square"/>
   </g>
   <g id="text_43">
    <!-- Rose des vents -->
    <g transform="translate(190.808438 16.632938) scale(0.12 -0.12)">
     <defs>
      <path id="DejaVuSans-52" d="M 2841 2188 
Q 3044 2119 3236 1894 
Q 3428 1669 3622 1275 
L 4263 0 
L 3584 0 
L 2988 1197 
Q 2756 1666 2539 1819 
Q 2322 1972 1947 1972 
L 1259 1972 
L 1259 0 
L 628 0 
L 628 4666 
L 2053 4666 
Q 2853 4666 3247 4331 
Q 3641 3997 3641 3322 
Q 3641 2881 3436 2590 
Q 3231 2300 2841 2188 
z
M 1259 4147 
L 1259 2491 
L 2053 2491 
Q 2509 2491 2742 2702 
Q 2975 2913 2975 3322 
Q 2975 3731 2742 3939 
Q 2509 4147 2053 4147 
L 1259 4147 
z
" transform="scale(0.015625)"/>
      <path id="DejaVuSans-6f" d="M 1959 3097 
Q 1497 3097 1228 2736 
Q 959 2375 959 1747 
Q 959 1119 1226 758 
Q 1494 397 1959 397 
Q 2419 397 2687 759 
Q 2956 1122 2956 1747 
Q 2956 2369 2687 2733 
Q 2419 3097 1959 3097 
z
M 1959 3584 
Q 2709 3584 3137 3096 
Q 3566 2609 3566 1747 
Q 3566 888 3137 398 
Q 2709 -91 1959 -91 
Q 1206 -91 779 398 
Q 353 888 353 1747 
Q 353 2609 779 3096 
Q 1206 3584 1959 3584 
z
" transform="scale(0.015625)"/>
      <path id="DejaVuSans-73" d="M 2834 3397 
L 2834 2853 
Q 2591 2978 2328 3040 
Q 2066 3103 1784 3103 
Q 1356 3103 1142 2972 
Q 928 2841 928 2578 
Q 928 2378 1081 2264 
Q 1234 2150 1697 2047 
L 1894 2003 
Q 2506 1872 2764 1633 
Q 3022 1394 3022 966 
Q 3022 478 2636 193 
Q 2250 -91 1575 -91 
Q 1294 -91 989 -36 
Q 684 19 347 128 
L 347 722 
Q 666 556 975 473 
Q 1284 391 1588 391 
Q 1994 391 2212 530 
Q 2431 669 2431 922 
Q 2431 1156 2273 1281 
Q 2116 1406 1581 1522 
L 1381 1569 
Q 847 1681 609 1914 
Q 372 2147 372 2553 
Q 372 3047 722 3315 
Q 1072 3584 1716 3584 
Q 2034 3584 2315 3537 
Q 2597 3491 2834 3397 
z
" transform="scale(0.015625)"/>
      <path id="DejaVuSans-65" d="M 3597 1894 
L 3597 1613 
L 953 1613 
Q 991 1019 1311 708 
Q 1631 397 2203 397 
Q 2534 397 2845 478 
Q 3156 559 3463 722 
L 3463 178 
Q 3153 47 2828 -22 
Q 2503 -91 2169 -91 
Q 1331 -91 842 396 
Q 353 884 353 1716 
Q 353 2575 817 3079 
Q 1281 3584 2069 3584 
Q 2775 3584 3186 3129 
Q 3597 2675 3597 1894 
z
M 3022 2063 
Q 3016 2534 2758 2815 
Q 2500 3097 2075 3097 
Q 1594 3097 1305 2825 
Q 1016 2553 972 2059 
L 3022 2063 
z
" transform="scale(0.015625)"/>
      <path id="DejaVuSans-20" transform="scale(0.015625)"/>
      <path id="DejaVuSans-64" d="M 2906 2969 
L 2906 4863 
L 3481 4863 
L 3481 0 
L 2906 0 
L 2906 525 
Q 2725 213 2448 61 
Q 2172 -91 1784 -91 
Q 1150 -91 751 415 
Q 353 922 353 1747 
Q 353 2572 751 3078 
Q 1150 3584 1784 3584 
Q 2172 3584 2448 3432 
Q 2725 3281 2906 2969 
z
M 947 1747 
Q 947 1113 1208 752 
Q 1469 391 1925 391 
Q 2381 391 2643 752 
Q 2906 1113 2906 1747 
Q 2906 2381 2643 2742 
Q 2381 3103 1925 3103 
Q 1469 3103 1208 2742 
Q 947 2381 947 1747 
z
" transform="scale(0.015625)"/>
      <path id="DejaVuSans-76" d="M 191 3500 
L 800 3500 
L 1894 563 
L 2988 3500 
L 3597 3500 
L 2284 0 
L 1503 0 
L 191 3500 
z
" transform="scale(0.015625)"/>
      <path id="DejaVuSans-6e" d="M 3513 2113 
L 3513 0 
L 2938 0 
L 2938 2094 
Q 2938 2591 2744 2837 
Q 2550 3084 2163 3084 
Q 1697 3084 1428 2787 
Q 1159 2491 1159 1978 
L 1159 0 
L 581 0 
L 581 3500 
L 1159 3500 
L 1159 2956 
Q 1366 3272 1645 3428 
Q 1925 3584 2291 3584 
Q 2894 3584 3203 3211 
Q 3513 2838 3513 2113 
z
" transform="scale(0.015625)"/>
      <path id="DejaVuSans-74" d="M 1172 4494 
L 1172 3500 
L 2356 3500 
L 2356 3053 
L 1172 3053 
L 1172 1153 
Q 1172 725 1289 603 
Q 1406 481 1766 481 
L 2356 481 
L 2356 0 
L 1766 0 
Q 1100 0 847 248 
Q 594 497 594 1153 
L 594 3053 
L 172 3053 
L 172 3500 
L 594 3500 
L 594 4494 
L 1172 4494 
z
" transform="scale(0.015625)"/>
     </defs>
     <use xlink:href="#DejaVuSans-52"/>
     <use xlink:href="#DejaVuSans-6f" x="64.982422"/>
     <use xlink:href="#DejaVuSans-73" x="126.164062"/>
     <use xlink:href="#DejaVuSans-65" x="178.263672"/>
     <use xlink:href="#DejaVuSans-20" x="239.787109"/>
     <use xlink:href="#DejaVuSans-64" x="271.574219"/>
     <use xlink:href="#DejaVuSans-65" x="335.050781"/>
     <use xlink:href="#DejaVuSans-73" x="396.574219"/>
     <use xlink:href="#DejaVuSans-20" x="448.673828"/>
     <use xlink:href="#DejaVuSans-76" x="480.460938"/>
     <use xlink:href="#DejaVuSans-65" x="539.640625"/>
     <use xlink:href="#DejaVuSans-6e" x="601.164062"/>
     <use xlink:href="#DejaVuSans-74" x="664.542969"/>
     <use xlink:href="#DejaVuSans-73" x="703.751953"/>
    </g>
   </g>
   <g id="legend_1">
    <g id="patch_112">
     <path d="M 376.53824 88.506375 
L 534.66324 88.506375 
Q 536.66324 88.506375 536.66324 86.506375 
L 536.66324 43.472 
Q 536.66324 41.472 534.66324 41.472 
L 376.53824 41.472 
Q 374.53824 41.472 374.53824 43.472 
L 374.53824 86.506375 
Q 374.53824 88.506375 376.53824 88.506375 
z
" style="fill: #ffffff; opacity: 0.8; stroke: #cccccc; stroke-linejoin: miter"/>
    </g>
    <g id="patch_113">
     <path d="M 378.53824 53.070438 
L 398.53824 53.070438 
L 398.53824 46.070438 
L 378.53824 46.070438 
z
" style="fill: #ff0000"/>
    </g>
    <g id="text_44">
     <!-- Vitesse vent&gt;15kt -->
     <g transform="translate(406.53824 53.070438) scale(0.1 -0.1)">
      <defs>
       <path id="DejaVuSans-56" d="M 1831 0 
L 50 4666 
L 709 4666 
L 2188 738 
L 3669 4666 
L 4325 4666 
L 2547 0 
L 1831 0 
z
" transform="scale(0.015625)"/>
       <path id="DejaVuSans-69" d="M 603 3500 
L 1178 3500 
L 1178 0 
L 603 0 
L 603 3500 
z
M 603 4863 
L 1178 4863 
L 1178 4134 
L 603 4134 
L 603 4863 
z
" transform="scale(0.015625)"/>
       <path id="DejaVuSans-3e" d="M 678 3150 
L 678 3719 
L 4684 2266 
L 4684 1747 
L 678 294 
L 678 863 
L 3897 2003 
L 678 3150 
z
" transform="scale(0.015625)"/>
       <path id="DejaVuSans-6b" d="M 581 4863 
L 1159 4863 
L 1159 1991 
L 2875 3500 
L 3609 3500 
L 1753 1863 
L 3688 0 
L 2938 0 
L 1159 1709 
L 1159 0 
L 581 0 
L 581 4863 
z
" transform="scale(0.015625)"/>
      </defs>
      <use xlink:href="#DejaVuSans-56"/>
      <use xlink:href="#DejaVuSans-69" x="66.158203"/>
      <use xlink:href="#DejaVuSans-74" x="93.941406"/>
      <use xlink:href="#DejaVuSans-65" x="133.150391"/>
      <use xlink:href="#DejaVuSans-73" x="194.673828"/>
      <use xlink:href="#DejaVuSans-73" x="246.773438"/>
      <use xlink:href="#DejaVuSans-65" x="298.873047"/>
      <use xlink:href="#DejaVuSans-20" x="360.396484"/>
      <use xlink:href="#DejaVuSans-76" x="392.183594"/>
      <use xlink:href="#DejaVuSans-65" x="451.363281"/>
      <use xlink:href="#DejaVuSans-6e" x="512.886719"/>
      <use xlink:href="#DejaVuSans-74" x="576.265625"/>
      <use xlink:href="#DejaVuSans-3e" x="615.474609"/>
      <use xlink:href="#DejaVuSans-31" x="699.263672"/>
      <use xlink:href="#DejaVuSans-35" x="762.886719"/>
      <use xlink:href="#DejaVuSans-6b" x="826.509766"/>
      <use xlink:href="#DejaVuSans-74" x="884.419922"/>
     </g>
    </g>
    <g id="patch_114">
     <path d="M 378.53824 67.748563 
L 398.53824 67.748563 
L 398.53824 60.748563 
L 378.53824 60.748563 
z
" style="fill: #ffa500"/>
    </g>
    <g id="text_45">
     <!-- Vitesse vent ∈ [10;15] kt -->
     <g transform="translate(406.53824 67.748563) scale(0.1 -0.1)">
      <defs>
       <path id="DejaVuSans-2208" d="M 1072 1959 
Q 1094 1728 1291 1353 
Q 1522 919 1959 675 
Q 2388 438 2850 434 
L 5028 434 
L 5028 -63 
L 2850 -63 
Q 2250 -63 1695 246 
Q 1141 556 844 1106 
Q 547 1656 547 2241 
Q 547 2819 844 3369 
Q 1141 3919 1695 4231 
Q 2250 4544 2850 4544 
L 5028 4544 
L 5028 4047 
L 2850 4047 
Q 2388 4044 1959 3803 
Q 1525 3556 1291 3125 
Q 1091 2750 1063 2459 
L 5028 2459 
L 5028 1959 
L 1072 1959 
z
" transform="scale(0.015625)"/>
       <path id="DejaVuSans-5b" d="M 550 4863 
L 1875 4863 
L 1875 4416 
L 1125 4416 
L 1125 -397 
L 1875 -397 
L 1875 -844 
L 550 -844 
L 550 4863 
z
" transform="scale(0.015625)"/>
       <path id="DejaVuSans-3b" d="M 750 3309 
L 1409 3309 
L 1409 2516 
L 750 2516 
L 750 3309 
z
M 750 794 
L 1409 794 
L 1409 256 
L 897 -744 
L 494 -744 
L 750 256 
L 750 794 
z
" transform="scale(0.015625)"/>
       <path id="DejaVuSans-5d" d="M 1947 4863 
L 1947 -844 
L 622 -844 
L 622 -397 
L 1369 -397 
L 1369 4416 
L 622 4416 
L 622 4863 
L 1947 4863 
z
" transform="scale(0.015625)"/>
      </defs>
      <use xlink:href="#DejaVuSans-56"/>
      <use xlink:href="#DejaVuSans-69" x="66.158203"/>
      <use xlink:href="#DejaVuSans-74" x="93.941406"/>
      <use xlink:href="#DejaVuSans-65" x="133.150391"/>
      <use xlink:href="#DejaVuSans-73" x="194.673828"/>
      <use xlink:href="#DejaVuSans-73" x="246.773438"/>
      <use xlink:href="#DejaVuSans-65" x="298.873047"/>
      <use xlink:href="#DejaVuSans-20" x="360.396484"/>
      <use xlink:href="#DejaVuSans-76" x="392.183594"/>
      <use xlink:href="#DejaVuSans-65" x="451.363281"/>
      <use xlink:href="#DejaVuSans-6e" x="512.886719"/>
      <use xlink:href="#DejaVuSans-74" x="576.265625"/>
      <use xlink:href="#DejaVuSans-20" x="615.474609"/>
      <use xlink:href="#DejaVuSans-2208" x="647.261719"/>
      <use xlink:href="#DejaVuSans-20" x="734.371094"/>
      <use xlink:href="#DejaVuSans-5b" x="766.158203"/>
      <use xlink:href="#DejaVuSans-31" x="805.171875"/>
      <use xlink:href="#DejaVuSans-30" x="868.794922"/>
      <use xlink:href="#DejaVuSans-3b" x="932.417969"/>
      <use xlink:href="#DejaVuSans-31" x="966.109375"/>
      <use xlink:href="#DejaVuSans-35" x="1029.732422"/>
      <use xlink:href="#DejaVuSans-5d" x="1093.355469"/>
      <use xlink:href="#DejaVuSans-20" x="1132.369141"/>
      <use xlink:href="#DejaVuSans-6b" x="1164.15625"/>
      <use xlink:href="#DejaVuSans-74" x="1222.066406"/>
     </g>
    </g>
    <g id="patch_115">
     <path d="M 378.53824 82.426688 
L 398.53824 82.426688 
L 398.53824 75.426688 
L 378.53824 75.426688 
z
" style="fill: #008000"/>
    </g>
    <g id="text_46">
     <!-- Vitesse vent ∈ [3;10]kt -->
     <g transform="translate(406.53824 82.426688) scale(0.1 -0.1)">
      <use xlink:href="#DejaVuSans-56"/>
      <use xlink:href="#DejaVuSans-69" x="66.158203"/>
      <use xlink:href="#DejaVuSans-74" x="93.941406"/>
      <use xlink:href="#DejaVuSans-65" x="133.150391"/>
      <use xlink:href="#DejaVuSans-73" x="194.673828"/>
      <use xlink:href="#DejaVuSans-73" x="246.773438"/>
      <use xlink:href="#DejaVuSans-65" x="298.873047"/>
      <use xlink:href="#DejaVuSans-20" x="360.396484"/>
      <use xlink:href="#DejaVuSans-76" x="392.183594"/>
      <use xlink:href="#DejaVuSans-65" x="451.363281"/>
      <use xlink:href="#DejaVuSans-6e" x="512.886719"/>
      <use xlink:href="#DejaVuSans-74" x="576.265625"/>
      <use xlink:href="#DejaVuSans-20" x="615.474609"/>
      <use xlink:href="#DejaVuSans-2208" x="647.261719"/>
      <use xlink:href="#DejaVuSans-20" x="734.371094"/>
      <use xlink:href="#DejaVuSans-5b" x="766.158203"/>
      <use xlink:href="#DejaVuSans-33" x="805.171875"/>
      <use xlink:href="#DejaVuSans-3b" x="868.794922"/>
      <use xlink:href="#DejaVuSans-31" x="902.486328"/>
      <use xlink:href="#DejaVuSans-30" x="966.109375"/>
      <use xlink:href="#DejaVuSans-5d" x="1029.732422"/>
      <use xlink:href="#DejaVuSans-6b" x="1068.746094"/>
      <use xlink:href="#DejaVuSans-74" x="1126.65625"/>
     </g>
    </g>
   </g>
  </g>
 </g>
 <defs>
  <clipPath id="p662edf15bd">
   <path d="M 369.216 174.528 
C 369.216 157.055246 365.774248 139.752393 359.087715 123.609673 
C 352.401182 107.466954 342.599903 92.798303 330.2448 80.4432 
C 317.889697 68.088097 303.221046 58.286818 287.078327 51.600285 
C 270.935607 44.913752 253.632754 41.472 236.16 41.472 
C 218.687246 41.472 201.384393 44.913752 185.241673 51.600285 
C 169.098954 58.286818 154.430303 68.088097 142.0752 80.4432 
C 129.720097 92.798303 119.918818 107.466954 113.232285 123.609673 
C 106.545752 139.752393 103.104 157.055246 103.104 174.528 
C 103.104 192.000754 106.545752 209.303607 113.232285 225.446327 
C 119.918818 241.589046 129.720097 256.257697 142.0752 268.6128 
C 154.430303 280.967903 169.098954 290.769182 185.241673 297.455715 
C 201.384393 304.142248 218.687246 307.584 236.16 307.584 
C 253.632754 307.584 270.935607 304.142248 287.078327 297.455715 
C 303.221046 290.769182 317.889697 280.967903 330.2448 268.6128 
C 342.599903 256.257697 352.401182 241.589046 359.087715 225.446327 
C 365.774248 209.303607 369.216 192.000754 369.216 174.528 
M 236.16 174.528 
C 236.16 174.528 236.16 174.528 236.16 174.528 
C 236.16 174.528 236.16 174.528 236.16 174.528 
C 236.16 174.528 236.16 174.528 236.16 174.528 
C 236.16 174.528 236.16 174.528 236.16 174.528 
C 236.16 174.528 236.16 174.528 236.16 174.528 
C 236.16 174.528 236.16 174.528 236.16 174.528 
C 236.16 174.528 236.16 174.528 236.16 174.528 
C 236.16 174.528 236.16 174.528 236.16 174.528 
C 236.16 174.528 236.16 174.528 236.16 174.528 
C 236.16 174.528 236.16 174.528 236.16 174.528 
C 236.16 174.528 236.16 174.528 236.16 174.528 
C 236.16 174.528 236.16 174.528 236.16 174.528 
C 236.16 174.528 236.16 174.528 236.16 174.528 
C 236.16 174.528 236.16 174.528 236.16 174.528 
C 236.16 174.528 236.16 174.528 236.16 174.528 
C 236.16 174.528 236.16 174.528 236.16 174.528 
z
"/>
  </clipPath>
 </defs>
</svg>
