<?xml version="1.0" encoding="utf-8" standalone="no"?>
<!DOCTYPE svg PUBLIC "-//W3C//DTD SVG 1.1//EN"
  "http://www.w3.org/Graphics/SVG/1.1/DTD/svg11.dtd">
<svg xmlns:xlink="http://www.w3.org/1999/xlink" width="460.8pt" height="345.6pt" viewBox="0 0 460.8 345.6" xmlns="http://www.w3.org/2000/svg" version="1.1">
 <metadata>
  <rdf:RDF xmlns:dc="http://purl.org/dc/elements/1.1/" xmlns:cc="http://creativecommons.org/ns#" xmlns:rdf="http://www.w3.org/1999/02/22-rdf-syntax-ns#">
   <cc:Work>
    <dc:type rdf:resource="http://purl.org/dc/dcmitype/StillImage"/>
    <dc:date>2024-02-17T17:42:21.695309</dc:date>
    <dc:format>image/svg+xml</dc:format>
    <dc:creator>
     <cc:Agent>
      <dc:title>Matplotlib v3.8.0, https://matplotlib.org/</dc:title>
     </cc:Agent>
    </dc:creator>
   </cc:Work>
  </rdf:RDF>
 </metadata>
 <defs>
  <style type="text/css">*{stroke-linejoin: round; stroke-linecap: butt}</style>
 </defs>
 <g id="figure_1">
  <g id="patch_1">
   <path d="M 0 345.6 
L 460.8 345.6 
L 460.8 0 
L 0 0 
z
" style="fill: #ffffff"/>
  </g>
  <g id="axes_1">
   <g id="patch_2">
    <path d="M 57.6 307.584 
L 414.72 307.584 
L 414.72 41.472 
L 57.6 41.472 
z
" style="fill: #ffffff"/>
   </g>
   <g id="patch_3">
    <path d="M 73.832727 307.584 
L 95.843205 307.584 
L 95.843205 98.607158 
L 73.832727 98.607158 
z
" clip-path="url(#pcffc4cf271)" style="fill: #6495ed"/>
   </g>
   <g id="patch_4">
    <path d="M 101.345824 307.584 
L 123.356302 307.584 
L 123.356302 240.889263 
L 101.345824 240.889263 
z
" clip-path="url(#pcffc4cf271)" style="fill: #6495ed"/>
   </g>
   <g id="patch_5">
    <path d="M 128.858921 307.584 
L 150.869399 307.584 
L 150.869399 276.459789 
L 128.858921 276.459789 
z
" clip-path="url(#pcffc4cf271)" style="fill: #6495ed"/>
   </g>
   <g id="patch_6">
    <path d="M 156.372018 307.584 
L 178.382496 307.584 
L 178.382496 280.906105 
L 156.372018 280.906105 
z
" clip-path="url(#pcffc4cf271)" style="fill: #6495ed"/>
   </g>
   <g id="patch_7">
    <path d="M 183.885116 307.584 
L 205.895593 307.584 
L 205.895593 276.459789 
L 183.885116 276.459789 
z
" clip-path="url(#pcffc4cf271)" style="fill: #6495ed"/>
   </g>
   <g id="patch_8">
    <path d="M 211.398213 307.584 
L 233.40869 307.584 
L 233.40869 285.352421 
L 211.398213 285.352421 
z
" clip-path="url(#pcffc4cf271)" style="fill: #6495ed"/>
   </g>
   <g id="patch_9">
    <path d="M 238.91131 307.584 
L 260.921787 307.584 
L 260.921787 298.691368 
L 238.91131 298.691368 
z
" clip-path="url(#pcffc4cf271)" style="fill: #6495ed"/>
   </g>
   <g id="patch_10">
    <path d="M 266.424407 307.584 
L 288.434884 307.584 
L 288.434884 298.691368 
L 266.424407 298.691368 
z
" clip-path="url(#pcffc4cf271)" style="fill: #6495ed"/>
   </g>
   <g id="patch_11">
    <path d="M 293.937504 307.584 
L 315.947982 307.584 
L 315.947982 289.798737 
L 293.937504 289.798737 
z
" clip-path="url(#pcffc4cf271)" style="fill: #6495ed"/>
   </g>
   <g id="patch_12">
    <path d="M 321.450601 307.584 
L 343.461079 307.584 
L 343.461079 223.104 
L 321.450601 223.104 
z
" clip-path="url(#pcffc4cf271)" style="fill: #6495ed"/>
   </g>
   <g id="patch_13">
    <path d="M 348.963698 307.584 
L 370.974176 307.584 
L 370.974176 111.946105 
L 348.963698 111.946105 
z
" clip-path="url(#pcffc4cf271)" style="fill: #6495ed"/>
   </g>
   <g id="patch_14">
    <path d="M 376.476795 307.584 
L 398.487273 307.584 
L 398.487273 54.144 
L 376.476795 54.144 
z
" clip-path="url(#pcffc4cf271)" style="fill: #6495ed"/>
   </g>
   <g id="patch_15">
    <path d="M 73.832727 307.584 
L 95.843205 307.584 
L 95.843205 98.607158 
L 73.832727 98.607158 
z
" clip-path="url(#pcffc4cf271)" style="fill: #b22222"/>
   </g>
   <g id="patch_16">
    <path d="M 101.345824 307.584 
L 123.356302 307.584 
L 123.356302 240.889263 
L 101.345824 240.889263 
z
" clip-path="url(#pcffc4cf271)" style="fill: #b22222"/>
   </g>
   <g id="patch_17">
    <path d="M 128.858921 307.584 
L 150.869399 307.584 
L 150.869399 276.459789 
L 128.858921 276.459789 
z
" clip-path="url(#pcffc4cf271)" style="fill: #b22222"/>
   </g>
   <g id="patch_18">
    <path d="M 156.372018 307.584 
L 178.382496 307.584 
L 178.382496 280.906105 
L 156.372018 280.906105 
z
" clip-path="url(#pcffc4cf271)" style="fill: #b22222"/>
   </g>
   <g id="patch_19">
    <path d="M 183.885116 307.584 
L 205.895593 307.584 
L 205.895593 276.459789 
L 183.885116 276.459789 
z
" clip-path="url(#pcffc4cf271)" style="fill: #b22222"/>
   </g>
   <g id="patch_20">
    <path d="M 211.398213 307.584 
L 233.40869 307.584 
L 233.40869 285.352421 
L 211.398213 285.352421 
z
" clip-path="url(#pcffc4cf271)" style="fill: #b22222"/>
   </g>
   <g id="patch_21">
    <path d="M 238.91131 307.584 
L 260.921787 307.584 
L 260.921787 298.691368 
L 238.91131 298.691368 
z
" clip-path="url(#pcffc4cf271)" style="fill: #b22222"/>
   </g>
   <g id="patch_22">
    <path d="M 266.424407 307.584 
L 288.434884 307.584 
L 288.434884 298.691368 
L 266.424407 298.691368 
z
" clip-path="url(#pcffc4cf271)" style="fill: #b22222"/>
   </g>
   <g id="patch_23">
    <path d="M 293.937504 307.584 
L 315.947982 307.584 
L 315.947982 289.798737 
L 293.937504 289.798737 
z
" clip-path="url(#pcffc4cf271)" style="fill: #b22222"/>
   </g>
   <g id="patch_24">
    <path d="M 321.450601 307.584 
L 343.461079 307.584 
L 343.461079 223.104 
L 321.450601 223.104 
z
" clip-path="url(#pcffc4cf271)" style="fill: #b22222"/>
   </g>
   <g id="patch_25">
    <path d="M 348.963698 307.584 
L 370.974176 307.584 
L 370.974176 111.946105 
L 348.963698 111.946105 
z
" clip-path="url(#pcffc4cf271)" style="fill: #b22222"/>
   </g>
   <g id="patch_26">
    <path d="M 376.476795 307.584 
L 398.487273 307.584 
L 398.487273 54.144 
L 376.476795 54.144 
z
" clip-path="url(#pcffc4cf271)" style="fill: #b22222"/>
   </g>
   <g id="patch_27">
    <path d="M 73.832727 307.584 
L 95.843205 307.584 
L 95.843205 98.607158 
L 73.832727 98.607158 
z
" clip-path="url(#pcffc4cf271)" style="fill: #b0c4de"/>
   </g>
   <g id="patch_28">
    <path d="M 101.345824 307.584 
L 123.356302 307.584 
L 123.356302 240.889263 
L 101.345824 240.889263 
z
" clip-path="url(#pcffc4cf271)" style="fill: #b0c4de"/>
   </g>
   <g id="patch_29">
    <path d="M 128.858921 307.584 
L 150.869399 307.584 
L 150.869399 276.459789 
L 128.858921 276.459789 
z
" clip-path="url(#pcffc4cf271)" style="fill: #b0c4de"/>
   </g>
   <g id="patch_30">
    <path d="M 156.372018 307.584 
L 178.382496 307.584 
L 178.382496 280.906105 
L 156.372018 280.906105 
z
" clip-path="url(#pcffc4cf271)" style="fill: #b0c4de"/>
   </g>
   <g id="patch_31">
    <path d="M 183.885116 307.584 
L 205.895593 307.584 
L 205.895593 276.459789 
L 183.885116 276.459789 
z
" clip-path="url(#pcffc4cf271)" style="fill: #b0c4de"/>
   </g>
   <g id="patch_32">
    <path d="M 211.398213 307.584 
L 233.40869 307.584 
L 233.40869 285.352421 
L 211.398213 285.352421 
z
" clip-path="url(#pcffc4cf271)" style="fill: #b0c4de"/>
   </g>
   <g id="patch_33">
    <path d="M 238.91131 307.584 
L 260.921787 307.584 
L 260.921787 298.691368 
L 238.91131 298.691368 
z
" clip-path="url(#pcffc4cf271)" style="fill: #b0c4de"/>
   </g>
   <g id="patch_34">
    <path d="M 266.424407 307.584 
L 288.434884 307.584 
L 288.434884 298.691368 
L 266.424407 298.691368 
z
" clip-path="url(#pcffc4cf271)" style="fill: #b0c4de"/>
   </g>
   <g id="patch_35">
    <path d="M 293.937504 307.584 
L 315.947982 307.584 
L 315.947982 289.798737 
L 293.937504 289.798737 
z
" clip-path="url(#pcffc4cf271)" style="fill: #b0c4de"/>
   </g>
   <g id="patch_36">
    <path d="M 321.450601 307.584 
L 343.461079 307.584 
L 343.461079 223.104 
L 321.450601 223.104 
z
" clip-path="url(#pcffc4cf271)" style="fill: #b0c4de"/>
   </g>
   <g id="patch_37">
    <path d="M 348.963698 307.584 
L 370.974176 307.584 
L 370.974176 111.946105 
L 348.963698 111.946105 
z
" clip-path="url(#pcffc4cf271)" style="fill: #b0c4de"/>
   </g>
   <g id="patch_38">
    <path d="M 376.476795 307.584 
L 398.487273 307.584 
L 398.487273 54.144 
L 376.476795 54.144 
z
" clip-path="url(#pcffc4cf271)" style="fill: #b0c4de"/>
   </g>
   <g id="patch_39">
    <path d="M 73.832727 307.584 
L 95.843205 307.584 
L 95.843205 98.607158 
L 73.832727 98.607158 
z
" clip-path="url(#pcffc4cf271)" style="fill: #98fb98"/>
   </g>
   <g id="patch_40">
    <path d="M 101.345824 307.584 
L 123.356302 307.584 
L 123.356302 240.889263 
L 101.345824 240.889263 
z
" clip-path="url(#pcffc4cf271)" style="fill: #98fb98"/>
   </g>
   <g id="patch_41">
    <path d="M 128.858921 307.584 
L 150.869399 307.584 
L 150.869399 276.459789 
L 128.858921 276.459789 
z
" clip-path="url(#pcffc4cf271)" style="fill: #98fb98"/>
   </g>
   <g id="patch_42">
    <path d="M 156.372018 307.584 
L 178.382496 307.584 
L 178.382496 280.906105 
L 156.372018 280.906105 
z
" clip-path="url(#pcffc4cf271)" style="fill: #98fb98"/>
   </g>
   <g id="patch_43">
    <path d="M 183.885116 307.584 
L 205.895593 307.584 
L 205.895593 276.459789 
L 183.885116 276.459789 
z
" clip-path="url(#pcffc4cf271)" style="fill: #98fb98"/>
   </g>
   <g id="patch_44">
    <path d="M 211.398213 307.584 
L 233.40869 307.584 
L 233.40869 285.352421 
L 211.398213 285.352421 
z
" clip-path="url(#pcffc4cf271)" style="fill: #98fb98"/>
   </g>
   <g id="patch_45">
    <path d="M 238.91131 307.584 
L 260.921787 307.584 
L 260.921787 298.691368 
L 238.91131 298.691368 
z
" clip-path="url(#pcffc4cf271)" style="fill: #98fb98"/>
   </g>
   <g id="patch_46">
    <path d="M 266.424407 307.584 
L 288.434884 307.584 
L 288.434884 298.691368 
L 266.424407 298.691368 
z
" clip-path="url(#pcffc4cf271)" style="fill: #98fb98"/>
   </g>
   <g id="patch_47">
    <path d="M 293.937504 307.584 
L 315.947982 307.584 
L 315.947982 289.798737 
L 293.937504 289.798737 
z
" clip-path="url(#pcffc4cf271)" style="fill: #98fb98"/>
   </g>
   <g id="patch_48">
    <path d="M 321.450601 307.584 
L 343.461079 307.584 
L 343.461079 223.104 
L 321.450601 223.104 
z
" clip-path="url(#pcffc4cf271)" style="fill: #98fb98"/>
   </g>
   <g id="patch_49">
    <path d="M 348.963698 307.584 
L 370.974176 307.584 
L 370.974176 111.946105 
L 348.963698 111.946105 
z
" clip-path="url(#pcffc4cf271)" style="fill: #98fb98"/>
   </g>
   <g id="patch_50">
    <path d="M 376.476795 307.584 
L 398.487273 307.584 
L 398.487273 54.144 
L 376.476795 54.144 
z
" clip-path="url(#pcffc4cf271)" style="fill: #98fb98"/>
   </g>
   <g id="patch_51">
    <path d="M 73.832727 307.584 
L 95.843205 307.584 
L 95.843205 249.781895 
L 73.832727 249.781895 
z
" clip-path="url(#pcffc4cf271)" style="fill: #a9a9a9"/>
   </g>
   <g id="patch_52">
    <path d="M 101.345824 307.584 
L 123.356302 307.584 
L 123.356302 285.352421 
L 101.345824 285.352421 
z
" clip-path="url(#pcffc4cf271)" style="fill: #a9a9a9"/>
   </g>
   <g id="patch_53">
    <path d="M 128.858921 307.584 
L 150.869399 307.584 
L 150.869399 294.245053 
L 128.858921 294.245053 
z
" clip-path="url(#pcffc4cf271)" style="fill: #a9a9a9"/>
   </g>
   <g id="patch_54">
    <path d="M 156.372018 307.584 
L 178.382496 307.584 
L 178.382496 298.691368 
L 156.372018 298.691368 
z
" clip-path="url(#pcffc4cf271)" style="fill: #a9a9a9"/>
   </g>
   <g id="patch_55">
    <path d="M 183.885116 307.584 
L 205.895593 307.584 
L 205.895593 298.691368 
L 183.885116 298.691368 
z
" clip-path="url(#pcffc4cf271)" style="fill: #a9a9a9"/>
   </g>
   <g id="patch_56">
    <path d="M 211.398213 307.584 
L 233.40869 307.584 
L 233.40869 303.137684 
L 211.398213 303.137684 
z
" clip-path="url(#pcffc4cf271)" style="fill: #a9a9a9"/>
   </g>
   <g id="patch_57">
    <path d="M 238.91131 307.584 
L 260.921787 307.584 
L 260.921787 303.137684 
L 238.91131 303.137684 
z
" clip-path="url(#pcffc4cf271)" style="fill: #a9a9a9"/>
   </g>
   <g id="patch_58">
    <path d="M 266.424407 307.584 
L 288.434884 307.584 
L 288.434884 303.137684 
L 266.424407 303.137684 
z
" clip-path="url(#pcffc4cf271)" style="fill: #a9a9a9"/>
   </g>
   <g id="patch_59">
    <path d="M 293.937504 307.584 
L 315.947982 307.584 
L 315.947982 298.691368 
L 293.937504 298.691368 
z
" clip-path="url(#pcffc4cf271)" style="fill: #a9a9a9"/>
   </g>
   <g id="patch_60">
    <path d="M 321.450601 307.584 
L 343.461079 307.584 
L 343.461079 276.459789 
L 321.450601 276.459789 
z
" clip-path="url(#pcffc4cf271)" style="fill: #a9a9a9"/>
   </g>
   <g id="patch_61">
    <path d="M 348.963698 307.584 
L 370.974176 307.584 
L 370.974176 231.996632 
L 348.963698 231.996632 
z
" clip-path="url(#pcffc4cf271)" style="fill: #a9a9a9"/>
   </g>
   <g id="patch_62">
    <path d="M 376.476795 307.584 
L 398.487273 307.584 
L 398.487273 218.657684 
L 376.476795 218.657684 
z
" clip-path="url(#pcffc4cf271)" style="fill: #a9a9a9"/>
   </g>
   <g id="patch_63">
    <path d="M 73.832727 307.584 
L 95.843205 307.584 
L 95.843205 307.584 
L 73.832727 307.584 
z
" clip-path="url(#pcffc4cf271)" style="fill: #ffdab9"/>
   </g>
   <g id="patch_64">
    <path d="M 101.345824 307.584 
L 123.356302 307.584 
L 123.356302 307.584 
L 101.345824 307.584 
z
" clip-path="url(#pcffc4cf271)" style="fill: #ffdab9"/>
   </g>
   <g id="patch_65">
    <path d="M 128.858921 307.584 
L 150.869399 307.584 
L 150.869399 307.584 
L 128.858921 307.584 
z
" clip-path="url(#pcffc4cf271)" style="fill: #ffdab9"/>
   </g>
   <g id="patch_66">
    <path d="M 156.372018 307.584 
L 178.382496 307.584 
L 178.382496 307.584 
L 156.372018 307.584 
z
" clip-path="url(#pcffc4cf271)" style="fill: #ffdab9"/>
   </g>
   <g id="patch_67">
    <path d="M 183.885116 307.584 
L 205.895593 307.584 
L 205.895593 307.584 
L 183.885116 307.584 
z
" clip-path="url(#pcffc4cf271)" style="fill: #ffdab9"/>
   </g>
   <g id="patch_68">
    <path d="M 211.398213 307.584 
L 233.40869 307.584 
L 233.40869 307.584 
L 211.398213 307.584 
z
" clip-path="url(#pcffc4cf271)" style="fill: #ffdab9"/>
   </g>
   <g id="patch_69">
    <path d="M 238.91131 307.584 
L 260.921787 307.584 
L 260.921787 307.584 
L 238.91131 307.584 
z
" clip-path="url(#pcffc4cf271)" style="fill: #ffdab9"/>
   </g>
   <g id="patch_70">
    <path d="M 266.424407 307.584 
L 288.434884 307.584 
L 288.434884 307.584 
L 266.424407 307.584 
z
" clip-path="url(#pcffc4cf271)" style="fill: #ffdab9"/>
   </g>
   <g id="patch_71">
    <path d="M 293.937504 307.584 
L 315.947982 307.584 
L 315.947982 307.584 
L 293.937504 307.584 
z
" clip-path="url(#pcffc4cf271)" style="fill: #ffdab9"/>
   </g>
   <g id="patch_72">
    <path d="M 321.450601 307.584 
L 343.461079 307.584 
L 343.461079 307.584 
L 321.450601 307.584 
z
" clip-path="url(#pcffc4cf271)" style="fill: #ffdab9"/>
   </g>
   <g id="patch_73">
    <path d="M 348.963698 307.584 
L 370.974176 307.584 
L 370.974176 307.584 
L 348.963698 307.584 
z
" clip-path="url(#pcffc4cf271)" style="fill: #ffdab9"/>
   </g>
   <g id="patch_74">
    <path d="M 376.476795 307.584 
L 398.487273 307.584 
L 398.487273 307.584 
L 376.476795 307.584 
z
" clip-path="url(#pcffc4cf271)" style="fill: #ffdab9"/>
   </g>
   <g id="matplotlib.axis_1">
    <g id="xtick_1">
     <g id="line2d_1">
      <defs>
       <path id="mdae54d60a9" d="M 0 0 
L 0 3.5 
" style="stroke: #000000; stroke-width: 0.8"/>
      </defs>
      <g>
       <use xlink:href="#mdae54d60a9" x="84.837966" y="307.584" style="stroke: #000000; stroke-width: 0.8"/>
      </g>
     </g>
     <g id="text_1">
      <!-- Jan -->
      <g transform="translate(77.130154 322.182437) scale(0.1 -0.1)">
       <defs>
        <path id="DejaVuSans-4a" d="M 628 4666 
L 1259 4666 
L 1259 325 
Q 1259 -519 939 -900 
Q 619 -1281 -91 -1281 
L -331 -1281 
L -331 -750 
L -134 -750 
Q 284 -750 456 -515 
Q 628 -281 628 325 
L 628 4666 
z
" transform="scale(0.015625)"/>
        <path id="DejaVuSans-61" d="M 2194 1759 
Q 1497 1759 1228 1600 
Q 959 1441 959 1056 
Q 959 750 1161 570 
Q 1363 391 1709 391 
Q 2188 391 2477 730 
Q 2766 1069 2766 1631 
L 2766 1759 
L 2194 1759 
z
M 3341 1997 
L 3341 0 
L 2766 0 
L 2766 531 
Q 2569 213 2275 61 
Q 1981 -91 1556 -91 
Q 1019 -91 701 211 
Q 384 513 384 1019 
Q 384 1609 779 1909 
Q 1175 2209 1959 2209 
L 2766 2209 
L 2766 2266 
Q 2766 2663 2505 2880 
Q 2244 3097 1772 3097 
Q 1472 3097 1187 3025 
Q 903 2953 641 2809 
L 641 3341 
Q 956 3463 1253 3523 
Q 1550 3584 1831 3584 
Q 2591 3584 2966 3190 
Q 3341 2797 3341 1997 
z
" transform="scale(0.015625)"/>
        <path id="DejaVuSans-6e" d="M 3513 2113 
L 3513 0 
L 2938 0 
L 2938 2094 
Q 2938 2591 2744 2837 
Q 2550 3084 2163 3084 
Q 1697 3084 1428 2787 
Q 1159 2491 1159 1978 
L 1159 0 
L 581 0 
L 581 3500 
L 1159 3500 
L 1159 2956 
Q 1366 3272 1645 3428 
Q 1925 3584 2291 3584 
Q 2894 3584 3203 3211 
Q 3513 2838 3513 2113 
z
" transform="scale(0.015625)"/>
       </defs>
       <use xlink:href="#DejaVuSans-4a"/>
       <use xlink:href="#DejaVuSans-61" x="29.492188"/>
       <use xlink:href="#DejaVuSans-6e" x="90.771484"/>
      </g>
     </g>
    </g>
    <g id="xtick_2">
     <g id="line2d_2">
      <g>
       <use xlink:href="#mdae54d60a9" x="112.351063" y="307.584" style="stroke: #000000; stroke-width: 0.8"/>
      </g>
     </g>
     <g id="text_2">
      <!-- Fev -->
      <g transform="translate(103.714344 322.182437) scale(0.1 -0.1)">
       <defs>
        <path id="DejaVuSans-46" d="M 628 4666 
L 3309 4666 
L 3309 4134 
L 1259 4134 
L 1259 2759 
L 3109 2759 
L 3109 2228 
L 1259 2228 
L 1259 0 
L 628 0 
L 628 4666 
z
" transform="scale(0.015625)"/>
        <path id="DejaVuSans-65" d="M 3597 1894 
L 3597 1613 
L 953 1613 
Q 991 1019 1311 708 
Q 1631 397 2203 397 
Q 2534 397 2845 478 
Q 3156 559 3463 722 
L 3463 178 
Q 3153 47 2828 -22 
Q 2503 -91 2169 -91 
Q 1331 -91 842 396 
Q 353 884 353 1716 
Q 353 2575 817 3079 
Q 1281 3584 2069 3584 
Q 2775 3584 3186 3129 
Q 3597 2675 3597 1894 
z
M 3022 2063 
Q 3016 2534 2758 2815 
Q 2500 3097 2075 3097 
Q 1594 3097 1305 2825 
Q 1016 2553 972 2059 
L 3022 2063 
z
" transform="scale(0.015625)"/>
        <path id="DejaVuSans-76" d="M 191 3500 
L 800 3500 
L 1894 563 
L 2988 3500 
L 3597 3500 
L 2284 0 
L 1503 0 
L 191 3500 
z
" transform="scale(0.015625)"/>
       </defs>
       <use xlink:href="#DejaVuSans-46"/>
       <use xlink:href="#DejaVuSans-65" x="52.019531"/>
       <use xlink:href="#DejaVuSans-76" x="113.542969"/>
      </g>
     </g>
    </g>
    <g id="xtick_3">
     <g id="line2d_3">
      <g>
       <use xlink:href="#mdae54d60a9" x="139.86416" y="307.584" style="stroke: #000000; stroke-width: 0.8"/>
      </g>
     </g>
     <g id="text_3">
      <!-- Mars -->
      <g transform="translate(127.825879 322.182437) scale(0.1 -0.1)">
       <defs>
        <path id="DejaVuSans-4d" d="M 628 4666 
L 1569 4666 
L 2759 1491 
L 3956 4666 
L 4897 4666 
L 4897 0 
L 4281 0 
L 4281 4097 
L 3078 897 
L 2444 897 
L 1241 4097 
L 1241 0 
L 628 0 
L 628 4666 
z
" transform="scale(0.015625)"/>
        <path id="DejaVuSans-72" d="M 2631 2963 
Q 2534 3019 2420 3045 
Q 2306 3072 2169 3072 
Q 1681 3072 1420 2755 
Q 1159 2438 1159 1844 
L 1159 0 
L 581 0 
L 581 3500 
L 1159 3500 
L 1159 2956 
Q 1341 3275 1631 3429 
Q 1922 3584 2338 3584 
Q 2397 3584 2469 3576 
Q 2541 3569 2628 3553 
L 2631 2963 
z
" transform="scale(0.015625)"/>
        <path id="DejaVuSans-73" d="M 2834 3397 
L 2834 2853 
Q 2591 2978 2328 3040 
Q 2066 3103 1784 3103 
Q 1356 3103 1142 2972 
Q 928 2841 928 2578 
Q 928 2378 1081 2264 
Q 1234 2150 1697 2047 
L 1894 2003 
Q 2506 1872 2764 1633 
Q 3022 1394 3022 966 
Q 3022 478 2636 193 
Q 2250 -91 1575 -91 
Q 1294 -91 989 -36 
Q 684 19 347 128 
L 347 722 
Q 666 556 975 473 
Q 1284 391 1588 391 
Q 1994 391 2212 530 
Q 2431 669 2431 922 
Q 2431 1156 2273 1281 
Q 2116 1406 1581 1522 
L 1381 1569 
Q 847 1681 609 1914 
Q 372 2147 372 2553 
Q 372 3047 722 3315 
Q 1072 3584 1716 3584 
Q 2034 3584 2315 3537 
Q 2597 3491 2834 3397 
z
" transform="scale(0.015625)"/>
       </defs>
       <use xlink:href="#DejaVuSans-4d"/>
       <use xlink:href="#DejaVuSans-61" x="86.279297"/>
       <use xlink:href="#DejaVuSans-72" x="147.558594"/>
       <use xlink:href="#DejaVuSans-73" x="188.671875"/>
      </g>
     </g>
    </g>
    <g id="xtick_4">
     <g id="line2d_4">
      <g>
       <use xlink:href="#mdae54d60a9" x="167.377257" y="307.584" style="stroke: #000000; stroke-width: 0.8"/>
      </g>
     </g>
     <g id="text_4">
      <!-- Avr -->
      <g transform="translate(159.235851 322.182437) scale(0.1 -0.1)">
       <defs>
        <path id="DejaVuSans-41" d="M 2188 4044 
L 1331 1722 
L 3047 1722 
L 2188 4044 
z
M 1831 4666 
L 2547 4666 
L 4325 0 
L 3669 0 
L 3244 1197 
L 1141 1197 
L 716 0 
L 50 0 
L 1831 4666 
z
" transform="scale(0.015625)"/>
       </defs>
       <use xlink:href="#DejaVuSans-41"/>
       <use xlink:href="#DejaVuSans-76" x="62.533203"/>
       <use xlink:href="#DejaVuSans-72" x="121.712891"/>
      </g>
     </g>
    </g>
    <g id="xtick_5">
     <g id="line2d_5">
      <g>
       <use xlink:href="#mdae54d60a9" x="194.890354" y="307.584" style="stroke: #000000; stroke-width: 0.8"/>
      </g>
     </g>
     <g id="text_5">
      <!-- Mai -->
      <g transform="translate(186.123167 322.182437) scale(0.1 -0.1)">
       <defs>
        <path id="DejaVuSans-69" d="M 603 3500 
L 1178 3500 
L 1178 0 
L 603 0 
L 603 3500 
z
M 603 4863 
L 1178 4863 
L 1178 4134 
L 603 4134 
L 603 4863 
z
" transform="scale(0.015625)"/>
       </defs>
       <use xlink:href="#DejaVuSans-4d"/>
       <use xlink:href="#DejaVuSans-61" x="86.279297"/>
       <use xlink:href="#DejaVuSans-69" x="147.558594"/>
      </g>
     </g>
    </g>
    <g id="xtick_6">
     <g id="line2d_6">
      <g>
       <use xlink:href="#mdae54d60a9" x="222.403451" y="307.584" style="stroke: #000000; stroke-width: 0.8"/>
      </g>
     </g>
     <g id="text_6">
      <!-- Juin -->
      <g transform="translate(213.201889 322.182437) scale(0.1 -0.1)">
       <defs>
        <path id="DejaVuSans-75" d="M 544 1381 
L 544 3500 
L 1119 3500 
L 1119 1403 
Q 1119 906 1312 657 
Q 1506 409 1894 409 
Q 2359 409 2629 706 
Q 2900 1003 2900 1516 
L 2900 3500 
L 3475 3500 
L 3475 0 
L 2900 0 
L 2900 538 
Q 2691 219 2414 64 
Q 2138 -91 1772 -91 
Q 1169 -91 856 284 
Q 544 659 544 1381 
z
M 1991 3584 
L 1991 3584 
z
" transform="scale(0.015625)"/>
       </defs>
       <use xlink:href="#DejaVuSans-4a"/>
       <use xlink:href="#DejaVuSans-75" x="29.492188"/>
       <use xlink:href="#DejaVuSans-69" x="92.871094"/>
       <use xlink:href="#DejaVuSans-6e" x="120.654297"/>
      </g>
     </g>
    </g>
    <g id="xtick_7">
     <g id="line2d_7">
      <g>
       <use xlink:href="#mdae54d60a9" x="249.916549" y="307.584" style="stroke: #000000; stroke-width: 0.8"/>
      </g>
     </g>
     <g id="text_7">
      <!-- Juil -->
      <g transform="translate(242.494674 322.182437) scale(0.1 -0.1)">
       <defs>
        <path id="DejaVuSans-6c" d="M 603 4863 
L 1178 4863 
L 1178 0 
L 603 0 
L 603 4863 
z
" transform="scale(0.015625)"/>
       </defs>
       <use xlink:href="#DejaVuSans-4a"/>
       <use xlink:href="#DejaVuSans-75" x="29.492188"/>
       <use xlink:href="#DejaVuSans-69" x="92.871094"/>
       <use xlink:href="#DejaVuSans-6c" x="120.654297"/>
      </g>
     </g>
    </g>
    <g id="xtick_8">
     <g id="line2d_8">
      <g>
       <use xlink:href="#mdae54d60a9" x="277.429646" y="307.584" style="stroke: #000000; stroke-width: 0.8"/>
      </g>
     </g>
     <g id="text_8">
      <!-- Aout -->
      <g transform="translate(265.908552 322.182437) scale(0.1 -0.1)">
       <defs>
        <path id="DejaVuSans-6f" d="M 1959 3097 
Q 1497 3097 1228 2736 
Q 959 2375 959 1747 
Q 959 1119 1226 758 
Q 1494 397 1959 397 
Q 2419 397 2687 759 
Q 2956 1122 2956 1747 
Q 2956 2369 2687 2733 
Q 2419 3097 1959 3097 
z
M 1959 3584 
Q 2709 3584 3137 3096 
Q 3566 2609 3566 1747 
Q 3566 888 3137 398 
Q 2709 -91 1959 -91 
Q 1206 -91 779 398 
Q 353 888 353 1747 
Q 353 2609 779 3096 
Q 1206 3584 1959 3584 
z
" transform="scale(0.015625)"/>
        <path id="DejaVuSans-74" d="M 1172 4494 
L 1172 3500 
L 2356 3500 
L 2356 3053 
L 1172 3053 
L 1172 1153 
Q 1172 725 1289 603 
Q 1406 481 1766 481 
L 2356 481 
L 2356 0 
L 1766 0 
Q 1100 0 847 248 
Q 594 497 594 1153 
L 594 3053 
L 172 3053 
L 172 3500 
L 594 3500 
L 594 4494 
L 1172 4494 
z
" transform="scale(0.015625)"/>
       </defs>
       <use xlink:href="#DejaVuSans-41"/>
       <use xlink:href="#DejaVuSans-6f" x="66.658203"/>
       <use xlink:href="#DejaVuSans-75" x="127.839844"/>
       <use xlink:href="#DejaVuSans-74" x="191.21875"/>
      </g>
     </g>
    </g>
    <g id="xtick_9">
     <g id="line2d_9">
      <g>
       <use xlink:href="#mdae54d60a9" x="304.942743" y="307.584" style="stroke: #000000; stroke-width: 0.8"/>
      </g>
     </g>
     <g id="text_9">
      <!-- Sept -->
      <g transform="translate(293.557586 322.182437) scale(0.1 -0.1)">
       <defs>
        <path id="DejaVuSans-53" d="M 3425 4513 
L 3425 3897 
Q 3066 4069 2747 4153 
Q 2428 4238 2131 4238 
Q 1616 4238 1336 4038 
Q 1056 3838 1056 3469 
Q 1056 3159 1242 3001 
Q 1428 2844 1947 2747 
L 2328 2669 
Q 3034 2534 3370 2195 
Q 3706 1856 3706 1288 
Q 3706 609 3251 259 
Q 2797 -91 1919 -91 
Q 1588 -91 1214 -16 
Q 841 59 441 206 
L 441 856 
Q 825 641 1194 531 
Q 1563 422 1919 422 
Q 2459 422 2753 634 
Q 3047 847 3047 1241 
Q 3047 1584 2836 1778 
Q 2625 1972 2144 2069 
L 1759 2144 
Q 1053 2284 737 2584 
Q 422 2884 422 3419 
Q 422 4038 858 4394 
Q 1294 4750 2059 4750 
Q 2388 4750 2728 4690 
Q 3069 4631 3425 4513 
z
" transform="scale(0.015625)"/>
        <path id="DejaVuSans-70" d="M 1159 525 
L 1159 -1331 
L 581 -1331 
L 581 3500 
L 1159 3500 
L 1159 2969 
Q 1341 3281 1617 3432 
Q 1894 3584 2278 3584 
Q 2916 3584 3314 3078 
Q 3713 2572 3713 1747 
Q 3713 922 3314 415 
Q 2916 -91 2278 -91 
Q 1894 -91 1617 61 
Q 1341 213 1159 525 
z
M 3116 1747 
Q 3116 2381 2855 2742 
Q 2594 3103 2138 3103 
Q 1681 3103 1420 2742 
Q 1159 2381 1159 1747 
Q 1159 1113 1420 752 
Q 1681 391 2138 391 
Q 2594 391 2855 752 
Q 3116 1113 3116 1747 
z
" transform="scale(0.015625)"/>
       </defs>
       <use xlink:href="#DejaVuSans-53"/>
       <use xlink:href="#DejaVuSans-65" x="63.476562"/>
       <use xlink:href="#DejaVuSans-70" x="125"/>
       <use xlink:href="#DejaVuSans-74" x="188.476562"/>
      </g>
     </g>
    </g>
    <g id="xtick_10">
     <g id="line2d_10">
      <g>
       <use xlink:href="#mdae54d60a9" x="332.45584" y="307.584" style="stroke: #000000; stroke-width: 0.8"/>
      </g>
     </g>
     <g id="text_10">
      <!-- Oct -->
      <g transform="translate(323.810527 322.182437) scale(0.1 -0.1)">
       <defs>
        <path id="DejaVuSans-4f" d="M 2522 4238 
Q 1834 4238 1429 3725 
Q 1025 3213 1025 2328 
Q 1025 1447 1429 934 
Q 1834 422 2522 422 
Q 3209 422 3611 934 
Q 4013 1447 4013 2328 
Q 4013 3213 3611 3725 
Q 3209 4238 2522 4238 
z
M 2522 4750 
Q 3503 4750 4090 4092 
Q 4678 3434 4678 2328 
Q 4678 1225 4090 567 
Q 3503 -91 2522 -91 
Q 1538 -91 948 565 
Q 359 1222 359 2328 
Q 359 3434 948 4092 
Q 1538 4750 2522 4750 
z
" transform="scale(0.015625)"/>
        <path id="DejaVuSans-63" d="M 3122 3366 
L 3122 2828 
Q 2878 2963 2633 3030 
Q 2388 3097 2138 3097 
Q 1578 3097 1268 2742 
Q 959 2388 959 1747 
Q 959 1106 1268 751 
Q 1578 397 2138 397 
Q 2388 397 2633 464 
Q 2878 531 3122 666 
L 3122 134 
Q 2881 22 2623 -34 
Q 2366 -91 2075 -91 
Q 1284 -91 818 406 
Q 353 903 353 1747 
Q 353 2603 823 3093 
Q 1294 3584 2113 3584 
Q 2378 3584 2631 3529 
Q 2884 3475 3122 3366 
z
" transform="scale(0.015625)"/>
       </defs>
       <use xlink:href="#DejaVuSans-4f"/>
       <use xlink:href="#DejaVuSans-63" x="78.710938"/>
       <use xlink:href="#DejaVuSans-74" x="133.691406"/>
      </g>
     </g>
    </g>
    <g id="xtick_11">
     <g id="line2d_11">
      <g>
       <use xlink:href="#mdae54d60a9" x="359.968937" y="307.584" style="stroke: #000000; stroke-width: 0.8"/>
      </g>
     </g>
     <g id="text_11">
      <!-- Nov -->
      <g transform="translate(350.209562 322.182437) scale(0.1 -0.1)">
       <defs>
        <path id="DejaVuSans-4e" d="M 628 4666 
L 1478 4666 
L 3547 763 
L 3547 4666 
L 4159 4666 
L 4159 0 
L 3309 0 
L 1241 3903 
L 1241 0 
L 628 0 
L 628 4666 
z
" transform="scale(0.015625)"/>
       </defs>
       <use xlink:href="#DejaVuSans-4e"/>
       <use xlink:href="#DejaVuSans-6f" x="74.804688"/>
       <use xlink:href="#DejaVuSans-76" x="135.986328"/>
      </g>
     </g>
    </g>
    <g id="xtick_12">
     <g id="line2d_12">
      <g>
       <use xlink:href="#mdae54d60a9" x="387.482034" y="307.584" style="stroke: #000000; stroke-width: 0.8"/>
      </g>
     </g>
     <g id="text_12">
      <!-- Dec -->
      <g transform="translate(377.806253 322.182437) scale(0.1 -0.1)">
       <defs>
        <path id="DejaVuSans-44" d="M 1259 4147 
L 1259 519 
L 2022 519 
Q 2988 519 3436 956 
Q 3884 1394 3884 2338 
Q 3884 3275 3436 3711 
Q 2988 4147 2022 4147 
L 1259 4147 
z
M 628 4666 
L 1925 4666 
Q 3281 4666 3915 4102 
Q 4550 3538 4550 2338 
Q 4550 1131 3912 565 
Q 3275 0 1925 0 
L 628 0 
L 628 4666 
z
" transform="scale(0.015625)"/>
       </defs>
       <use xlink:href="#DejaVuSans-44"/>
       <use xlink:href="#DejaVuSans-65" x="77.001953"/>
       <use xlink:href="#DejaVuSans-63" x="138.525391"/>
      </g>
     </g>
    </g>
   </g>
   <g id="matplotlib.axis_2">
    <g id="ytick_1">
     <g id="line2d_13">
      <defs>
       <path id="m793147ea91" d="M 0 0 
L -3.5 0 
" style="stroke: #000000; stroke-width: 0.8"/>
      </defs>
      <g>
       <use xlink:href="#m793147ea91" x="57.6" y="307.584" style="stroke: #000000; stroke-width: 0.8"/>
      </g>
     </g>
     <g id="text_13">
      <!-- 0 -->
      <g transform="translate(44.2375 311.383219) scale(0.1 -0.1)">
       <defs>
        <path id="DejaVuSans-30" d="M 2034 4250 
Q 1547 4250 1301 3770 
Q 1056 3291 1056 2328 
Q 1056 1369 1301 889 
Q 1547 409 2034 409 
Q 2525 409 2770 889 
Q 3016 1369 3016 2328 
Q 3016 3291 2770 3770 
Q 2525 4250 2034 4250 
z
M 2034 4750 
Q 2819 4750 3233 4129 
Q 3647 3509 3647 2328 
Q 3647 1150 3233 529 
Q 2819 -91 2034 -91 
Q 1250 -91 836 529 
Q 422 1150 422 2328 
Q 422 3509 836 4129 
Q 1250 4750 2034 4750 
z
" transform="scale(0.015625)"/>
       </defs>
       <use xlink:href="#DejaVuSans-30"/>
      </g>
     </g>
    </g>
    <g id="ytick_2">
     <g id="line2d_14">
      <g>
       <use xlink:href="#m793147ea91" x="57.6" y="263.120842" style="stroke: #000000; stroke-width: 0.8"/>
      </g>
     </g>
     <g id="text_14">
      <!-- 1 -->
      <g transform="translate(44.2375 266.920061) scale(0.1 -0.1)">
       <defs>
        <path id="DejaVuSans-31" d="M 794 531 
L 1825 531 
L 1825 4091 
L 703 3866 
L 703 4441 
L 1819 4666 
L 2450 4666 
L 2450 531 
L 3481 531 
L 3481 0 
L 794 0 
L 794 531 
z
" transform="scale(0.015625)"/>
       </defs>
       <use xlink:href="#DejaVuSans-31"/>
      </g>
     </g>
    </g>
    <g id="ytick_3">
     <g id="line2d_15">
      <g>
       <use xlink:href="#m793147ea91" x="57.6" y="218.657684" style="stroke: #000000; stroke-width: 0.8"/>
      </g>
     </g>
     <g id="text_15">
      <!-- 2 -->
      <g transform="translate(44.2375 222.456903) scale(0.1 -0.1)">
       <defs>
        <path id="DejaVuSans-32" d="M 1228 531 
L 3431 531 
L 3431 0 
L 469 0 
L 469 531 
Q 828 903 1448 1529 
Q 2069 2156 2228 2338 
Q 2531 2678 2651 2914 
Q 2772 3150 2772 3378 
Q 2772 3750 2511 3984 
Q 2250 4219 1831 4219 
Q 1534 4219 1204 4116 
Q 875 4013 500 3803 
L 500 4441 
Q 881 4594 1212 4672 
Q 1544 4750 1819 4750 
Q 2544 4750 2975 4387 
Q 3406 4025 3406 3419 
Q 3406 3131 3298 2873 
Q 3191 2616 2906 2266 
Q 2828 2175 2409 1742 
Q 1991 1309 1228 531 
z
" transform="scale(0.015625)"/>
       </defs>
       <use xlink:href="#DejaVuSans-32"/>
      </g>
     </g>
    </g>
    <g id="ytick_4">
     <g id="line2d_16">
      <g>
       <use xlink:href="#m793147ea91" x="57.6" y="174.194526" style="stroke: #000000; stroke-width: 0.8"/>
      </g>
     </g>
     <g id="text_16">
      <!-- 3 -->
      <g transform="translate(44.2375 177.993745) scale(0.1 -0.1)">
       <defs>
        <path id="DejaVuSans-33" d="M 2597 2516 
Q 3050 2419 3304 2112 
Q 3559 1806 3559 1356 
Q 3559 666 3084 287 
Q 2609 -91 1734 -91 
Q 1441 -91 1130 -33 
Q 819 25 488 141 
L 488 750 
Q 750 597 1062 519 
Q 1375 441 1716 441 
Q 2309 441 2620 675 
Q 2931 909 2931 1356 
Q 2931 1769 2642 2001 
Q 2353 2234 1838 2234 
L 1294 2234 
L 1294 2753 
L 1863 2753 
Q 2328 2753 2575 2939 
Q 2822 3125 2822 3475 
Q 2822 3834 2567 4026 
Q 2313 4219 1838 4219 
Q 1578 4219 1281 4162 
Q 984 4106 628 3988 
L 628 4550 
Q 988 4650 1302 4700 
Q 1616 4750 1894 4750 
Q 2613 4750 3031 4423 
Q 3450 4097 3450 3541 
Q 3450 3153 3228 2886 
Q 3006 2619 2597 2516 
z
" transform="scale(0.015625)"/>
       </defs>
       <use xlink:href="#DejaVuSans-33"/>
      </g>
     </g>
    </g>
    <g id="ytick_5">
     <g id="line2d_17">
      <g>
       <use xlink:href="#m793147ea91" x="57.6" y="129.731368" style="stroke: #000000; stroke-width: 0.8"/>
      </g>
     </g>
     <g id="text_17">
      <!-- 4 -->
      <g transform="translate(44.2375 133.530587) scale(0.1 -0.1)">
       <defs>
        <path id="DejaVuSans-34" d="M 2419 4116 
L 825 1625 
L 2419 1625 
L 2419 4116 
z
M 2253 4666 
L 3047 4666 
L 3047 1625 
L 3713 1625 
L 3713 1100 
L 3047 1100 
L 3047 0 
L 2419 0 
L 2419 1100 
L 313 1100 
L 313 1709 
L 2253 4666 
z
" transform="scale(0.015625)"/>
       </defs>
       <use xlink:href="#DejaVuSans-34"/>
      </g>
     </g>
    </g>
    <g id="ytick_6">
     <g id="line2d_18">
      <g>
       <use xlink:href="#m793147ea91" x="57.6" y="85.268211" style="stroke: #000000; stroke-width: 0.8"/>
      </g>
     </g>
     <g id="text_18">
      <!-- 5 -->
      <g transform="translate(44.2375 89.067429) scale(0.1 -0.1)">
       <defs>
        <path id="DejaVuSans-35" d="M 691 4666 
L 3169 4666 
L 3169 4134 
L 1269 4134 
L 1269 2991 
Q 1406 3038 1543 3061 
Q 1681 3084 1819 3084 
Q 2600 3084 3056 2656 
Q 3513 2228 3513 1497 
Q 3513 744 3044 326 
Q 2575 -91 1722 -91 
Q 1428 -91 1123 -41 
Q 819 9 494 109 
L 494 744 
Q 775 591 1075 516 
Q 1375 441 1709 441 
Q 2250 441 2565 725 
Q 2881 1009 2881 1497 
Q 2881 1984 2565 2268 
Q 2250 2553 1709 2553 
Q 1456 2553 1204 2497 
Q 953 2441 691 2322 
L 691 4666 
z
" transform="scale(0.015625)"/>
       </defs>
       <use xlink:href="#DejaVuSans-35"/>
      </g>
     </g>
    </g>
    <g id="text_19">
     <!-- Nombre de jours par mois -->
     <g transform="translate(38.157812 239.493625) rotate(-90) scale(0.1 -0.1)">
      <defs>
       <path id="DejaVuSans-6d" d="M 3328 2828 
Q 3544 3216 3844 3400 
Q 4144 3584 4550 3584 
Q 5097 3584 5394 3201 
Q 5691 2819 5691 2113 
L 5691 0 
L 5113 0 
L 5113 2094 
Q 5113 2597 4934 2840 
Q 4756 3084 4391 3084 
Q 3944 3084 3684 2787 
Q 3425 2491 3425 1978 
L 3425 0 
L 2847 0 
L 2847 2094 
Q 2847 2600 2669 2842 
Q 2491 3084 2119 3084 
Q 1678 3084 1418 2786 
Q 1159 2488 1159 1978 
L 1159 0 
L 581 0 
L 581 3500 
L 1159 3500 
L 1159 2956 
Q 1356 3278 1631 3431 
Q 1906 3584 2284 3584 
Q 2666 3584 2933 3390 
Q 3200 3197 3328 2828 
z
" transform="scale(0.015625)"/>
       <path id="DejaVuSans-62" d="M 3116 1747 
Q 3116 2381 2855 2742 
Q 2594 3103 2138 3103 
Q 1681 3103 1420 2742 
Q 1159 2381 1159 1747 
Q 1159 1113 1420 752 
Q 1681 391 2138 391 
Q 2594 391 2855 752 
Q 3116 1113 3116 1747 
z
M 1159 2969 
Q 1341 3281 1617 3432 
Q 1894 3584 2278 3584 
Q 2916 3584 3314 3078 
Q 3713 2572 3713 1747 
Q 3713 922 3314 415 
Q 2916 -91 2278 -91 
Q 1894 -91 1617 61 
Q 1341 213 1159 525 
L 1159 0 
L 581 0 
L 581 4863 
L 1159 4863 
L 1159 2969 
z
" transform="scale(0.015625)"/>
       <path id="DejaVuSans-20" transform="scale(0.015625)"/>
       <path id="DejaVuSans-64" d="M 2906 2969 
L 2906 4863 
L 3481 4863 
L 3481 0 
L 2906 0 
L 2906 525 
Q 2725 213 2448 61 
Q 2172 -91 1784 -91 
Q 1150 -91 751 415 
Q 353 922 353 1747 
Q 353 2572 751 3078 
Q 1150 3584 1784 3584 
Q 2172 3584 2448 3432 
Q 2725 3281 2906 2969 
z
M 947 1747 
Q 947 1113 1208 752 
Q 1469 391 1925 391 
Q 2381 391 2643 752 
Q 2906 1113 2906 1747 
Q 2906 2381 2643 2742 
Q 2381 3103 1925 3103 
Q 1469 3103 1208 2742 
Q 947 2381 947 1747 
z
" transform="scale(0.015625)"/>
       <path id="DejaVuSans-6a" d="M 603 3500 
L 1178 3500 
L 1178 -63 
Q 1178 -731 923 -1031 
Q 669 -1331 103 -1331 
L -116 -1331 
L -116 -844 
L 38 -844 
Q 366 -844 484 -692 
Q 603 -541 603 -63 
L 603 3500 
z
M 603 4863 
L 1178 4863 
L 1178 4134 
L 603 4134 
L 603 4863 
z
" transform="scale(0.015625)"/>
      </defs>
      <use xlink:href="#DejaVuSans-4e"/>
      <use xlink:href="#DejaVuSans-6f" x="74.804688"/>
      <use xlink:href="#DejaVuSans-6d" x="135.986328"/>
      <use xlink:href="#DejaVuSans-62" x="233.398438"/>
      <use xlink:href="#DejaVuSans-72" x="296.875"/>
      <use xlink:href="#DejaVuSans-65" x="335.738281"/>
      <use xlink:href="#DejaVuSans-20" x="397.261719"/>
      <use xlink:href="#DejaVuSans-64" x="429.048828"/>
      <use xlink:href="#DejaVuSans-65" x="492.525391"/>
      <use xlink:href="#DejaVuSans-20" x="554.048828"/>
      <use xlink:href="#DejaVuSans-6a" x="585.835938"/>
      <use xlink:href="#DejaVuSans-6f" x="613.619141"/>
      <use xlink:href="#DejaVuSans-75" x="674.800781"/>
      <use xlink:href="#DejaVuSans-72" x="738.179688"/>
      <use xlink:href="#DejaVuSans-73" x="779.292969"/>
      <use xlink:href="#DejaVuSans-20" x="831.392578"/>
      <use xlink:href="#DejaVuSans-70" x="863.179688"/>
      <use xlink:href="#DejaVuSans-61" x="926.65625"/>
      <use xlink:href="#DejaVuSans-72" x="987.935547"/>
      <use xlink:href="#DejaVuSans-20" x="1029.048828"/>
      <use xlink:href="#DejaVuSans-6d" x="1060.835938"/>
      <use xlink:href="#DejaVuSans-6f" x="1158.248047"/>
      <use xlink:href="#DejaVuSans-69" x="1219.429688"/>
      <use xlink:href="#DejaVuSans-73" x="1247.212891"/>
     </g>
    </g>
   </g>
   <g id="patch_75">
    <path d="M 57.6 307.584 
L 57.6 41.472 
" style="fill: none; stroke: #000000; stroke-width: 0.8; stroke-linejoin: miter; stroke-linecap: square"/>
   </g>
   <g id="patch_76">
    <path d="M 414.72 307.584 
L 414.72 41.472 
" style="fill: none; stroke: #000000; stroke-width: 0.8; stroke-linejoin: miter; stroke-linecap: square"/>
   </g>
   <g id="patch_77">
    <path d="M 57.6 307.584 
L 414.72 307.584 
" style="fill: none; stroke: #000000; stroke-width: 0.8; stroke-linejoin: miter; stroke-linecap: square"/>
   </g>
   <g id="patch_78">
    <path d="M 57.6 41.472 
L 414.72 41.472 
" style="fill: none; stroke: #000000; stroke-width: 0.8; stroke-linejoin: miter; stroke-linecap: square"/>
   </g>
   <g id="text_20">
    <!-- 4.7j -->
    <g transform="translate(75.497341 98.607158) scale(0.1 -0.1)">
     <defs>
      <path id="DejaVuSans-2e" d="M 684 794 
L 1344 794 
L 1344 0 
L 684 0 
L 684 794 
z
" transform="scale(0.015625)"/>
      <path id="DejaVuSans-37" d="M 525 4666 
L 3525 4666 
L 3525 4397 
L 1831 0 
L 1172 0 
L 2766 4134 
L 525 4134 
L 525 4666 
z
" transform="scale(0.015625)"/>
     </defs>
     <use xlink:href="#DejaVuSans-34"/>
     <use xlink:href="#DejaVuSans-2e" x="63.623047"/>
     <use xlink:href="#DejaVuSans-37" x="95.410156"/>
     <use xlink:href="#DejaVuSans-6a" x="159.033203"/>
    </g>
   </g>
   <g id="text_21">
    <!-- 1.5j -->
    <g transform="translate(103.010438 240.889263) scale(0.1 -0.1)">
     <use xlink:href="#DejaVuSans-31"/>
     <use xlink:href="#DejaVuSans-2e" x="63.623047"/>
     <use xlink:href="#DejaVuSans-35" x="95.410156"/>
     <use xlink:href="#DejaVuSans-6a" x="159.033203"/>
    </g>
   </g>
   <g id="text_22">
    <!-- 0.7j -->
    <g transform="translate(130.523535 276.459789) scale(0.1 -0.1)">
     <use xlink:href="#DejaVuSans-30"/>
     <use xlink:href="#DejaVuSans-2e" x="63.623047"/>
     <use xlink:href="#DejaVuSans-37" x="95.410156"/>
     <use xlink:href="#DejaVuSans-6a" x="159.033203"/>
    </g>
   </g>
   <g id="text_23">
    <!-- 0.6j -->
    <g transform="translate(158.036632 280.906105) scale(0.1 -0.1)">
     <defs>
      <path id="DejaVuSans-36" d="M 2113 2584 
Q 1688 2584 1439 2293 
Q 1191 2003 1191 1497 
Q 1191 994 1439 701 
Q 1688 409 2113 409 
Q 2538 409 2786 701 
Q 3034 994 3034 1497 
Q 3034 2003 2786 2293 
Q 2538 2584 2113 2584 
z
M 3366 4563 
L 3366 3988 
Q 3128 4100 2886 4159 
Q 2644 4219 2406 4219 
Q 1781 4219 1451 3797 
Q 1122 3375 1075 2522 
Q 1259 2794 1537 2939 
Q 1816 3084 2150 3084 
Q 2853 3084 3261 2657 
Q 3669 2231 3669 1497 
Q 3669 778 3244 343 
Q 2819 -91 2113 -91 
Q 1303 -91 875 529 
Q 447 1150 447 2328 
Q 447 3434 972 4092 
Q 1497 4750 2381 4750 
Q 2619 4750 2861 4703 
Q 3103 4656 3366 4563 
z
" transform="scale(0.015625)"/>
     </defs>
     <use xlink:href="#DejaVuSans-30"/>
     <use xlink:href="#DejaVuSans-2e" x="63.623047"/>
     <use xlink:href="#DejaVuSans-36" x="95.410156"/>
     <use xlink:href="#DejaVuSans-6a" x="159.033203"/>
    </g>
   </g>
   <g id="text_24">
    <!-- 0.7j -->
    <g transform="translate(185.549729 276.459789) scale(0.1 -0.1)">
     <use xlink:href="#DejaVuSans-30"/>
     <use xlink:href="#DejaVuSans-2e" x="63.623047"/>
     <use xlink:href="#DejaVuSans-37" x="95.410156"/>
     <use xlink:href="#DejaVuSans-6a" x="159.033203"/>
    </g>
   </g>
   <g id="text_25">
    <!-- 0.5j -->
    <g transform="translate(213.062826 285.352421) scale(0.1 -0.1)">
     <use xlink:href="#DejaVuSans-30"/>
     <use xlink:href="#DejaVuSans-2e" x="63.623047"/>
     <use xlink:href="#DejaVuSans-35" x="95.410156"/>
     <use xlink:href="#DejaVuSans-6a" x="159.033203"/>
    </g>
   </g>
   <g id="text_26">
    <!-- 0.2j -->
    <g transform="translate(240.575924 298.691368) scale(0.1 -0.1)">
     <use xlink:href="#DejaVuSans-30"/>
     <use xlink:href="#DejaVuSans-2e" x="63.623047"/>
     <use xlink:href="#DejaVuSans-32" x="95.410156"/>
     <use xlink:href="#DejaVuSans-6a" x="159.033203"/>
    </g>
   </g>
   <g id="text_27">
    <!-- 0.2j -->
    <g transform="translate(268.089021 298.691368) scale(0.1 -0.1)">
     <use xlink:href="#DejaVuSans-30"/>
     <use xlink:href="#DejaVuSans-2e" x="63.623047"/>
     <use xlink:href="#DejaVuSans-32" x="95.410156"/>
     <use xlink:href="#DejaVuSans-6a" x="159.033203"/>
    </g>
   </g>
   <g id="text_28">
    <!-- 0.4j -->
    <g transform="translate(295.602118 289.798737) scale(0.1 -0.1)">
     <use xlink:href="#DejaVuSans-30"/>
     <use xlink:href="#DejaVuSans-2e" x="63.623047"/>
     <use xlink:href="#DejaVuSans-34" x="95.410156"/>
     <use xlink:href="#DejaVuSans-6a" x="159.033203"/>
    </g>
   </g>
   <g id="text_29">
    <!-- 1.9j -->
    <g transform="translate(323.115215 223.104) scale(0.1 -0.1)">
     <defs>
      <path id="DejaVuSans-39" d="M 703 97 
L 703 672 
Q 941 559 1184 500 
Q 1428 441 1663 441 
Q 2288 441 2617 861 
Q 2947 1281 2994 2138 
Q 2813 1869 2534 1725 
Q 2256 1581 1919 1581 
Q 1219 1581 811 2004 
Q 403 2428 403 3163 
Q 403 3881 828 4315 
Q 1253 4750 1959 4750 
Q 2769 4750 3195 4129 
Q 3622 3509 3622 2328 
Q 3622 1225 3098 567 
Q 2575 -91 1691 -91 
Q 1453 -91 1209 -44 
Q 966 3 703 97 
z
M 1959 2075 
Q 2384 2075 2632 2365 
Q 2881 2656 2881 3163 
Q 2881 3666 2632 3958 
Q 2384 4250 1959 4250 
Q 1534 4250 1286 3958 
Q 1038 3666 1038 3163 
Q 1038 2656 1286 2365 
Q 1534 2075 1959 2075 
z
" transform="scale(0.015625)"/>
     </defs>
     <use xlink:href="#DejaVuSans-31"/>
     <use xlink:href="#DejaVuSans-2e" x="63.623047"/>
     <use xlink:href="#DejaVuSans-39" x="95.410156"/>
     <use xlink:href="#DejaVuSans-6a" x="159.033203"/>
    </g>
   </g>
   <g id="text_30">
    <!-- 4.4j -->
    <g transform="translate(350.628312 111.946105) scale(0.1 -0.1)">
     <use xlink:href="#DejaVuSans-34"/>
     <use xlink:href="#DejaVuSans-2e" x="63.623047"/>
     <use xlink:href="#DejaVuSans-34" x="95.410156"/>
     <use xlink:href="#DejaVuSans-6a" x="159.033203"/>
    </g>
   </g>
   <g id="text_31">
    <!-- 5.7j -->
    <g transform="translate(378.141409 54.144) scale(0.1 -0.1)">
     <use xlink:href="#DejaVuSans-35"/>
     <use xlink:href="#DejaVuSans-2e" x="63.623047"/>
     <use xlink:href="#DejaVuSans-37" x="95.410156"/>
     <use xlink:href="#DejaVuSans-6a" x="159.033203"/>
    </g>
   </g>
   <g id="text_32">
    <!-- limitation Socata TB10 Tobago -->
    <g transform="translate(144.88875 35.472) scale(0.12 -0.12)">
     <defs>
      <path id="DejaVuSans-54" d="M -19 4666 
L 3928 4666 
L 3928 4134 
L 2272 4134 
L 2272 0 
L 1638 0 
L 1638 4134 
L -19 4134 
L -19 4666 
z
" transform="scale(0.015625)"/>
      <path id="DejaVuSans-42" d="M 1259 2228 
L 1259 519 
L 2272 519 
Q 2781 519 3026 730 
Q 3272 941 3272 1375 
Q 3272 1813 3026 2020 
Q 2781 2228 2272 2228 
L 1259 2228 
z
M 1259 4147 
L 1259 2741 
L 2194 2741 
Q 2656 2741 2882 2914 
Q 3109 3088 3109 3444 
Q 3109 3797 2882 3972 
Q 2656 4147 2194 4147 
L 1259 4147 
z
M 628 4666 
L 2241 4666 
Q 2963 4666 3353 4366 
Q 3744 4066 3744 3513 
Q 3744 3084 3544 2831 
Q 3344 2578 2956 2516 
Q 3422 2416 3680 2098 
Q 3938 1781 3938 1306 
Q 3938 681 3513 340 
Q 3088 0 2303 0 
L 628 0 
L 628 4666 
z
" transform="scale(0.015625)"/>
      <path id="DejaVuSans-67" d="M 2906 1791 
Q 2906 2416 2648 2759 
Q 2391 3103 1925 3103 
Q 1463 3103 1205 2759 
Q 947 2416 947 1791 
Q 947 1169 1205 825 
Q 1463 481 1925 481 
Q 2391 481 2648 825 
Q 2906 1169 2906 1791 
z
M 3481 434 
Q 3481 -459 3084 -895 
Q 2688 -1331 1869 -1331 
Q 1566 -1331 1297 -1286 
Q 1028 -1241 775 -1147 
L 775 -588 
Q 1028 -725 1275 -790 
Q 1522 -856 1778 -856 
Q 2344 -856 2625 -561 
Q 2906 -266 2906 331 
L 2906 616 
Q 2728 306 2450 153 
Q 2172 0 1784 0 
Q 1141 0 747 490 
Q 353 981 353 1791 
Q 353 2603 747 3093 
Q 1141 3584 1784 3584 
Q 2172 3584 2450 3431 
Q 2728 3278 2906 2969 
L 2906 3500 
L 3481 3500 
L 3481 434 
z
" transform="scale(0.015625)"/>
     </defs>
     <use xlink:href="#DejaVuSans-6c"/>
     <use xlink:href="#DejaVuSans-69" x="27.783203"/>
     <use xlink:href="#DejaVuSans-6d" x="55.566406"/>
     <use xlink:href="#DejaVuSans-69" x="152.978516"/>
     <use xlink:href="#DejaVuSans-74" x="180.761719"/>
     <use xlink:href="#DejaVuSans-61" x="219.970703"/>
     <use xlink:href="#DejaVuSans-74" x="281.25"/>
     <use xlink:href="#DejaVuSans-69" x="320.458984"/>
     <use xlink:href="#DejaVuSans-6f" x="348.242188"/>
     <use xlink:href="#DejaVuSans-6e" x="409.423828"/>
     <use xlink:href="#DejaVuSans-20" x="472.802734"/>
     <use xlink:href="#DejaVuSans-53" x="504.589844"/>
     <use xlink:href="#DejaVuSans-6f" x="568.066406"/>
     <use xlink:href="#DejaVuSans-63" x="629.248047"/>
     <use xlink:href="#DejaVuSans-61" x="684.228516"/>
     <use xlink:href="#DejaVuSans-74" x="745.507812"/>
     <use xlink:href="#DejaVuSans-61" x="784.716797"/>
     <use xlink:href="#DejaVuSans-20" x="845.996094"/>
     <use xlink:href="#DejaVuSans-54" x="877.783203"/>
     <use xlink:href="#DejaVuSans-42" x="938.867188"/>
     <use xlink:href="#DejaVuSans-31" x="1007.470703"/>
     <use xlink:href="#DejaVuSans-30" x="1071.09375"/>
     <use xlink:href="#DejaVuSans-20" x="1134.716797"/>
     <use xlink:href="#DejaVuSans-54" x="1166.503906"/>
     <use xlink:href="#DejaVuSans-6f" x="1210.587891"/>
     <use xlink:href="#DejaVuSans-62" x="1271.769531"/>
     <use xlink:href="#DejaVuSans-61" x="1335.246094"/>
     <use xlink:href="#DejaVuSans-67" x="1396.525391"/>
     <use xlink:href="#DejaVuSans-6f" x="1460.001953"/>
    </g>
   </g>
   <g id="legend_1">
    <g id="patch_79">
     <path d="M 147.334219 138.34075 
L 324.985781 138.34075 
Q 326.985781 138.34075 326.985781 136.34075 
L 326.985781 48.472 
Q 326.985781 46.472 324.985781 46.472 
L 147.334219 46.472 
Q 145.334219 46.472 145.334219 48.472 
L 145.334219 136.34075 
Q 145.334219 138.34075 147.334219 138.34075 
z
" style="fill: #ffffff; opacity: 0.8; stroke: #cccccc; stroke-linejoin: miter"/>
    </g>
    <g id="patch_80">
     <path d="M 149.334219 58.470438 
L 169.334219 58.470438 
L 169.334219 51.470438 
L 149.334219 51.470438 
z
" style="fill: #6495ed"/>
    </g>
    <g id="text_33">
     <!-- Limitations Température Min -->
     <g transform="translate(177.334219 58.470438) scale(0.1 -0.1)">
      <defs>
       <path id="DejaVuSans-4c" d="M 628 4666 
L 1259 4666 
L 1259 531 
L 3531 531 
L 3531 0 
L 628 0 
L 628 4666 
z
" transform="scale(0.015625)"/>
       <path id="DejaVuSans-e9" d="M 3597 1894 
L 3597 1613 
L 953 1613 
Q 991 1019 1311 708 
Q 1631 397 2203 397 
Q 2534 397 2845 478 
Q 3156 559 3463 722 
L 3463 178 
Q 3153 47 2828 -22 
Q 2503 -91 2169 -91 
Q 1331 -91 842 396 
Q 353 884 353 1716 
Q 353 2575 817 3079 
Q 1281 3584 2069 3584 
Q 2775 3584 3186 3129 
Q 3597 2675 3597 1894 
z
M 3022 2063 
Q 3016 2534 2758 2815 
Q 2500 3097 2075 3097 
Q 1594 3097 1305 2825 
Q 1016 2553 972 2059 
L 3022 2063 
z
M 2466 5119 
L 3088 5119 
L 2070 3944 
L 1591 3944 
L 2466 5119 
z
" transform="scale(0.015625)"/>
      </defs>
      <use xlink:href="#DejaVuSans-4c"/>
      <use xlink:href="#DejaVuSans-69" x="55.712891"/>
      <use xlink:href="#DejaVuSans-6d" x="83.496094"/>
      <use xlink:href="#DejaVuSans-69" x="180.908203"/>
      <use xlink:href="#DejaVuSans-74" x="208.691406"/>
      <use xlink:href="#DejaVuSans-61" x="247.900391"/>
      <use xlink:href="#DejaVuSans-74" x="309.179688"/>
      <use xlink:href="#DejaVuSans-69" x="348.388672"/>
      <use xlink:href="#DejaVuSans-6f" x="376.171875"/>
      <use xlink:href="#DejaVuSans-6e" x="437.353516"/>
      <use xlink:href="#DejaVuSans-73" x="500.732422"/>
      <use xlink:href="#DejaVuSans-20" x="552.832031"/>
      <use xlink:href="#DejaVuSans-54" x="584.619141"/>
      <use xlink:href="#DejaVuSans-65" x="628.703125"/>
      <use xlink:href="#DejaVuSans-6d" x="690.226562"/>
      <use xlink:href="#DejaVuSans-70" x="787.638672"/>
      <use xlink:href="#DejaVuSans-e9" x="851.115234"/>
      <use xlink:href="#DejaVuSans-72" x="912.638672"/>
      <use xlink:href="#DejaVuSans-61" x="953.751953"/>
      <use xlink:href="#DejaVuSans-74" x="1015.03125"/>
      <use xlink:href="#DejaVuSans-75" x="1054.240234"/>
      <use xlink:href="#DejaVuSans-72" x="1117.619141"/>
      <use xlink:href="#DejaVuSans-65" x="1156.482422"/>
      <use xlink:href="#DejaVuSans-20" x="1218.005859"/>
      <use xlink:href="#DejaVuSans-4d" x="1249.792969"/>
      <use xlink:href="#DejaVuSans-69" x="1336.072266"/>
      <use xlink:href="#DejaVuSans-6e" x="1363.855469"/>
     </g>
    </g>
    <g id="patch_81">
     <path d="M 149.334219 73.548563 
L 169.334219 73.548563 
L 169.334219 66.548563 
L 149.334219 66.548563 
z
" style="fill: #b22222"/>
    </g>
    <g id="text_34">
     <!-- Limitations Température Max -->
     <g transform="translate(177.334219 73.548563) scale(0.1 -0.1)">
      <defs>
       <path id="DejaVuSans-78" d="M 3513 3500 
L 2247 1797 
L 3578 0 
L 2900 0 
L 1881 1375 
L 863 0 
L 184 0 
L 1544 1831 
L 300 3500 
L 978 3500 
L 1906 2253 
L 2834 3500 
L 3513 3500 
z
" transform="scale(0.015625)"/>
      </defs>
      <use xlink:href="#DejaVuSans-4c"/>
      <use xlink:href="#DejaVuSans-69" x="55.712891"/>
      <use xlink:href="#DejaVuSans-6d" x="83.496094"/>
      <use xlink:href="#DejaVuSans-69" x="180.908203"/>
      <use xlink:href="#DejaVuSans-74" x="208.691406"/>
      <use xlink:href="#DejaVuSans-61" x="247.900391"/>
      <use xlink:href="#DejaVuSans-74" x="309.179688"/>
      <use xlink:href="#DejaVuSans-69" x="348.388672"/>
      <use xlink:href="#DejaVuSans-6f" x="376.171875"/>
      <use xlink:href="#DejaVuSans-6e" x="437.353516"/>
      <use xlink:href="#DejaVuSans-73" x="500.732422"/>
      <use xlink:href="#DejaVuSans-20" x="552.832031"/>
      <use xlink:href="#DejaVuSans-54" x="584.619141"/>
      <use xlink:href="#DejaVuSans-65" x="628.703125"/>
      <use xlink:href="#DejaVuSans-6d" x="690.226562"/>
      <use xlink:href="#DejaVuSans-70" x="787.638672"/>
      <use xlink:href="#DejaVuSans-e9" x="851.115234"/>
      <use xlink:href="#DejaVuSans-72" x="912.638672"/>
      <use xlink:href="#DejaVuSans-61" x="953.751953"/>
      <use xlink:href="#DejaVuSans-74" x="1015.03125"/>
      <use xlink:href="#DejaVuSans-75" x="1054.240234"/>
      <use xlink:href="#DejaVuSans-72" x="1117.619141"/>
      <use xlink:href="#DejaVuSans-65" x="1156.482422"/>
      <use xlink:href="#DejaVuSans-20" x="1218.005859"/>
      <use xlink:href="#DejaVuSans-4d" x="1249.792969"/>
      <use xlink:href="#DejaVuSans-61" x="1336.072266"/>
      <use xlink:href="#DejaVuSans-78" x="1397.351562"/>
     </g>
    </g>
    <g id="patch_82">
     <path d="M 149.334219 88.226688 
L 169.334219 88.226688 
L 169.334219 81.226688 
L 149.334219 81.226688 
z
" style="fill: #b0c4de"/>
    </g>
    <g id="text_35">
     <!-- Limitations precipitations -->
     <g transform="translate(177.334219 88.226688) scale(0.1 -0.1)">
      <use xlink:href="#DejaVuSans-4c"/>
      <use xlink:href="#DejaVuSans-69" x="55.712891"/>
      <use xlink:href="#DejaVuSans-6d" x="83.496094"/>
      <use xlink:href="#DejaVuSans-69" x="180.908203"/>
      <use xlink:href="#DejaVuSans-74" x="208.691406"/>
      <use xlink:href="#DejaVuSans-61" x="247.900391"/>
      <use xlink:href="#DejaVuSans-74" x="309.179688"/>
      <use xlink:href="#DejaVuSans-69" x="348.388672"/>
      <use xlink:href="#DejaVuSans-6f" x="376.171875"/>
      <use xlink:href="#DejaVuSans-6e" x="437.353516"/>
      <use xlink:href="#DejaVuSans-73" x="500.732422"/>
      <use xlink:href="#DejaVuSans-20" x="552.832031"/>
      <use xlink:href="#DejaVuSans-70" x="584.619141"/>
      <use xlink:href="#DejaVuSans-72" x="648.095703"/>
      <use xlink:href="#DejaVuSans-65" x="686.958984"/>
      <use xlink:href="#DejaVuSans-63" x="748.482422"/>
      <use xlink:href="#DejaVuSans-69" x="803.462891"/>
      <use xlink:href="#DejaVuSans-70" x="831.246094"/>
      <use xlink:href="#DejaVuSans-69" x="894.722656"/>
      <use xlink:href="#DejaVuSans-74" x="922.505859"/>
      <use xlink:href="#DejaVuSans-61" x="961.714844"/>
      <use xlink:href="#DejaVuSans-74" x="1022.994141"/>
      <use xlink:href="#DejaVuSans-69" x="1062.203125"/>
      <use xlink:href="#DejaVuSans-6f" x="1089.986328"/>
      <use xlink:href="#DejaVuSans-6e" x="1151.167969"/>
      <use xlink:href="#DejaVuSans-73" x="1214.546875"/>
     </g>
    </g>
    <g id="patch_83">
     <path d="M 149.334219 102.904813 
L 169.334219 102.904813 
L 169.334219 95.904813 
L 149.334219 95.904813 
z
" style="fill: #98fb98"/>
    </g>
    <g id="text_36">
     <!-- Limitations plafond -->
     <g transform="translate(177.334219 102.904813) scale(0.1 -0.1)">
      <defs>
       <path id="DejaVuSans-66" d="M 2375 4863 
L 2375 4384 
L 1825 4384 
Q 1516 4384 1395 4259 
Q 1275 4134 1275 3809 
L 1275 3500 
L 2222 3500 
L 2222 3053 
L 1275 3053 
L 1275 0 
L 697 0 
L 697 3053 
L 147 3053 
L 147 3500 
L 697 3500 
L 697 3744 
Q 697 4328 969 4595 
Q 1241 4863 1831 4863 
L 2375 4863 
z
" transform="scale(0.015625)"/>
      </defs>
      <use xlink:href="#DejaVuSans-4c"/>
      <use xlink:href="#DejaVuSans-69" x="55.712891"/>
      <use xlink:href="#DejaVuSans-6d" x="83.496094"/>
      <use xlink:href="#DejaVuSans-69" x="180.908203"/>
      <use xlink:href="#DejaVuSans-74" x="208.691406"/>
      <use xlink:href="#DejaVuSans-61" x="247.900391"/>
      <use xlink:href="#DejaVuSans-74" x="309.179688"/>
      <use xlink:href="#DejaVuSans-69" x="348.388672"/>
      <use xlink:href="#DejaVuSans-6f" x="376.171875"/>
      <use xlink:href="#DejaVuSans-6e" x="437.353516"/>
      <use xlink:href="#DejaVuSans-73" x="500.732422"/>
      <use xlink:href="#DejaVuSans-20" x="552.832031"/>
      <use xlink:href="#DejaVuSans-70" x="584.619141"/>
      <use xlink:href="#DejaVuSans-6c" x="648.095703"/>
      <use xlink:href="#DejaVuSans-61" x="675.878906"/>
      <use xlink:href="#DejaVuSans-66" x="737.158203"/>
      <use xlink:href="#DejaVuSans-6f" x="772.363281"/>
      <use xlink:href="#DejaVuSans-6e" x="833.544922"/>
      <use xlink:href="#DejaVuSans-64" x="896.923828"/>
     </g>
    </g>
    <g id="patch_84">
     <path d="M 149.334219 117.582938 
L 169.334219 117.582938 
L 169.334219 110.582938 
L 149.334219 110.582938 
z
" style="fill: #a9a9a9"/>
    </g>
    <g id="text_37">
     <!-- Limitations visibilité -->
     <g transform="translate(177.334219 117.582938) scale(0.1 -0.1)">
      <use xlink:href="#DejaVuSans-4c"/>
      <use xlink:href="#DejaVuSans-69" x="55.712891"/>
      <use xlink:href="#DejaVuSans-6d" x="83.496094"/>
      <use xlink:href="#DejaVuSans-69" x="180.908203"/>
      <use xlink:href="#DejaVuSans-74" x="208.691406"/>
      <use xlink:href="#DejaVuSans-61" x="247.900391"/>
      <use xlink:href="#DejaVuSans-74" x="309.179688"/>
      <use xlink:href="#DejaVuSans-69" x="348.388672"/>
      <use xlink:href="#DejaVuSans-6f" x="376.171875"/>
      <use xlink:href="#DejaVuSans-6e" x="437.353516"/>
      <use xlink:href="#DejaVuSans-73" x="500.732422"/>
      <use xlink:href="#DejaVuSans-20" x="552.832031"/>
      <use xlink:href="#DejaVuSans-76" x="584.619141"/>
      <use xlink:href="#DejaVuSans-69" x="643.798828"/>
      <use xlink:href="#DejaVuSans-73" x="671.582031"/>
      <use xlink:href="#DejaVuSans-69" x="723.681641"/>
      <use xlink:href="#DejaVuSans-62" x="751.464844"/>
      <use xlink:href="#DejaVuSans-69" x="814.941406"/>
      <use xlink:href="#DejaVuSans-6c" x="842.724609"/>
      <use xlink:href="#DejaVuSans-69" x="870.507812"/>
      <use xlink:href="#DejaVuSans-74" x="898.291016"/>
      <use xlink:href="#DejaVuSans-e9" x="937.5"/>
     </g>
    </g>
    <g id="patch_85">
     <path d="M 149.334219 132.261063 
L 169.334219 132.261063 
L 169.334219 125.261063 
L 149.334219 125.261063 
z
" style="fill: #ffdab9"/>
    </g>
    <g id="text_38">
     <!-- Limitations vent traversier -->
     <g transform="translate(177.334219 132.261063) scale(0.1 -0.1)">
      <use xlink:href="#DejaVuSans-4c"/>
      <use xlink:href="#DejaVuSans-69" x="55.712891"/>
      <use xlink:href="#DejaVuSans-6d" x="83.496094"/>
      <use xlink:href="#DejaVuSans-69" x="180.908203"/>
      <use xlink:href="#DejaVuSans-74" x="208.691406"/>
      <use xlink:href="#DejaVuSans-61" x="247.900391"/>
      <use xlink:href="#DejaVuSans-74" x="309.179688"/>
      <use xlink:href="#DejaVuSans-69" x="348.388672"/>
      <use xlink:href="#DejaVuSans-6f" x="376.171875"/>
      <use xlink:href="#DejaVuSans-6e" x="437.353516"/>
      <use xlink:href="#DejaVuSans-73" x="500.732422"/>
      <use xlink:href="#DejaVuSans-20" x="552.832031"/>
      <use xlink:href="#DejaVuSans-76" x="584.619141"/>
      <use xlink:href="#DejaVuSans-65" x="643.798828"/>
      <use xlink:href="#DejaVuSans-6e" x="705.322266"/>
      <use xlink:href="#DejaVuSans-74" x="768.701172"/>
      <use xlink:href="#DejaVuSans-20" x="807.910156"/>
      <use xlink:href="#DejaVuSans-74" x="839.697266"/>
      <use xlink:href="#DejaVuSans-72" x="878.90625"/>
      <use xlink:href="#DejaVuSans-61" x="920.019531"/>
      <use xlink:href="#DejaVuSans-76" x="981.298828"/>
      <use xlink:href="#DejaVuSans-65" x="1040.478516"/>
      <use xlink:href="#DejaVuSans-72" x="1102.001953"/>
      <use xlink:href="#DejaVuSans-73" x="1143.115234"/>
      <use xlink:href="#DejaVuSans-69" x="1195.214844"/>
      <use xlink:href="#DejaVuSans-65" x="1222.998047"/>
      <use xlink:href="#DejaVuSans-72" x="1284.521484"/>
     </g>
    </g>
   </g>
  </g>
 </g>
 <defs>
  <clipPath id="pcffc4cf271">
   <rect x="57.6" y="41.472" width="357.12" height="266.112"/>
  </clipPath>
 </defs>
</svg>
