<?xml version="1.0" encoding="utf-8" standalone="no"?>
<!DOCTYPE svg PUBLIC "-//W3C//DTD SVG 1.1//EN"
  "http://www.w3.org/Graphics/SVG/1.1/DTD/svg11.dtd">
<svg xmlns:xlink="http://www.w3.org/1999/xlink" width="460.8pt" height="345.6pt" viewBox="0 0 460.8 345.6" xmlns="http://www.w3.org/2000/svg" version="1.1">
 <metadata>
  <rdf:RDF xmlns:dc="http://purl.org/dc/elements/1.1/" xmlns:cc="http://creativecommons.org/ns#" xmlns:rdf="http://www.w3.org/1999/02/22-rdf-syntax-ns#">
   <cc:Work>
    <dc:type rdf:resource="http://purl.org/dc/dcmitype/StillImage"/>
    <dc:date>2024-02-26T12:31:29.097447</dc:date>
    <dc:format>image/svg+xml</dc:format>
    <dc:creator>
     <cc:Agent>
      <dc:title>Matplotlib v3.8.0, https://matplotlib.org/</dc:title>
     </cc:Agent>
    </dc:creator>
   </cc:Work>
  </rdf:RDF>
 </metadata>
 <defs>
  <style type="text/css">*{stroke-linejoin: round; stroke-linecap: butt}</style>
 </defs>
 <g id="figure_1">
  <g id="patch_1">
   <path d="M 0 345.6 
L 460.8 345.6 
L 460.8 0 
L 0 0 
z
" style="fill: #ffffff"/>
  </g>
  <g id="axes_1">
   <g id="patch_2">
    <path d="M 369.216 174.528 
C 369.216 157.055246 365.774248 139.752393 359.087715 123.609673 
C 352.401182 107.466954 342.599903 92.798303 330.2448 80.4432 
C 317.889697 68.088097 303.221046 58.286818 287.078327 51.600285 
C 270.935607 44.913752 253.632754 41.472 236.16 41.472 
C 218.687246 41.472 201.384393 44.913752 185.241673 51.600285 
C 169.098954 58.286818 154.430303 68.088097 142.0752 80.4432 
C 129.720097 92.798303 119.918818 107.466954 113.232285 123.609673 
C 106.545752 139.752393 103.104 157.055246 103.104 174.528 
C 103.104 192.000754 106.545752 209.303607 113.232285 225.446327 
C 119.918818 241.589046 129.720097 256.257697 142.0752 268.6128 
C 154.430303 280.967903 169.098954 290.769182 185.241673 297.455715 
C 201.384393 304.142248 218.687246 307.584 236.16 307.584 
C 253.632754 307.584 270.935607 304.142248 287.078327 297.455715 
C 303.221046 290.769182 317.889697 280.967903 330.2448 268.6128 
C 342.599903 256.257697 352.401182 241.589046 359.087715 225.446327 
C 365.774248 209.303607 369.216 192.000754 369.216 174.528 
M 236.16 174.528 
C 236.16 174.528 236.16 174.528 236.16 174.528 
C 236.16 174.528 236.16 174.528 236.16 174.528 
C 236.16 174.528 236.16 174.528 236.16 174.528 
C 236.16 174.528 236.16 174.528 236.16 174.528 
C 236.16 174.528 236.16 174.528 236.16 174.528 
C 236.16 174.528 236.16 174.528 236.16 174.528 
C 236.16 174.528 236.16 174.528 236.16 174.528 
C 236.16 174.528 236.16 174.528 236.16 174.528 
C 236.16 174.528 236.16 174.528 236.16 174.528 
C 236.16 174.528 236.16 174.528 236.16 174.528 
C 236.16 174.528 236.16 174.528 236.16 174.528 
C 236.16 174.528 236.16 174.528 236.16 174.528 
C 236.16 174.528 236.16 174.528 236.16 174.528 
C 236.16 174.528 236.16 174.528 236.16 174.528 
C 236.16 174.528 236.16 174.528 236.16 174.528 
C 236.16 174.528 236.16 174.528 236.16 174.528 
z
" style="fill: #ffffff"/>
   </g>
   <g id="patch_3">
    <path d="M 236.16 174.528 
C 236.16 174.528 236.16 174.528 236.16 174.528 
C 236.16 174.528 236.16 174.528 236.16 174.528 
L 237.516152 159.027111 
C 237.065178 158.987656 236.612697 158.9679 236.16 158.9679 
C 235.707303 158.9679 235.254822 158.987656 234.803848 159.027111 
z
" clip-path="url(#p59d8fc3b5e)" style="fill: #ff0000"/>
   </g>
   <g id="patch_4">
    <path d="M 236.16 174.528 
C 236.16 174.528 236.16 174.528 236.16 174.528 
C 236.16 174.528 236.16 174.528 236.16 174.528 
L 237.516152 159.027111 
C 237.065178 158.987656 236.612697 158.9679 236.16 158.9679 
C 235.707303 158.9679 235.254822 158.987656 234.803848 159.027111 
z
" clip-path="url(#p59d8fc3b5e)" style="fill: #ffa500"/>
   </g>
   <g id="patch_5">
    <path d="M 236.16 174.528 
C 236.16 174.528 236.16 174.528 236.16 174.528 
C 236.16 174.528 236.16 174.528 236.16 174.528 
L 237.455201 159.72378 
C 237.024496 159.686098 236.592351 159.667231 236.16 159.667231 
C 235.727649 159.667231 235.295504 159.686098 234.864799 159.72378 
z
" clip-path="url(#p59d8fc3b5e)" style="fill: #008000"/>
   </g>
   <g id="patch_6">
    <path d="M 236.16 174.528 
C 236.16 174.528 236.16 174.528 236.16 174.528 
C 236.16 174.528 236.16 174.528 236.16 174.528 
L 238.885442 164.35651 
C 238.589519 164.277218 238.290276 164.210877 237.988568 164.157678 
C 237.686859 164.104479 237.382973 164.064471 237.077776 164.03777 
z
" clip-path="url(#p59d8fc3b5e)" style="fill: #ff0000"/>
   </g>
   <g id="patch_7">
    <path d="M 236.16 174.528 
C 236.16 174.528 236.16 174.528 236.16 174.528 
C 236.16 174.528 236.16 174.528 236.16 174.528 
L 238.885442 164.35651 
C 238.589519 164.277218 238.290276 164.210877 237.988568 164.157678 
C 237.686859 164.104479 237.382973 164.064471 237.077776 164.03777 
z
" clip-path="url(#p59d8fc3b5e)" style="fill: #ffa500"/>
   </g>
   <g id="patch_8">
    <path d="M 236.16 174.528 
C 236.16 174.528 236.16 174.528 236.16 174.528 
C 236.16 174.528 236.16 174.528 236.16 174.528 
L 238.838452 164.531881 
C 238.547631 164.453956 238.253547 164.388759 237.957041 164.336477 
C 237.660534 164.284195 237.361887 164.244877 237.061952 164.218636 
z
" clip-path="url(#p59d8fc3b5e)" style="fill: #008000"/>
   </g>
   <g id="patch_9">
    <path d="M 236.16 174.528 
C 236.16 174.528 236.16 174.528 236.16 174.528 
C 236.16 174.528 236.16 174.528 236.16 174.528 
L 239.166651 168.080217 
C 238.979062 167.992743 238.787746 167.913498 238.593248 167.842706 
C 238.39875 167.771915 238.201255 167.709645 238.001327 167.656074 
z
" clip-path="url(#p59d8fc3b5e)" style="fill: #ff0000"/>
   </g>
   <g id="patch_10">
    <path d="M 236.16 174.528 
C 236.16 174.528 236.16 174.528 236.16 174.528 
C 236.16 174.528 236.16 174.528 236.16 174.528 
L 239.166651 168.080217 
C 238.979062 167.992743 238.787746 167.913498 238.593248 167.842706 
C 238.39875 167.771915 238.201255 167.709645 238.001327 167.656074 
z
" clip-path="url(#p59d8fc3b5e)" style="fill: #ffa500"/>
   </g>
   <g id="patch_11">
    <path d="M 236.16 174.528 
C 236.16 174.528 236.16 174.528 236.16 174.528 
C 236.16 174.528 236.16 174.528 236.16 174.528 
L 239.158125 168.0985 
C 238.971069 168.011274 238.780295 167.932253 238.586348 167.861662 
C 238.392402 167.791072 238.195467 167.728978 237.996106 167.67556 
z
" clip-path="url(#p59d8fc3b5e)" style="fill: #008000"/>
   </g>
   <g id="patch_12">
    <path d="M 236.16 174.528 
C 236.16 174.528 236.16 174.528 236.16 174.528 
C 236.16 174.528 236.16 174.528 236.16 174.528 
L 239.473092 169.796414 
C 239.335434 169.700025 239.193635 169.609689 239.0481 169.525664 
C 238.902565 169.44164 238.753432 169.364006 238.601127 169.292985 
z
" clip-path="url(#p59d8fc3b5e)" style="fill: #ff0000"/>
   </g>
   <g id="patch_13">
    <path d="M 236.16 174.528 
C 236.16 174.528 236.16 174.528 236.16 174.528 
C 236.16 174.528 236.16 174.528 236.16 174.528 
L 239.473092 169.796414 
C 239.335434 169.700025 239.193635 169.609689 239.0481 169.525664 
C 238.902565 169.44164 238.753432 169.364006 238.601127 169.292985 
z
" clip-path="url(#p59d8fc3b5e)" style="fill: #ffa500"/>
   </g>
   <g id="patch_14">
    <path d="M 236.16 174.528 
C 236.16 174.528 236.16 174.528 236.16 174.528 
C 236.16 174.528 236.16 174.528 236.16 174.528 
L 239.453807 169.823956 
C 239.316951 169.728127 239.175977 169.638317 239.031289 169.554782 
C 238.886601 169.471246 238.738336 169.394064 238.586918 169.323457 
z
" clip-path="url(#p59d8fc3b5e)" style="fill: #008000"/>
   </g>
   <g id="patch_15">
    <path d="M 236.16 174.528 
C 236.16 174.528 236.16 174.528 236.16 174.528 
C 236.16 174.528 236.16 174.528 236.16 174.528 
L 240.553453 170.134547 
C 240.425632 170.006726 240.292295 169.884545 240.15382 169.768351 
C 240.015345 169.652157 239.871866 169.542061 239.723792 169.438378 
z
" clip-path="url(#p59d8fc3b5e)" style="fill: #ff0000"/>
   </g>
   <g id="patch_16">
    <path d="M 236.16 174.528 
C 236.16 174.528 236.16 174.528 236.16 174.528 
C 236.16 174.528 236.16 174.528 236.16 174.528 
L 240.553453 170.134547 
C 240.425632 170.006726 240.292295 169.884545 240.15382 169.768351 
C 240.015345 169.652157 239.871866 169.542061 239.723792 169.438378 
z
" clip-path="url(#p59d8fc3b5e)" style="fill: #ffa500"/>
   </g>
   <g id="patch_17">
    <path d="M 236.16 174.528 
C 236.16 174.528 236.16 174.528 236.16 174.528 
C 236.16 174.528 236.16 174.528 236.16 174.528 
L 240.529679 170.158321 
C 240.40255 170.031192 240.269934 169.909672 240.132208 169.794106 
C 239.994483 169.678541 239.85178 169.569041 239.704507 169.465919 
z
" clip-path="url(#p59d8fc3b5e)" style="fill: #008000"/>
   </g>
   <g id="patch_18">
    <path d="M 236.16 174.528 
C 236.16 174.528 236.16 174.528 236.16 174.528 
C 236.16 174.528 236.16 174.528 236.16 174.528 
L 241.34877 170.894784 
C 241.243068 170.743825 241.130827 170.59755 241.01237 170.456378 
C 240.893912 170.315206 240.769351 170.179271 240.63904 170.04896 
z
" clip-path="url(#p59d8fc3b5e)" style="fill: #ff0000"/>
   </g>
   <g id="patch_19">
    <path d="M 236.16 174.528 
C 236.16 174.528 236.16 174.528 236.16 174.528 
C 236.16 174.528 236.16 174.528 236.16 174.528 
L 241.343262 170.898641 
C 241.237672 170.747842 241.12555 170.601723 241.007219 170.460701 
C 240.888887 170.319678 240.764457 170.183887 240.634285 170.053715 
z
" clip-path="url(#p59d8fc3b5e)" style="fill: #ffa500"/>
   </g>
   <g id="patch_20">
    <path d="M 236.16 174.528 
C 236.16 174.528 236.16 174.528 236.16 174.528 
C 236.16 174.528 236.16 174.528 236.16 174.528 
L 241.244114 170.968065 
C 241.140543 170.820151 241.030566 170.676827 240.914498 170.538502 
C 240.79843 170.400178 240.676381 170.266984 240.548698 170.139302 
z
" clip-path="url(#p59d8fc3b5e)" style="fill: #008000"/>
   </g>
   <g id="patch_21">
    <path d="M 236.16 174.528 
C 236.16 174.528 236.16 174.528 236.16 174.528 
C 236.16 174.528 236.16 174.528 236.16 174.528 
L 241.772862 171.910679 
C 241.696715 171.747382 241.613478 171.587485 241.523389 171.431446 
C 241.433299 171.275407 241.336443 171.123373 241.233097 170.975779 
z
" clip-path="url(#p59d8fc3b5e)" style="fill: #ff0000"/>
   </g>
   <g id="patch_22">
    <path d="M 236.16 174.528 
C 236.16 174.528 236.16 174.528 236.16 174.528 
C 236.16 174.528 236.16 174.528 236.16 174.528 
L 241.772862 171.910679 
C 241.696715 171.747382 241.613478 171.587485 241.523389 171.431446 
C 241.433299 171.275407 241.336443 171.123373 241.233097 170.975779 
z
" clip-path="url(#p59d8fc3b5e)" style="fill: #ffa500"/>
   </g>
   <g id="patch_23">
    <path d="M 236.16 174.528 
C 236.16 174.528 236.16 174.528 236.16 174.528 
C 236.16 174.528 236.16 174.528 236.16 174.528 
L 241.626598 171.978883 
C 241.552436 171.819841 241.471368 171.664111 241.383626 171.512138 
C 241.295884 171.360165 241.201552 171.212093 241.100899 171.068345 
z
" clip-path="url(#p59d8fc3b5e)" style="fill: #008000"/>
   </g>
   <g id="patch_24">
    <path d="M 236.16 174.528 
C 236.16 174.528 236.16 174.528 236.16 174.528 
C 236.16 174.528 236.16 174.528 236.16 174.528 
L 242.265492 172.892038 
C 242.217896 172.714409 242.162571 172.538941 242.099675 172.366135 
C 242.036779 172.193329 241.966372 172.023351 241.888654 171.856685 
z
" clip-path="url(#p59d8fc3b5e)" style="fill: #ff0000"/>
   </g>
   <g id="patch_25">
    <path d="M 236.16 174.528 
C 236.16 174.528 236.16 174.528 236.16 174.528 
C 236.16 174.528 236.16 174.528 236.16 174.528 
L 242.265492 172.892038 
C 242.217896 172.714409 242.162571 172.538941 242.099675 172.366135 
C 242.036779 172.193329 241.966372 172.023351 241.888654 171.856685 
z
" clip-path="url(#p59d8fc3b5e)" style="fill: #ffa500"/>
   </g>
   <g id="patch_26">
    <path d="M 236.16 174.528 
C 236.16 174.528 236.16 174.528 236.16 174.528 
C 236.16 174.528 236.16 174.528 236.16 174.528 
L 242.155073 172.921625 
C 242.108338 172.747208 242.054014 172.574913 241.992255 172.405233 
C 241.930497 172.235552 241.861363 172.068648 241.785051 171.904996 
z
" clip-path="url(#p59d8fc3b5e)" style="fill: #008000"/>
   </g>
   <g id="patch_27">
    <path d="M 236.16 174.528 
C 236.16 174.528 236.16 174.528 236.16 174.528 
C 236.16 174.528 236.16 174.528 236.16 174.528 
L 243.50852 173.885088 
C 243.489815 173.671294 243.46179 173.458419 243.424523 173.247069 
C 243.387256 173.035719 243.340784 172.826096 243.285239 172.618798 
z
" clip-path="url(#p59d8fc3b5e)" style="fill: #ff0000"/>
   </g>
   <g id="patch_28">
    <path d="M 236.16 174.528 
C 236.16 174.528 236.16 174.528 236.16 174.528 
C 236.16 174.528 236.16 174.528 236.16 174.528 
L 243.501821 173.885674 
C 243.483134 173.672075 243.455134 173.459394 243.417901 173.248236 
C 243.380668 173.037079 243.334238 172.827647 243.278744 172.620538 
z
" clip-path="url(#p59d8fc3b5e)" style="fill: #ffa500"/>
   </g>
   <g id="patch_29">
    <path d="M 236.16 174.528 
C 236.16 174.528 236.16 174.528 236.16 174.528 
C 236.16 174.528 236.16 174.528 236.16 174.528 
L 243.019512 173.92787 
C 243.002052 173.728304 242.975891 173.529594 242.941105 173.332308 
C 242.906318 173.135023 242.862938 172.939349 242.811089 172.745846 
z
" clip-path="url(#p59d8fc3b5e)" style="fill: #008000"/>
   </g>
   <g id="patch_30">
    <path d="M 236.16 174.528 
C 236.16 174.528 236.16 174.528 236.16 174.528 
C 236.16 174.528 236.16 174.528 236.16 174.528 
L 245.230097 175.321531 
C 245.253183 175.05765 245.264743 174.792888 245.264743 174.528 
C 245.264743 174.263112 245.253183 173.99835 245.230097 173.734469 
z
" clip-path="url(#p59d8fc3b5e)" style="fill: #ff0000"/>
   </g>
   <g id="patch_31">
    <path d="M 236.16 174.528 
C 236.16 174.528 236.16 174.528 236.16 174.528 
C 236.16 174.528 236.16 174.528 236.16 174.528 
L 245.223398 175.320945 
C 245.246467 175.057259 245.258019 174.792693 245.258019 174.528 
C 245.258019 174.263307 245.246467 173.998741 245.223398 173.735055 
z
" clip-path="url(#p59d8fc3b5e)" style="fill: #ffa500"/>
   </g>
   <g id="patch_32">
    <path d="M 236.16 174.528 
C 236.16 174.528 236.16 174.528 236.16 174.528 
C 236.16 174.528 236.16 174.528 236.16 174.528 
L 244.620511 175.268199 
C 244.642046 175.022053 244.652829 174.775086 244.652829 174.528 
C 244.652829 174.280914 244.642046 174.033947 244.620511 173.787801 
z
" clip-path="url(#p59d8fc3b5e)" style="fill: #008000"/>
   </g>
   <g id="patch_33">
    <path d="M 236.16 174.528 
C 236.16 174.528 236.16 174.528 236.16 174.528 
C 236.16 174.528 236.16 174.528 236.16 174.528 
L 247.799406 177.646769 
C 247.890141 177.308139 247.966056 176.96571 248.026933 176.62046 
C 248.08781 176.275211 248.133591 175.927468 248.164146 175.578227 
z
" clip-path="url(#p59d8fc3b5e)" style="fill: #ff0000"/>
   </g>
   <g id="patch_34">
    <path d="M 236.16 174.528 
C 236.16 174.528 236.16 174.528 236.16 174.528 
C 236.16 174.528 236.16 174.528 236.16 174.528 
L 247.383713 177.535385 
C 247.471208 177.208848 247.544411 176.878649 247.603114 176.54573 
C 247.661817 176.21281 247.705963 175.877487 247.735426 175.540719 
z
" clip-path="url(#p59d8fc3b5e)" style="fill: #ffa500"/>
   </g>
   <g id="patch_35">
    <path d="M 236.16 174.528 
C 236.16 174.528 236.16 174.528 236.16 174.528 
C 236.16 174.528 236.16 174.528 236.16 174.528 
L 245.87033 177.129875 
C 245.946028 176.847368 246.00936 176.561692 246.060148 176.273663 
C 246.110935 175.985634 246.149129 175.695525 246.174619 175.404166 
z
" clip-path="url(#p59d8fc3b5e)" style="fill: #008000"/>
   </g>
   <g id="patch_36">
    <path d="M 236.16 174.528 
C 236.16 174.528 236.16 174.528 236.16 174.528 
C 236.16 174.528 236.16 174.528 236.16 174.528 
L 260.372704 185.818569 
C 260.701186 185.114139 260.998769 184.395708 261.264606 183.665329 
C 261.530442 182.93495 261.764278 182.193317 261.965446 181.442548 
z
" clip-path="url(#p59d8fc3b5e)" style="fill: #ff0000"/>
   </g>
   <g id="patch_37">
    <path d="M 236.16 174.528 
C 236.16 174.528 236.16 174.528 236.16 174.528 
C 236.16 174.528 236.16 174.528 236.16 174.528 
L 256.149346 183.849185 
C 256.420531 183.267626 256.666208 182.67451 256.885675 182.071529 
C 257.105142 181.468548 257.298191 180.856276 257.464269 180.236462 
z
" clip-path="url(#p59d8fc3b5e)" style="fill: #ffa500"/>
   </g>
   <g id="patch_38">
    <path d="M 236.16 174.528 
C 236.16 174.528 236.16 174.528 236.16 174.528 
C 236.16 174.528 236.16 174.528 236.16 174.528 
L 249.890487 180.930631 
C 250.076761 180.531164 250.245514 180.123758 250.396264 179.709576 
C 250.547014 179.295394 250.679617 178.874831 250.793695 178.449087 
z
" clip-path="url(#p59d8fc3b5e)" style="fill: #008000"/>
   </g>
   <g id="patch_39">
    <path d="M 236.16 174.528 
C 236.16 174.528 236.16 174.528 236.16 174.528 
C 236.16 174.528 236.16 174.528 236.16 174.528 
L 279.421785 204.820228 
C 280.30309 203.561594 281.129049 202.265099 281.897303 200.934444 
C 282.665557 199.603789 283.375375 198.240241 284.024732 196.847691 
z
" clip-path="url(#p59d8fc3b5e)" style="fill: #ff0000"/>
   </g>
   <g id="patch_40">
    <path d="M 236.16 174.528 
C 236.16 174.528 236.16 174.528 236.16 174.528 
C 236.16 174.528 236.16 174.528 236.16 174.528 
L 268.498928 197.171961 
C 269.157719 196.231111 269.775137 195.261959 270.34942 194.267271 
C 270.923703 193.272583 271.454305 192.253307 271.93971 191.212353 
z
" clip-path="url(#p59d8fc3b5e)" style="fill: #ffa500"/>
   </g>
   <g id="patch_41">
    <path d="M 236.16 174.528 
C 236.16 174.528 236.16 174.528 236.16 174.528 
C 236.16 174.528 236.16 174.528 236.16 174.528 
L 251.412341 185.207804 
C 251.723053 184.764061 252.014252 184.30697 252.285107 183.837835 
C 252.555962 183.3687 252.806215 182.887969 253.035152 182.397013 
z
" clip-path="url(#p59d8fc3b5e)" style="fill: #008000"/>
   </g>
   <g id="patch_42">
    <path d="M 236.16 174.528 
C 236.16 174.528 236.16 174.528 236.16 174.528 
C 236.16 174.528 236.16 174.528 236.16 174.528 
L 301.98572 240.35372 
C 303.900816 238.438623 305.731425 236.440864 307.472322 234.366143 
C 309.213219 232.291423 310.862747 230.141717 312.416195 227.923163 
z
" clip-path="url(#p59d8fc3b5e)" style="fill: #ff0000"/>
   </g>
   <g id="patch_43">
    <path d="M 236.16 174.528 
C 236.16 174.528 236.16 174.528 236.16 174.528 
C 236.16 174.528 236.16 174.528 236.16 174.528 
L 288.244292 226.612292 
C 289.759603 225.096981 291.208064 223.516263 292.58554 221.87465 
C 293.963017 220.233037 295.268197 218.532093 296.497356 216.776672 
z
" clip-path="url(#p59d8fc3b5e)" style="fill: #ffa500"/>
   </g>
   <g id="patch_44">
    <path d="M 236.16 174.528 
C 236.16 174.528 236.16 174.528 236.16 174.528 
C 236.16 174.528 236.16 174.528 236.16 174.528 
L 253.091912 191.459912 
C 253.584519 190.967304 254.055395 190.453434 254.503194 189.919767 
C 254.950994 189.386101 255.37529 188.833146 255.774874 188.262482 
z
" clip-path="url(#p59d8fc3b5e)" style="fill: #008000"/>
   </g>
   <g id="patch_45">
    <path d="M 236.16 174.528 
C 236.16 174.528 236.16 174.528 236.16 174.528 
C 236.16 174.528 236.16 174.528 236.16 174.528 
L 292.170153 254.518788 
C 294.497359 252.88926 296.752345 251.158949 298.928674 249.332792 
C 301.105002 247.506636 303.2006 245.586374 305.209487 243.577487 
z
" clip-path="url(#p59d8fc3b5e)" style="fill: #ff0000"/>
   </g>
   <g id="patch_46">
    <path d="M 236.16 174.528 
C 236.16 174.528 236.16 174.528 236.16 174.528 
C 236.16 174.528 236.16 174.528 236.16 174.528 
L 286.350064 246.206841 
C 288.435448 244.746639 290.456115 243.196127 292.406299 241.559729 
C 294.356482 239.923331 296.234324 238.202605 298.034465 236.402465 
z
" clip-path="url(#p59d8fc3b5e)" style="fill: #ffa500"/>
   </g>
   <g id="patch_47">
    <path d="M 236.16 174.528 
C 236.16 174.528 236.16 174.528 236.16 174.528 
C 236.16 174.528 236.16 174.528 236.16 174.528 
L 252.67532 198.114321 
C 253.361527 197.633834 254.026439 197.123629 254.668157 196.585163 
C 255.309876 196.046697 255.92779 195.480483 256.520137 194.888137 
z
" clip-path="url(#p59d8fc3b5e)" style="fill: #008000"/>
   </g>
   <g id="patch_48">
    <path d="M 236.16 174.528 
C 236.16 174.528 236.16 174.528 236.16 174.528 
C 236.16 174.528 236.16 174.528 236.16 174.528 
L 255.637866 216.298419 
C 256.853111 215.731741 258.043048 215.112299 259.204279 214.441862 
C 260.36551 213.771425 261.496931 213.050631 262.595311 212.281537 
z
" clip-path="url(#p59d8fc3b5e)" style="fill: #ff0000"/>
   </g>
   <g id="patch_49">
    <path d="M 236.16 174.528 
C 236.16 174.528 236.16 174.528 236.16 174.528 
C 236.16 174.528 236.16 174.528 236.16 174.528 
L 255.180333 215.317235 
C 256.367032 214.763868 257.529016 214.158977 258.662971 213.504288 
C 259.796925 212.8496 260.901768 212.145737 261.974347 211.394709 
z
" clip-path="url(#p59d8fc3b5e)" style="fill: #ffa500"/>
   </g>
   <g id="patch_50">
    <path d="M 236.16 174.528 
C 236.16 174.528 236.16 174.528 236.16 174.528 
C 236.16 174.528 236.16 174.528 236.16 174.528 
L 246.720221 197.174466 
C 247.379084 196.867233 248.024226 196.531393 248.653805 196.167905 
C 249.283384 195.804418 249.896801 195.413628 250.492305 194.996652 
z
" clip-path="url(#p59d8fc3b5e)" style="fill: #008000"/>
   </g>
   <g id="patch_51">
    <path d="M 236.16 174.528 
C 236.16 174.528 236.16 174.528 236.16 174.528 
C 236.16 174.528 236.16 174.528 236.16 174.528 
L 243.198116 200.794605 
C 243.962301 200.589842 244.717187 200.351828 245.460619 200.081241 
C 246.204051 199.810654 246.93532 199.507752 247.652339 199.173401 
z
" clip-path="url(#p59d8fc3b5e)" style="fill: #ff0000"/>
   </g>
   <g id="patch_52">
    <path d="M 236.16 174.528 
C 236.16 174.528 236.16 174.528 236.16 174.528 
C 236.16 174.528 236.16 174.528 236.16 174.528 
L 243.175491 200.710168 
C 243.93722 200.506063 244.689679 200.268813 245.430721 199.999096 
C 246.171763 199.729379 246.900681 199.427451 247.615395 199.094174 
z
" clip-path="url(#p59d8fc3b5e)" style="fill: #ffa500"/>
   </g>
   <g id="patch_53">
    <path d="M 236.16 174.528 
C 236.16 174.528 236.16 174.528 236.16 174.528 
C 236.16 174.528 236.16 174.528 236.16 174.528 
L 242.018135 196.390857 
C 242.6542 196.220424 243.282525 196.022314 243.901316 195.797092 
C 244.520107 195.571871 245.128775 195.319752 245.725582 195.041457 
z
" clip-path="url(#p59d8fc3b5e)" style="fill: #008000"/>
   </g>
   <g id="patch_54">
    <path d="M 236.16 174.528 
C 236.16 174.528 236.16 174.528 236.16 174.528 
C 236.16 174.528 236.16 174.528 236.16 174.528 
L 238.513047 201.423449 
C 239.295528 201.354991 240.074649 201.252418 240.848186 201.116022 
C 241.621723 200.979627 242.388939 200.809539 243.147645 200.606244 
z
" clip-path="url(#p59d8fc3b5e)" style="fill: #ff0000"/>
   </g>
   <g id="patch_55">
    <path d="M 236.16 174.528 
C 236.16 174.528 236.16 174.528 236.16 174.528 
C 236.16 174.528 236.16 174.528 236.16 174.528 
L 238.511875 201.410051 
C 239.293966 201.341627 240.072699 201.239105 240.84585 201.102778 
C 241.619002 200.96645 242.385836 200.796447 243.144164 200.593254 
z
" clip-path="url(#p59d8fc3b5e)" style="fill: #ffa500"/>
   </g>
   <g id="patch_56">
    <path d="M 236.16 174.528 
C 236.16 174.528 236.16 174.528 236.16 174.528 
C 236.16 174.528 236.16 174.528 236.16 174.528 
L 238.381182 199.916232 
C 239.119813 199.85161 239.855272 199.754785 240.58546 199.626033 
C 241.315648 199.497281 242.03987 199.336725 242.756058 199.144823 
z
" clip-path="url(#p59d8fc3b5e)" style="fill: #008000"/>
   </g>
   <g id="patch_57">
    <path d="M 236.16 174.528 
C 236.16 174.528 236.16 174.528 236.16 174.528 
C 236.16 174.528 236.16 174.528 236.16 174.528 
L 233.389089 206.199652 
C 234.310527 206.280267 235.235043 206.320633 236.16 206.320633 
C 237.084957 206.320633 238.009473 206.280267 238.930911 206.199652 
z
" clip-path="url(#p59d8fc3b5e)" style="fill: #ff0000"/>
   </g>
   <g id="patch_58">
    <path d="M 236.16 174.528 
C 236.16 174.528 236.16 174.528 236.16 174.528 
C 236.16 174.528 236.16 174.528 236.16 174.528 
L 233.390848 206.179556 
C 234.3117 206.26012 235.23563 206.30046 236.16 206.30046 
C 237.08437 206.30046 238.0083 206.26012 238.929152 206.179556 
z
" clip-path="url(#p59d8fc3b5e)" style="fill: #ffa500"/>
   </g>
   <g id="patch_59">
    <path d="M 236.16 174.528 
C 236.16 174.528 236.16 174.528 236.16 174.528 
C 236.16 174.528 236.16 174.528 236.16 174.528 
L 233.456487 205.429297 
C 234.355512 205.507951 235.257541 205.547335 236.16 205.547335 
C 237.062459 205.547335 237.964488 205.507951 238.863513 205.429297 
z
" clip-path="url(#p59d8fc3b5e)" style="fill: #008000"/>
   </g>
   <g id="patch_60">
    <path d="M 236.16 174.528 
C 236.16 174.528 236.16 174.528 236.16 174.528 
C 236.16 174.528 236.16 174.528 236.16 174.528 
L 228.01674 204.91906 
C 228.90092 205.155975 229.795019 205.354192 230.696483 205.513145 
C 231.597947 205.672097 232.505919 205.791634 233.417807 205.871414 
z
" clip-path="url(#p59d8fc3b5e)" style="fill: #ff0000"/>
   </g>
   <g id="patch_61">
    <path d="M 236.16 174.528 
C 236.16 174.528 236.16 174.528 236.16 174.528 
C 236.16 174.528 236.16 174.528 236.16 174.528 
L 228.01848 204.912565 
C 228.902472 205.149429 229.796379 205.347604 230.697651 205.506522 
C 231.598922 205.665441 232.5067 205.784952 233.418393 205.864715 
z
" clip-path="url(#p59d8fc3b5e)" style="fill: #ffa500"/>
   </g>
   <g id="patch_62">
    <path d="M 236.16 174.528 
C 236.16 174.528 236.16 174.528 236.16 174.528 
C 236.16 174.528 236.16 174.528 236.16 174.528 
L 228.189038 204.276035 
C 229.054511 204.507937 229.929691 204.70196 230.812082 204.857549 
C 231.694473 205.013139 232.583233 205.130146 233.475827 205.208238 
z
" clip-path="url(#p59d8fc3b5e)" style="fill: #008000"/>
   </g>
   <g id="patch_63">
    <path d="M 236.16 174.528 
C 236.16 174.528 236.16 174.528 236.16 174.528 
C 236.16 174.528 236.16 174.528 236.16 174.528 
L 225.852702 196.632072 
C 226.495785 196.931947 227.151649 197.203615 227.818421 197.4463 
C 228.485193 197.688985 229.162239 197.902456 229.847625 198.086105 
z
" clip-path="url(#p59d8fc3b5e)" style="fill: #ff0000"/>
   </g>
   <g id="patch_64">
    <path d="M 236.16 174.528 
C 236.16 174.528 236.16 174.528 236.16 174.528 
C 236.16 174.528 236.16 174.528 236.16 174.528 
L 225.858386 196.619884 
C 226.501114 196.919593 227.156616 197.191111 227.823021 197.433662 
C 228.489425 197.676213 229.166097 197.889567 229.851106 198.073115 
z
" clip-path="url(#p59d8fc3b5e)" style="fill: #ffa500"/>
   </g>
   <g id="patch_65">
    <path d="M 236.16 174.528 
C 236.16 174.528 236.16 174.528 236.16 174.528 
C 236.16 174.528 236.16 174.528 236.16 174.528 
L 226.151093 195.992169 
C 226.77556 196.283363 227.412437 196.547166 228.059906 196.782825 
C 228.707375 197.018485 229.364821 197.225777 230.030365 197.404109 
z
" clip-path="url(#p59d8fc3b5e)" style="fill: #008000"/>
   </g>
   <g id="patch_66">
    <path d="M 236.16 174.528 
C 236.16 174.528 236.16 174.528 236.16 174.528 
C 236.16 174.528 236.16 174.528 236.16 174.528 
L 227.454938 186.960117 
C 227.816631 187.213378 228.189204 187.450733 228.571594 187.671506 
C 228.953983 187.892278 229.345825 188.096259 229.746002 188.282864 
z
" clip-path="url(#p59d8fc3b5e)" style="fill: #ff0000"/>
   </g>
   <g id="patch_67">
    <path d="M 236.16 174.528 
C 236.16 174.528 236.16 174.528 236.16 174.528 
C 236.16 174.528 236.16 174.528 236.16 174.528 
L 227.466508 186.943593 
C 227.827721 187.196516 228.199799 187.433556 228.58168 187.654035 
C 228.963561 187.874515 229.354883 188.078224 229.754527 188.264581 
z
" clip-path="url(#p59d8fc3b5e)" style="fill: #ffa500"/>
   </g>
   <g id="patch_68">
    <path d="M 236.16 174.528 
C 236.16 174.528 236.16 174.528 236.16 174.528 
C 236.16 174.528 236.16 174.528 236.16 174.528 
L 227.836773 186.414801 
C 228.1826 186.656952 228.538831 186.883896 228.904448 187.094985 
C 229.270065 187.306074 229.644719 187.501107 230.027342 187.679527 
z
" clip-path="url(#p59d8fc3b5e)" style="fill: #008000"/>
   </g>
   <g id="patch_69">
    <path d="M 236.16 174.528 
C 236.16 174.528 236.16 174.528 236.16 174.528 
C 236.16 174.528 236.16 174.528 236.16 174.528 
L 227.358829 183.329171 
C 227.614886 183.585227 227.881994 183.829987 228.159393 184.062752 
C 228.436792 184.295517 228.724216 184.516066 229.020846 184.723768 
z
" clip-path="url(#p59d8fc3b5e)" style="fill: #ff0000"/>
   </g>
   <g id="patch_70">
    <path d="M 236.16 174.528 
C 236.16 174.528 236.16 174.528 236.16 174.528 
C 236.16 174.528 236.16 174.528 236.16 174.528 
L 227.373094 183.314906 
C 227.628735 183.570548 227.895411 183.814911 228.17236 184.047299 
C 228.449309 184.279687 228.736268 184.499878 229.032417 184.707244 
z
" clip-path="url(#p59d8fc3b5e)" style="fill: #ffa500"/>
   </g>
   <g id="patch_71">
    <path d="M 236.16 174.528 
C 236.16 174.528 236.16 174.528 236.16 174.528 
C 236.16 174.528 236.16 174.528 236.16 174.528 
L 228.1196 182.5684 
C 228.353523 182.802322 228.597543 183.025925 228.850964 183.23857 
C 229.104384 183.451215 229.366964 183.6527 229.637953 183.842449 
z
" clip-path="url(#p59d8fc3b5e)" style="fill: #008000"/>
   </g>
   <g id="patch_72">
    <path d="M 236.16 174.528 
C 236.16 174.528 236.16 174.528 236.16 174.528 
C 236.16 174.528 236.16 174.528 236.16 174.528 
L 224.394381 182.766375 
C 224.634063 183.108678 224.88857 183.440357 225.157174 183.760467 
C 225.425778 184.080577 225.708224 184.388813 226.003706 184.684294 
z
" clip-path="url(#p59d8fc3b5e)" style="fill: #ff0000"/>
   </g>
   <g id="patch_73">
    <path d="M 236.16 174.528 
C 236.16 174.528 236.16 174.528 236.16 174.528 
C 236.16 174.528 236.16 174.528 236.16 174.528 
L 224.482513 182.704665 
C 224.7204 183.044403 224.973 183.373598 225.239592 183.69131 
C 225.506185 184.009022 225.786515 184.314949 226.079783 184.608217 
z
" clip-path="url(#p59d8fc3b5e)" style="fill: #ffa500"/>
   </g>
   <g id="patch_74">
    <path d="M 236.16 174.528 
C 236.16 174.528 236.16 174.528 236.16 174.528 
C 236.16 174.528 236.16 174.528 236.16 174.528 
L 226.470991 181.312317 
C 226.66837 181.594204 226.877956 181.867343 227.099152 182.130954 
C 227.320348 182.394565 227.552943 182.648398 227.796273 182.891727 
z
" clip-path="url(#p59d8fc3b5e)" style="fill: #008000"/>
   </g>
   <g id="patch_75">
    <path d="M 236.16 174.528 
C 236.16 174.528 236.16 174.528 236.16 174.528 
C 236.16 174.528 236.16 174.528 236.16 174.528 
L 219.912562 182.104305 
C 220.132983 182.576998 220.373927 183.039848 220.634707 183.491532 
C 220.895487 183.943216 221.175854 184.383305 221.475009 184.810541 
z
" clip-path="url(#p59d8fc3b5e)" style="fill: #ff0000"/>
   </g>
   <g id="patch_76">
    <path d="M 236.16 174.528 
C 236.16 174.528 236.16 174.528 236.16 174.528 
C 236.16 174.528 236.16 174.528 236.16 174.528 
L 220.229467 181.95653 
C 220.445588 182.420004 220.681833 182.873825 220.937526 183.316699 
C 221.19322 183.759573 221.468118 184.191078 221.761438 184.609982 
z
" clip-path="url(#p59d8fc3b5e)" style="fill: #ffa500"/>
   </g>
   <g id="patch_77">
    <path d="M 236.16 174.528 
C 236.16 174.528 236.16 174.528 236.16 174.528 
C 236.16 174.528 236.16 174.528 236.16 174.528 
L 224.532051 179.950201 
C 224.689802 180.288498 224.862241 180.61975 225.048875 180.943011 
C 225.23551 181.266272 225.436163 181.581234 225.650261 181.886998 
z
" clip-path="url(#p59d8fc3b5e)" style="fill: #008000"/>
   </g>
   <g id="patch_78">
    <path d="M 236.16 174.528 
C 236.16 174.528 236.16 174.528 236.16 174.528 
C 236.16 174.528 236.16 174.528 236.16 174.528 
L 206.658783 182.432827 
C 206.888762 183.291119 207.156087 184.138966 207.459995 184.973947 
C 207.763904 185.808929 208.104106 186.630251 208.479632 187.435568 
z
" clip-path="url(#p59d8fc3b5e)" style="fill: #ff0000"/>
   </g>
   <g id="patch_79">
    <path d="M 236.16 174.528 
C 236.16 174.528 236.16 174.528 236.16 174.528 
C 236.16 174.528 236.16 174.528 236.16 174.528 
L 208.418983 181.961183 
C 208.63524 182.768264 208.886615 183.565524 209.172391 184.350686 
C 209.458167 185.135849 209.778071 185.908166 210.13119 186.665433 
z
" clip-path="url(#p59d8fc3b5e)" style="fill: #ffa500"/>
   </g>
   <g id="patch_80">
    <path d="M 236.16 174.528 
C 236.16 174.528 236.16 174.528 236.16 174.528 
C 236.16 174.528 236.16 174.528 236.16 174.528 
L 221.753637 178.388173 
C 221.865943 178.807304 221.996486 179.221334 222.144894 179.629081 
C 222.293302 180.036829 222.459434 180.437906 222.642814 180.831167 
z
" clip-path="url(#p59d8fc3b5e)" style="fill: #008000"/>
   </g>
   <g id="patch_81">
    <path d="M 236.16 174.528 
C 236.16 174.528 236.16 174.528 236.16 174.528 
C 236.16 174.528 236.16 174.528 236.16 174.528 
L 168.851041 180.416771 
C 169.022365 182.37502 169.279067 184.324859 169.620412 186.260725 
C 169.961757 188.19659 170.387421 190.116637 170.89619 192.015385 
z
" clip-path="url(#p59d8fc3b5e)" style="fill: #ff0000"/>
   </g>
   <g id="patch_82">
    <path d="M 236.16 174.528 
C 236.16 174.528 236.16 174.528 236.16 174.528 
C 236.16 174.528 236.16 174.528 236.16 174.528 
L 174.906704 179.886969 
C 175.062614 181.669038 175.296221 183.443454 175.606856 185.205153 
C 175.917491 186.966852 176.304859 188.714156 176.767854 190.442078 
z
" clip-path="url(#p59d8fc3b5e)" style="fill: #ffa500"/>
   </g>
   <g id="patch_83">
    <path d="M 236.16 174.528 
C 236.16 174.528 236.16 174.528 236.16 174.528 
C 236.16 174.528 236.16 174.528 236.16 174.528 
L 210.738274 176.752113 
C 210.802981 177.491718 210.899934 178.228147 211.028856 178.959299 
C 211.157778 179.69045 211.318545 180.415627 211.510701 181.13276 
z
" clip-path="url(#p59d8fc3b5e)" style="fill: #008000"/>
   </g>
   <g id="patch_84">
    <path d="M 236.16 174.528 
C 236.16 174.528 236.16 174.528 236.16 174.528 
C 236.16 174.528 236.16 174.528 236.16 174.528 
L 126.441306 164.928858 
C 126.162034 168.120952 126.022198 171.323713 126.022198 174.528 
C 126.022198 177.732287 126.162034 180.935048 126.441306 184.127142 
z
" clip-path="url(#p59d8fc3b5e)" style="fill: #ff0000"/>
   </g>
   <g id="patch_85">
    <path d="M 236.16 174.528 
C 236.16 174.528 236.16 174.528 236.16 174.528 
C 236.16 174.528 236.16 174.528 236.16 174.528 
L 136.810958 165.836085 
C 136.55808 168.72649 136.431461 171.626554 136.431461 174.528 
C 136.431461 177.429446 136.55808 180.32951 136.810958 183.219915 
z
" clip-path="url(#p59d8fc3b5e)" style="fill: #ffa500"/>
   </g>
   <g id="patch_86">
    <path d="M 236.16 174.528 
C 236.16 174.528 236.16 174.528 236.16 174.528 
C 236.16 174.528 236.16 174.528 236.16 174.528 
L 194.73498 170.90378 
C 194.629539 172.108976 194.576743 173.3182 194.576743 174.528 
C 194.576743 175.7378 194.629539 176.947024 194.73498 178.15222 
z
" clip-path="url(#p59d8fc3b5e)" style="fill: #008000"/>
   </g>
   <g id="patch_87">
    <path d="M 236.16 174.528 
C 236.16 174.528 236.16 174.528 236.16 174.528 
C 236.16 174.528 236.16 174.528 236.16 174.528 
L 113.757879 141.730451 
C 112.803686 145.291549 112.005354 148.892592 111.365162 152.523303 
C 110.724969 156.154013 110.243527 159.810933 109.922208 163.483624 
z
" clip-path="url(#p59d8fc3b5e)" style="fill: #ff0000"/>
   </g>
   <g id="patch_88">
    <path d="M 236.16 174.528 
C 236.16 174.528 236.16 174.528 236.16 174.528 
C 236.16 174.528 236.16 174.528 236.16 174.528 
L 124.721784 144.66822 
C 123.85306 147.91034 123.126237 151.188828 122.543389 154.494326 
C 121.96054 157.799823 121.522222 161.129183 121.229684 164.4729 
z
" clip-path="url(#p59d8fc3b5e)" style="fill: #ffa500"/>
   </g>
   <g id="patch_89">
    <path d="M 236.16 174.528 
C 236.16 174.528 236.16 174.528 236.16 174.528 
C 236.16 174.528 236.16 174.528 236.16 174.528 
L 190.420773 162.272211 
C 190.06421 163.602922 189.765889 164.94856 189.526662 166.305284 
C 189.287435 167.662008 189.10753 169.028526 188.987459 170.400937 
z
" clip-path="url(#p59d8fc3b5e)" style="fill: #008000"/>
   </g>
   <g id="patch_90">
    <path d="M 236.16 174.528 
C 236.16 174.528 236.16 174.528 236.16 174.528 
C 236.16 174.528 236.16 174.528 236.16 174.528 
L 149.97423 134.338915 
C 148.804991 136.846355 147.745735 139.403627 146.799483 142.003432 
C 145.853232 144.603236 145.020887 147.243097 144.304824 149.91548 
z
" clip-path="url(#p59d8fc3b5e)" style="fill: #ff0000"/>
   </g>
   <g id="patch_91">
    <path d="M 236.16 174.528 
C 236.16 174.528 236.16 174.528 236.16 174.528 
C 236.16 174.528 236.16 174.528 236.16 174.528 
L 155.477394 136.905083 
C 154.382814 139.252417 153.391194 141.646401 152.505363 144.080202 
C 151.619532 146.514003 150.840334 148.985302 150.169993 151.487047 
z
" clip-path="url(#p59d8fc3b5e)" style="fill: #ffa500"/>
   </g>
   <g id="patch_92">
    <path d="M 236.16 174.528 
C 236.16 174.528 236.16 174.528 236.16 174.528 
C 236.16 174.528 236.16 174.528 236.16 174.528 
L 195.919253 155.763432 
C 195.373328 156.934173 194.878753 158.128182 194.436942 159.342049 
C 193.99513 160.555916 193.606502 161.788486 193.272168 163.03624 
z
" clip-path="url(#p59d8fc3b5e)" style="fill: #008000"/>
   </g>
   <g id="patch_93">
    <path d="M 236.16 174.528 
C 236.16 174.528 236.16 174.528 236.16 174.528 
C 236.16 174.528 236.16 174.528 236.16 174.528 
L 169.267828 127.689597 
C 167.905138 129.63572 166.628025 131.640384 165.440137 133.697868 
C 164.252248 135.755352 163.154714 137.863695 162.150667 140.016881 
z
" clip-path="url(#p59d8fc3b5e)" style="fill: #ff0000"/>
   </g>
   <g id="patch_94">
    <path d="M 236.16 174.528 
C 236.16 174.528 236.16 174.528 236.16 174.528 
C 236.16 174.528 236.16 174.528 236.16 174.528 
L 173.635869 130.748132 
C 172.362162 132.567174 171.168445 134.440934 170.058125 136.364065 
C 168.947805 138.287195 167.92194 140.257865 166.983457 142.270448 
z
" clip-path="url(#p59d8fc3b5e)" style="fill: #ffa500"/>
   </g>
   <g id="patch_95">
    <path d="M 236.16 174.528 
C 236.16 174.528 236.16 174.528 236.16 174.528 
C 236.16 174.528 236.16 174.528 236.16 174.528 
L 199.948773 149.172626 
C 199.211098 150.226135 198.51975 151.311334 197.876701 152.425127 
C 197.233653 153.53892 196.639516 154.680245 196.095988 155.845845 
z
" clip-path="url(#p59d8fc3b5e)" style="fill: #008000"/>
   </g>
   <g id="patch_96">
    <path d="M 236.16 174.528 
C 236.16 174.528 236.16 174.528 236.16 174.528 
C 236.16 174.528 236.16 174.528 236.16 174.528 
L 175.179441 113.547441 
C 173.405307 115.321575 171.709442 117.172288 170.096685 119.094297 
C 168.483928 121.016305 166.955816 123.00778 165.51671 125.063036 
z
" clip-path="url(#p59d8fc3b5e)" style="fill: #ff0000"/>
   </g>
   <g id="patch_97">
    <path d="M 236.16 174.528 
C 236.16 174.528 236.16 174.528 236.16 174.528 
C 236.16 174.528 236.16 174.528 236.16 174.528 
L 178.688498 117.056498 
C 177.016455 118.728542 175.418176 120.472757 173.898223 122.284166 
C 172.37827 124.095575 170.938092 125.972452 169.581798 127.909441 
z
" clip-path="url(#p59d8fc3b5e)" style="fill: #ffa500"/>
   </g>
   <g id="patch_98">
    <path d="M 236.16 174.528 
C 236.16 174.528 236.16 174.528 236.16 174.528 
C 236.16 174.528 236.16 174.528 236.16 174.528 
L 199.381472 137.749472 
C 198.311458 138.819486 197.28865 139.935686 196.315966 141.094885 
C 195.343281 142.254085 194.421648 143.455181 193.553696 144.694745 
z
" clip-path="url(#p59d8fc3b5e)" style="fill: #008000"/>
   </g>
   <g id="patch_99">
    <path d="M 236.16 174.528 
C 236.16 174.528 236.16 174.528 236.16 174.528 
C 236.16 174.528 236.16 174.528 236.16 174.528 
L 195.018263 115.771511 
C 193.308835 116.968465 191.652456 118.23945 190.053855 119.580836 
C 188.455253 120.922222 186.915951 122.332733 185.440342 123.808342 
z
" clip-path="url(#p59d8fc3b5e)" style="fill: #ff0000"/>
   </g>
   <g id="patch_100">
    <path d="M 236.16 174.528 
C 236.16 174.528 236.16 174.528 236.16 174.528 
C 236.16 174.528 236.16 174.528 236.16 174.528 
L 196.626598 118.068451 
C 194.983996 119.218613 193.392369 120.439911 191.856261 121.728859 
C 190.320152 123.017807 188.841025 124.373177 187.423101 125.791101 
z
" clip-path="url(#p59d8fc3b5e)" style="fill: #ffa500"/>
   </g>
   <g id="patch_101">
    <path d="M 236.16 174.528 
C 236.16 174.528 236.16 174.528 236.16 174.528 
C 236.16 174.528 236.16 174.528 236.16 174.528 
L 209.37371 136.273213 
C 208.260746 137.052518 207.182322 137.880022 206.141515 138.753363 
C 205.100708 139.626704 204.098509 140.54505 203.137779 141.505779 
z
" clip-path="url(#p59d8fc3b5e)" style="fill: #008000"/>
   </g>
   <g id="patch_102">
    <path d="M 236.16 174.528 
C 236.16 174.528 236.16 174.528 236.16 174.528 
C 236.16 174.528 236.16 174.528 236.16 174.528 
L 220.078114 140.040284 
C 219.074748 140.508162 218.092278 141.019603 217.133508 141.573149 
C 216.174738 142.126695 215.240582 142.721819 214.333705 143.356821 
z
" clip-path="url(#p59d8fc3b5e)" style="fill: #ff0000"/>
   </g>
   <g id="patch_103">
    <path d="M 236.16 174.528 
C 236.16 174.528 236.16 174.528 236.16 174.528 
C 236.16 174.528 236.16 174.528 236.16 174.528 
L 220.387873 140.704565 
C 219.403833 141.16343 218.440287 141.66502 217.499984 142.207904 
C 216.559681 142.750788 215.643518 143.334449 214.754109 143.95722 
z
" clip-path="url(#p59d8fc3b5e)" style="fill: #ffa500"/>
   </g>
   <g id="patch_104">
    <path d="M 236.16 174.528 
C 236.16 174.528 236.16 174.528 236.16 174.528 
C 236.16 174.528 236.16 174.528 236.16 174.528 
L 225.079726 150.766275 
C 224.388415 151.088638 223.711502 151.441017 223.050919 151.822405 
C 222.390335 152.203793 221.746709 152.613828 221.12188 153.051338 
z
" clip-path="url(#p59d8fc3b5e)" style="fill: #008000"/>
   </g>
   <g id="patch_105">
    <path d="M 236.16 174.528 
C 236.16 174.528 236.16 174.528 236.16 174.528 
C 236.16 174.528 236.16 174.528 236.16 174.528 
L 229.471702 149.566931 
C 228.745498 149.761516 228.028133 149.987701 227.321652 150.244839 
C 226.615172 150.501977 225.920249 150.789823 225.238868 151.107556 
z
" clip-path="url(#p59d8fc3b5e)" style="fill: #ff0000"/>
   </g>
   <g id="patch_106">
    <path d="M 236.16 174.528 
C 236.16 174.528 236.16 174.528 236.16 174.528 
C 236.16 174.528 236.16 174.528 236.16 174.528 
L 229.501288 149.677349 
C 228.778297 149.871074 228.064105 150.096258 227.36075 150.352258 
C 226.657394 150.608259 225.965546 150.894832 225.287179 151.21116 
z
" clip-path="url(#p59d8fc3b5e)" style="fill: #ffa500"/>
   </g>
   <g id="patch_107">
    <path d="M 236.16 174.528 
C 236.16 174.528 236.16 174.528 236.16 174.528 
C 236.16 174.528 236.16 174.528 236.16 174.528 
L 230.785692 154.47081 
C 230.20216 154.627167 229.625728 154.808915 229.058044 155.015535 
C 228.490359 155.222156 227.931962 155.453451 227.384445 155.708762 
z
" clip-path="url(#p59d8fc3b5e)" style="fill: #008000"/>
   </g>
   <g id="patch_108">
    <path d="M 236.16 174.528 
C 236.16 174.528 236.16 174.528 236.16 174.528 
C 236.16 174.528 236.16 174.528 236.16 174.528 
L 234.553599 156.166748 
C 234.019407 156.213484 233.487509 156.28351 232.959423 156.376626 
C 232.431337 156.469741 231.907566 156.585858 231.389606 156.724646 
z
" clip-path="url(#p59d8fc3b5e)" style="fill: #ff0000"/>
   </g>
   <g id="patch_109">
    <path d="M 236.16 174.528 
C 236.16 174.528 236.16 174.528 236.16 174.528 
C 236.16 174.528 236.16 174.528 236.16 174.528 
L 234.555943 156.193543 
C 234.022531 156.240211 233.491409 156.310134 232.964094 156.403114 
C 232.436778 156.496094 231.913772 156.612042 231.396567 156.750626 
z
" clip-path="url(#p59d8fc3b5e)" style="fill: #ffa500"/>
   </g>
   <g id="patch_110">
    <path d="M 236.16 174.528 
C 236.16 174.528 236.16 174.528 236.16 174.528 
C 236.16 174.528 236.16 174.528 236.16 174.528 
L 234.721799 158.089287 
C 234.24354 158.131129 233.767335 158.193823 233.294544 158.277189 
C 232.821752 158.360555 232.352823 158.464514 231.889096 158.588769 
z
" clip-path="url(#p59d8fc3b5e)" style="fill: #008000"/>
   </g>
   <g id="matplotlib.axis_1">
    <g id="xtick_1">
     <g id="line2d_1">
      <path d="M 236.16 174.528 
L 259.264932 43.49342 
" clip-path="url(#p59d8fc3b5e)" style="fill: none; stroke: #b0b0b0; stroke-width: 0.8; stroke-linecap: square"/>
     </g>
     <g id="text_1">
      <!-- 10° -->
      <g transform="translate(252.833506 32.465486) scale(0.1 -0.1)">
       <defs>
        <path id="DejaVuSans-31" d="M 794 531 
L 1825 531 
L 1825 4091 
L 703 3866 
L 703 4441 
L 1819 4666 
L 2450 4666 
L 2450 531 
L 3481 531 
L 3481 0 
L 794 0 
L 794 531 
z
" transform="scale(0.015625)"/>
        <path id="DejaVuSans-30" d="M 2034 4250 
Q 1547 4250 1301 3770 
Q 1056 3291 1056 2328 
Q 1056 1369 1301 889 
Q 1547 409 2034 409 
Q 2525 409 2770 889 
Q 3016 1369 3016 2328 
Q 3016 3291 2770 3770 
Q 2525 4250 2034 4250 
z
M 2034 4750 
Q 2819 4750 3233 4129 
Q 3647 3509 3647 2328 
Q 3647 1150 3233 529 
Q 2819 -91 2034 -91 
Q 1250 -91 836 529 
Q 422 1150 422 2328 
Q 422 3509 836 4129 
Q 1250 4750 2034 4750 
z
" transform="scale(0.015625)"/>
        <path id="DejaVuSans-b0" d="M 1600 4347 
Q 1350 4347 1178 4173 
Q 1006 4000 1006 3750 
Q 1006 3503 1178 3333 
Q 1350 3163 1600 3163 
Q 1850 3163 2022 3333 
Q 2194 3503 2194 3750 
Q 2194 3997 2020 4172 
Q 1847 4347 1600 4347 
z
M 1600 4750 
Q 1800 4750 1984 4673 
Q 2169 4597 2303 4453 
Q 2447 4313 2519 4134 
Q 2591 3956 2591 3750 
Q 2591 3338 2302 3052 
Q 2013 2766 1594 2766 
Q 1172 2766 890 3047 
Q 609 3328 609 3750 
Q 609 4169 896 4459 
Q 1184 4750 1600 4750 
z
" transform="scale(0.015625)"/>
       </defs>
       <use xlink:href="#DejaVuSans-31"/>
       <use xlink:href="#DejaVuSans-30" x="63.623047"/>
       <use xlink:href="#DejaVuSans-b0" x="127.246094"/>
      </g>
     </g>
    </g>
    <g id="xtick_2">
     <g id="line2d_2">
      <path d="M 236.16 174.528 
L 281.667832 49.496259 
" clip-path="url(#p59d8fc3b5e)" style="fill: none; stroke: #b0b0b0; stroke-width: 0.8; stroke-linecap: square"/>
     </g>
     <g id="text_2">
      <!-- 20° -->
      <g transform="translate(277.593614 39.099937) scale(0.1 -0.1)">
       <defs>
        <path id="DejaVuSans-32" d="M 1228 531 
L 3431 531 
L 3431 0 
L 469 0 
L 469 531 
Q 828 903 1448 1529 
Q 2069 2156 2228 2338 
Q 2531 2678 2651 2914 
Q 2772 3150 2772 3378 
Q 2772 3750 2511 3984 
Q 2250 4219 1831 4219 
Q 1534 4219 1204 4116 
Q 875 4013 500 3803 
L 500 4441 
Q 881 4594 1212 4672 
Q 1544 4750 1819 4750 
Q 2544 4750 2975 4387 
Q 3406 4025 3406 3419 
Q 3406 3131 3298 2873 
Q 3191 2616 2906 2266 
Q 2828 2175 2409 1742 
Q 1991 1309 1228 531 
z
" transform="scale(0.015625)"/>
       </defs>
       <use xlink:href="#DejaVuSans-32"/>
       <use xlink:href="#DejaVuSans-30" x="63.623047"/>
       <use xlink:href="#DejaVuSans-b0" x="127.246094"/>
      </g>
     </g>
    </g>
    <g id="xtick_3">
     <g id="line2d_3">
      <path d="M 236.16 174.528 
L 302.688 59.298124 
" clip-path="url(#p59d8fc3b5e)" style="fill: none; stroke: #b0b0b0; stroke-width: 0.8; stroke-linecap: square"/>
     </g>
     <g id="text_3">
      <!-- 30° -->
      <g transform="translate(300.8255 49.933143) scale(0.1 -0.1)">
       <defs>
        <path id="DejaVuSans-33" d="M 2597 2516 
Q 3050 2419 3304 2112 
Q 3559 1806 3559 1356 
Q 3559 666 3084 287 
Q 2609 -91 1734 -91 
Q 1441 -91 1130 -33 
Q 819 25 488 141 
L 488 750 
Q 750 597 1062 519 
Q 1375 441 1716 441 
Q 2309 441 2620 675 
Q 2931 909 2931 1356 
Q 2931 1769 2642 2001 
Q 2353 2234 1838 2234 
L 1294 2234 
L 1294 2753 
L 1863 2753 
Q 2328 2753 2575 2939 
Q 2822 3125 2822 3475 
Q 2822 3834 2567 4026 
Q 2313 4219 1838 4219 
Q 1578 4219 1281 4162 
Q 984 4106 628 3988 
L 628 4550 
Q 988 4650 1302 4700 
Q 1616 4750 1894 4750 
Q 2613 4750 3031 4423 
Q 3450 4097 3450 3541 
Q 3450 3153 3228 2886 
Q 3006 2619 2597 2516 
z
" transform="scale(0.015625)"/>
       </defs>
       <use xlink:href="#DejaVuSans-33"/>
       <use xlink:href="#DejaVuSans-30" x="63.623047"/>
       <use xlink:href="#DejaVuSans-b0" x="127.246094"/>
      </g>
     </g>
    </g>
    <g id="xtick_4">
     <g id="line2d_4">
      <path d="M 236.16 174.528 
L 321.686748 72.601191 
" clip-path="url(#p59d8fc3b5e)" style="fill: none; stroke: #b0b0b0; stroke-width: 0.8; stroke-linecap: square"/>
     </g>
     <g id="text_4">
      <!-- 40° -->
      <g transform="translate(321.823275 64.635943) scale(0.1 -0.1)">
       <defs>
        <path id="DejaVuSans-34" d="M 2419 4116 
L 825 1625 
L 2419 1625 
L 2419 4116 
z
M 2253 4666 
L 3047 4666 
L 3047 1625 
L 3713 1625 
L 3713 1100 
L 3047 1100 
L 3047 0 
L 2419 0 
L 2419 1100 
L 313 1100 
L 313 1709 
L 2253 4666 
z
" transform="scale(0.015625)"/>
       </defs>
       <use xlink:href="#DejaVuSans-34"/>
       <use xlink:href="#DejaVuSans-30" x="63.623047"/>
       <use xlink:href="#DejaVuSans-b0" x="127.246094"/>
      </g>
     </g>
    </g>
    <g id="xtick_5">
     <g id="line2d_5">
      <path d="M 236.16 174.528 
L 338.086809 89.001252 
" clip-path="url(#p59d8fc3b5e)" style="fill: none; stroke: #b0b0b0; stroke-width: 0.8; stroke-linecap: square"/>
     </g>
     <g id="text_5">
      <!-- 50° -->
      <g transform="translate(339.948932 82.7616) scale(0.1 -0.1)">
       <defs>
        <path id="DejaVuSans-35" d="M 691 4666 
L 3169 4666 
L 3169 4134 
L 1269 4134 
L 1269 2991 
Q 1406 3038 1543 3061 
Q 1681 3084 1819 3084 
Q 2600 3084 3056 2656 
Q 3513 2228 3513 1497 
Q 3513 744 3044 326 
Q 2575 -91 1722 -91 
Q 1428 -91 1123 -41 
Q 819 9 494 109 
L 494 744 
Q 775 591 1075 516 
Q 1375 441 1709 441 
Q 2250 441 2565 725 
Q 2881 1009 2881 1497 
Q 2881 1984 2565 2268 
Q 2250 2553 1709 2553 
Q 1456 2553 1204 2497 
Q 953 2441 691 2322 
L 691 4666 
z
" transform="scale(0.015625)"/>
       </defs>
       <use xlink:href="#DejaVuSans-35"/>
       <use xlink:href="#DejaVuSans-30" x="63.623047"/>
       <use xlink:href="#DejaVuSans-b0" x="127.246094"/>
      </g>
     </g>
    </g>
    <g id="xtick_6">
     <g id="line2d_6">
      <path d="M 236.16 174.528 
L 351.389876 108 
" clip-path="url(#p59d8fc3b5e)" style="fill: none; stroke: #b0b0b0; stroke-width: 0.8; stroke-linecap: square"/>
     </g>
     <g id="text_6">
      <!-- 60° -->
      <g transform="translate(354.651732 103.759375) scale(0.1 -0.1)">
       <defs>
        <path id="DejaVuSans-36" d="M 2113 2584 
Q 1688 2584 1439 2293 
Q 1191 2003 1191 1497 
Q 1191 994 1439 701 
Q 1688 409 2113 409 
Q 2538 409 2786 701 
Q 3034 994 3034 1497 
Q 3034 2003 2786 2293 
Q 2538 2584 2113 2584 
z
M 3366 4563 
L 3366 3988 
Q 3128 4100 2886 4159 
Q 2644 4219 2406 4219 
Q 1781 4219 1451 3797 
Q 1122 3375 1075 2522 
Q 1259 2794 1537 2939 
Q 1816 3084 2150 3084 
Q 2853 3084 3261 2657 
Q 3669 2231 3669 1497 
Q 3669 778 3244 343 
Q 2819 -91 2113 -91 
Q 1303 -91 875 529 
Q 447 1150 447 2328 
Q 447 3434 972 4092 
Q 1497 4750 2381 4750 
Q 2619 4750 2861 4703 
Q 3103 4656 3366 4563 
z
" transform="scale(0.015625)"/>
       </defs>
       <use xlink:href="#DejaVuSans-36"/>
       <use xlink:href="#DejaVuSans-30" x="63.623047"/>
       <use xlink:href="#DejaVuSans-b0" x="127.246094"/>
      </g>
     </g>
    </g>
    <g id="xtick_7">
     <g id="line2d_7">
      <path d="M 236.16 174.528 
L 361.191741 129.020168 
" clip-path="url(#p59d8fc3b5e)" style="fill: none; stroke: #b0b0b0; stroke-width: 0.8; stroke-linecap: square"/>
     </g>
     <g id="text_7">
      <!-- 70° -->
      <g transform="translate(365.484938 126.991261) scale(0.1 -0.1)">
       <defs>
        <path id="DejaVuSans-37" d="M 525 4666 
L 3525 4666 
L 3525 4397 
L 1831 0 
L 1172 0 
L 2766 4134 
L 525 4134 
L 525 4666 
z
" transform="scale(0.015625)"/>
       </defs>
       <use xlink:href="#DejaVuSans-37"/>
       <use xlink:href="#DejaVuSans-30" x="63.623047"/>
       <use xlink:href="#DejaVuSans-b0" x="127.246094"/>
      </g>
     </g>
    </g>
    <g id="xtick_8">
     <g id="line2d_8">
      <path d="M 236.16 174.528 
L 367.19458 151.423068 
" clip-path="url(#p59d8fc3b5e)" style="fill: none; stroke: #b0b0b0; stroke-width: 0.8; stroke-linecap: square"/>
     </g>
     <g id="text_8">
      <!-- 80° -->
      <g transform="translate(372.119389 151.751369) scale(0.1 -0.1)">
       <defs>
        <path id="DejaVuSans-38" d="M 2034 2216 
Q 1584 2216 1326 1975 
Q 1069 1734 1069 1313 
Q 1069 891 1326 650 
Q 1584 409 2034 409 
Q 2484 409 2743 651 
Q 3003 894 3003 1313 
Q 3003 1734 2745 1975 
Q 2488 2216 2034 2216 
z
M 1403 2484 
Q 997 2584 770 2862 
Q 544 3141 544 3541 
Q 544 4100 942 4425 
Q 1341 4750 2034 4750 
Q 2731 4750 3128 4425 
Q 3525 4100 3525 3541 
Q 3525 3141 3298 2862 
Q 3072 2584 2669 2484 
Q 3125 2378 3379 2068 
Q 3634 1759 3634 1313 
Q 3634 634 3220 271 
Q 2806 -91 2034 -91 
Q 1263 -91 848 271 
Q 434 634 434 1313 
Q 434 1759 690 2068 
Q 947 2378 1403 2484 
z
M 1172 3481 
Q 1172 3119 1398 2916 
Q 1625 2713 2034 2713 
Q 2441 2713 2670 2916 
Q 2900 3119 2900 3481 
Q 2900 3844 2670 4047 
Q 2441 4250 2034 4250 
Q 1625 4250 1398 4047 
Q 1172 3844 1172 3481 
z
" transform="scale(0.015625)"/>
       </defs>
       <use xlink:href="#DejaVuSans-38"/>
       <use xlink:href="#DejaVuSans-30" x="63.623047"/>
       <use xlink:href="#DejaVuSans-b0" x="127.246094"/>
      </g>
     </g>
    </g>
    <g id="xtick_9">
     <g id="line2d_9">
      <path d="M 236.16 174.528 
L 369.216 174.528 
" clip-path="url(#p59d8fc3b5e)" style="fill: none; stroke: #b0b0b0; stroke-width: 0.8; stroke-linecap: square"/>
     </g>
     <g id="text_9">
      <!-- 90° -->
      <g transform="translate(374.3535 177.287375) scale(0.1 -0.1)">
       <defs>
        <path id="DejaVuSans-39" d="M 703 97 
L 703 672 
Q 941 559 1184 500 
Q 1428 441 1663 441 
Q 2288 441 2617 861 
Q 2947 1281 2994 2138 
Q 2813 1869 2534 1725 
Q 2256 1581 1919 1581 
Q 1219 1581 811 2004 
Q 403 2428 403 3163 
Q 403 3881 828 4315 
Q 1253 4750 1959 4750 
Q 2769 4750 3195 4129 
Q 3622 3509 3622 2328 
Q 3622 1225 3098 567 
Q 2575 -91 1691 -91 
Q 1453 -91 1209 -44 
Q 966 3 703 97 
z
M 1959 2075 
Q 2384 2075 2632 2365 
Q 2881 2656 2881 3163 
Q 2881 3666 2632 3958 
Q 2384 4250 1959 4250 
Q 1534 4250 1286 3958 
Q 1038 3666 1038 3163 
Q 1038 2656 1286 2365 
Q 1534 2075 1959 2075 
z
" transform="scale(0.015625)"/>
       </defs>
       <use xlink:href="#DejaVuSans-39"/>
       <use xlink:href="#DejaVuSans-30" x="63.623047"/>
       <use xlink:href="#DejaVuSans-b0" x="127.246094"/>
      </g>
     </g>
    </g>
    <g id="xtick_10">
     <g id="line2d_10">
      <path d="M 236.16 174.528 
L 367.19458 197.632932 
" clip-path="url(#p59d8fc3b5e)" style="fill: none; stroke: #b0b0b0; stroke-width: 0.8; stroke-linecap: square"/>
     </g>
     <g id="text_10">
      <!-- 100° -->
      <g transform="translate(368.938139 202.823381) scale(0.1 -0.1)">
       <use xlink:href="#DejaVuSans-31"/>
       <use xlink:href="#DejaVuSans-30" x="63.623047"/>
       <use xlink:href="#DejaVuSans-30" x="127.246094"/>
       <use xlink:href="#DejaVuSans-b0" x="190.869141"/>
      </g>
     </g>
    </g>
    <g id="xtick_11">
     <g id="line2d_11">
      <path d="M 236.16 174.528 
L 361.191741 220.035832 
" clip-path="url(#p59d8fc3b5e)" style="fill: none; stroke: #b0b0b0; stroke-width: 0.8; stroke-linecap: square"/>
     </g>
     <g id="text_11">
      <!-- 110° -->
      <g transform="translate(362.303688 227.583489) scale(0.1 -0.1)">
       <use xlink:href="#DejaVuSans-31"/>
       <use xlink:href="#DejaVuSans-31" x="63.623047"/>
       <use xlink:href="#DejaVuSans-30" x="127.246094"/>
       <use xlink:href="#DejaVuSans-b0" x="190.869141"/>
      </g>
     </g>
    </g>
    <g id="xtick_12">
     <g id="line2d_12">
      <path d="M 236.16 174.528 
L 351.389876 241.056 
" clip-path="url(#p59d8fc3b5e)" style="fill: none; stroke: #b0b0b0; stroke-width: 0.8; stroke-linecap: square"/>
     </g>
     <g id="text_12">
      <!-- 120° -->
      <g transform="translate(351.470482 250.815375) scale(0.1 -0.1)">
       <use xlink:href="#DejaVuSans-31"/>
       <use xlink:href="#DejaVuSans-32" x="63.623047"/>
       <use xlink:href="#DejaVuSans-30" x="127.246094"/>
       <use xlink:href="#DejaVuSans-b0" x="190.869141"/>
      </g>
     </g>
    </g>
    <g id="xtick_13">
     <g id="line2d_13">
      <path d="M 236.16 174.528 
L 338.086809 260.054748 
" clip-path="url(#p59d8fc3b5e)" style="fill: none; stroke: #b0b0b0; stroke-width: 0.8; stroke-linecap: square"/>
     </g>
     <g id="text_13">
      <!-- 130° -->
      <g transform="translate(336.767682 271.81315) scale(0.1 -0.1)">
       <use xlink:href="#DejaVuSans-31"/>
       <use xlink:href="#DejaVuSans-33" x="63.623047"/>
       <use xlink:href="#DejaVuSans-30" x="127.246094"/>
       <use xlink:href="#DejaVuSans-b0" x="190.869141"/>
      </g>
     </g>
    </g>
    <g id="xtick_14">
     <g id="line2d_14">
      <path d="M 236.16 174.528 
L 321.686748 276.454809 
" clip-path="url(#p59d8fc3b5e)" style="fill: none; stroke: #b0b0b0; stroke-width: 0.8; stroke-linecap: square"/>
     </g>
     <g id="text_14">
      <!-- 140° -->
      <g transform="translate(318.642025 289.938807) scale(0.1 -0.1)">
       <use xlink:href="#DejaVuSans-31"/>
       <use xlink:href="#DejaVuSans-34" x="63.623047"/>
       <use xlink:href="#DejaVuSans-30" x="127.246094"/>
       <use xlink:href="#DejaVuSans-b0" x="190.869141"/>
      </g>
     </g>
    </g>
    <g id="xtick_15">
     <g id="line2d_15">
      <path d="M 236.16 174.528 
L 302.688 289.757876 
" clip-path="url(#p59d8fc3b5e)" style="fill: none; stroke: #b0b0b0; stroke-width: 0.8; stroke-linecap: square"/>
     </g>
     <g id="text_15">
      <!-- 150° -->
      <g transform="translate(297.64425 304.641607) scale(0.1 -0.1)">
       <use xlink:href="#DejaVuSans-31"/>
       <use xlink:href="#DejaVuSans-35" x="63.623047"/>
       <use xlink:href="#DejaVuSans-30" x="127.246094"/>
       <use xlink:href="#DejaVuSans-b0" x="190.869141"/>
      </g>
     </g>
    </g>
    <g id="xtick_16">
     <g id="line2d_16">
      <path d="M 236.16 174.528 
L 281.667832 299.559741 
" clip-path="url(#p59d8fc3b5e)" style="fill: none; stroke: #b0b0b0; stroke-width: 0.8; stroke-linecap: square"/>
     </g>
     <g id="text_16">
      <!-- 160° -->
      <g transform="translate(274.412364 315.474813) scale(0.1 -0.1)">
       <use xlink:href="#DejaVuSans-31"/>
       <use xlink:href="#DejaVuSans-36" x="63.623047"/>
       <use xlink:href="#DejaVuSans-30" x="127.246094"/>
       <use xlink:href="#DejaVuSans-b0" x="190.869141"/>
      </g>
     </g>
    </g>
    <g id="xtick_17">
     <g id="line2d_17">
      <path d="M 236.16 174.528 
L 259.264932 305.56258 
" clip-path="url(#p59d8fc3b5e)" style="fill: none; stroke: #b0b0b0; stroke-width: 0.8; stroke-linecap: square"/>
     </g>
     <g id="text_17">
      <!-- 170° -->
      <g transform="translate(249.652256 322.109264) scale(0.1 -0.1)">
       <use xlink:href="#DejaVuSans-31"/>
       <use xlink:href="#DejaVuSans-37" x="63.623047"/>
       <use xlink:href="#DejaVuSans-30" x="127.246094"/>
       <use xlink:href="#DejaVuSans-b0" x="190.869141"/>
      </g>
     </g>
    </g>
    <g id="xtick_18">
     <g id="line2d_18">
      <path d="M 236.16 174.528 
L 236.16 307.584 
" clip-path="url(#p59d8fc3b5e)" style="fill: none; stroke: #b0b0b0; stroke-width: 0.8; stroke-linecap: square"/>
     </g>
     <g id="text_18">
      <!-- 180° -->
      <g transform="translate(224.11625 324.343375) scale(0.1 -0.1)">
       <use xlink:href="#DejaVuSans-31"/>
       <use xlink:href="#DejaVuSans-38" x="63.623047"/>
       <use xlink:href="#DejaVuSans-30" x="127.246094"/>
       <use xlink:href="#DejaVuSans-b0" x="190.869141"/>
      </g>
     </g>
    </g>
    <g id="xtick_19">
     <g id="line2d_19">
      <path d="M 236.16 174.528 
L 213.055068 305.56258 
" clip-path="url(#p59d8fc3b5e)" style="fill: none; stroke: #b0b0b0; stroke-width: 0.8; stroke-linecap: square"/>
     </g>
     <g id="text_19">
      <!-- 190° -->
      <g transform="translate(198.580244 322.109264) scale(0.1 -0.1)">
       <use xlink:href="#DejaVuSans-31"/>
       <use xlink:href="#DejaVuSans-39" x="63.623047"/>
       <use xlink:href="#DejaVuSans-30" x="127.246094"/>
       <use xlink:href="#DejaVuSans-b0" x="190.869141"/>
      </g>
     </g>
    </g>
    <g id="xtick_20">
     <g id="line2d_20">
      <path d="M 236.16 174.528 
L 190.652168 299.559741 
" clip-path="url(#p59d8fc3b5e)" style="fill: none; stroke: #b0b0b0; stroke-width: 0.8; stroke-linecap: square"/>
     </g>
     <g id="text_20">
      <!-- 200° -->
      <g transform="translate(173.820136 315.474813) scale(0.1 -0.1)">
       <use xlink:href="#DejaVuSans-32"/>
       <use xlink:href="#DejaVuSans-30" x="63.623047"/>
       <use xlink:href="#DejaVuSans-30" x="127.246094"/>
       <use xlink:href="#DejaVuSans-b0" x="190.869141"/>
      </g>
     </g>
    </g>
    <g id="xtick_21">
     <g id="line2d_21">
      <path d="M 236.16 174.528 
L 169.632 289.757876 
" clip-path="url(#p59d8fc3b5e)" style="fill: none; stroke: #b0b0b0; stroke-width: 0.8; stroke-linecap: square"/>
     </g>
     <g id="text_21">
      <!-- 210° -->
      <g transform="translate(150.58825 304.641607) scale(0.1 -0.1)">
       <use xlink:href="#DejaVuSans-32"/>
       <use xlink:href="#DejaVuSans-31" x="63.623047"/>
       <use xlink:href="#DejaVuSans-30" x="127.246094"/>
       <use xlink:href="#DejaVuSans-b0" x="190.869141"/>
      </g>
     </g>
    </g>
    <g id="xtick_22">
     <g id="line2d_22">
      <path d="M 236.16 174.528 
L 150.633252 276.454809 
" clip-path="url(#p59d8fc3b5e)" style="fill: none; stroke: #b0b0b0; stroke-width: 0.8; stroke-linecap: square"/>
     </g>
     <g id="text_22">
      <!-- 220° -->
      <g transform="translate(129.590475 289.938807) scale(0.1 -0.1)">
       <use xlink:href="#DejaVuSans-32"/>
       <use xlink:href="#DejaVuSans-32" x="63.623047"/>
       <use xlink:href="#DejaVuSans-30" x="127.246094"/>
       <use xlink:href="#DejaVuSans-b0" x="190.869141"/>
      </g>
     </g>
    </g>
    <g id="xtick_23">
     <g id="line2d_23">
      <path d="M 236.16 174.528 
L 134.233191 260.054748 
" clip-path="url(#p59d8fc3b5e)" style="fill: none; stroke: #b0b0b0; stroke-width: 0.8; stroke-linecap: square"/>
     </g>
     <g id="text_23">
      <!-- 230° -->
      <g transform="translate(111.464818 271.81315) scale(0.1 -0.1)">
       <use xlink:href="#DejaVuSans-32"/>
       <use xlink:href="#DejaVuSans-33" x="63.623047"/>
       <use xlink:href="#DejaVuSans-30" x="127.246094"/>
       <use xlink:href="#DejaVuSans-b0" x="190.869141"/>
      </g>
     </g>
    </g>
    <g id="xtick_24">
     <g id="line2d_24">
      <path d="M 236.16 174.528 
L 120.930124 241.056 
" clip-path="url(#p59d8fc3b5e)" style="fill: none; stroke: #b0b0b0; stroke-width: 0.8; stroke-linecap: square"/>
     </g>
     <g id="text_24">
      <!-- 240° -->
      <g transform="translate(96.762018 250.815375) scale(0.1 -0.1)">
       <use xlink:href="#DejaVuSans-32"/>
       <use xlink:href="#DejaVuSans-34" x="63.623047"/>
       <use xlink:href="#DejaVuSans-30" x="127.246094"/>
       <use xlink:href="#DejaVuSans-b0" x="190.869141"/>
      </g>
     </g>
    </g>
    <g id="xtick_25">
     <g id="line2d_25">
      <path d="M 236.16 174.528 
L 111.128259 220.035832 
" clip-path="url(#p59d8fc3b5e)" style="fill: none; stroke: #b0b0b0; stroke-width: 0.8; stroke-linecap: square"/>
     </g>
     <g id="text_25">
      <!-- 250° -->
      <g transform="translate(85.928812 227.583489) scale(0.1 -0.1)">
       <use xlink:href="#DejaVuSans-32"/>
       <use xlink:href="#DejaVuSans-35" x="63.623047"/>
       <use xlink:href="#DejaVuSans-30" x="127.246094"/>
       <use xlink:href="#DejaVuSans-b0" x="190.869141"/>
      </g>
     </g>
    </g>
    <g id="xtick_26">
     <g id="line2d_26">
      <path d="M 236.16 174.528 
L 105.12542 197.632932 
" clip-path="url(#p59d8fc3b5e)" style="fill: none; stroke: #b0b0b0; stroke-width: 0.8; stroke-linecap: square"/>
     </g>
     <g id="text_26">
      <!-- 260° -->
      <g transform="translate(79.294361 202.823381) scale(0.1 -0.1)">
       <use xlink:href="#DejaVuSans-32"/>
       <use xlink:href="#DejaVuSans-36" x="63.623047"/>
       <use xlink:href="#DejaVuSans-30" x="127.246094"/>
       <use xlink:href="#DejaVuSans-b0" x="190.869141"/>
      </g>
     </g>
    </g>
    <g id="xtick_27">
     <g id="line2d_27">
      <path d="M 236.16 174.528 
L 103.104 174.528 
" clip-path="url(#p59d8fc3b5e)" style="fill: none; stroke: #b0b0b0; stroke-width: 0.8; stroke-linecap: square"/>
     </g>
     <g id="text_27">
      <!-- 270° -->
      <g transform="translate(77.06025 177.287375) scale(0.1 -0.1)">
       <use xlink:href="#DejaVuSans-32"/>
       <use xlink:href="#DejaVuSans-37" x="63.623047"/>
       <use xlink:href="#DejaVuSans-30" x="127.246094"/>
       <use xlink:href="#DejaVuSans-b0" x="190.869141"/>
      </g>
     </g>
    </g>
    <g id="xtick_28">
     <g id="line2d_28">
      <path d="M 236.16 174.528 
L 105.12542 151.423068 
" clip-path="url(#p59d8fc3b5e)" style="fill: none; stroke: #b0b0b0; stroke-width: 0.8; stroke-linecap: square"/>
     </g>
     <g id="text_28">
      <!-- 280° -->
      <g transform="translate(79.294361 151.751369) scale(0.1 -0.1)">
       <use xlink:href="#DejaVuSans-32"/>
       <use xlink:href="#DejaVuSans-38" x="63.623047"/>
       <use xlink:href="#DejaVuSans-30" x="127.246094"/>
       <use xlink:href="#DejaVuSans-b0" x="190.869141"/>
      </g>
     </g>
    </g>
    <g id="xtick_29">
     <g id="line2d_29">
      <path d="M 236.16 174.528 
L 111.128259 129.020168 
" clip-path="url(#p59d8fc3b5e)" style="fill: none; stroke: #b0b0b0; stroke-width: 0.8; stroke-linecap: square"/>
     </g>
     <g id="text_29">
      <!-- 290° -->
      <g transform="translate(85.928812 126.991261) scale(0.1 -0.1)">
       <use xlink:href="#DejaVuSans-32"/>
       <use xlink:href="#DejaVuSans-39" x="63.623047"/>
       <use xlink:href="#DejaVuSans-30" x="127.246094"/>
       <use xlink:href="#DejaVuSans-b0" x="190.869141"/>
      </g>
     </g>
    </g>
    <g id="xtick_30">
     <g id="line2d_30">
      <path d="M 236.16 174.528 
L 120.930124 108 
" clip-path="url(#p59d8fc3b5e)" style="fill: none; stroke: #b0b0b0; stroke-width: 0.8; stroke-linecap: square"/>
     </g>
     <g id="text_30">
      <!-- 300° -->
      <g transform="translate(96.762018 103.759375) scale(0.1 -0.1)">
       <use xlink:href="#DejaVuSans-33"/>
       <use xlink:href="#DejaVuSans-30" x="63.623047"/>
       <use xlink:href="#DejaVuSans-30" x="127.246094"/>
       <use xlink:href="#DejaVuSans-b0" x="190.869141"/>
      </g>
     </g>
    </g>
    <g id="xtick_31">
     <g id="line2d_31">
      <path d="M 236.16 174.528 
L 134.233191 89.001252 
" clip-path="url(#p59d8fc3b5e)" style="fill: none; stroke: #b0b0b0; stroke-width: 0.8; stroke-linecap: square"/>
     </g>
     <g id="text_31">
      <!-- 310° -->
      <g transform="translate(111.464818 82.7616) scale(0.1 -0.1)">
       <use xlink:href="#DejaVuSans-33"/>
       <use xlink:href="#DejaVuSans-31" x="63.623047"/>
       <use xlink:href="#DejaVuSans-30" x="127.246094"/>
       <use xlink:href="#DejaVuSans-b0" x="190.869141"/>
      </g>
     </g>
    </g>
    <g id="xtick_32">
     <g id="line2d_32">
      <path d="M 236.16 174.528 
L 150.633252 72.601191 
" clip-path="url(#p59d8fc3b5e)" style="fill: none; stroke: #b0b0b0; stroke-width: 0.8; stroke-linecap: square"/>
     </g>
     <g id="text_32">
      <!-- 320° -->
      <g transform="translate(129.590475 64.635943) scale(0.1 -0.1)">
       <use xlink:href="#DejaVuSans-33"/>
       <use xlink:href="#DejaVuSans-32" x="63.623047"/>
       <use xlink:href="#DejaVuSans-30" x="127.246094"/>
       <use xlink:href="#DejaVuSans-b0" x="190.869141"/>
      </g>
     </g>
    </g>
    <g id="xtick_33">
     <g id="line2d_33">
      <path d="M 236.16 174.528 
L 169.632 59.298124 
" clip-path="url(#p59d8fc3b5e)" style="fill: none; stroke: #b0b0b0; stroke-width: 0.8; stroke-linecap: square"/>
     </g>
     <g id="text_33">
      <!-- 330° -->
      <g transform="translate(150.58825 49.933143) scale(0.1 -0.1)">
       <use xlink:href="#DejaVuSans-33"/>
       <use xlink:href="#DejaVuSans-33" x="63.623047"/>
       <use xlink:href="#DejaVuSans-30" x="127.246094"/>
       <use xlink:href="#DejaVuSans-b0" x="190.869141"/>
      </g>
     </g>
    </g>
    <g id="xtick_34">
     <g id="line2d_34">
      <path d="M 236.16 174.528 
L 190.652168 49.496259 
" clip-path="url(#p59d8fc3b5e)" style="fill: none; stroke: #b0b0b0; stroke-width: 0.8; stroke-linecap: square"/>
     </g>
     <g id="text_34">
      <!-- 340° -->
      <g transform="translate(173.820136 39.099937) scale(0.1 -0.1)">
       <use xlink:href="#DejaVuSans-33"/>
       <use xlink:href="#DejaVuSans-34" x="63.623047"/>
       <use xlink:href="#DejaVuSans-30" x="127.246094"/>
       <use xlink:href="#DejaVuSans-b0" x="190.869141"/>
      </g>
     </g>
    </g>
    <g id="xtick_35">
     <g id="line2d_35">
      <path d="M 236.16 174.528 
L 213.055068 43.49342 
" clip-path="url(#p59d8fc3b5e)" style="fill: none; stroke: #b0b0b0; stroke-width: 0.8; stroke-linecap: square"/>
     </g>
     <g id="text_35">
      <!-- 350° -->
      <g transform="translate(198.580244 32.465486) scale(0.1 -0.1)">
       <use xlink:href="#DejaVuSans-33"/>
       <use xlink:href="#DejaVuSans-35" x="63.623047"/>
       <use xlink:href="#DejaVuSans-30" x="127.246094"/>
       <use xlink:href="#DejaVuSans-b0" x="190.869141"/>
      </g>
     </g>
    </g>
    <g id="xtick_36">
     <g id="line2d_36">
      <path d="M 236.16 174.528 
L 236.16 41.472 
" clip-path="url(#p59d8fc3b5e)" style="fill: none; stroke: #b0b0b0; stroke-width: 0.8; stroke-linecap: square"/>
     </g>
     <g id="text_36">
      <!-- 360° -->
      <g transform="translate(224.11625 30.231375) scale(0.1 -0.1)">
       <use xlink:href="#DejaVuSans-33"/>
       <use xlink:href="#DejaVuSans-36" x="63.623047"/>
       <use xlink:href="#DejaVuSans-30" x="127.246094"/>
       <use xlink:href="#DejaVuSans-b0" x="190.869141"/>
      </g>
     </g>
    </g>
   </g>
   <g id="matplotlib.axis_2">
    <g id="ytick_1">
     <g id="line2d_37">
      <path d="M 236.16 147.274021 
C 239.73896 147.274021 243.283119 147.978998 246.589646 149.348607 
C 249.896174 150.718215 252.900766 152.72582 255.431473 155.256527 
C 257.96218 157.787234 259.969785 160.791826 261.339393 164.098354 
C 262.709002 167.404881 263.413979 170.94904 263.413979 174.528 
C 263.413979 178.10696 262.709002 181.651119 261.339393 184.957646 
C 259.969785 188.264174 257.96218 191.268766 255.431473 193.799473 
C 252.900766 196.33018 249.896174 198.337785 246.589646 199.707393 
C 243.283119 201.077002 239.73896 201.781979 236.16 201.781979 
C 232.58104 201.781979 229.036881 201.077002 225.730354 199.707393 
C 222.423826 198.337785 219.419234 196.33018 216.888527 193.799473 
C 214.35782 191.268766 212.350215 188.264174 210.980607 184.957646 
C 209.610998 181.651119 208.906021 178.10696 208.906021 174.528 
C 208.906021 170.94904 209.610998 167.404881 210.980607 164.098354 
C 212.350215 160.791826 214.35782 157.787234 216.888527 155.256527 
C 219.419234 152.72582 222.423826 150.718215 225.730354 149.348607 
C 229.036881 147.978998 232.58104 147.274021 236.16 147.274021 
" clip-path="url(#p59d8fc3b5e)" style="fill: none; stroke: #b0b0b0; stroke-width: 0.8; stroke-linecap: square"/>
     </g>
     <g id="text_37">
      <!-- 2 -->
      <g transform="translate(255.431473 153.176839) scale(0.1 -0.1)">
       <use xlink:href="#DejaVuSans-32"/>
      </g>
     </g>
    </g>
    <g id="ytick_2">
     <g id="line2d_38">
      <path d="M 236.16 120.020043 
C 243.317919 120.020043 250.406237 121.429997 257.019292 124.169214 
C 263.632347 126.908431 269.641533 130.92364 274.702946 135.985054 
C 279.76436 141.046467 283.779569 147.055653 286.518786 153.668708 
C 289.258003 160.281763 290.667957 167.370081 290.667957 174.528 
C 290.667957 181.685919 289.258003 188.774237 286.518786 195.387292 
C 283.779569 202.000347 279.76436 208.009533 274.702946 213.070946 
C 269.641533 218.13236 263.632347 222.147569 257.019292 224.886786 
C 250.406237 227.626003 243.317919 229.035957 236.16 229.035957 
C 229.002081 229.035957 221.913763 227.626003 215.300708 224.886786 
C 208.687653 222.147569 202.678467 218.13236 197.617054 213.070946 
C 192.55564 208.009533 188.540431 202.000347 185.801214 195.387292 
C 183.061997 188.774237 181.652043 181.685919 181.652043 174.528 
C 181.652043 167.370081 183.061997 160.281763 185.801214 153.668708 
C 188.540431 147.055653 192.55564 141.046467 197.617054 135.985054 
C 202.678467 130.92364 208.687653 126.908431 215.300708 124.169214 
C 221.913763 121.429997 229.002081 120.020043 236.16 120.020043 
" clip-path="url(#p59d8fc3b5e)" style="fill: none; stroke: #b0b0b0; stroke-width: 0.8; stroke-linecap: square"/>
     </g>
     <g id="text_38">
      <!-- 4 -->
      <g transform="translate(274.702946 133.905366) scale(0.1 -0.1)">
       <use xlink:href="#DejaVuSans-34"/>
      </g>
     </g>
    </g>
    <g id="ytick_3">
     <g id="line2d_39">
      <path d="M 236.16 92.766064 
C 246.896879 92.766064 257.529356 94.880995 267.448938 98.989821 
C 277.368521 103.098646 286.382299 109.121461 293.974419 116.713581 
C 301.566539 124.305701 307.589354 133.319479 311.698179 143.239062 
C 315.807005 153.158644 317.921936 163.791121 317.921936 174.528 
C 317.921936 185.264879 315.807005 195.897356 311.698179 205.816938 
C 307.589354 215.736521 301.566539 224.750299 293.974419 232.342419 
C 286.382299 239.934539 277.368521 245.957354 267.448938 250.066179 
C 257.529356 254.175005 246.896879 256.289936 236.16 256.289936 
C 225.423121 256.289936 214.790644 254.175005 204.871062 250.066179 
C 194.951479 245.957354 185.937701 239.934539 178.345581 232.342419 
C 170.753461 224.750299 164.730646 215.736521 160.621821 205.816938 
C 156.512995 195.897356 154.398064 185.264879 154.398064 174.528 
C 154.398064 163.791121 156.512995 153.158644 160.621821 143.239062 
C 164.730646 133.319479 170.753461 124.305701 178.345581 116.713581 
C 185.937701 109.121461 194.951479 103.098646 204.871062 98.989821 
C 214.790644 94.880995 225.423121 92.766064 236.16 92.766064 
" clip-path="url(#p59d8fc3b5e)" style="fill: none; stroke: #b0b0b0; stroke-width: 0.8; stroke-linecap: square"/>
     </g>
     <g id="text_39">
      <!-- 6 -->
      <g transform="translate(293.974419 114.633893) scale(0.1 -0.1)">
       <use xlink:href="#DejaVuSans-36"/>
      </g>
     </g>
    </g>
    <g id="ytick_4">
     <g id="line2d_40">
      <path d="M 236.16 65.512085 
C 250.475839 65.512085 264.652474 68.331993 277.878584 73.810428 
C 291.104695 79.288862 303.123066 87.319281 313.245893 97.442107 
C 323.368719 107.564934 331.399138 119.583305 336.877572 132.809416 
C 342.356007 146.035526 345.175915 160.212161 345.175915 174.528 
C 345.175915 188.843839 342.356007 203.020474 336.877572 216.246584 
C 331.399138 229.472695 323.368719 241.491066 313.245893 251.613893 
C 303.123066 261.736719 291.104695 269.767138 277.878584 275.245572 
C 264.652474 280.724007 250.475839 283.543915 236.16 283.543915 
C 221.844161 283.543915 207.667526 280.724007 194.441416 275.245572 
C 181.215305 269.767138 169.196934 261.736719 159.074107 251.613893 
C 148.951281 241.491066 140.920862 229.472695 135.442428 216.246584 
C 129.963993 203.020474 127.144085 188.843839 127.144085 174.528 
C 127.144085 160.212161 129.963993 146.035526 135.442428 132.809416 
C 140.920862 119.583305 148.951281 107.564934 159.074107 97.442107 
C 169.196934 87.319281 181.215305 79.288862 194.441416 73.810428 
C 207.667526 68.331993 221.844161 65.512085 236.16 65.512085 
" clip-path="url(#p59d8fc3b5e)" style="fill: none; stroke: #b0b0b0; stroke-width: 0.8; stroke-linecap: square"/>
     </g>
     <g id="text_40">
      <!-- 8 -->
      <g transform="translate(313.245893 95.36242) scale(0.1 -0.1)">
       <use xlink:href="#DejaVuSans-38"/>
      </g>
     </g>
    </g>
   </g>
   <g id="patch_111">
    <path d="M 236.16 41.472 
C 218.687246 41.472 201.384393 44.913752 185.241673 51.600285 
C 169.098954 58.286818 154.430303 68.088097 142.0752 80.4432 
C 129.720097 92.798303 119.918818 107.466954 113.232285 123.609673 
C 106.545752 139.752393 103.104 157.055246 103.104 174.528 
C 103.104 192.000754 106.545752 209.303607 113.232285 225.446327 
C 119.918818 241.589046 129.720097 256.257697 142.0752 268.6128 
C 154.430303 280.967903 169.098954 290.769182 185.241673 297.455715 
C 201.384393 304.142248 218.687246 307.584 236.16 307.584 
C 253.632754 307.584 270.935607 304.142248 287.078327 297.455715 
C 303.221046 290.769182 317.889697 280.967903 330.2448 268.6128 
C 342.599903 256.257697 352.401182 241.589046 359.087715 225.446327 
C 365.774248 209.303607 369.216 192.000754 369.216 174.528 
C 369.216 157.055246 365.774248 139.752393 359.087715 123.609673 
C 352.401182 107.466954 342.599903 92.798303 330.2448 80.4432 
C 317.889697 68.088097 303.221046 58.286818 287.078327 51.600285 
C 270.935607 44.913752 253.632754 41.472 236.16 41.472 
" style="fill: none; stroke: #000000; stroke-width: 0.8; stroke-linejoin: miter; stroke-linecap: square"/>
   </g>
   <g id="text_41">
    <!-- Rose des vents -->
    <g transform="translate(190.808438 16.632938) scale(0.12 -0.12)">
     <defs>
      <path id="DejaVuSans-52" d="M 2841 2188 
Q 3044 2119 3236 1894 
Q 3428 1669 3622 1275 
L 4263 0 
L 3584 0 
L 2988 1197 
Q 2756 1666 2539 1819 
Q 2322 1972 1947 1972 
L 1259 1972 
L 1259 0 
L 628 0 
L 628 4666 
L 2053 4666 
Q 2853 4666 3247 4331 
Q 3641 3997 3641 3322 
Q 3641 2881 3436 2590 
Q 3231 2300 2841 2188 
z
M 1259 4147 
L 1259 2491 
L 2053 2491 
Q 2509 2491 2742 2702 
Q 2975 2913 2975 3322 
Q 2975 3731 2742 3939 
Q 2509 4147 2053 4147 
L 1259 4147 
z
" transform="scale(0.015625)"/>
      <path id="DejaVuSans-6f" d="M 1959 3097 
Q 1497 3097 1228 2736 
Q 959 2375 959 1747 
Q 959 1119 1226 758 
Q 1494 397 1959 397 
Q 2419 397 2687 759 
Q 2956 1122 2956 1747 
Q 2956 2369 2687 2733 
Q 2419 3097 1959 3097 
z
M 1959 3584 
Q 2709 3584 3137 3096 
Q 3566 2609 3566 1747 
Q 3566 888 3137 398 
Q 2709 -91 1959 -91 
Q 1206 -91 779 398 
Q 353 888 353 1747 
Q 353 2609 779 3096 
Q 1206 3584 1959 3584 
z
" transform="scale(0.015625)"/>
      <path id="DejaVuSans-73" d="M 2834 3397 
L 2834 2853 
Q 2591 2978 2328 3040 
Q 2066 3103 1784 3103 
Q 1356 3103 1142 2972 
Q 928 2841 928 2578 
Q 928 2378 1081 2264 
Q 1234 2150 1697 2047 
L 1894 2003 
Q 2506 1872 2764 1633 
Q 3022 1394 3022 966 
Q 3022 478 2636 193 
Q 2250 -91 1575 -91 
Q 1294 -91 989 -36 
Q 684 19 347 128 
L 347 722 
Q 666 556 975 473 
Q 1284 391 1588 391 
Q 1994 391 2212 530 
Q 2431 669 2431 922 
Q 2431 1156 2273 1281 
Q 2116 1406 1581 1522 
L 1381 1569 
Q 847 1681 609 1914 
Q 372 2147 372 2553 
Q 372 3047 722 3315 
Q 1072 3584 1716 3584 
Q 2034 3584 2315 3537 
Q 2597 3491 2834 3397 
z
" transform="scale(0.015625)"/>
      <path id="DejaVuSans-65" d="M 3597 1894 
L 3597 1613 
L 953 1613 
Q 991 1019 1311 708 
Q 1631 397 2203 397 
Q 2534 397 2845 478 
Q 3156 559 3463 722 
L 3463 178 
Q 3153 47 2828 -22 
Q 2503 -91 2169 -91 
Q 1331 -91 842 396 
Q 353 884 353 1716 
Q 353 2575 817 3079 
Q 1281 3584 2069 3584 
Q 2775 3584 3186 3129 
Q 3597 2675 3597 1894 
z
M 3022 2063 
Q 3016 2534 2758 2815 
Q 2500 3097 2075 3097 
Q 1594 3097 1305 2825 
Q 1016 2553 972 2059 
L 3022 2063 
z
" transform="scale(0.015625)"/>
      <path id="DejaVuSans-20" transform="scale(0.015625)"/>
      <path id="DejaVuSans-64" d="M 2906 2969 
L 2906 4863 
L 3481 4863 
L 3481 0 
L 2906 0 
L 2906 525 
Q 2725 213 2448 61 
Q 2172 -91 1784 -91 
Q 1150 -91 751 415 
Q 353 922 353 1747 
Q 353 2572 751 3078 
Q 1150 3584 1784 3584 
Q 2172 3584 2448 3432 
Q 2725 3281 2906 2969 
z
M 947 1747 
Q 947 1113 1208 752 
Q 1469 391 1925 391 
Q 2381 391 2643 752 
Q 2906 1113 2906 1747 
Q 2906 2381 2643 2742 
Q 2381 3103 1925 3103 
Q 1469 3103 1208 2742 
Q 947 2381 947 1747 
z
" transform="scale(0.015625)"/>
      <path id="DejaVuSans-76" d="M 191 3500 
L 800 3500 
L 1894 563 
L 2988 3500 
L 3597 3500 
L 2284 0 
L 1503 0 
L 191 3500 
z
" transform="scale(0.015625)"/>
      <path id="DejaVuSans-6e" d="M 3513 2113 
L 3513 0 
L 2938 0 
L 2938 2094 
Q 2938 2591 2744 2837 
Q 2550 3084 2163 3084 
Q 1697 3084 1428 2787 
Q 1159 2491 1159 1978 
L 1159 0 
L 581 0 
L 581 3500 
L 1159 3500 
L 1159 2956 
Q 1366 3272 1645 3428 
Q 1925 3584 2291 3584 
Q 2894 3584 3203 3211 
Q 3513 2838 3513 2113 
z
" transform="scale(0.015625)"/>
      <path id="DejaVuSans-74" d="M 1172 4494 
L 1172 3500 
L 2356 3500 
L 2356 3053 
L 1172 3053 
L 1172 1153 
Q 1172 725 1289 603 
Q 1406 481 1766 481 
L 2356 481 
L 2356 0 
L 1766 0 
Q 1100 0 847 248 
Q 594 497 594 1153 
L 594 3053 
L 172 3053 
L 172 3500 
L 594 3500 
L 594 4494 
L 1172 4494 
z
" transform="scale(0.015625)"/>
     </defs>
     <use xlink:href="#DejaVuSans-52"/>
     <use xlink:href="#DejaVuSans-6f" x="64.982422"/>
     <use xlink:href="#DejaVuSans-73" x="126.164062"/>
     <use xlink:href="#DejaVuSans-65" x="178.263672"/>
     <use xlink:href="#DejaVuSans-20" x="239.787109"/>
     <use xlink:href="#DejaVuSans-64" x="271.574219"/>
     <use xlink:href="#DejaVuSans-65" x="335.050781"/>
     <use xlink:href="#DejaVuSans-73" x="396.574219"/>
     <use xlink:href="#DejaVuSans-20" x="448.673828"/>
     <use xlink:href="#DejaVuSans-76" x="480.460938"/>
     <use xlink:href="#DejaVuSans-65" x="539.640625"/>
     <use xlink:href="#DejaVuSans-6e" x="601.164062"/>
     <use xlink:href="#DejaVuSans-74" x="664.542969"/>
     <use xlink:href="#DejaVuSans-73" x="703.751953"/>
    </g>
   </g>
   <g id="legend_1">
    <g id="patch_112">
     <path d="M 376.53824 88.506375 
L 473.01324 88.506375 
Q 475.01324 88.506375 475.01324 86.506375 
L 475.01324 43.472 
Q 475.01324 41.472 473.01324 41.472 
L 376.53824 41.472 
Q 374.53824 41.472 374.53824 43.472 
L 374.53824 86.506375 
Q 374.53824 88.506375 376.53824 88.506375 
z
" style="fill: #ffffff; opacity: 0.8; stroke: #cccccc; stroke-linejoin: miter"/>
    </g>
    <g id="patch_113">
     <path d="M 378.53824 53.070438 
L 398.53824 53.070438 
L 398.53824 46.070438 
L 378.53824 46.070438 
z
" style="fill: #ff0000"/>
    </g>
    <g id="text_42">
     <!-- &gt;8m/s -->
     <g transform="translate(406.53824 53.070438) scale(0.1 -0.1)">
      <defs>
       <path id="DejaVuSans-3e" d="M 678 3150 
L 678 3719 
L 4684 2266 
L 4684 1747 
L 678 294 
L 678 863 
L 3897 2003 
L 678 3150 
z
" transform="scale(0.015625)"/>
       <path id="DejaVuSans-6d" d="M 3328 2828 
Q 3544 3216 3844 3400 
Q 4144 3584 4550 3584 
Q 5097 3584 5394 3201 
Q 5691 2819 5691 2113 
L 5691 0 
L 5113 0 
L 5113 2094 
Q 5113 2597 4934 2840 
Q 4756 3084 4391 3084 
Q 3944 3084 3684 2787 
Q 3425 2491 3425 1978 
L 3425 0 
L 2847 0 
L 2847 2094 
Q 2847 2600 2669 2842 
Q 2491 3084 2119 3084 
Q 1678 3084 1418 2786 
Q 1159 2488 1159 1978 
L 1159 0 
L 581 0 
L 581 3500 
L 1159 3500 
L 1159 2956 
Q 1356 3278 1631 3431 
Q 1906 3584 2284 3584 
Q 2666 3584 2933 3390 
Q 3200 3197 3328 2828 
z
" transform="scale(0.015625)"/>
       <path id="DejaVuSans-2f" d="M 1625 4666 
L 2156 4666 
L 531 -594 
L 0 -594 
L 1625 4666 
z
" transform="scale(0.015625)"/>
      </defs>
      <use xlink:href="#DejaVuSans-3e"/>
      <use xlink:href="#DejaVuSans-38" x="83.789062"/>
      <use xlink:href="#DejaVuSans-6d" x="147.412109"/>
      <use xlink:href="#DejaVuSans-2f" x="244.824219"/>
      <use xlink:href="#DejaVuSans-73" x="278.515625"/>
     </g>
    </g>
    <g id="patch_114">
     <path d="M 378.53824 67.748563 
L 398.53824 67.748563 
L 398.53824 60.748563 
L 378.53824 60.748563 
z
" style="fill: #ffa500"/>
    </g>
    <g id="text_43">
     <!-- [4.5;8] m/s -->
     <g transform="translate(406.53824 67.748563) scale(0.1 -0.1)">
      <defs>
       <path id="DejaVuSans-5b" d="M 550 4863 
L 1875 4863 
L 1875 4416 
L 1125 4416 
L 1125 -397 
L 1875 -397 
L 1875 -844 
L 550 -844 
L 550 4863 
z
" transform="scale(0.015625)"/>
       <path id="DejaVuSans-2e" d="M 684 794 
L 1344 794 
L 1344 0 
L 684 0 
L 684 794 
z
" transform="scale(0.015625)"/>
       <path id="DejaVuSans-3b" d="M 750 3309 
L 1409 3309 
L 1409 2516 
L 750 2516 
L 750 3309 
z
M 750 794 
L 1409 794 
L 1409 256 
L 897 -744 
L 494 -744 
L 750 256 
L 750 794 
z
" transform="scale(0.015625)"/>
       <path id="DejaVuSans-5d" d="M 1947 4863 
L 1947 -844 
L 622 -844 
L 622 -397 
L 1369 -397 
L 1369 4416 
L 622 4416 
L 622 4863 
L 1947 4863 
z
" transform="scale(0.015625)"/>
      </defs>
      <use xlink:href="#DejaVuSans-5b"/>
      <use xlink:href="#DejaVuSans-34" x="39.013672"/>
      <use xlink:href="#DejaVuSans-2e" x="102.636719"/>
      <use xlink:href="#DejaVuSans-35" x="134.423828"/>
      <use xlink:href="#DejaVuSans-3b" x="198.046875"/>
      <use xlink:href="#DejaVuSans-38" x="231.738281"/>
      <use xlink:href="#DejaVuSans-5d" x="295.361328"/>
      <use xlink:href="#DejaVuSans-20" x="334.375"/>
      <use xlink:href="#DejaVuSans-6d" x="366.162109"/>
      <use xlink:href="#DejaVuSans-2f" x="463.574219"/>
      <use xlink:href="#DejaVuSans-73" x="497.265625"/>
     </g>
    </g>
    <g id="patch_115">
     <path d="M 378.53824 82.426688 
L 398.53824 82.426688 
L 398.53824 75.426688 
L 378.53824 75.426688 
z
" style="fill: #008000"/>
    </g>
    <g id="text_44">
     <!-- [1.5;4.5] m/s -->
     <g transform="translate(406.53824 82.426688) scale(0.1 -0.1)">
      <use xlink:href="#DejaVuSans-5b"/>
      <use xlink:href="#DejaVuSans-31" x="39.013672"/>
      <use xlink:href="#DejaVuSans-2e" x="102.636719"/>
      <use xlink:href="#DejaVuSans-35" x="134.423828"/>
      <use xlink:href="#DejaVuSans-3b" x="198.046875"/>
      <use xlink:href="#DejaVuSans-34" x="231.738281"/>
      <use xlink:href="#DejaVuSans-2e" x="295.361328"/>
      <use xlink:href="#DejaVuSans-35" x="327.148438"/>
      <use xlink:href="#DejaVuSans-5d" x="390.771484"/>
      <use xlink:href="#DejaVuSans-20" x="429.785156"/>
      <use xlink:href="#DejaVuSans-6d" x="461.572266"/>
      <use xlink:href="#DejaVuSans-2f" x="558.984375"/>
      <use xlink:href="#DejaVuSans-73" x="592.675781"/>
     </g>
    </g>
   </g>
  </g>
 </g>
 <defs>
  <clipPath id="p59d8fc3b5e">
   <path d="M 369.216 174.528 
C 369.216 157.055246 365.774248 139.752393 359.087715 123.609673 
C 352.401182 107.466954 342.599903 92.798303 330.2448 80.4432 
C 317.889697 68.088097 303.221046 58.286818 287.078327 51.600285 
C 270.935607 44.913752 253.632754 41.472 236.16 41.472 
C 218.687246 41.472 201.384393 44.913752 185.241673 51.600285 
C 169.098954 58.286818 154.430303 68.088097 142.0752 80.4432 
C 129.720097 92.798303 119.918818 107.466954 113.232285 123.609673 
C 106.545752 139.752393 103.104 157.055246 103.104 174.528 
C 103.104 192.000754 106.545752 209.303607 113.232285 225.446327 
C 119.918818 241.589046 129.720097 256.257697 142.0752 268.6128 
C 154.430303 280.967903 169.098954 290.769182 185.241673 297.455715 
C 201.384393 304.142248 218.687246 307.584 236.16 307.584 
C 253.632754 307.584 270.935607 304.142248 287.078327 297.455715 
C 303.221046 290.769182 317.889697 280.967903 330.2448 268.6128 
C 342.599903 256.257697 352.401182 241.589046 359.087715 225.446327 
C 365.774248 209.303607 369.216 192.000754 369.216 174.528 
M 236.16 174.528 
C 236.16 174.528 236.16 174.528 236.16 174.528 
C 236.16 174.528 236.16 174.528 236.16 174.528 
C 236.16 174.528 236.16 174.528 236.16 174.528 
C 236.16 174.528 236.16 174.528 236.16 174.528 
C 236.16 174.528 236.16 174.528 236.16 174.528 
C 236.16 174.528 236.16 174.528 236.16 174.528 
C 236.16 174.528 236.16 174.528 236.16 174.528 
C 236.16 174.528 236.16 174.528 236.16 174.528 
C 236.16 174.528 236.16 174.528 236.16 174.528 
C 236.16 174.528 236.16 174.528 236.16 174.528 
C 236.16 174.528 236.16 174.528 236.16 174.528 
C 236.16 174.528 236.16 174.528 236.16 174.528 
C 236.16 174.528 236.16 174.528 236.16 174.528 
C 236.16 174.528 236.16 174.528 236.16 174.528 
C 236.16 174.528 236.16 174.528 236.16 174.528 
C 236.16 174.528 236.16 174.528 236.16 174.528 
z
"/>
  </clipPath>
 </defs>
</svg>
