<?xml version="1.0" encoding="utf-8" standalone="no"?>
<!DOCTYPE svg PUBLIC "-//W3C//DTD SVG 1.1//EN"
  "http://www.w3.org/Graphics/SVG/1.1/DTD/svg11.dtd">
<svg xmlns:xlink="http://www.w3.org/1999/xlink" width="460.8pt" height="345.6pt" viewBox="0 0 460.8 345.6" xmlns="http://www.w3.org/2000/svg" version="1.1">
 <metadata>
  <rdf:RDF xmlns:dc="http://purl.org/dc/elements/1.1/" xmlns:cc="http://creativecommons.org/ns#" xmlns:rdf="http://www.w3.org/1999/02/22-rdf-syntax-ns#">
   <cc:Work>
    <dc:type rdf:resource="http://purl.org/dc/dcmitype/StillImage"/>
    <dc:date>2024-02-14T15:08:36.130657</dc:date>
    <dc:format>image/svg+xml</dc:format>
    <dc:creator>
     <cc:Agent>
      <dc:title>Matplotlib v3.8.0, https://matplotlib.org/</dc:title>
     </cc:Agent>
    </dc:creator>
   </cc:Work>
  </rdf:RDF>
 </metadata>
 <defs>
  <style type="text/css">*{stroke-linejoin: round; stroke-linecap: butt}</style>
 </defs>
 <g id="figure_1">
  <g id="patch_1">
   <path d="M 0 345.6 
L 460.8 345.6 
L 460.8 0 
L 0 0 
z
" style="fill: #ffffff"/>
  </g>
  <g id="axes_1">
   <g id="patch_2">
    <path d="M 369.216 174.528 
C 369.216 157.055246 365.774248 139.752393 359.087715 123.609673 
C 352.401182 107.466954 342.599903 92.798303 330.2448 80.4432 
C 317.889697 68.088097 303.221046 58.286818 287.078327 51.600285 
C 270.935607 44.913752 253.632754 41.472 236.16 41.472 
C 218.687246 41.472 201.384393 44.913752 185.241673 51.600285 
C 169.098954 58.286818 154.430303 68.088097 142.0752 80.4432 
C 129.720097 92.798303 119.918818 107.466954 113.232285 123.609673 
C 106.545752 139.752393 103.104 157.055246 103.104 174.528 
C 103.104 192.000754 106.545752 209.303607 113.232285 225.446327 
C 119.918818 241.589046 129.720097 256.257697 142.0752 268.6128 
C 154.430303 280.967903 169.098954 290.769182 185.241673 297.455715 
C 201.384393 304.142248 218.687246 307.584 236.16 307.584 
C 253.632754 307.584 270.935607 304.142248 287.078327 297.455715 
C 303.221046 290.769182 317.889697 280.967903 330.2448 268.6128 
C 342.599903 256.257697 352.401182 241.589046 359.087715 225.446327 
C 365.774248 209.303607 369.216 192.000754 369.216 174.528 
M 236.16 174.528 
C 236.16 174.528 236.16 174.528 236.16 174.528 
C 236.16 174.528 236.16 174.528 236.16 174.528 
C 236.16 174.528 236.16 174.528 236.16 174.528 
C 236.16 174.528 236.16 174.528 236.16 174.528 
C 236.16 174.528 236.16 174.528 236.16 174.528 
C 236.16 174.528 236.16 174.528 236.16 174.528 
C 236.16 174.528 236.16 174.528 236.16 174.528 
C 236.16 174.528 236.16 174.528 236.16 174.528 
C 236.16 174.528 236.16 174.528 236.16 174.528 
C 236.16 174.528 236.16 174.528 236.16 174.528 
C 236.16 174.528 236.16 174.528 236.16 174.528 
C 236.16 174.528 236.16 174.528 236.16 174.528 
C 236.16 174.528 236.16 174.528 236.16 174.528 
C 236.16 174.528 236.16 174.528 236.16 174.528 
C 236.16 174.528 236.16 174.528 236.16 174.528 
C 236.16 174.528 236.16 174.528 236.16 174.528 
z
" style="fill: #ffffff"/>
   </g>
   <g id="patch_3">
    <path d="M 236.16 174.528 
C 236.16 174.528 236.16 174.528 236.16 174.528 
C 236.16 174.528 236.16 174.528 236.16 174.528 
L 237.277735 161.752233 
C 236.906044 161.719714 236.533111 161.703432 236.16 161.703432 
C 235.786889 161.703432 235.413956 161.719714 235.042265 161.752233 
z
" clip-path="url(#pc85a77326c)" style="fill: #ff0000"/>
   </g>
   <g id="patch_4">
    <path d="M 236.16 174.528 
C 236.16 174.528 236.16 174.528 236.16 174.528 
C 236.16 174.528 236.16 174.528 236.16 174.528 
L 237.277735 161.752233 
C 236.906044 161.719714 236.533111 161.703432 236.16 161.703432 
C 235.786889 161.703432 235.413956 161.719714 235.042265 161.752233 
z
" clip-path="url(#pc85a77326c)" style="fill: #ffa500"/>
   </g>
   <g id="patch_5">
    <path d="M 236.16 174.528 
C 236.16 174.528 236.16 174.528 236.16 174.528 
C 236.16 174.528 236.16 174.528 236.16 174.528 
L 237.268099 161.862369 
C 236.899612 161.830131 236.529894 161.813988 236.16 161.813988 
C 235.790106 161.813988 235.420388 161.830131 235.051901 161.862369 
z
" clip-path="url(#pc85a77326c)" style="fill: #008000"/>
   </g>
   <g id="patch_6">
    <path d="M 236.16 174.528 
C 236.16 174.528 236.16 174.528 236.16 174.528 
C 236.16 174.528 236.16 174.528 236.16 174.528 
L 239.158764 163.336461 
C 238.833164 163.249216 238.503911 163.176223 238.171946 163.117688 
C 237.839981 163.059154 237.505619 163.015135 237.169816 162.985756 
z
" clip-path="url(#pc85a77326c)" style="fill: #ff0000"/>
   </g>
   <g id="patch_7">
    <path d="M 236.16 174.528 
C 236.16 174.528 236.16 174.528 236.16 174.528 
C 236.16 174.528 236.16 174.528 236.16 174.528 
L 239.158764 163.336461 
C 238.833164 163.249216 238.503911 163.176223 238.171946 163.117688 
C 237.839981 163.059154 237.505619 163.015135 237.169816 162.985756 
z
" clip-path="url(#pc85a77326c)" style="fill: #ffa500"/>
   </g>
   <g id="patch_8">
    <path d="M 236.16 174.528 
C 236.16 174.528 236.16 174.528 236.16 174.528 
C 236.16 174.528 236.16 174.528 236.16 174.528 
L 239.141595 163.400534 
C 238.817859 163.31379 238.490492 163.241214 238.160427 163.183015 
C 237.830362 163.124815 237.497915 163.081048 237.164034 163.051837 
z
" clip-path="url(#pc85a77326c)" style="fill: #008000"/>
   </g>
   <g id="patch_9">
    <path d="M 236.16 174.528 
C 236.16 174.528 236.16 174.528 236.16 174.528 
C 236.16 174.528 236.16 174.528 236.16 174.528 
L 240.15951 165.951023 
C 239.909976 165.834664 239.655483 165.729249 239.396758 165.635081 
C 239.138032 165.540913 238.87532 165.45808 238.609372 165.386819 
z
" clip-path="url(#pc85a77326c)" style="fill: #ff0000"/>
   </g>
   <g id="patch_10">
    <path d="M 236.16 174.528 
C 236.16 174.528 236.16 174.528 236.16 174.528 
C 236.16 174.528 236.16 174.528 236.16 174.528 
L 240.15951 165.951023 
C 239.909976 165.834664 239.655483 165.729249 239.396758 165.635081 
C 239.138032 165.540913 238.87532 165.45808 238.609372 165.386819 
z
" clip-path="url(#pc85a77326c)" style="fill: #ffa500"/>
   </g>
   <g id="patch_11">
    <path d="M 236.16 174.528 
C 236.16 174.528 236.16 174.528 236.16 174.528 
C 236.16 174.528 236.16 174.528 236.16 174.528 
L 240.15951 165.951023 
C 239.909976 165.834664 239.655483 165.729249 239.396758 165.635081 
C 239.138032 165.540913 238.87532 165.45808 238.609372 165.386819 
z
" clip-path="url(#pc85a77326c)" style="fill: #008000"/>
   </g>
   <g id="patch_12">
    <path d="M 236.16 174.528 
C 236.16 174.528 236.16 174.528 236.16 174.528 
C 236.16 174.528 236.16 174.528 236.16 174.528 
L 241.017411 167.590898 
C 240.815587 167.44958 240.607691 167.317136 240.394319 167.193945 
C 240.180946 167.070754 239.962298 166.956934 239.739001 166.852808 
z
" clip-path="url(#pc85a77326c)" style="fill: #ff0000"/>
   </g>
   <g id="patch_13">
    <path d="M 236.16 174.528 
C 236.16 174.528 236.16 174.528 236.16 174.528 
C 236.16 174.528 236.16 174.528 236.16 174.528 
L 241.004728 167.609011 
C 240.803431 167.468061 240.596079 167.335963 240.383263 167.213094 
C 240.170447 167.090225 239.952371 166.976701 239.729656 166.872848 
z
" clip-path="url(#pc85a77326c)" style="fill: #ffa500"/>
   </g>
   <g id="patch_14">
    <path d="M 236.16 174.528 
C 236.16 174.528 236.16 174.528 236.16 174.528 
C 236.16 174.528 236.16 174.528 236.16 174.528 
L 240.992046 167.627124 
C 240.791275 167.486543 240.584466 167.354791 240.372207 167.232243 
C 240.159949 167.109695 239.942443 166.996469 239.720311 166.892887 
z
" clip-path="url(#pc85a77326c)" style="fill: #008000"/>
   </g>
   <g id="patch_15">
    <path d="M 236.16 174.528 
C 236.16 174.528 236.16 174.528 236.16 174.528 
C 236.16 174.528 236.16 174.528 236.16 174.528 
L 242.367122 168.320878 
C 242.186535 168.140292 241.998154 167.967672 241.802515 167.803512 
C 241.606877 167.639352 241.404168 167.483807 241.194966 167.337323 
z
" clip-path="url(#pc85a77326c)" style="fill: #ff0000"/>
   </g>
   <g id="patch_16">
    <path d="M 236.16 174.528 
C 236.16 174.528 236.16 174.528 236.16 174.528 
C 236.16 174.528 236.16 174.528 236.16 174.528 
L 242.367122 168.320878 
C 242.186535 168.140292 241.998154 167.967672 241.802515 167.803512 
C 241.606877 167.639352 241.404168 167.483807 241.194966 167.337323 
z
" clip-path="url(#pc85a77326c)" style="fill: #ffa500"/>
   </g>
   <g id="patch_17">
    <path d="M 236.16 174.528 
C 236.16 174.528 236.16 174.528 236.16 174.528 
C 236.16 174.528 236.16 174.528 236.16 174.528 
L 242.351487 168.336513 
C 242.171355 168.156382 241.983448 167.984197 241.788303 167.82045 
C 241.593157 167.656704 241.390958 167.501551 241.182284 167.355436 
z
" clip-path="url(#pc85a77326c)" style="fill: #008000"/>
   </g>
   <g id="patch_18">
    <path d="M 236.16 174.528 
C 236.16 174.528 236.16 174.528 236.16 174.528 
C 236.16 174.528 236.16 174.528 236.16 174.528 
L 242.861639 169.835462 
C 242.725116 169.640488 242.580151 169.451565 242.427155 169.269232 
C 242.27416 169.086899 242.11328 168.91133 241.944975 168.743025 
z
" clip-path="url(#pc85a77326c)" style="fill: #ff0000"/>
   </g>
   <g id="patch_19">
    <path d="M 236.16 174.528 
C 236.16 174.528 236.16 174.528 236.16 174.528 
C 236.16 174.528 236.16 174.528 236.16 174.528 
L 242.861639 169.835462 
C 242.725116 169.640488 242.580151 169.451565 242.427155 169.269232 
C 242.27416 169.086899 242.11328 168.91133 241.944975 168.743025 
z
" clip-path="url(#pc85a77326c)" style="fill: #ffa500"/>
   </g>
   <g id="patch_20">
    <path d="M 236.16 174.528 
C 236.16 174.528 236.16 174.528 236.16 174.528 
C 236.16 174.528 236.16 174.528 236.16 174.528 
L 242.861639 169.835462 
C 242.725116 169.640488 242.580151 169.451565 242.427155 169.269232 
C 242.27416 169.086899 242.11328 168.91133 241.944975 168.743025 
z
" clip-path="url(#pc85a77326c)" style="fill: #008000"/>
   </g>
   <g id="patch_21">
    <path d="M 236.16 174.528 
C 236.16 174.528 236.16 174.528 236.16 174.528 
C 236.16 174.528 236.16 174.528 236.16 174.528 
L 244.235985 170.762106 
C 244.126422 170.527148 244.006658 170.297083 243.877034 170.072568 
C 243.747411 169.848053 243.608051 169.629302 243.459352 169.416939 
z
" clip-path="url(#pc85a77326c)" style="fill: #ff0000"/>
   </g>
   <g id="patch_22">
    <path d="M 236.16 174.528 
C 236.16 174.528 236.16 174.528 236.16 174.528 
C 236.16 174.528 236.16 174.528 236.16 174.528 
L 244.235985 170.762106 
C 244.126422 170.527148 244.006658 170.297083 243.877034 170.072568 
C 243.747411 169.848053 243.608051 169.629302 243.459352 169.416939 
z
" clip-path="url(#pc85a77326c)" style="fill: #ffa500"/>
   </g>
   <g id="patch_23">
    <path d="M 236.16 174.528 
C 236.16 174.528 236.16 174.528 236.16 174.528 
C 236.16 174.528 236.16 174.528 236.16 174.528 
L 244.195906 170.780796 
C 244.086887 170.547003 243.967717 170.31808 243.838736 170.094679 
C 243.709756 169.871279 243.571088 169.653613 243.423127 169.442304 
z
" clip-path="url(#pc85a77326c)" style="fill: #008000"/>
   </g>
   <g id="patch_24">
    <path d="M 236.16 174.528 
C 236.16 174.528 236.16 174.528 236.16 174.528 
C 236.16 174.528 236.16 174.528 236.16 174.528 
L 246.176855 171.843992 
C 246.098768 171.552567 246.008 171.264689 245.904811 170.981179 
C 245.801622 170.697669 245.686109 170.418797 245.558603 170.145359 
z
" clip-path="url(#pc85a77326c)" style="fill: #ff0000"/>
   </g>
   <g id="patch_25">
    <path d="M 236.16 174.528 
C 236.16 174.528 236.16 174.528 236.16 174.528 
C 236.16 174.528 236.16 174.528 236.16 174.528 
L 246.176855 171.843992 
C 246.098768 171.552567 246.008 171.264689 245.904811 170.981179 
C 245.801622 170.697669 245.686109 170.418797 245.558603 170.145359 
z
" clip-path="url(#pc85a77326c)" style="fill: #ffa500"/>
   </g>
   <g id="patch_26">
    <path d="M 236.16 174.528 
C 236.16 174.528 236.16 174.528 236.16 174.528 
C 236.16 174.528 236.16 174.528 236.16 174.528 
L 246.134139 171.855438 
C 246.056385 171.565256 245.966004 171.278605 245.863255 170.996304 
C 245.760506 170.714003 245.645486 170.43632 245.518524 170.164049 
z
" clip-path="url(#pc85a77326c)" style="fill: #008000"/>
   </g>
   <g id="patch_27">
    <path d="M 236.16 174.528 
C 236.16 174.528 236.16 174.528 236.16 174.528 
C 236.16 174.528 236.16 174.528 236.16 174.528 
L 248.36306 173.460371 
C 248.331999 173.105342 248.285459 172.751837 248.223574 172.400866 
C 248.161688 172.049896 248.084515 171.701793 247.992276 171.357551 
z
" clip-path="url(#pc85a77326c)" style="fill: #ff0000"/>
   </g>
   <g id="patch_28">
    <path d="M 236.16 174.528 
C 236.16 174.528 236.16 174.528 236.16 174.528 
C 236.16 174.528 236.16 174.528 236.16 174.528 
L 248.341033 173.462298 
C 248.310028 173.10791 248.263572 172.755043 248.201798 172.404706 
C 248.140024 172.054369 248.062991 171.706894 247.970918 171.363274 
z
" clip-path="url(#pc85a77326c)" style="fill: #ffa500"/>
   </g>
   <g id="patch_29">
    <path d="M 236.16 174.528 
C 236.16 174.528 236.16 174.528 236.16 174.528 
C 236.16 174.528 236.16 174.528 236.16 174.528 
L 247.944543 173.496986 
C 247.914548 173.154133 247.869604 172.812753 247.809841 172.473819 
C 247.750078 172.134885 247.675552 171.79872 247.586476 171.466285 
z
" clip-path="url(#pc85a77326c)" style="fill: #008000"/>
   </g>
   <g id="patch_30">
    <path d="M 236.16 174.528 
C 236.16 174.528 236.16 174.528 236.16 174.528 
C 236.16 174.528 236.16 174.528 236.16 174.528 
L 254.354454 176.119808 
C 254.400765 175.590469 254.423954 175.059361 254.423954 174.528 
C 254.423954 173.996639 254.400765 173.465531 254.354454 172.936192 
z
" clip-path="url(#pc85a77326c)" style="fill: #ff0000"/>
   </g>
   <g id="patch_31">
    <path d="M 236.16 174.528 
C 236.16 174.528 236.16 174.528 236.16 174.528 
C 236.16 174.528 236.16 174.528 236.16 174.528 
L 253.847829 176.075485 
C 253.89285 175.560885 253.915393 175.044565 253.915393 174.528 
C 253.915393 174.011435 253.89285 173.495115 253.847829 172.980515 
z
" clip-path="url(#pc85a77326c)" style="fill: #ffa500"/>
   </g>
   <g id="patch_32">
    <path d="M 236.16 174.528 
C 236.16 174.528 236.16 174.528 236.16 174.528 
C 236.16 174.528 236.16 174.528 236.16 174.528 
L 251.733219 175.89048 
C 251.772858 175.437402 251.792706 174.982809 251.792706 174.528 
C 251.792706 174.073191 251.772858 173.618598 251.733219 173.16552 
z
" clip-path="url(#pc85a77326c)" style="fill: #008000"/>
   </g>
   <g id="patch_33">
    <path d="M 236.16 174.528 
C 236.16 174.528 236.16 174.528 236.16 174.528 
C 236.16 174.528 236.16 174.528 236.16 174.528 
L 273.408176 184.508619 
C 273.698547 183.424941 273.941487 182.329108 274.136304 181.224247 
C 274.331121 180.119386 274.477629 179.006549 274.575409 177.888913 
z
" clip-path="url(#pc85a77326c)" style="fill: #ff0000"/>
   </g>
   <g id="patch_34">
    <path d="M 236.16 174.528 
C 236.16 174.528 236.16 174.528 236.16 174.528 
C 236.16 174.528 236.16 174.528 236.16 174.528 
L 270.610292 183.758928 
C 270.878851 182.75665 271.103543 181.74313 271.283726 180.721261 
C 271.463909 179.699391 271.599412 178.670144 271.689848 177.636459 
z
" clip-path="url(#pc85a77326c)" style="fill: #ffa500"/>
   </g>
   <g id="patch_35">
    <path d="M 236.16 174.528 
C 236.16 174.528 236.16 174.528 236.16 174.528 
C 236.16 174.528 236.16 174.528 236.16 174.528 
L 260.593437 181.07492 
C 260.783909 180.364067 260.943269 179.645241 261.071062 178.920492 
C 261.198854 178.195744 261.294958 177.465764 261.359099 176.732635 
z
" clip-path="url(#pc85a77326c)" style="fill: #008000"/>
   </g>
   <g id="patch_36">
    <path d="M 236.16 174.528 
C 236.16 174.528 236.16 174.528 236.16 174.528 
C 236.16 174.528 236.16 174.528 236.16 174.528 
L 308.463113 208.243495 
C 309.444013 206.139949 310.332646 203.994598 311.126477 201.813566 
C 311.920308 199.632534 312.61858 197.417897 313.219301 195.175977 
z
" clip-path="url(#pc85a77326c)" style="fill: #ff0000"/>
   </g>
   <g id="patch_37">
    <path d="M 236.16 174.528 
C 236.16 174.528 236.16 174.528 236.16 174.528 
C 236.16 174.528 236.16 174.528 236.16 174.528 
L 297.84209 203.290831 
C 298.6789 201.496287 299.436997 199.666079 300.114217 197.805431 
C 300.791438 195.944784 301.387137 194.055468 301.899614 192.142876 
z
" clip-path="url(#pc85a77326c)" style="fill: #ffa500"/>
   </g>
   <g id="patch_38">
    <path d="M 236.16 174.528 
C 236.16 174.528 236.16 174.528 236.16 174.528 
C 236.16 174.528 236.16 174.528 236.16 174.528 
L 272.892707 191.656742 
C 273.391041 190.588062 273.8425 189.498143 274.245796 188.390096 
C 274.649092 187.282049 275.003841 186.156931 275.309029 185.017951 
z
" clip-path="url(#pc85a77326c)" style="fill: #008000"/>
   </g>
   <g id="patch_39">
    <path d="M 236.16 174.528 
C 236.16 174.528 236.16 174.528 236.16 174.528 
C 236.16 174.528 236.16 174.528 236.16 174.528 
L 311.417589 227.223931 
C 312.950695 225.03443 314.387521 222.779065 315.723965 220.464276 
C 317.060409 218.149487 318.295199 215.777478 319.42481 213.355019 
z
" clip-path="url(#pc85a77326c)" style="fill: #ff0000"/>
   </g>
   <g id="patch_40">
    <path d="M 236.16 174.528 
C 236.16 174.528 236.16 174.528 236.16 174.528 
C 236.16 174.528 236.16 174.528 236.16 174.528 
L 300.876093 219.842696 
C 302.194453 217.959883 303.430019 216.020432 304.579265 214.029881 
C 305.72851 212.03933 306.790341 209.999573 307.761725 207.916433 
z
" clip-path="url(#pc85a77326c)" style="fill: #ffa500"/>
   </g>
   <g id="patch_41">
    <path d="M 236.16 174.528 
C 236.16 174.528 236.16 174.528 236.16 174.528 
C 236.16 174.528 236.16 174.528 236.16 174.528 
L 274.938941 201.681307 
C 275.728924 200.553094 276.469295 199.390944 277.157942 198.198173 
C 277.846588 197.005402 278.482854 195.783146 279.064924 194.534895 
z
" clip-path="url(#pc85a77326c)" style="fill: #008000"/>
   </g>
   <g id="patch_42">
    <path d="M 236.16 174.528 
C 236.16 174.528 236.16 174.528 236.16 174.528 
C 236.16 174.528 236.16 174.528 236.16 174.528 
L 278.484127 216.852127 
C 279.715482 215.620773 280.892513 214.336269 282.011862 213.002281 
C 283.131211 211.668292 284.191812 210.286091 285.190636 208.859621 
z
" clip-path="url(#pc85a77326c)" style="fill: #ff0000"/>
   </g>
   <g id="patch_43">
    <path d="M 236.16 174.528 
C 236.16 174.528 236.16 174.528 236.16 174.528 
C 236.16 174.528 236.16 174.528 236.16 174.528 
L 276.951891 215.319891 
C 278.138667 214.133115 279.273087 212.895112 280.351913 211.609418 
C 281.430739 210.323723 282.452943 208.991561 283.415608 207.616733 
z
" clip-path="url(#pc85a77326c)" style="fill: #ffa500"/>
   </g>
   <g id="patch_44">
    <path d="M 236.16 174.528 
C 236.16 174.528 236.16 174.528 236.16 174.528 
C 236.16 174.528 236.16 174.528 236.16 174.528 
L 266.726557 205.094557 
C 267.615843 204.205271 268.465897 203.277599 269.274293 202.314191 
C 270.082689 201.350782 270.848656 200.352554 271.570009 199.322355 
z
" clip-path="url(#pc85a77326c)" style="fill: #008000"/>
   </g>
   <g id="patch_45">
    <path d="M 236.16 174.528 
C 236.16 174.528 236.16 174.528 236.16 174.528 
C 236.16 174.528 236.16 174.528 236.16 174.528 
L 256.642293 203.779747 
C 257.493327 203.183846 258.317951 202.551091 259.11381 201.883285 
C 259.909669 201.21548 260.676006 200.513262 261.410634 199.778634 
z
" clip-path="url(#pc85a77326c)" style="fill: #ff0000"/>
   </g>
   <g id="patch_46">
    <path d="M 236.16 174.528 
C 236.16 174.528 236.16 174.528 236.16 174.528 
C 236.16 174.528 236.16 174.528 236.16 174.528 
L 256.47742 203.544284 
C 257.321604 202.95318 258.139589 202.325518 258.929042 201.663088 
C 259.718495 201.000658 260.478664 200.304092 261.207378 199.575378 
z
" clip-path="url(#pc85a77326c)" style="fill: #ffa500"/>
   </g>
   <g id="patch_47">
    <path d="M 236.16 174.528 
C 236.16 174.528 236.16 174.528 236.16 174.528 
C 236.16 174.528 236.16 174.528 236.16 174.528 
L 253.611168 199.45085 
C 254.336259 198.943136 255.038848 198.40402 255.71693 197.835042 
C 256.395012 197.266064 257.047941 196.667765 257.673853 196.041853 
z
" clip-path="url(#pc85a77326c)" style="fill: #008000"/>
   </g>
   <g id="patch_48">
    <path d="M 236.16 174.528 
C 236.16 174.528 236.16 174.528 236.16 174.528 
C 236.16 174.528 236.16 174.528 236.16 174.528 
L 243.149798 189.51767 
C 243.585899 189.314313 244.012918 189.092021 244.429635 188.851429 
C 244.846353 188.610836 245.252373 188.352173 245.646536 188.076177 
z
" clip-path="url(#pc85a77326c)" style="fill: #ff0000"/>
   </g>
   <g id="patch_49">
    <path d="M 236.16 174.528 
C 236.16 174.528 236.16 174.528 236.16 174.528 
C 236.16 174.528 236.16 174.528 236.16 174.528 
L 243.140453 189.49763 
C 243.575971 189.294545 244.002419 189.07255 244.41858 188.83228 
C 244.83474 188.592009 245.240217 188.333692 245.633853 188.058065 
z
" clip-path="url(#pc85a77326c)" style="fill: #ffa500"/>
   </g>
   <g id="patch_50">
    <path d="M 236.16 174.528 
C 236.16 174.528 236.16 174.528 236.16 174.528 
C 236.16 174.528 236.16 174.528 236.16 174.528 
L 242.701255 188.555766 
C 243.109371 188.365458 243.508987 188.157431 243.898964 187.932278 
C 244.28894 187.707125 244.668905 187.465061 245.037774 187.206776 
z
" clip-path="url(#pc85a77326c)" style="fill: #008000"/>
   </g>
   <g id="patch_51">
    <path d="M 236.16 174.528 
C 236.16 174.528 236.16 174.528 236.16 174.528 
C 236.16 174.528 236.16 174.528 236.16 174.528 
L 239.038584 185.271023 
C 239.351136 185.187275 239.659884 185.089928 239.963947 184.979258 
C 240.26801 184.868588 240.567098 184.744701 240.860359 184.607952 
z
" clip-path="url(#pc85a77326c)" style="fill: #ff0000"/>
   </g>
   <g id="patch_52">
    <path d="M 236.16 174.528 
C 236.16 174.528 236.16 174.528 236.16 174.528 
C 236.16 174.528 236.16 174.528 236.16 174.528 
L 239.038584 185.271023 
C 239.351136 185.187275 239.659884 185.089928 239.963947 184.979258 
C 240.26801 184.868588 240.567098 184.744701 240.860359 184.607952 
z
" clip-path="url(#pc85a77326c)" style="fill: #ffa500"/>
   </g>
   <g id="patch_53">
    <path d="M 236.16 174.528 
C 236.16 174.528 236.16 174.528 236.16 174.528 
C 236.16 174.528 236.16 174.528 236.16 174.528 
L 238.992802 185.10016 
C 239.300382 185.017744 239.60422 184.921945 239.903447 184.813035 
C 240.202674 184.704125 240.497005 184.582209 240.785601 184.447634 
z
" clip-path="url(#pc85a77326c)" style="fill: #008000"/>
   </g>
   <g id="patch_54">
    <path d="M 236.16 174.528 
C 236.16 174.528 236.16 174.528 236.16 174.528 
C 236.16 174.528 236.16 174.528 236.16 174.528 
L 237.597638 190.960279 
C 238.07571 190.918454 238.551728 190.855784 239.024335 190.772451 
C 239.496942 190.689118 239.965687 190.585199 240.429233 190.460993 
z
" clip-path="url(#pc85a77326c)" style="fill: #ff0000"/>
   </g>
   <g id="patch_55">
    <path d="M 236.16 174.528 
C 236.16 174.528 236.16 174.528 236.16 174.528 
C 236.16 174.528 236.16 174.528 236.16 174.528 
L 237.597638 190.960279 
C 238.07571 190.918454 238.551728 190.855784 239.024335 190.772451 
C 239.496942 190.689118 239.965687 190.585199 240.429233 190.460993 
z
" clip-path="url(#pc85a77326c)" style="fill: #ffa500"/>
   </g>
   <g id="patch_56">
    <path d="M 236.16 174.528 
C 236.16 174.528 236.16 174.528 236.16 174.528 
C 236.16 174.528 236.16 174.528 236.16 174.528 
L 237.591857 190.894198 
C 238.068006 190.85254 238.54211 190.790123 239.012816 190.707125 
C 239.483523 190.624127 239.950383 190.520626 240.412064 190.396919 
z
" clip-path="url(#pc85a77326c)" style="fill: #008000"/>
   </g>
   <g id="patch_57">
    <path d="M 236.16 174.528 
C 236.16 174.528 236.16 174.528 236.16 174.528 
C 236.16 174.528 236.16 174.528 236.16 174.528 
L 232.905079 211.731914 
C 233.987469 211.826611 235.073476 211.874027 236.16 211.874027 
C 237.246524 211.874027 238.332531 211.826611 239.414921 211.731914 
z
" clip-path="url(#pc85a77326c)" style="fill: #ff0000"/>
   </g>
   <g id="patch_58">
    <path d="M 236.16 174.528 
C 236.16 174.528 236.16 174.528 236.16 174.528 
C 236.16 174.528 236.16 174.528 236.16 174.528 
L 232.908934 211.68786 
C 233.990042 211.782444 235.074762 211.829804 236.16 211.829804 
C 237.245238 211.829804 238.329958 211.782444 239.411066 211.68786 
z
" clip-path="url(#pc85a77326c)" style="fill: #ffa500"/>
   </g>
   <g id="patch_59">
    <path d="M 236.16 174.528 
C 236.16 174.528 236.16 174.528 236.16 174.528 
C 236.16 174.528 236.16 174.528 236.16 174.528 
L 232.920496 211.555696 
C 233.997759 211.649945 235.078622 211.697136 236.16 211.697136 
C 237.241378 211.697136 238.322241 211.649945 239.399504 211.555696 
z
" clip-path="url(#pc85a77326c)" style="fill: #008000"/>
   </g>
   <g id="patch_60">
    <path d="M 236.16 174.528 
C 236.16 174.528 236.16 174.528 236.16 174.528 
C 236.16 174.528 236.16 174.528 236.16 174.528 
L 220.90293 231.468159 
C 222.559515 231.91204 224.234682 232.283416 225.92365 232.581226 
C 227.612618 232.879037 229.313778 233.102999 231.022274 233.252473 
z
" clip-path="url(#pc85a77326c)" style="fill: #ff0000"/>
   </g>
   <g id="patch_61">
    <path d="M 236.16 174.528 
C 236.16 174.528 236.16 174.528 236.16 174.528 
C 236.16 174.528 236.16 174.528 236.16 174.528 
L 220.90293 231.468159 
C 222.559515 231.91204 224.234682 232.283416 225.92365 232.581226 
C 227.612618 232.879037 229.313778 233.102999 231.022274 233.252473 
z
" clip-path="url(#pc85a77326c)" style="fill: #ffa500"/>
   </g>
   <g id="patch_62">
    <path d="M 236.16 174.528 
C 236.16 174.528 236.16 174.528 236.16 174.528 
C 236.16 174.528 236.16 174.528 236.16 174.528 
L 220.954436 231.275938 
C 222.605428 231.71832 224.27494 232.088442 225.958206 232.385248 
C 227.641472 232.682053 229.336889 232.905259 231.039619 233.054228 
z
" clip-path="url(#pc85a77326c)" style="fill: #008000"/>
   </g>
   <g id="patch_63">
    <path d="M 236.16 174.528 
C 236.16 174.528 236.16 174.528 236.16 174.528 
C 236.16 174.528 236.16 174.528 236.16 174.528 
L 217.947278 213.585308 
C 219.083589 214.115179 220.242483 214.595208 221.420652 215.024026 
C 222.59882 215.452845 223.795141 215.830043 225.006201 216.154546 
z
" clip-path="url(#pc85a77326c)" style="fill: #ff0000"/>
   </g>
   <g id="patch_64">
    <path d="M 236.16 174.528 
C 236.16 174.528 236.16 174.528 236.16 174.528 
C 236.16 174.528 236.16 174.528 236.16 174.528 
L 217.947278 213.585308 
C 219.083589 214.115179 220.242483 214.595208 221.420652 215.024026 
C 222.59882 215.452845 223.795141 215.830043 225.006201 216.154546 
z
" clip-path="url(#pc85a77326c)" style="fill: #ffa500"/>
   </g>
   <g id="patch_65">
    <path d="M 236.16 174.528 
C 236.16 174.528 236.16 174.528 236.16 174.528 
C 236.16 174.528 236.16 174.528 236.16 174.528 
L 218.050069 213.364872 
C 219.179967 213.891752 220.33232 214.369072 221.503839 214.79547 
C 222.675359 215.221868 223.864928 215.596938 225.069152 215.919609 
z
" clip-path="url(#pc85a77326c)" style="fill: #008000"/>
   </g>
   <g id="patch_66">
    <path d="M 236.16 174.528 
C 236.16 174.528 236.16 174.528 236.16 174.528 
C 236.16 174.528 236.16 174.528 236.16 174.528 
L 218.721515 199.432738 
C 219.446079 199.940083 220.192439 200.415567 220.958464 200.857832 
C 221.72449 201.300097 222.509451 201.708722 223.311107 202.08254 
z
" clip-path="url(#pc85a77326c)" style="fill: #ff0000"/>
   </g>
   <g id="patch_67">
    <path d="M 236.16 174.528 
C 236.16 174.528 236.16 174.528 236.16 174.528 
C 236.16 174.528 236.16 174.528 236.16 174.528 
L 218.721515 199.432738 
C 219.446079 199.940083 220.192439 200.415567 220.958464 200.857832 
C 221.72449 201.300097 222.509451 201.708722 223.311107 202.08254 
z
" clip-path="url(#pc85a77326c)" style="fill: #ffa500"/>
   </g>
   <g id="patch_68">
    <path d="M 236.16 174.528 
C 236.16 174.528 236.16 174.528 236.16 174.528 
C 236.16 174.528 236.16 174.528 236.16 174.528 
L 218.861023 199.2335 
C 219.579791 199.736787 220.32018 200.208466 221.080077 200.647193 
C 221.839974 201.08592 222.618655 201.491276 223.413898 201.862104 
z
" clip-path="url(#pc85a77326c)" style="fill: #008000"/>
   </g>
   <g id="patch_69">
    <path d="M 236.16 174.528 
C 236.16 174.528 236.16 174.528 236.16 174.528 
C 236.16 174.528 236.16 174.528 236.16 174.528 
L 222.041534 188.646466 
C 222.452289 189.057221 222.880773 189.449854 223.325765 189.823246 
C 223.770756 190.196638 224.23183 190.550433 224.707671 190.883621 
z
" clip-path="url(#pc85a77326c)" style="fill: #ff0000"/>
   </g>
   <g id="patch_70">
    <path d="M 236.16 174.528 
C 236.16 174.528 236.16 174.528 236.16 174.528 
C 236.16 174.528 236.16 174.528 236.16 174.528 
L 222.057169 188.630831 
C 222.467469 189.041131 222.895479 189.433329 223.339977 189.806308 
C 223.784476 190.179286 224.24504 190.532689 224.720354 190.865508 
z
" clip-path="url(#pc85a77326c)" style="fill: #ffa500"/>
   </g>
   <g id="patch_71">
    <path d="M 236.16 174.528 
C 236.16 174.528 236.16 174.528 236.16 174.528 
C 236.16 174.528 236.16 174.528 236.16 174.528 
L 222.291695 188.396305 
C 222.695172 188.799781 223.116064 189.185458 223.553171 189.552234 
C 223.990277 189.91901 224.443182 190.266536 224.910592 190.59382 
z
" clip-path="url(#pc85a77326c)" style="fill: #008000"/>
   </g>
   <g id="patch_72">
    <path d="M 236.16 174.528 
C 236.16 174.528 236.16 174.528 236.16 174.528 
C 236.16 174.528 236.16 174.528 236.16 174.528 
L 218.916865 186.601773 
C 219.268133 187.103435 219.641126 187.589529 220.034779 188.058667 
C 220.428433 188.527805 220.842372 188.97954 221.275416 189.412584 
z
" clip-path="url(#pc85a77326c)" style="fill: #ff0000"/>
   </g>
   <g id="patch_73">
    <path d="M 236.16 174.528 
C 236.16 174.528 236.16 174.528 236.16 174.528 
C 236.16 174.528 236.16 174.528 236.16 174.528 
L 218.971203 186.563725 
C 219.321363 187.063807 219.693181 187.548368 220.085594 188.016028 
C 220.478007 188.483688 220.890642 188.934 221.322321 189.365679 
z
" clip-path="url(#pc85a77326c)" style="fill: #ffa500"/>
   </g>
   <g id="patch_74">
    <path d="M 236.16 174.528 
C 236.16 174.528 236.16 174.528 236.16 174.528 
C 236.16 174.528 236.16 174.528 236.16 174.528 
L 219.605142 186.119837 
C 219.942388 186.601474 220.300492 187.068165 220.678433 187.518577 
C 221.056373 187.968989 221.45379 188.402693 221.869548 188.818452 
z
" clip-path="url(#pc85a77326c)" style="fill: #008000"/>
   </g>
   <g id="patch_75">
    <path d="M 236.16 174.528 
C 236.16 174.528 236.16 174.528 236.16 174.528 
C 236.16 174.528 236.16 174.528 236.16 174.528 
L 208.465182 187.442306 
C 208.840904 188.248043 209.251609 189.037 209.696125 189.806925 
C 210.140642 190.57685 210.618546 191.32701 211.128474 192.055263 
z
" clip-path="url(#pc85a77326c)" style="fill: #ff0000"/>
   </g>
   <g id="patch_76">
    <path d="M 236.16 174.528 
C 236.16 174.528 236.16 174.528 236.16 174.528 
C 236.16 174.528 236.16 174.528 236.16 174.528 
L 208.60546 187.376893 
C 208.979278 188.178549 209.387903 188.96351 209.830168 189.729536 
C 210.272433 190.495561 210.747917 191.241921 211.255262 191.966485 
z
" clip-path="url(#pc85a77326c)" style="fill: #ffa500"/>
   </g>
   <g id="patch_77">
    <path d="M 236.16 174.528 
C 236.16 174.528 236.16 174.528 236.16 174.528 
C 236.16 174.528 236.16 174.528 236.16 174.528 
L 210.729665 186.38636 
C 211.074665 187.126216 211.451789 187.850664 211.859959 188.557635 
C 212.268129 189.264607 212.706957 189.953429 213.175191 190.622136 
z
" clip-path="url(#pc85a77326c)" style="fill: #008000"/>
   </g>
   <g id="patch_78">
    <path d="M 236.16 174.528 
C 236.16 174.528 236.16 174.528 236.16 174.528 
C 236.16 174.528 236.16 174.528 236.16 174.528 
L 183.811789 188.554661 
C 184.219873 190.07765 184.694226 191.582105 185.233494 193.063732 
C 185.772762 194.545359 186.376432 196.002747 187.04278 197.431736 
z
" clip-path="url(#pc85a77326c)" style="fill: #ff0000"/>
   </g>
   <g id="patch_79">
    <path d="M 236.16 174.528 
C 236.16 174.528 236.16 174.528 236.16 174.528 
C 236.16 174.528 236.16 174.528 236.16 174.528 
L 185.434989 188.119726 
C 185.830419 189.59549 186.290064 191.053296 186.81261 192.488981 
C 187.335157 193.924666 187.920108 195.336864 188.565795 196.721542 
z
" clip-path="url(#pc85a77326c)" style="fill: #ffa500"/>
   </g>
   <g id="patch_80">
    <path d="M 236.16 174.528 
C 236.16 174.528 236.16 174.528 236.16 174.528 
C 236.16 174.528 236.16 174.528 236.16 174.528 
L 194.704318 185.636017 
C 195.027488 186.842105 195.403138 188.033516 195.830196 189.206848 
C 196.257254 190.380181 196.735314 191.534318 197.263009 192.665965 
z
" clip-path="url(#pc85a77326c)" style="fill: #008000"/>
   </g>
   <g id="patch_81">
    <path d="M 236.16 174.528 
C 236.16 174.528 236.16 174.528 236.16 174.528 
C 236.16 174.528 236.16 174.528 236.16 174.528 
L 138.227139 183.096015 
C 138.476412 185.945218 138.849906 188.782187 139.346555 191.598822 
C 139.843204 194.415458 140.462535 197.209079 141.20278 199.97171 
z
" clip-path="url(#pc85a77326c)" style="fill: #ff0000"/>
   </g>
   <g id="patch_82">
    <path d="M 236.16 174.528 
C 236.16 174.528 236.16 174.528 236.16 174.528 
C 236.16 174.528 236.16 174.528 236.16 174.528 
L 144.923403 182.510168 
C 145.155632 185.164554 145.503588 187.807541 145.966278 190.431587 
C 146.428968 193.055632 147.005951 195.658236 147.695581 198.23197 
z
" clip-path="url(#pc85a77326c)" style="fill: #ffa500"/>
   </g>
   <g id="patch_83">
    <path d="M 236.16 174.528 
C 236.16 174.528 236.16 174.528 236.16 174.528 
C 236.16 174.528 236.16 174.528 236.16 174.528 
L 169.307496 180.376836 
C 169.477659 182.321805 169.732619 184.258422 170.07165 186.181159 
C 170.41068 188.103896 170.833458 190.010923 171.338776 191.896795 
z
" clip-path="url(#pc85a77326c)" style="fill: #008000"/>
   </g>
   <g id="patch_84">
    <path d="M 236.16 174.528 
C 236.16 174.528 236.16 174.528 236.16 174.528 
C 236.16 174.528 236.16 174.528 236.16 174.528 
L 110.340724 163.52024 
C 110.020471 167.180755 109.860115 170.853502 109.860115 174.528 
C 109.860115 178.202498 110.020471 181.875245 110.340724 185.53576 
z
" clip-path="url(#pc85a77326c)" style="fill: #ff0000"/>
   </g>
   <g id="patch_85">
    <path d="M 236.16 174.528 
C 236.16 174.528 236.16 174.528 236.16 174.528 
C 236.16 174.528 236.16 174.528 236.16 174.528 
L 122.103241 164.549327 
C 121.812927 167.867629 121.667562 171.197022 121.667562 174.528 
C 121.667562 177.858978 121.812927 181.188371 122.103241 184.506673 
z
" clip-path="url(#pc85a77326c)" style="fill: #ffa500"/>
   </g>
   <g id="patch_86">
    <path d="M 236.16 174.528 
C 236.16 174.528 236.16 174.528 236.16 174.528 
C 236.16 174.528 236.16 174.528 236.16 174.528 
L 154.813609 167.411113 
C 154.606554 169.777759 154.502879 172.152314 154.502879 174.528 
C 154.502879 176.903686 154.606554 179.278241 154.813609 181.644887 
z
" clip-path="url(#pc85a77326c)" style="fill: #008000"/>
   </g>
   <g id="patch_87">
    <path d="M 236.16 174.528 
C 236.16 174.528 236.16 174.528 236.16 174.528 
C 236.16 174.528 236.16 174.528 236.16 174.528 
L 113.757879 141.730451 
C 112.803686 145.291549 112.005354 148.892592 111.365162 152.523303 
C 110.724969 156.154013 110.243527 159.810933 109.922208 163.483624 
z
" clip-path="url(#pc85a77326c)" style="fill: #ff0000"/>
   </g>
   <g id="patch_88">
    <path d="M 236.16 174.528 
C 236.16 174.528 236.16 174.528 236.16 174.528 
C 236.16 174.528 236.16 174.528 236.16 174.528 
L 123.646587 144.380122 
C 122.769481 147.653523 122.035645 150.963643 121.447173 154.301034 
C 120.858702 157.638424 120.416154 160.999906 120.120794 164.375885 
z
" clip-path="url(#pc85a77326c)" style="fill: #ffa500"/>
   </g>
   <g id="patch_89">
    <path d="M 236.16 174.528 
C 236.16 174.528 236.16 174.528 236.16 174.528 
C 236.16 174.528 236.16 174.528 236.16 174.528 
L 158.374531 153.685446 
C 157.768149 155.948493 157.260816 158.236924 156.85398 160.544209 
C 156.447143 162.851493 156.141191 165.175434 155.936995 167.509397 
z
" clip-path="url(#pc85a77326c)" style="fill: #008000"/>
   </g>
   <g id="patch_90">
    <path d="M 236.16 174.528 
C 236.16 174.528 236.16 174.528 236.16 174.528 
C 236.16 174.528 236.16 174.528 236.16 174.528 
L 138.206115 128.851353 
C 136.877225 131.701168 135.673333 134.607619 134.597877 137.56241 
C 133.522421 140.517201 132.576425 143.517519 131.762588 146.554798 
z
" clip-path="url(#pc85a77326c)" style="fill: #ff0000"/>
   </g>
   <g id="patch_91">
    <path d="M 236.16 174.528 
C 236.16 174.528 236.16 174.528 236.16 174.528 
C 236.16 174.528 236.16 174.528 236.16 174.528 
L 144.197975 131.645404 
C 142.950373 134.320895 141.820124 137.049558 140.810454 139.823603 
C 139.800784 142.597649 138.912654 145.414436 138.1486 148.265925 
z
" clip-path="url(#pc85a77326c)" style="fill: #ffa500"/>
   </g>
   <g id="patch_92">
    <path d="M 236.16 174.528 
C 236.16 174.528 236.16 174.528 236.16 174.528 
C 236.16 174.528 236.16 174.528 236.16 174.528 
L 170.85073 144.073787 
C 169.964713 145.973858 169.162036 147.911691 168.444992 149.881753 
C 167.727948 151.851815 167.097219 153.852231 166.554606 155.877291 
z
" clip-path="url(#pc85a77326c)" style="fill: #008000"/>
   </g>
   <g id="patch_93">
    <path d="M 236.16 174.528 
C 236.16 174.528 236.16 174.528 236.16 174.528 
C 236.16 174.528 236.16 174.528 236.16 174.528 
L 163.275153 123.493481 
C 161.790383 125.613951 160.398859 127.798208 159.10455 130.040015 
C 157.810242 132.281823 156.614383 134.579047 155.520386 136.925131 
z
" clip-path="url(#pc85a77326c)" style="fill: #ff0000"/>
   </g>
   <g id="patch_94">
    <path d="M 236.16 174.528 
C 236.16 174.528 236.16 174.528 236.16 174.528 
C 236.16 174.528 236.16 174.528 236.16 174.528 
L 167.549711 126.486559 
C 166.152021 128.482668 164.842106 130.538822 163.623707 132.649152 
C 162.405307 134.759482 161.279583 136.921978 160.249747 139.130468 
z
" clip-path="url(#pc85a77326c)" style="fill: #ffa500"/>
   </g>
   <g id="patch_95">
    <path d="M 236.16 174.528 
C 236.16 174.528 236.16 174.528 236.16 174.528 
C 236.16 174.528 236.16 174.528 236.16 174.528 
L 185.336222 138.940808 
C 184.300869 140.419446 183.330536 141.942563 182.427994 143.505812 
C 181.525452 145.069061 180.69156 146.670952 179.928699 148.306914 
z
" clip-path="url(#pc85a77326c)" style="fill: #008000"/>
   </g>
   <g id="patch_96">
    <path d="M 236.16 174.528 
C 236.16 174.528 236.16 174.528 236.16 174.528 
C 236.16 174.528 236.16 174.528 236.16 174.528 
L 188.535585 126.903585 
C 187.150027 128.289143 185.825595 129.734507 184.566069 131.235551 
C 183.306543 132.736596 182.113122 134.291892 180.989214 135.896999 
z
" clip-path="url(#pc85a77326c)" style="fill: #ff0000"/>
   </g>
   <g id="patch_97">
    <path d="M 236.16 174.528 
C 236.16 174.528 236.16 174.528 236.16 174.528 
C 236.16 174.528 236.16 174.528 236.16 174.528 
L 190.364888 128.732888 
C 189.03255 130.065225 187.758991 131.455071 186.547845 132.898459 
C 185.336698 134.341847 184.189118 135.837402 183.10838 137.380856 
z
" clip-path="url(#pc85a77326c)" style="fill: #ffa500"/>
   </g>
   <g id="patch_98">
    <path d="M 236.16 174.528 
C 236.16 174.528 236.16 174.528 236.16 174.528 
C 236.16 174.528 236.16 174.528 236.16 174.528 
L 200.558952 138.926952 
C 199.523195 139.962708 198.533132 141.043172 197.591588 142.16526 
C 196.650045 143.287348 195.757918 144.44999 194.917754 145.649869 
z
" clip-path="url(#pc85a77326c)" style="fill: #008000"/>
   </g>
   <g id="patch_99">
    <path d="M 236.16 174.528 
C 236.16 174.528 236.16 174.528 236.16 174.528 
C 236.16 174.528 236.16 174.528 236.16 174.528 
L 209.108154 135.89396 
C 207.984157 136.680991 206.895041 137.516698 205.843916 138.398697 
C 204.79279 139.280696 203.780656 140.208147 202.810401 141.178401 
z
" clip-path="url(#pc85a77326c)" style="fill: #ff0000"/>
   </g>
   <g id="patch_100">
    <path d="M 236.16 174.528 
C 236.16 174.528 236.16 174.528 236.16 174.528 
C 236.16 174.528 236.16 174.528 236.16 174.528 
L 209.615455 136.618461 
C 208.512536 137.390733 207.443845 138.210769 206.412431 139.076228 
C 205.381017 139.941687 204.387863 140.851745 203.435804 141.803804 
z
" clip-path="url(#pc85a77326c)" style="fill: #ffa500"/>
   </g>
   <g id="patch_101">
    <path d="M 236.16 174.528 
C 236.16 174.528 236.16 174.528 236.16 174.528 
C 236.16 174.528 236.16 174.528 236.16 174.528 
L 213.800691 142.595598 
C 212.871668 143.246107 211.971476 143.936849 211.102683 144.665853 
C 210.233891 145.394856 209.397326 146.161427 208.595376 146.963376 
z
" clip-path="url(#pc85a77326c)" style="fill: #008000"/>
   </g>
   <g id="patch_102">
    <path d="M 236.16 174.528 
C 236.16 174.528 236.16 174.528 236.16 174.528 
C 236.16 174.528 236.16 174.528 236.16 174.528 
L 223.105525 146.532587 
C 222.291042 146.912387 221.493522 147.32755 220.71524 147.776891 
C 219.936958 148.226232 219.178657 148.709323 218.442499 149.224786 
z
" clip-path="url(#pc85a77326c)" style="fill: #ff0000"/>
   </g>
   <g id="patch_103">
    <path d="M 236.16 174.528 
C 236.16 174.528 236.16 174.528 236.16 174.528 
C 236.16 174.528 236.16 174.528 236.16 174.528 
L 223.311107 146.97346 
C 222.509451 147.347278 221.72449 147.755903 220.958464 148.198168 
C 220.192439 148.640433 219.446079 149.115917 218.721515 149.623262 
z
" clip-path="url(#pc85a77326c)" style="fill: #ffa500"/>
   </g>
   <g id="patch_104">
    <path d="M 236.16 174.528 
C 236.16 174.528 236.16 174.528 236.16 174.528 
C 236.16 174.528 236.16 174.528 236.16 174.528 
L 224.694115 149.93933 
C 223.978746 150.272912 223.278276 150.637554 222.594702 151.032216 
C 221.911129 151.426877 221.245105 151.851181 220.59853 152.303918 
z
" clip-path="url(#pc85a77326c)" style="fill: #008000"/>
   </g>
   <g id="patch_105">
    <path d="M 236.16 174.528 
C 236.16 174.528 236.16 174.528 236.16 174.528 
C 236.16 174.528 236.16 174.528 236.16 174.528 
L 230.969392 155.156385 
C 230.405805 155.307398 229.849076 155.482934 229.300796 155.682492 
C 228.752515 155.882049 228.213205 156.105439 227.684403 156.352023 
z
" clip-path="url(#pc85a77326c)" style="fill: #ff0000"/>
   </g>
   <g id="patch_106">
    <path d="M 236.16 174.528 
C 236.16 174.528 236.16 174.528 236.16 174.528 
C 236.16 174.528 236.16 174.528 236.16 174.528 
L 230.980837 155.199101 
C 230.418493 155.349781 229.862992 155.524929 229.315921 155.724047 
C 228.768849 155.923165 228.230728 156.146062 227.703092 156.392103 
z
" clip-path="url(#pc85a77326c)" style="fill: #ffa500"/>
   </g>
   <g id="patch_107">
    <path d="M 236.16 174.528 
C 236.16 174.528 236.16 174.528 236.16 174.528 
C 236.16 174.528 236.16 174.528 236.16 174.528 
L 231.215473 156.074775 
C 230.678606 156.218628 230.148271 156.385842 229.625984 156.575939 
C 229.103697 156.766036 228.589954 156.978835 228.086223 157.213729 
z
" clip-path="url(#pc85a77326c)" style="fill: #008000"/>
   </g>
   <g id="patch_108">
    <path d="M 236.16 174.528 
C 236.16 174.528 236.16 174.528 236.16 174.528 
C 236.16 174.528 236.16 174.528 236.16 174.528 
L 234.872678 159.813841 
C 234.444592 159.851294 234.018345 159.90741 233.595153 159.98203 
C 233.171961 160.056651 232.752227 160.149703 232.337148 160.260923 
z
" clip-path="url(#pc85a77326c)" style="fill: #ff0000"/>
   </g>
   <g id="patch_109">
    <path d="M 236.16 174.528 
C 236.16 174.528 236.16 174.528 236.16 174.528 
C 236.16 174.528 236.16 174.528 236.16 174.528 
L 234.874605 159.835868 
C 234.44716 159.873265 234.021551 159.929297 233.598993 160.003806 
C 233.176434 160.078314 232.757328 160.171228 232.342871 160.282281 
z
" clip-path="url(#pc85a77326c)" style="fill: #ffa500"/>
   </g>
   <g id="patch_110">
    <path d="M 236.16 174.528 
C 236.16 174.528 236.16 174.528 236.16 174.528 
C 236.16 174.528 236.16 174.528 236.16 174.528 
L 234.895803 160.078167 
C 234.475408 160.114947 234.056818 160.170055 233.641228 160.243335 
C 233.225638 160.316615 232.813444 160.407996 232.405822 160.517218 
z
" clip-path="url(#pc85a77326c)" style="fill: #008000"/>
   </g>
   <g id="matplotlib.axis_1">
    <g id="xtick_1">
     <g id="line2d_1">
      <path d="M 236.16 174.528 
L 259.264932 43.49342 
" clip-path="url(#pc85a77326c)" style="fill: none; stroke: #b0b0b0; stroke-width: 0.8; stroke-linecap: square"/>
     </g>
     <g id="text_1">
      <!-- 10° -->
      <g transform="translate(252.833506 32.465486) scale(0.1 -0.1)">
       <defs>
        <path id="DejaVuSans-31" d="M 794 531 
L 1825 531 
L 1825 4091 
L 703 3866 
L 703 4441 
L 1819 4666 
L 2450 4666 
L 2450 531 
L 3481 531 
L 3481 0 
L 794 0 
L 794 531 
z
" transform="scale(0.015625)"/>
        <path id="DejaVuSans-30" d="M 2034 4250 
Q 1547 4250 1301 3770 
Q 1056 3291 1056 2328 
Q 1056 1369 1301 889 
Q 1547 409 2034 409 
Q 2525 409 2770 889 
Q 3016 1369 3016 2328 
Q 3016 3291 2770 3770 
Q 2525 4250 2034 4250 
z
M 2034 4750 
Q 2819 4750 3233 4129 
Q 3647 3509 3647 2328 
Q 3647 1150 3233 529 
Q 2819 -91 2034 -91 
Q 1250 -91 836 529 
Q 422 1150 422 2328 
Q 422 3509 836 4129 
Q 1250 4750 2034 4750 
z
" transform="scale(0.015625)"/>
        <path id="DejaVuSans-b0" d="M 1600 4347 
Q 1350 4347 1178 4173 
Q 1006 4000 1006 3750 
Q 1006 3503 1178 3333 
Q 1350 3163 1600 3163 
Q 1850 3163 2022 3333 
Q 2194 3503 2194 3750 
Q 2194 3997 2020 4172 
Q 1847 4347 1600 4347 
z
M 1600 4750 
Q 1800 4750 1984 4673 
Q 2169 4597 2303 4453 
Q 2447 4313 2519 4134 
Q 2591 3956 2591 3750 
Q 2591 3338 2302 3052 
Q 2013 2766 1594 2766 
Q 1172 2766 890 3047 
Q 609 3328 609 3750 
Q 609 4169 896 4459 
Q 1184 4750 1600 4750 
z
" transform="scale(0.015625)"/>
       </defs>
       <use xlink:href="#DejaVuSans-31"/>
       <use xlink:href="#DejaVuSans-30" x="63.623047"/>
       <use xlink:href="#DejaVuSans-b0" x="127.246094"/>
      </g>
     </g>
    </g>
    <g id="xtick_2">
     <g id="line2d_2">
      <path d="M 236.16 174.528 
L 281.667832 49.496259 
" clip-path="url(#pc85a77326c)" style="fill: none; stroke: #b0b0b0; stroke-width: 0.8; stroke-linecap: square"/>
     </g>
     <g id="text_2">
      <!-- 20° -->
      <g transform="translate(277.593614 39.099937) scale(0.1 -0.1)">
       <defs>
        <path id="DejaVuSans-32" d="M 1228 531 
L 3431 531 
L 3431 0 
L 469 0 
L 469 531 
Q 828 903 1448 1529 
Q 2069 2156 2228 2338 
Q 2531 2678 2651 2914 
Q 2772 3150 2772 3378 
Q 2772 3750 2511 3984 
Q 2250 4219 1831 4219 
Q 1534 4219 1204 4116 
Q 875 4013 500 3803 
L 500 4441 
Q 881 4594 1212 4672 
Q 1544 4750 1819 4750 
Q 2544 4750 2975 4387 
Q 3406 4025 3406 3419 
Q 3406 3131 3298 2873 
Q 3191 2616 2906 2266 
Q 2828 2175 2409 1742 
Q 1991 1309 1228 531 
z
" transform="scale(0.015625)"/>
       </defs>
       <use xlink:href="#DejaVuSans-32"/>
       <use xlink:href="#DejaVuSans-30" x="63.623047"/>
       <use xlink:href="#DejaVuSans-b0" x="127.246094"/>
      </g>
     </g>
    </g>
    <g id="xtick_3">
     <g id="line2d_3">
      <path d="M 236.16 174.528 
L 302.688 59.298124 
" clip-path="url(#pc85a77326c)" style="fill: none; stroke: #b0b0b0; stroke-width: 0.8; stroke-linecap: square"/>
     </g>
     <g id="text_3">
      <!-- 30° -->
      <g transform="translate(300.8255 49.933143) scale(0.1 -0.1)">
       <defs>
        <path id="DejaVuSans-33" d="M 2597 2516 
Q 3050 2419 3304 2112 
Q 3559 1806 3559 1356 
Q 3559 666 3084 287 
Q 2609 -91 1734 -91 
Q 1441 -91 1130 -33 
Q 819 25 488 141 
L 488 750 
Q 750 597 1062 519 
Q 1375 441 1716 441 
Q 2309 441 2620 675 
Q 2931 909 2931 1356 
Q 2931 1769 2642 2001 
Q 2353 2234 1838 2234 
L 1294 2234 
L 1294 2753 
L 1863 2753 
Q 2328 2753 2575 2939 
Q 2822 3125 2822 3475 
Q 2822 3834 2567 4026 
Q 2313 4219 1838 4219 
Q 1578 4219 1281 4162 
Q 984 4106 628 3988 
L 628 4550 
Q 988 4650 1302 4700 
Q 1616 4750 1894 4750 
Q 2613 4750 3031 4423 
Q 3450 4097 3450 3541 
Q 3450 3153 3228 2886 
Q 3006 2619 2597 2516 
z
" transform="scale(0.015625)"/>
       </defs>
       <use xlink:href="#DejaVuSans-33"/>
       <use xlink:href="#DejaVuSans-30" x="63.623047"/>
       <use xlink:href="#DejaVuSans-b0" x="127.246094"/>
      </g>
     </g>
    </g>
    <g id="xtick_4">
     <g id="line2d_4">
      <path d="M 236.16 174.528 
L 321.686748 72.601191 
" clip-path="url(#pc85a77326c)" style="fill: none; stroke: #b0b0b0; stroke-width: 0.8; stroke-linecap: square"/>
     </g>
     <g id="text_4">
      <!-- 40° -->
      <g transform="translate(321.823275 64.635943) scale(0.1 -0.1)">
       <defs>
        <path id="DejaVuSans-34" d="M 2419 4116 
L 825 1625 
L 2419 1625 
L 2419 4116 
z
M 2253 4666 
L 3047 4666 
L 3047 1625 
L 3713 1625 
L 3713 1100 
L 3047 1100 
L 3047 0 
L 2419 0 
L 2419 1100 
L 313 1100 
L 313 1709 
L 2253 4666 
z
" transform="scale(0.015625)"/>
       </defs>
       <use xlink:href="#DejaVuSans-34"/>
       <use xlink:href="#DejaVuSans-30" x="63.623047"/>
       <use xlink:href="#DejaVuSans-b0" x="127.246094"/>
      </g>
     </g>
    </g>
    <g id="xtick_5">
     <g id="line2d_5">
      <path d="M 236.16 174.528 
L 338.086809 89.001252 
" clip-path="url(#pc85a77326c)" style="fill: none; stroke: #b0b0b0; stroke-width: 0.8; stroke-linecap: square"/>
     </g>
     <g id="text_5">
      <!-- 50° -->
      <g transform="translate(339.948932 82.7616) scale(0.1 -0.1)">
       <defs>
        <path id="DejaVuSans-35" d="M 691 4666 
L 3169 4666 
L 3169 4134 
L 1269 4134 
L 1269 2991 
Q 1406 3038 1543 3061 
Q 1681 3084 1819 3084 
Q 2600 3084 3056 2656 
Q 3513 2228 3513 1497 
Q 3513 744 3044 326 
Q 2575 -91 1722 -91 
Q 1428 -91 1123 -41 
Q 819 9 494 109 
L 494 744 
Q 775 591 1075 516 
Q 1375 441 1709 441 
Q 2250 441 2565 725 
Q 2881 1009 2881 1497 
Q 2881 1984 2565 2268 
Q 2250 2553 1709 2553 
Q 1456 2553 1204 2497 
Q 953 2441 691 2322 
L 691 4666 
z
" transform="scale(0.015625)"/>
       </defs>
       <use xlink:href="#DejaVuSans-35"/>
       <use xlink:href="#DejaVuSans-30" x="63.623047"/>
       <use xlink:href="#DejaVuSans-b0" x="127.246094"/>
      </g>
     </g>
    </g>
    <g id="xtick_6">
     <g id="line2d_6">
      <path d="M 236.16 174.528 
L 351.389876 108 
" clip-path="url(#pc85a77326c)" style="fill: none; stroke: #b0b0b0; stroke-width: 0.8; stroke-linecap: square"/>
     </g>
     <g id="text_6">
      <!-- 60° -->
      <g transform="translate(354.651732 103.759375) scale(0.1 -0.1)">
       <defs>
        <path id="DejaVuSans-36" d="M 2113 2584 
Q 1688 2584 1439 2293 
Q 1191 2003 1191 1497 
Q 1191 994 1439 701 
Q 1688 409 2113 409 
Q 2538 409 2786 701 
Q 3034 994 3034 1497 
Q 3034 2003 2786 2293 
Q 2538 2584 2113 2584 
z
M 3366 4563 
L 3366 3988 
Q 3128 4100 2886 4159 
Q 2644 4219 2406 4219 
Q 1781 4219 1451 3797 
Q 1122 3375 1075 2522 
Q 1259 2794 1537 2939 
Q 1816 3084 2150 3084 
Q 2853 3084 3261 2657 
Q 3669 2231 3669 1497 
Q 3669 778 3244 343 
Q 2819 -91 2113 -91 
Q 1303 -91 875 529 
Q 447 1150 447 2328 
Q 447 3434 972 4092 
Q 1497 4750 2381 4750 
Q 2619 4750 2861 4703 
Q 3103 4656 3366 4563 
z
" transform="scale(0.015625)"/>
       </defs>
       <use xlink:href="#DejaVuSans-36"/>
       <use xlink:href="#DejaVuSans-30" x="63.623047"/>
       <use xlink:href="#DejaVuSans-b0" x="127.246094"/>
      </g>
     </g>
    </g>
    <g id="xtick_7">
     <g id="line2d_7">
      <path d="M 236.16 174.528 
L 361.191741 129.020168 
" clip-path="url(#pc85a77326c)" style="fill: none; stroke: #b0b0b0; stroke-width: 0.8; stroke-linecap: square"/>
     </g>
     <g id="text_7">
      <!-- 70° -->
      <g transform="translate(365.484938 126.991261) scale(0.1 -0.1)">
       <defs>
        <path id="DejaVuSans-37" d="M 525 4666 
L 3525 4666 
L 3525 4397 
L 1831 0 
L 1172 0 
L 2766 4134 
L 525 4134 
L 525 4666 
z
" transform="scale(0.015625)"/>
       </defs>
       <use xlink:href="#DejaVuSans-37"/>
       <use xlink:href="#DejaVuSans-30" x="63.623047"/>
       <use xlink:href="#DejaVuSans-b0" x="127.246094"/>
      </g>
     </g>
    </g>
    <g id="xtick_8">
     <g id="line2d_8">
      <path d="M 236.16 174.528 
L 367.19458 151.423068 
" clip-path="url(#pc85a77326c)" style="fill: none; stroke: #b0b0b0; stroke-width: 0.8; stroke-linecap: square"/>
     </g>
     <g id="text_8">
      <!-- 80° -->
      <g transform="translate(372.119389 151.751369) scale(0.1 -0.1)">
       <defs>
        <path id="DejaVuSans-38" d="M 2034 2216 
Q 1584 2216 1326 1975 
Q 1069 1734 1069 1313 
Q 1069 891 1326 650 
Q 1584 409 2034 409 
Q 2484 409 2743 651 
Q 3003 894 3003 1313 
Q 3003 1734 2745 1975 
Q 2488 2216 2034 2216 
z
M 1403 2484 
Q 997 2584 770 2862 
Q 544 3141 544 3541 
Q 544 4100 942 4425 
Q 1341 4750 2034 4750 
Q 2731 4750 3128 4425 
Q 3525 4100 3525 3541 
Q 3525 3141 3298 2862 
Q 3072 2584 2669 2484 
Q 3125 2378 3379 2068 
Q 3634 1759 3634 1313 
Q 3634 634 3220 271 
Q 2806 -91 2034 -91 
Q 1263 -91 848 271 
Q 434 634 434 1313 
Q 434 1759 690 2068 
Q 947 2378 1403 2484 
z
M 1172 3481 
Q 1172 3119 1398 2916 
Q 1625 2713 2034 2713 
Q 2441 2713 2670 2916 
Q 2900 3119 2900 3481 
Q 2900 3844 2670 4047 
Q 2441 4250 2034 4250 
Q 1625 4250 1398 4047 
Q 1172 3844 1172 3481 
z
" transform="scale(0.015625)"/>
       </defs>
       <use xlink:href="#DejaVuSans-38"/>
       <use xlink:href="#DejaVuSans-30" x="63.623047"/>
       <use xlink:href="#DejaVuSans-b0" x="127.246094"/>
      </g>
     </g>
    </g>
    <g id="xtick_9">
     <g id="line2d_9">
      <path d="M 236.16 174.528 
L 369.216 174.528 
" clip-path="url(#pc85a77326c)" style="fill: none; stroke: #b0b0b0; stroke-width: 0.8; stroke-linecap: square"/>
     </g>
     <g id="text_9">
      <!-- 90° -->
      <g transform="translate(374.3535 177.287375) scale(0.1 -0.1)">
       <defs>
        <path id="DejaVuSans-39" d="M 703 97 
L 703 672 
Q 941 559 1184 500 
Q 1428 441 1663 441 
Q 2288 441 2617 861 
Q 2947 1281 2994 2138 
Q 2813 1869 2534 1725 
Q 2256 1581 1919 1581 
Q 1219 1581 811 2004 
Q 403 2428 403 3163 
Q 403 3881 828 4315 
Q 1253 4750 1959 4750 
Q 2769 4750 3195 4129 
Q 3622 3509 3622 2328 
Q 3622 1225 3098 567 
Q 2575 -91 1691 -91 
Q 1453 -91 1209 -44 
Q 966 3 703 97 
z
M 1959 2075 
Q 2384 2075 2632 2365 
Q 2881 2656 2881 3163 
Q 2881 3666 2632 3958 
Q 2384 4250 1959 4250 
Q 1534 4250 1286 3958 
Q 1038 3666 1038 3163 
Q 1038 2656 1286 2365 
Q 1534 2075 1959 2075 
z
" transform="scale(0.015625)"/>
       </defs>
       <use xlink:href="#DejaVuSans-39"/>
       <use xlink:href="#DejaVuSans-30" x="63.623047"/>
       <use xlink:href="#DejaVuSans-b0" x="127.246094"/>
      </g>
     </g>
    </g>
    <g id="xtick_10">
     <g id="line2d_10">
      <path d="M 236.16 174.528 
L 367.19458 197.632932 
" clip-path="url(#pc85a77326c)" style="fill: none; stroke: #b0b0b0; stroke-width: 0.8; stroke-linecap: square"/>
     </g>
     <g id="text_10">
      <!-- 100° -->
      <g transform="translate(368.938139 202.823381) scale(0.1 -0.1)">
       <use xlink:href="#DejaVuSans-31"/>
       <use xlink:href="#DejaVuSans-30" x="63.623047"/>
       <use xlink:href="#DejaVuSans-30" x="127.246094"/>
       <use xlink:href="#DejaVuSans-b0" x="190.869141"/>
      </g>
     </g>
    </g>
    <g id="xtick_11">
     <g id="line2d_11">
      <path d="M 236.16 174.528 
L 361.191741 220.035832 
" clip-path="url(#pc85a77326c)" style="fill: none; stroke: #b0b0b0; stroke-width: 0.8; stroke-linecap: square"/>
     </g>
     <g id="text_11">
      <!-- 110° -->
      <g transform="translate(362.303688 227.583489) scale(0.1 -0.1)">
       <use xlink:href="#DejaVuSans-31"/>
       <use xlink:href="#DejaVuSans-31" x="63.623047"/>
       <use xlink:href="#DejaVuSans-30" x="127.246094"/>
       <use xlink:href="#DejaVuSans-b0" x="190.869141"/>
      </g>
     </g>
    </g>
    <g id="xtick_12">
     <g id="line2d_12">
      <path d="M 236.16 174.528 
L 351.389876 241.056 
" clip-path="url(#pc85a77326c)" style="fill: none; stroke: #b0b0b0; stroke-width: 0.8; stroke-linecap: square"/>
     </g>
     <g id="text_12">
      <!-- 120° -->
      <g transform="translate(351.470482 250.815375) scale(0.1 -0.1)">
       <use xlink:href="#DejaVuSans-31"/>
       <use xlink:href="#DejaVuSans-32" x="63.623047"/>
       <use xlink:href="#DejaVuSans-30" x="127.246094"/>
       <use xlink:href="#DejaVuSans-b0" x="190.869141"/>
      </g>
     </g>
    </g>
    <g id="xtick_13">
     <g id="line2d_13">
      <path d="M 236.16 174.528 
L 338.086809 260.054748 
" clip-path="url(#pc85a77326c)" style="fill: none; stroke: #b0b0b0; stroke-width: 0.8; stroke-linecap: square"/>
     </g>
     <g id="text_13">
      <!-- 130° -->
      <g transform="translate(336.767682 271.81315) scale(0.1 -0.1)">
       <use xlink:href="#DejaVuSans-31"/>
       <use xlink:href="#DejaVuSans-33" x="63.623047"/>
       <use xlink:href="#DejaVuSans-30" x="127.246094"/>
       <use xlink:href="#DejaVuSans-b0" x="190.869141"/>
      </g>
     </g>
    </g>
    <g id="xtick_14">
     <g id="line2d_14">
      <path d="M 236.16 174.528 
L 321.686748 276.454809 
" clip-path="url(#pc85a77326c)" style="fill: none; stroke: #b0b0b0; stroke-width: 0.8; stroke-linecap: square"/>
     </g>
     <g id="text_14">
      <!-- 140° -->
      <g transform="translate(318.642025 289.938807) scale(0.1 -0.1)">
       <use xlink:href="#DejaVuSans-31"/>
       <use xlink:href="#DejaVuSans-34" x="63.623047"/>
       <use xlink:href="#DejaVuSans-30" x="127.246094"/>
       <use xlink:href="#DejaVuSans-b0" x="190.869141"/>
      </g>
     </g>
    </g>
    <g id="xtick_15">
     <g id="line2d_15">
      <path d="M 236.16 174.528 
L 302.688 289.757876 
" clip-path="url(#pc85a77326c)" style="fill: none; stroke: #b0b0b0; stroke-width: 0.8; stroke-linecap: square"/>
     </g>
     <g id="text_15">
      <!-- 150° -->
      <g transform="translate(297.64425 304.641607) scale(0.1 -0.1)">
       <use xlink:href="#DejaVuSans-31"/>
       <use xlink:href="#DejaVuSans-35" x="63.623047"/>
       <use xlink:href="#DejaVuSans-30" x="127.246094"/>
       <use xlink:href="#DejaVuSans-b0" x="190.869141"/>
      </g>
     </g>
    </g>
    <g id="xtick_16">
     <g id="line2d_16">
      <path d="M 236.16 174.528 
L 281.667832 299.559741 
" clip-path="url(#pc85a77326c)" style="fill: none; stroke: #b0b0b0; stroke-width: 0.8; stroke-linecap: square"/>
     </g>
     <g id="text_16">
      <!-- 160° -->
      <g transform="translate(274.412364 315.474813) scale(0.1 -0.1)">
       <use xlink:href="#DejaVuSans-31"/>
       <use xlink:href="#DejaVuSans-36" x="63.623047"/>
       <use xlink:href="#DejaVuSans-30" x="127.246094"/>
       <use xlink:href="#DejaVuSans-b0" x="190.869141"/>
      </g>
     </g>
    </g>
    <g id="xtick_17">
     <g id="line2d_17">
      <path d="M 236.16 174.528 
L 259.264932 305.56258 
" clip-path="url(#pc85a77326c)" style="fill: none; stroke: #b0b0b0; stroke-width: 0.8; stroke-linecap: square"/>
     </g>
     <g id="text_17">
      <!-- 170° -->
      <g transform="translate(249.652256 322.109264) scale(0.1 -0.1)">
       <use xlink:href="#DejaVuSans-31"/>
       <use xlink:href="#DejaVuSans-37" x="63.623047"/>
       <use xlink:href="#DejaVuSans-30" x="127.246094"/>
       <use xlink:href="#DejaVuSans-b0" x="190.869141"/>
      </g>
     </g>
    </g>
    <g id="xtick_18">
     <g id="line2d_18">
      <path d="M 236.16 174.528 
L 236.16 307.584 
" clip-path="url(#pc85a77326c)" style="fill: none; stroke: #b0b0b0; stroke-width: 0.8; stroke-linecap: square"/>
     </g>
     <g id="text_18">
      <!-- 180° -->
      <g transform="translate(224.11625 324.343375) scale(0.1 -0.1)">
       <use xlink:href="#DejaVuSans-31"/>
       <use xlink:href="#DejaVuSans-38" x="63.623047"/>
       <use xlink:href="#DejaVuSans-30" x="127.246094"/>
       <use xlink:href="#DejaVuSans-b0" x="190.869141"/>
      </g>
     </g>
    </g>
    <g id="xtick_19">
     <g id="line2d_19">
      <path d="M 236.16 174.528 
L 213.055068 305.56258 
" clip-path="url(#pc85a77326c)" style="fill: none; stroke: #b0b0b0; stroke-width: 0.8; stroke-linecap: square"/>
     </g>
     <g id="text_19">
      <!-- 190° -->
      <g transform="translate(198.580244 322.109264) scale(0.1 -0.1)">
       <use xlink:href="#DejaVuSans-31"/>
       <use xlink:href="#DejaVuSans-39" x="63.623047"/>
       <use xlink:href="#DejaVuSans-30" x="127.246094"/>
       <use xlink:href="#DejaVuSans-b0" x="190.869141"/>
      </g>
     </g>
    </g>
    <g id="xtick_20">
     <g id="line2d_20">
      <path d="M 236.16 174.528 
L 190.652168 299.559741 
" clip-path="url(#pc85a77326c)" style="fill: none; stroke: #b0b0b0; stroke-width: 0.8; stroke-linecap: square"/>
     </g>
     <g id="text_20">
      <!-- 200° -->
      <g transform="translate(173.820136 315.474813) scale(0.1 -0.1)">
       <use xlink:href="#DejaVuSans-32"/>
       <use xlink:href="#DejaVuSans-30" x="63.623047"/>
       <use xlink:href="#DejaVuSans-30" x="127.246094"/>
       <use xlink:href="#DejaVuSans-b0" x="190.869141"/>
      </g>
     </g>
    </g>
    <g id="xtick_21">
     <g id="line2d_21">
      <path d="M 236.16 174.528 
L 169.632 289.757876 
" clip-path="url(#pc85a77326c)" style="fill: none; stroke: #b0b0b0; stroke-width: 0.8; stroke-linecap: square"/>
     </g>
     <g id="text_21">
      <!-- 210° -->
      <g transform="translate(150.58825 304.641607) scale(0.1 -0.1)">
       <use xlink:href="#DejaVuSans-32"/>
       <use xlink:href="#DejaVuSans-31" x="63.623047"/>
       <use xlink:href="#DejaVuSans-30" x="127.246094"/>
       <use xlink:href="#DejaVuSans-b0" x="190.869141"/>
      </g>
     </g>
    </g>
    <g id="xtick_22">
     <g id="line2d_22">
      <path d="M 236.16 174.528 
L 150.633252 276.454809 
" clip-path="url(#pc85a77326c)" style="fill: none; stroke: #b0b0b0; stroke-width: 0.8; stroke-linecap: square"/>
     </g>
     <g id="text_22">
      <!-- 220° -->
      <g transform="translate(129.590475 289.938807) scale(0.1 -0.1)">
       <use xlink:href="#DejaVuSans-32"/>
       <use xlink:href="#DejaVuSans-32" x="63.623047"/>
       <use xlink:href="#DejaVuSans-30" x="127.246094"/>
       <use xlink:href="#DejaVuSans-b0" x="190.869141"/>
      </g>
     </g>
    </g>
    <g id="xtick_23">
     <g id="line2d_23">
      <path d="M 236.16 174.528 
L 134.233191 260.054748 
" clip-path="url(#pc85a77326c)" style="fill: none; stroke: #b0b0b0; stroke-width: 0.8; stroke-linecap: square"/>
     </g>
     <g id="text_23">
      <!-- 230° -->
      <g transform="translate(111.464818 271.81315) scale(0.1 -0.1)">
       <use xlink:href="#DejaVuSans-32"/>
       <use xlink:href="#DejaVuSans-33" x="63.623047"/>
       <use xlink:href="#DejaVuSans-30" x="127.246094"/>
       <use xlink:href="#DejaVuSans-b0" x="190.869141"/>
      </g>
     </g>
    </g>
    <g id="xtick_24">
     <g id="line2d_24">
      <path d="M 236.16 174.528 
L 120.930124 241.056 
" clip-path="url(#pc85a77326c)" style="fill: none; stroke: #b0b0b0; stroke-width: 0.8; stroke-linecap: square"/>
     </g>
     <g id="text_24">
      <!-- 240° -->
      <g transform="translate(96.762018 250.815375) scale(0.1 -0.1)">
       <use xlink:href="#DejaVuSans-32"/>
       <use xlink:href="#DejaVuSans-34" x="63.623047"/>
       <use xlink:href="#DejaVuSans-30" x="127.246094"/>
       <use xlink:href="#DejaVuSans-b0" x="190.869141"/>
      </g>
     </g>
    </g>
    <g id="xtick_25">
     <g id="line2d_25">
      <path d="M 236.16 174.528 
L 111.128259 220.035832 
" clip-path="url(#pc85a77326c)" style="fill: none; stroke: #b0b0b0; stroke-width: 0.8; stroke-linecap: square"/>
     </g>
     <g id="text_25">
      <!-- 250° -->
      <g transform="translate(85.928812 227.583489) scale(0.1 -0.1)">
       <use xlink:href="#DejaVuSans-32"/>
       <use xlink:href="#DejaVuSans-35" x="63.623047"/>
       <use xlink:href="#DejaVuSans-30" x="127.246094"/>
       <use xlink:href="#DejaVuSans-b0" x="190.869141"/>
      </g>
     </g>
    </g>
    <g id="xtick_26">
     <g id="line2d_26">
      <path d="M 236.16 174.528 
L 105.12542 197.632932 
" clip-path="url(#pc85a77326c)" style="fill: none; stroke: #b0b0b0; stroke-width: 0.8; stroke-linecap: square"/>
     </g>
     <g id="text_26">
      <!-- 260° -->
      <g transform="translate(79.294361 202.823381) scale(0.1 -0.1)">
       <use xlink:href="#DejaVuSans-32"/>
       <use xlink:href="#DejaVuSans-36" x="63.623047"/>
       <use xlink:href="#DejaVuSans-30" x="127.246094"/>
       <use xlink:href="#DejaVuSans-b0" x="190.869141"/>
      </g>
     </g>
    </g>
    <g id="xtick_27">
     <g id="line2d_27">
      <path d="M 236.16 174.528 
L 103.104 174.528 
" clip-path="url(#pc85a77326c)" style="fill: none; stroke: #b0b0b0; stroke-width: 0.8; stroke-linecap: square"/>
     </g>
     <g id="text_27">
      <!-- 270° -->
      <g transform="translate(77.06025 177.287375) scale(0.1 -0.1)">
       <use xlink:href="#DejaVuSans-32"/>
       <use xlink:href="#DejaVuSans-37" x="63.623047"/>
       <use xlink:href="#DejaVuSans-30" x="127.246094"/>
       <use xlink:href="#DejaVuSans-b0" x="190.869141"/>
      </g>
     </g>
    </g>
    <g id="xtick_28">
     <g id="line2d_28">
      <path d="M 236.16 174.528 
L 105.12542 151.423068 
" clip-path="url(#pc85a77326c)" style="fill: none; stroke: #b0b0b0; stroke-width: 0.8; stroke-linecap: square"/>
     </g>
     <g id="text_28">
      <!-- 280° -->
      <g transform="translate(79.294361 151.751369) scale(0.1 -0.1)">
       <use xlink:href="#DejaVuSans-32"/>
       <use xlink:href="#DejaVuSans-38" x="63.623047"/>
       <use xlink:href="#DejaVuSans-30" x="127.246094"/>
       <use xlink:href="#DejaVuSans-b0" x="190.869141"/>
      </g>
     </g>
    </g>
    <g id="xtick_29">
     <g id="line2d_29">
      <path d="M 236.16 174.528 
L 111.128259 129.020168 
" clip-path="url(#pc85a77326c)" style="fill: none; stroke: #b0b0b0; stroke-width: 0.8; stroke-linecap: square"/>
     </g>
     <g id="text_29">
      <!-- 290° -->
      <g transform="translate(85.928812 126.991261) scale(0.1 -0.1)">
       <use xlink:href="#DejaVuSans-32"/>
       <use xlink:href="#DejaVuSans-39" x="63.623047"/>
       <use xlink:href="#DejaVuSans-30" x="127.246094"/>
       <use xlink:href="#DejaVuSans-b0" x="190.869141"/>
      </g>
     </g>
    </g>
    <g id="xtick_30">
     <g id="line2d_30">
      <path d="M 236.16 174.528 
L 120.930124 108 
" clip-path="url(#pc85a77326c)" style="fill: none; stroke: #b0b0b0; stroke-width: 0.8; stroke-linecap: square"/>
     </g>
     <g id="text_30">
      <!-- 300° -->
      <g transform="translate(96.762018 103.759375) scale(0.1 -0.1)">
       <use xlink:href="#DejaVuSans-33"/>
       <use xlink:href="#DejaVuSans-30" x="63.623047"/>
       <use xlink:href="#DejaVuSans-30" x="127.246094"/>
       <use xlink:href="#DejaVuSans-b0" x="190.869141"/>
      </g>
     </g>
    </g>
    <g id="xtick_31">
     <g id="line2d_31">
      <path d="M 236.16 174.528 
L 134.233191 89.001252 
" clip-path="url(#pc85a77326c)" style="fill: none; stroke: #b0b0b0; stroke-width: 0.8; stroke-linecap: square"/>
     </g>
     <g id="text_31">
      <!-- 310° -->
      <g transform="translate(111.464818 82.7616) scale(0.1 -0.1)">
       <use xlink:href="#DejaVuSans-33"/>
       <use xlink:href="#DejaVuSans-31" x="63.623047"/>
       <use xlink:href="#DejaVuSans-30" x="127.246094"/>
       <use xlink:href="#DejaVuSans-b0" x="190.869141"/>
      </g>
     </g>
    </g>
    <g id="xtick_32">
     <g id="line2d_32">
      <path d="M 236.16 174.528 
L 150.633252 72.601191 
" clip-path="url(#pc85a77326c)" style="fill: none; stroke: #b0b0b0; stroke-width: 0.8; stroke-linecap: square"/>
     </g>
     <g id="text_32">
      <!-- 320° -->
      <g transform="translate(129.590475 64.635943) scale(0.1 -0.1)">
       <use xlink:href="#DejaVuSans-33"/>
       <use xlink:href="#DejaVuSans-32" x="63.623047"/>
       <use xlink:href="#DejaVuSans-30" x="127.246094"/>
       <use xlink:href="#DejaVuSans-b0" x="190.869141"/>
      </g>
     </g>
    </g>
    <g id="xtick_33">
     <g id="line2d_33">
      <path d="M 236.16 174.528 
L 169.632 59.298124 
" clip-path="url(#pc85a77326c)" style="fill: none; stroke: #b0b0b0; stroke-width: 0.8; stroke-linecap: square"/>
     </g>
     <g id="text_33">
      <!-- 330° -->
      <g transform="translate(150.58825 49.933143) scale(0.1 -0.1)">
       <use xlink:href="#DejaVuSans-33"/>
       <use xlink:href="#DejaVuSans-33" x="63.623047"/>
       <use xlink:href="#DejaVuSans-30" x="127.246094"/>
       <use xlink:href="#DejaVuSans-b0" x="190.869141"/>
      </g>
     </g>
    </g>
    <g id="xtick_34">
     <g id="line2d_34">
      <path d="M 236.16 174.528 
L 190.652168 49.496259 
" clip-path="url(#pc85a77326c)" style="fill: none; stroke: #b0b0b0; stroke-width: 0.8; stroke-linecap: square"/>
     </g>
     <g id="text_34">
      <!-- 340° -->
      <g transform="translate(173.820136 39.099937) scale(0.1 -0.1)">
       <use xlink:href="#DejaVuSans-33"/>
       <use xlink:href="#DejaVuSans-34" x="63.623047"/>
       <use xlink:href="#DejaVuSans-30" x="127.246094"/>
       <use xlink:href="#DejaVuSans-b0" x="190.869141"/>
      </g>
     </g>
    </g>
    <g id="xtick_35">
     <g id="line2d_35">
      <path d="M 236.16 174.528 
L 213.055068 43.49342 
" clip-path="url(#pc85a77326c)" style="fill: none; stroke: #b0b0b0; stroke-width: 0.8; stroke-linecap: square"/>
     </g>
     <g id="text_35">
      <!-- 350° -->
      <g transform="translate(198.580244 32.465486) scale(0.1 -0.1)">
       <use xlink:href="#DejaVuSans-33"/>
       <use xlink:href="#DejaVuSans-35" x="63.623047"/>
       <use xlink:href="#DejaVuSans-30" x="127.246094"/>
       <use xlink:href="#DejaVuSans-b0" x="190.869141"/>
      </g>
     </g>
    </g>
    <g id="xtick_36">
     <g id="line2d_36">
      <path d="M 236.16 174.528 
L 236.16 41.472 
" clip-path="url(#pc85a77326c)" style="fill: none; stroke: #b0b0b0; stroke-width: 0.8; stroke-linecap: square"/>
     </g>
     <g id="text_36">
      <!-- 360° -->
      <g transform="translate(224.11625 30.231375) scale(0.1 -0.1)">
       <use xlink:href="#DejaVuSans-33"/>
       <use xlink:href="#DejaVuSans-36" x="63.623047"/>
       <use xlink:href="#DejaVuSans-30" x="127.246094"/>
       <use xlink:href="#DejaVuSans-b0" x="190.869141"/>
      </g>
     </g>
    </g>
   </g>
   <g id="matplotlib.axis_2">
    <g id="ytick_1">
     <g id="line2d_37">
      <path d="M 236.16 159.695945 
C 238.107728 159.695945 240.036516 160.079605 241.835982 160.824968 
C 243.635448 161.570331 245.270595 162.662902 246.647847 164.040153 
C 248.025098 165.417405 249.117669 167.052552 249.863032 168.852018 
C 250.608395 170.651484 250.992055 172.580272 250.992055 174.528 
C 250.992055 176.475728 250.608395 178.404516 249.863032 180.203982 
C 249.117669 182.003448 248.025098 183.638595 246.647847 185.015847 
C 245.270595 186.393098 243.635448 187.485669 241.835982 188.231032 
C 240.036516 188.976395 238.107728 189.360055 236.16 189.360055 
C 234.212272 189.360055 232.283484 188.976395 230.484018 188.231032 
C 228.684552 187.485669 227.049405 186.393098 225.672153 185.015847 
C 224.294902 183.638595 223.202331 182.003448 222.456968 180.203982 
C 221.711605 178.404516 221.327945 176.475728 221.327945 174.528 
C 221.327945 172.580272 221.711605 170.651484 222.456968 168.852018 
C 223.202331 167.052552 224.294902 165.417405 225.672153 164.040153 
C 227.049405 162.662902 228.684552 161.570331 230.484018 160.824968 
C 232.283484 160.079605 234.212272 159.695945 236.16 159.695945 
" clip-path="url(#pc85a77326c)" style="fill: none; stroke: #b0b0b0; stroke-width: 0.8; stroke-linecap: square"/>
     </g>
     <g id="text_37">
      <!-- 1 -->
      <g transform="translate(246.647847 161.960466) scale(0.1 -0.1)">
       <use xlink:href="#DejaVuSans-31"/>
      </g>
     </g>
    </g>
    <g id="ytick_2">
     <g id="line2d_38">
      <path d="M 236.16 144.863889 
C 240.055455 144.863889 243.913032 145.631209 247.511964 147.121935 
C 251.110895 148.612662 254.381191 150.797803 257.135694 153.552306 
C 259.890197 156.306809 262.075338 159.577105 263.566065 163.176036 
C 265.056791 166.774968 265.824111 170.632545 265.824111 174.528 
C 265.824111 178.423455 265.056791 182.281032 263.566065 185.879964 
C 262.075338 189.478895 259.890197 192.749191 257.135694 195.503694 
C 254.381191 198.258197 251.110895 200.443338 247.511964 201.934065 
C 243.913032 203.424791 240.055455 204.192111 236.16 204.192111 
C 232.264545 204.192111 228.406968 203.424791 224.808036 201.934065 
C 221.209105 200.443338 217.938809 198.258197 215.184306 195.503694 
C 212.429803 192.749191 210.244662 189.478895 208.753935 185.879964 
C 207.263209 182.281032 206.495889 178.423455 206.495889 174.528 
C 206.495889 170.632545 207.263209 166.774968 208.753935 163.176036 
C 210.244662 159.577105 212.429803 156.306809 215.184306 153.552306 
C 217.938809 150.797803 221.209105 148.612662 224.808036 147.121935 
C 228.406968 145.631209 232.264545 144.863889 236.16 144.863889 
" clip-path="url(#pc85a77326c)" style="fill: none; stroke: #b0b0b0; stroke-width: 0.8; stroke-linecap: square"/>
     </g>
     <g id="text_38">
      <!-- 2 -->
      <g transform="translate(257.135694 151.472619) scale(0.1 -0.1)">
       <use xlink:href="#DejaVuSans-32"/>
      </g>
     </g>
    </g>
    <g id="ytick_3">
     <g id="line2d_39">
      <path d="M 236.16 130.031834 
C 242.003183 130.031834 247.789548 131.182814 253.187945 133.418903 
C 258.586343 135.654992 263.491786 138.932705 267.623541 143.064459 
C 271.755295 147.196214 275.033008 152.101657 277.269097 157.500055 
C 279.505186 162.898452 280.656166 168.684817 280.656166 174.528 
C 280.656166 180.371183 279.505186 186.157548 277.269097 191.555945 
C 275.033008 196.954343 271.755295 201.859786 267.623541 205.991541 
C 263.491786 210.123295 258.586343 213.401008 253.187945 215.637097 
C 247.789548 217.873186 242.003183 219.024166 236.16 219.024166 
C 230.316817 219.024166 224.530452 217.873186 219.132055 215.637097 
C 213.733657 213.401008 208.828214 210.123295 204.696459 205.991541 
C 200.564705 201.859786 197.286992 196.954343 195.050903 191.555945 
C 192.814814 186.157548 191.663834 180.371183 191.663834 174.528 
C 191.663834 168.684817 192.814814 162.898452 195.050903 157.500055 
C 197.286992 152.101657 200.564705 147.196214 204.696459 143.064459 
C 208.828214 138.932705 213.733657 135.654992 219.132055 133.418903 
C 224.530452 131.182814 230.316817 130.031834 236.16 130.031834 
" clip-path="url(#pc85a77326c)" style="fill: none; stroke: #b0b0b0; stroke-width: 0.8; stroke-linecap: square"/>
     </g>
     <g id="text_39">
      <!-- 3 -->
      <g transform="translate(267.623541 140.984772) scale(0.1 -0.1)">
       <use xlink:href="#DejaVuSans-33"/>
      </g>
     </g>
    </g>
    <g id="ytick_4">
     <g id="line2d_40">
      <path d="M 236.16 115.199779 
C 243.950911 115.199779 251.666064 116.734418 258.863927 119.715871 
C 266.06179 122.697323 272.602382 127.067607 278.111387 132.576613 
C 283.620393 138.085618 287.990677 144.62621 290.972129 151.824073 
C 293.953582 159.021936 295.488221 166.737089 295.488221 174.528 
C 295.488221 182.318911 293.953582 190.034064 290.972129 197.231927 
C 287.990677 204.42979 283.620393 210.970382 278.111387 216.479387 
C 272.602382 221.988393 266.06179 226.358677 258.863927 229.340129 
C 251.666064 232.321582 243.950911 233.856221 236.16 233.856221 
C 228.369089 233.856221 220.653936 232.321582 213.456073 229.340129 
C 206.25821 226.358677 199.717618 221.988393 194.208613 216.479387 
C 188.699607 210.970382 184.329323 204.42979 181.347871 197.231927 
C 178.366418 190.034064 176.831779 182.318911 176.831779 174.528 
C 176.831779 166.737089 178.366418 159.021936 181.347871 151.824073 
C 184.329323 144.62621 188.699607 138.085618 194.208613 132.576613 
C 199.717618 127.067607 206.25821 122.697323 213.456073 119.715871 
C 220.653936 116.734418 228.369089 115.199779 236.16 115.199779 
" clip-path="url(#pc85a77326c)" style="fill: none; stroke: #b0b0b0; stroke-width: 0.8; stroke-linecap: square"/>
     </g>
     <g id="text_40">
      <!-- 4 -->
      <g transform="translate(278.111387 130.496925) scale(0.1 -0.1)">
       <use xlink:href="#DejaVuSans-34"/>
      </g>
     </g>
    </g>
    <g id="ytick_5">
     <g id="line2d_41">
      <path d="M 236.16 100.367724 
C 245.898638 100.367724 255.542581 102.286023 264.539909 106.012839 
C 273.537238 109.739654 281.712977 115.202509 288.599234 122.088766 
C 295.485491 128.975023 300.948346 137.150762 304.675161 146.148091 
C 308.401977 155.145419 310.320276 164.789362 310.320276 174.528 
C 310.320276 184.266638 308.401977 193.910581 304.675161 202.907909 
C 300.948346 211.905238 295.485491 220.080977 288.599234 226.967234 
C 281.712977 233.853491 273.537238 239.316346 264.539909 243.043161 
C 255.542581 246.769977 245.898638 248.688276 236.16 248.688276 
C 226.421362 248.688276 216.777419 246.769977 207.780091 243.043161 
C 198.782762 239.316346 190.607023 233.853491 183.720766 226.967234 
C 176.834509 220.080977 171.371654 211.905238 167.644839 202.907909 
C 163.918023 193.910581 161.999724 184.266638 161.999724 174.528 
C 161.999724 164.789362 163.918023 155.145419 167.644839 146.148091 
C 171.371654 137.150762 176.834509 128.975023 183.720766 122.088766 
C 190.607023 115.202509 198.782762 109.739654 207.780091 106.012839 
C 216.777419 102.286023 226.421362 100.367724 236.16 100.367724 
" clip-path="url(#pc85a77326c)" style="fill: none; stroke: #b0b0b0; stroke-width: 0.8; stroke-linecap: square"/>
     </g>
     <g id="text_41">
      <!-- 5 -->
      <g transform="translate(288.599234 120.009078) scale(0.1 -0.1)">
       <use xlink:href="#DejaVuSans-35"/>
      </g>
     </g>
    </g>
    <g id="ytick_6">
     <g id="line2d_42">
      <path d="M 236.16 85.535668 
C 247.846366 85.535668 259.419097 87.837628 270.215891 92.309806 
C 281.012685 96.781985 290.823573 103.33741 299.087081 111.600919 
C 307.35059 119.864427 313.906015 129.675315 318.378194 140.472109 
C 322.850372 151.268903 325.152332 162.841634 325.152332 174.528 
C 325.152332 186.214366 322.850372 197.787097 318.378194 208.583891 
C 313.906015 219.380685 307.35059 229.191573 299.087081 237.455081 
C 290.823573 245.71859 281.012685 252.274015 270.215891 256.746194 
C 259.419097 261.218372 247.846366 263.520332 236.16 263.520332 
C 224.473634 263.520332 212.900903 261.218372 202.104109 256.746194 
C 191.307315 252.274015 181.496427 245.71859 173.232919 237.455081 
C 164.96941 229.191573 158.413985 219.380685 153.941806 208.583891 
C 149.469628 197.787097 147.167668 186.214366 147.167668 174.528 
C 147.167668 162.841634 149.469628 151.268903 153.941806 140.472109 
C 158.413985 129.675315 164.96941 119.864427 173.232919 111.600919 
C 181.496427 103.33741 191.307315 96.781985 202.104109 92.309806 
C 212.900903 87.837628 224.473634 85.535668 236.16 85.535668 
" clip-path="url(#pc85a77326c)" style="fill: none; stroke: #b0b0b0; stroke-width: 0.8; stroke-linecap: square"/>
     </g>
     <g id="text_42">
      <!-- 6 -->
      <g transform="translate(299.087081 109.521231) scale(0.1 -0.1)">
       <use xlink:href="#DejaVuSans-36"/>
      </g>
     </g>
    </g>
    <g id="ytick_7">
     <g id="line2d_43">
      <path d="M 236.16 70.703613 
C 249.794094 70.703613 263.295613 73.389232 275.891873 78.606774 
C 288.488133 83.824316 299.934168 91.472312 309.574928 101.113072 
C 319.215688 110.753832 326.863684 122.199867 332.081226 134.796127 
C 337.298768 147.392387 339.984387 160.893906 339.984387 174.528 
C 339.984387 188.162094 337.298768 201.663613 332.081226 214.259873 
C 326.863684 226.856133 319.215688 238.302168 309.574928 247.942928 
C 299.934168 257.583688 288.488133 265.231684 275.891873 270.449226 
C 263.295613 275.666768 249.794094 278.352387 236.16 278.352387 
C 222.525906 278.352387 209.024387 275.666768 196.428127 270.449226 
C 183.831867 265.231684 172.385832 257.583688 162.745072 247.942928 
C 153.104312 238.302168 145.456316 226.856133 140.238774 214.259873 
C 135.021232 201.663613 132.335613 188.162094 132.335613 174.528 
C 132.335613 160.893906 135.021232 147.392387 140.238774 134.796127 
C 145.456316 122.199867 153.104312 110.753832 162.745072 101.113072 
C 172.385832 91.472312 183.831867 83.824316 196.428127 78.606774 
C 209.024387 73.389232 222.525906 70.703613 236.16 70.703613 
" clip-path="url(#pc85a77326c)" style="fill: none; stroke: #b0b0b0; stroke-width: 0.8; stroke-linecap: square"/>
     </g>
     <g id="text_43">
      <!-- 7 -->
      <g transform="translate(309.574928 99.033384) scale(0.1 -0.1)">
       <use xlink:href="#DejaVuSans-37"/>
      </g>
     </g>
    </g>
    <g id="ytick_8">
     <g id="line2d_44">
      <path d="M 236.16 55.871558 
C 251.741821 55.871558 267.172129 58.940837 281.567855 64.903742 
C 295.96358 70.866646 309.044763 79.607214 320.062775 90.625225 
C 331.080786 101.643237 339.821354 114.72442 345.784258 129.120145 
C 351.747163 143.515871 354.816442 158.946179 354.816442 174.528 
C 354.816442 190.109821 351.747163 205.540129 345.784258 219.935855 
C 339.821354 234.33158 331.080786 247.412763 320.062775 258.430775 
C 309.044763 269.448786 295.96358 278.189354 281.567855 284.152258 
C 267.172129 290.115163 251.741821 293.184442 236.16 293.184442 
C 220.578179 293.184442 205.147871 290.115163 190.752145 284.152258 
C 176.35642 278.189354 163.275237 269.448786 152.257225 258.430775 
C 141.239214 247.412763 132.498646 234.33158 126.535742 219.935855 
C 120.572837 205.540129 117.503558 190.109821 117.503558 174.528 
C 117.503558 158.946179 120.572837 143.515871 126.535742 129.120145 
C 132.498646 114.72442 141.239214 101.643237 152.257225 90.625225 
C 163.275237 79.607214 176.35642 70.866646 190.752145 64.903742 
C 205.147871 58.940837 220.578179 55.871558 236.16 55.871558 
" clip-path="url(#pc85a77326c)" style="fill: none; stroke: #b0b0b0; stroke-width: 0.8; stroke-linecap: square"/>
     </g>
     <g id="text_44">
      <!-- 8 -->
      <g transform="translate(320.062775 88.545538) scale(0.1 -0.1)">
       <use xlink:href="#DejaVuSans-38"/>
      </g>
     </g>
    </g>
   </g>
   <g id="patch_111">
    <path d="M 236.16 41.472 
C 218.687246 41.472 201.384393 44.913752 185.241673 51.600285 
C 169.098954 58.286818 154.430303 68.088097 142.0752 80.4432 
C 129.720097 92.798303 119.918818 107.466954 113.232285 123.609673 
C 106.545752 139.752393 103.104 157.055246 103.104 174.528 
C 103.104 192.000754 106.545752 209.303607 113.232285 225.446327 
C 119.918818 241.589046 129.720097 256.257697 142.0752 268.6128 
C 154.430303 280.967903 169.098954 290.769182 185.241673 297.455715 
C 201.384393 304.142248 218.687246 307.584 236.16 307.584 
C 253.632754 307.584 270.935607 304.142248 287.078327 297.455715 
C 303.221046 290.769182 317.889697 280.967903 330.2448 268.6128 
C 342.599903 256.257697 352.401182 241.589046 359.087715 225.446327 
C 365.774248 209.303607 369.216 192.000754 369.216 174.528 
C 369.216 157.055246 365.774248 139.752393 359.087715 123.609673 
C 352.401182 107.466954 342.599903 92.798303 330.2448 80.4432 
C 317.889697 68.088097 303.221046 58.286818 287.078327 51.600285 
C 270.935607 44.913752 253.632754 41.472 236.16 41.472 
" style="fill: none; stroke: #000000; stroke-width: 0.8; stroke-linejoin: miter; stroke-linecap: square"/>
   </g>
   <g id="text_45">
    <!-- Rose des vents -->
    <g transform="translate(190.808438 16.632938) scale(0.12 -0.12)">
     <defs>
      <path id="DejaVuSans-52" d="M 2841 2188 
Q 3044 2119 3236 1894 
Q 3428 1669 3622 1275 
L 4263 0 
L 3584 0 
L 2988 1197 
Q 2756 1666 2539 1819 
Q 2322 1972 1947 1972 
L 1259 1972 
L 1259 0 
L 628 0 
L 628 4666 
L 2053 4666 
Q 2853 4666 3247 4331 
Q 3641 3997 3641 3322 
Q 3641 2881 3436 2590 
Q 3231 2300 2841 2188 
z
M 1259 4147 
L 1259 2491 
L 2053 2491 
Q 2509 2491 2742 2702 
Q 2975 2913 2975 3322 
Q 2975 3731 2742 3939 
Q 2509 4147 2053 4147 
L 1259 4147 
z
" transform="scale(0.015625)"/>
      <path id="DejaVuSans-6f" d="M 1959 3097 
Q 1497 3097 1228 2736 
Q 959 2375 959 1747 
Q 959 1119 1226 758 
Q 1494 397 1959 397 
Q 2419 397 2687 759 
Q 2956 1122 2956 1747 
Q 2956 2369 2687 2733 
Q 2419 3097 1959 3097 
z
M 1959 3584 
Q 2709 3584 3137 3096 
Q 3566 2609 3566 1747 
Q 3566 888 3137 398 
Q 2709 -91 1959 -91 
Q 1206 -91 779 398 
Q 353 888 353 1747 
Q 353 2609 779 3096 
Q 1206 3584 1959 3584 
z
" transform="scale(0.015625)"/>
      <path id="DejaVuSans-73" d="M 2834 3397 
L 2834 2853 
Q 2591 2978 2328 3040 
Q 2066 3103 1784 3103 
Q 1356 3103 1142 2972 
Q 928 2841 928 2578 
Q 928 2378 1081 2264 
Q 1234 2150 1697 2047 
L 1894 2003 
Q 2506 1872 2764 1633 
Q 3022 1394 3022 966 
Q 3022 478 2636 193 
Q 2250 -91 1575 -91 
Q 1294 -91 989 -36 
Q 684 19 347 128 
L 347 722 
Q 666 556 975 473 
Q 1284 391 1588 391 
Q 1994 391 2212 530 
Q 2431 669 2431 922 
Q 2431 1156 2273 1281 
Q 2116 1406 1581 1522 
L 1381 1569 
Q 847 1681 609 1914 
Q 372 2147 372 2553 
Q 372 3047 722 3315 
Q 1072 3584 1716 3584 
Q 2034 3584 2315 3537 
Q 2597 3491 2834 3397 
z
" transform="scale(0.015625)"/>
      <path id="DejaVuSans-65" d="M 3597 1894 
L 3597 1613 
L 953 1613 
Q 991 1019 1311 708 
Q 1631 397 2203 397 
Q 2534 397 2845 478 
Q 3156 559 3463 722 
L 3463 178 
Q 3153 47 2828 -22 
Q 2503 -91 2169 -91 
Q 1331 -91 842 396 
Q 353 884 353 1716 
Q 353 2575 817 3079 
Q 1281 3584 2069 3584 
Q 2775 3584 3186 3129 
Q 3597 2675 3597 1894 
z
M 3022 2063 
Q 3016 2534 2758 2815 
Q 2500 3097 2075 3097 
Q 1594 3097 1305 2825 
Q 1016 2553 972 2059 
L 3022 2063 
z
" transform="scale(0.015625)"/>
      <path id="DejaVuSans-20" transform="scale(0.015625)"/>
      <path id="DejaVuSans-64" d="M 2906 2969 
L 2906 4863 
L 3481 4863 
L 3481 0 
L 2906 0 
L 2906 525 
Q 2725 213 2448 61 
Q 2172 -91 1784 -91 
Q 1150 -91 751 415 
Q 353 922 353 1747 
Q 353 2572 751 3078 
Q 1150 3584 1784 3584 
Q 2172 3584 2448 3432 
Q 2725 3281 2906 2969 
z
M 947 1747 
Q 947 1113 1208 752 
Q 1469 391 1925 391 
Q 2381 391 2643 752 
Q 2906 1113 2906 1747 
Q 2906 2381 2643 2742 
Q 2381 3103 1925 3103 
Q 1469 3103 1208 2742 
Q 947 2381 947 1747 
z
" transform="scale(0.015625)"/>
      <path id="DejaVuSans-76" d="M 191 3500 
L 800 3500 
L 1894 563 
L 2988 3500 
L 3597 3500 
L 2284 0 
L 1503 0 
L 191 3500 
z
" transform="scale(0.015625)"/>
      <path id="DejaVuSans-6e" d="M 3513 2113 
L 3513 0 
L 2938 0 
L 2938 2094 
Q 2938 2591 2744 2837 
Q 2550 3084 2163 3084 
Q 1697 3084 1428 2787 
Q 1159 2491 1159 1978 
L 1159 0 
L 581 0 
L 581 3500 
L 1159 3500 
L 1159 2956 
Q 1366 3272 1645 3428 
Q 1925 3584 2291 3584 
Q 2894 3584 3203 3211 
Q 3513 2838 3513 2113 
z
" transform="scale(0.015625)"/>
      <path id="DejaVuSans-74" d="M 1172 4494 
L 1172 3500 
L 2356 3500 
L 2356 3053 
L 1172 3053 
L 1172 1153 
Q 1172 725 1289 603 
Q 1406 481 1766 481 
L 2356 481 
L 2356 0 
L 1766 0 
Q 1100 0 847 248 
Q 594 497 594 1153 
L 594 3053 
L 172 3053 
L 172 3500 
L 594 3500 
L 594 4494 
L 1172 4494 
z
" transform="scale(0.015625)"/>
     </defs>
     <use xlink:href="#DejaVuSans-52"/>
     <use xlink:href="#DejaVuSans-6f" x="64.982422"/>
     <use xlink:href="#DejaVuSans-73" x="126.164062"/>
     <use xlink:href="#DejaVuSans-65" x="178.263672"/>
     <use xlink:href="#DejaVuSans-20" x="239.787109"/>
     <use xlink:href="#DejaVuSans-64" x="271.574219"/>
     <use xlink:href="#DejaVuSans-65" x="335.050781"/>
     <use xlink:href="#DejaVuSans-73" x="396.574219"/>
     <use xlink:href="#DejaVuSans-20" x="448.673828"/>
     <use xlink:href="#DejaVuSans-76" x="480.460938"/>
     <use xlink:href="#DejaVuSans-65" x="539.640625"/>
     <use xlink:href="#DejaVuSans-6e" x="601.164062"/>
     <use xlink:href="#DejaVuSans-74" x="664.542969"/>
     <use xlink:href="#DejaVuSans-73" x="703.751953"/>
    </g>
   </g>
   <g id="legend_1">
    <g id="patch_112">
     <path d="M 376.53824 88.506375 
L 458.049178 88.506375 
Q 460.049178 88.506375 460.049178 86.506375 
L 460.049178 43.472 
Q 460.049178 41.472 458.049178 41.472 
L 376.53824 41.472 
Q 374.53824 41.472 374.53824 43.472 
L 374.53824 86.506375 
Q 374.53824 88.506375 376.53824 88.506375 
z
" style="fill: #ffffff; opacity: 0.8; stroke: #cccccc; stroke-linejoin: miter"/>
    </g>
    <g id="patch_113">
     <path d="M 378.53824 53.070438 
L 398.53824 53.070438 
L 398.53824 46.070438 
L 378.53824 46.070438 
z
" style="fill: #ff0000"/>
    </g>
    <g id="text_46">
     <!-- &gt;15kt -->
     <g transform="translate(406.53824 53.070438) scale(0.1 -0.1)">
      <defs>
       <path id="DejaVuSans-3e" d="M 678 3150 
L 678 3719 
L 4684 2266 
L 4684 1747 
L 678 294 
L 678 863 
L 3897 2003 
L 678 3150 
z
" transform="scale(0.015625)"/>
       <path id="DejaVuSans-6b" d="M 581 4863 
L 1159 4863 
L 1159 1991 
L 2875 3500 
L 3609 3500 
L 1753 1863 
L 3688 0 
L 2938 0 
L 1159 1709 
L 1159 0 
L 581 0 
L 581 4863 
z
" transform="scale(0.015625)"/>
      </defs>
      <use xlink:href="#DejaVuSans-3e"/>
      <use xlink:href="#DejaVuSans-31" x="83.789062"/>
      <use xlink:href="#DejaVuSans-35" x="147.412109"/>
      <use xlink:href="#DejaVuSans-6b" x="211.035156"/>
      <use xlink:href="#DejaVuSans-74" x="268.945312"/>
     </g>
    </g>
    <g id="patch_114">
     <path d="M 378.53824 67.748563 
L 398.53824 67.748563 
L 398.53824 60.748563 
L 378.53824 60.748563 
z
" style="fill: #ffa500"/>
    </g>
    <g id="text_47">
     <!-- [10;15] kt -->
     <g transform="translate(406.53824 67.748563) scale(0.1 -0.1)">
      <defs>
       <path id="DejaVuSans-5b" d="M 550 4863 
L 1875 4863 
L 1875 4416 
L 1125 4416 
L 1125 -397 
L 1875 -397 
L 1875 -844 
L 550 -844 
L 550 4863 
z
" transform="scale(0.015625)"/>
       <path id="DejaVuSans-3b" d="M 750 3309 
L 1409 3309 
L 1409 2516 
L 750 2516 
L 750 3309 
z
M 750 794 
L 1409 794 
L 1409 256 
L 897 -744 
L 494 -744 
L 750 256 
L 750 794 
z
" transform="scale(0.015625)"/>
       <path id="DejaVuSans-5d" d="M 1947 4863 
L 1947 -844 
L 622 -844 
L 622 -397 
L 1369 -397 
L 1369 4416 
L 622 4416 
L 622 4863 
L 1947 4863 
z
" transform="scale(0.015625)"/>
      </defs>
      <use xlink:href="#DejaVuSans-5b"/>
      <use xlink:href="#DejaVuSans-31" x="39.013672"/>
      <use xlink:href="#DejaVuSans-30" x="102.636719"/>
      <use xlink:href="#DejaVuSans-3b" x="166.259766"/>
      <use xlink:href="#DejaVuSans-31" x="199.951172"/>
      <use xlink:href="#DejaVuSans-35" x="263.574219"/>
      <use xlink:href="#DejaVuSans-5d" x="327.197266"/>
      <use xlink:href="#DejaVuSans-20" x="366.210938"/>
      <use xlink:href="#DejaVuSans-6b" x="397.998047"/>
      <use xlink:href="#DejaVuSans-74" x="455.908203"/>
     </g>
    </g>
    <g id="patch_115">
     <path d="M 378.53824 82.426688 
L 398.53824 82.426688 
L 398.53824 75.426688 
L 378.53824 75.426688 
z
" style="fill: #008000"/>
    </g>
    <g id="text_48">
     <!-- [3;10]kt -->
     <g transform="translate(406.53824 82.426688) scale(0.1 -0.1)">
      <use xlink:href="#DejaVuSans-5b"/>
      <use xlink:href="#DejaVuSans-33" x="39.013672"/>
      <use xlink:href="#DejaVuSans-3b" x="102.636719"/>
      <use xlink:href="#DejaVuSans-31" x="136.328125"/>
      <use xlink:href="#DejaVuSans-30" x="199.951172"/>
      <use xlink:href="#DejaVuSans-5d" x="263.574219"/>
      <use xlink:href="#DejaVuSans-6b" x="302.587891"/>
      <use xlink:href="#DejaVuSans-74" x="360.498047"/>
     </g>
    </g>
   </g>
  </g>
 </g>
 <defs>
  <clipPath id="pc85a77326c">
   <path d="M 369.216 174.528 
C 369.216 157.055246 365.774248 139.752393 359.087715 123.609673 
C 352.401182 107.466954 342.599903 92.798303 330.2448 80.4432 
C 317.889697 68.088097 303.221046 58.286818 287.078327 51.600285 
C 270.935607 44.913752 253.632754 41.472 236.16 41.472 
C 218.687246 41.472 201.384393 44.913752 185.241673 51.600285 
C 169.098954 58.286818 154.430303 68.088097 142.0752 80.4432 
C 129.720097 92.798303 119.918818 107.466954 113.232285 123.609673 
C 106.545752 139.752393 103.104 157.055246 103.104 174.528 
C 103.104 192.000754 106.545752 209.303607 113.232285 225.446327 
C 119.918818 241.589046 129.720097 256.257697 142.0752 268.6128 
C 154.430303 280.967903 169.098954 290.769182 185.241673 297.455715 
C 201.384393 304.142248 218.687246 307.584 236.16 307.584 
C 253.632754 307.584 270.935607 304.142248 287.078327 297.455715 
C 303.221046 290.769182 317.889697 280.967903 330.2448 268.6128 
C 342.599903 256.257697 352.401182 241.589046 359.087715 225.446327 
C 365.774248 209.303607 369.216 192.000754 369.216 174.528 
M 236.16 174.528 
C 236.16 174.528 236.16 174.528 236.16 174.528 
C 236.16 174.528 236.16 174.528 236.16 174.528 
C 236.16 174.528 236.16 174.528 236.16 174.528 
C 236.16 174.528 236.16 174.528 236.16 174.528 
C 236.16 174.528 236.16 174.528 236.16 174.528 
C 236.16 174.528 236.16 174.528 236.16 174.528 
C 236.16 174.528 236.16 174.528 236.16 174.528 
C 236.16 174.528 236.16 174.528 236.16 174.528 
C 236.16 174.528 236.16 174.528 236.16 174.528 
C 236.16 174.528 236.16 174.528 236.16 174.528 
C 236.16 174.528 236.16 174.528 236.16 174.528 
C 236.16 174.528 236.16 174.528 236.16 174.528 
C 236.16 174.528 236.16 174.528 236.16 174.528 
C 236.16 174.528 236.16 174.528 236.16 174.528 
C 236.16 174.528 236.16 174.528 236.16 174.528 
C 236.16 174.528 236.16 174.528 236.16 174.528 
z
"/>
  </clipPath>
 </defs>
</svg>
