<?xml version="1.0" encoding="utf-8" standalone="no"?>
<!DOCTYPE svg PUBLIC "-//W3C//DTD SVG 1.1//EN"
  "http://www.w3.org/Graphics/SVG/1.1/DTD/svg11.dtd">
<svg xmlns:xlink="http://www.w3.org/1999/xlink" width="460.8pt" height="345.6pt" viewBox="0 0 460.8 345.6" xmlns="http://www.w3.org/2000/svg" version="1.1">
 <metadata>
  <rdf:RDF xmlns:dc="http://purl.org/dc/elements/1.1/" xmlns:cc="http://creativecommons.org/ns#" xmlns:rdf="http://www.w3.org/1999/02/22-rdf-syntax-ns#">
   <cc:Work>
    <dc:type rdf:resource="http://purl.org/dc/dcmitype/StillImage"/>
    <dc:date>2024-01-30T00:23:54.038391</dc:date>
    <dc:format>image/svg+xml</dc:format>
    <dc:creator>
     <cc:Agent>
      <dc:title>Matplotlib v3.8.0, https://matplotlib.org/</dc:title>
     </cc:Agent>
    </dc:creator>
   </cc:Work>
  </rdf:RDF>
 </metadata>
 <defs>
  <style type="text/css">*{stroke-linejoin: round; stroke-linecap: butt}</style>
 </defs>
 <g id="figure_1">
  <g id="patch_1">
   <path d="M 0 345.6 
L 460.8 345.6 
L 460.8 0 
L 0 0 
z
" style="fill: #ffffff"/>
  </g>
  <g id="axes_1">
   <g id="patch_2">
    <path d="M 369.216 174.528 
C 369.216 157.055246 365.774248 139.752393 359.087715 123.609673 
C 352.401182 107.466954 342.599903 92.798303 330.2448 80.4432 
C 317.889697 68.088097 303.221046 58.286818 287.078327 51.600285 
C 270.935607 44.913752 253.632754 41.472 236.16 41.472 
C 218.687246 41.472 201.384393 44.913752 185.241673 51.600285 
C 169.098954 58.286818 154.430303 68.088097 142.0752 80.4432 
C 129.720097 92.798303 119.918818 107.466954 113.232285 123.609673 
C 106.545752 139.752393 103.104 157.055246 103.104 174.528 
C 103.104 192.000754 106.545752 209.303607 113.232285 225.446327 
C 119.918818 241.589046 129.720097 256.257697 142.0752 268.6128 
C 154.430303 280.967903 169.098954 290.769182 185.241673 297.455715 
C 201.384393 304.142248 218.687246 307.584 236.16 307.584 
C 253.632754 307.584 270.935607 304.142248 287.078327 297.455715 
C 303.221046 290.769182 317.889697 280.967903 330.2448 268.6128 
C 342.599903 256.257697 352.401182 241.589046 359.087715 225.446327 
C 365.774248 209.303607 369.216 192.000754 369.216 174.528 
M 236.16 174.528 
C 236.16 174.528 236.16 174.528 236.16 174.528 
C 236.16 174.528 236.16 174.528 236.16 174.528 
C 236.16 174.528 236.16 174.528 236.16 174.528 
C 236.16 174.528 236.16 174.528 236.16 174.528 
C 236.16 174.528 236.16 174.528 236.16 174.528 
C 236.16 174.528 236.16 174.528 236.16 174.528 
C 236.16 174.528 236.16 174.528 236.16 174.528 
C 236.16 174.528 236.16 174.528 236.16 174.528 
C 236.16 174.528 236.16 174.528 236.16 174.528 
C 236.16 174.528 236.16 174.528 236.16 174.528 
C 236.16 174.528 236.16 174.528 236.16 174.528 
C 236.16 174.528 236.16 174.528 236.16 174.528 
C 236.16 174.528 236.16 174.528 236.16 174.528 
C 236.16 174.528 236.16 174.528 236.16 174.528 
C 236.16 174.528 236.16 174.528 236.16 174.528 
C 236.16 174.528 236.16 174.528 236.16 174.528 
z
" style="fill: #ffffff"/>
   </g>
   <g id="patch_3">
    <path d="M 236.16 174.528 
C 236.16 174.528 236.16 174.528 236.16 174.528 
C 236.16 174.528 236.16 174.528 236.16 174.528 
L 237.350743 160.91775 
C 236.954774 160.883107 236.557481 160.865761 236.16 160.865761 
C 235.762519 160.865761 235.365226 160.883107 234.969257 160.91775 
z
" clip-path="url(#pf67aa0bc8d)" style="fill: #ff0000"/>
   </g>
   <g id="patch_4">
    <path d="M 236.16 174.528 
C 236.16 174.528 236.16 174.528 236.16 174.528 
C 236.16 174.528 236.16 174.528 236.16 174.528 
L 237.350743 160.91775 
C 236.954774 160.883107 236.557481 160.865761 236.16 160.865761 
C 235.762519 160.865761 235.365226 160.883107 234.969257 160.91775 
z
" clip-path="url(#pf67aa0bc8d)" style="fill: #ffa500"/>
   </g>
   <g id="patch_5">
    <path d="M 236.16 174.528 
C 236.16 174.528 236.16 174.528 236.16 174.528 
C 236.16 174.528 236.16 174.528 236.16 174.528 
L 237.329786 161.15729 
C 236.940786 161.123257 236.550486 161.106216 236.16 161.106216 
C 235.769514 161.106216 235.379214 161.123257 234.990214 161.15729 
z
" clip-path="url(#pf67aa0bc8d)" style="fill: #008000"/>
   </g>
   <g id="patch_6">
    <path d="M 236.16 174.528 
C 236.16 174.528 236.16 174.528 236.16 174.528 
C 236.16 174.528 236.16 174.528 236.16 174.528 
L 239.401849 162.429257 
C 239.049855 162.33494 238.693912 162.25603 238.335037 162.19275 
C 237.976163 162.129471 237.614697 162.081883 237.251673 162.050123 
z
" clip-path="url(#pf67aa0bc8d)" style="fill: #ff0000"/>
   </g>
   <g id="patch_7">
    <path d="M 236.16 174.528 
C 236.16 174.528 236.16 174.528 236.16 174.528 
C 236.16 174.528 236.16 174.528 236.16 174.528 
L 239.401849 162.429257 
C 239.049855 162.33494 238.693912 162.25603 238.335037 162.19275 
C 237.976163 162.129471 237.614697 162.081883 237.251673 162.050123 
z
" clip-path="url(#pf67aa0bc8d)" style="fill: #ffa500"/>
   </g>
   <g id="patch_8">
    <path d="M 236.16 174.528 
C 236.16 174.528 236.16 174.528 236.16 174.528 
C 236.16 174.528 236.16 174.528 236.16 174.528 
L 239.345272 162.640404 
C 238.999421 162.547734 238.64969 162.4702 238.297079 162.408025 
C 237.944467 162.34585 237.58931 162.299093 237.232621 162.267887 
z
" clip-path="url(#pf67aa0bc8d)" style="fill: #008000"/>
   </g>
   <g id="patch_9">
    <path d="M 236.16 174.528 
C 236.16 174.528 236.16 174.528 236.16 174.528 
C 236.16 174.528 236.16 174.528 236.16 174.528 
L 240.520458 165.176967 
C 240.248404 165.050107 239.970944 164.935179 239.688869 164.832512 
C 239.406794 164.729845 239.120373 164.639537 238.830423 164.561845 
z
" clip-path="url(#pf67aa0bc8d)" style="fill: #ff0000"/>
   </g>
   <g id="patch_10">
    <path d="M 236.16 174.528 
C 236.16 174.528 236.16 174.528 236.16 174.528 
C 236.16 174.528 236.16 174.528 236.16 174.528 
L 240.520458 165.176967 
C 240.248404 165.050107 239.970944 164.935179 239.688869 164.832512 
C 239.406794 164.729845 239.120373 164.639537 238.830423 164.561845 
z
" clip-path="url(#pf67aa0bc8d)" style="fill: #ffa500"/>
   </g>
   <g id="patch_11">
    <path d="M 236.16 174.528 
C 236.16 174.528 236.16 174.528 236.16 174.528 
C 236.16 174.528 236.16 174.528 236.16 174.528 
L 240.483505 165.256213 
C 240.213757 165.130428 239.938648 165.016474 239.658963 164.914677 
C 239.379279 164.81288 239.095285 164.723337 238.807792 164.646304 
z
" clip-path="url(#pf67aa0bc8d)" style="fill: #008000"/>
   </g>
   <g id="patch_12">
    <path d="M 236.16 174.528 
C 236.16 174.528 236.16 174.528 236.16 174.528 
C 236.16 174.528 236.16 174.528 236.16 174.528 
L 241.476172 166.93572 
C 241.255286 166.781054 241.027756 166.636101 240.794231 166.501276 
C 240.560707 166.36645 240.321409 166.241879 240.077022 166.12792 
z
" clip-path="url(#pf67aa0bc8d)" style="fill: #ff0000"/>
   </g>
   <g id="patch_13">
    <path d="M 236.16 174.528 
C 236.16 174.528 236.16 174.528 236.16 174.528 
C 236.16 174.528 236.16 174.528 236.16 174.528 
L 241.463634 166.953626 
C 241.243269 166.799325 241.016276 166.654714 240.783302 166.520207 
C 240.550327 166.385699 240.311594 166.261422 240.067783 166.147731 
z
" clip-path="url(#pf67aa0bc8d)" style="fill: #ffa500"/>
   </g>
   <g id="patch_14">
    <path d="M 236.16 174.528 
C 236.16 174.528 236.16 174.528 236.16 174.528 
C 236.16 174.528 236.16 174.528 236.16 174.528 
L 241.413481 167.025251 
C 241.195201 166.872409 240.970354 166.729166 240.739583 166.59593 
C 240.508811 166.462695 240.272336 166.339593 240.03083 166.226977 
z
" clip-path="url(#pf67aa0bc8d)" style="fill: #008000"/>
   </g>
   <g id="patch_15">
    <path d="M 236.16 174.528 
C 236.16 174.528 236.16 174.528 236.16 174.528 
C 236.16 174.528 236.16 174.528 236.16 174.528 
L 242.744707 167.943293 
C 242.553135 167.751721 242.353295 167.568601 242.145755 167.394455 
C 241.938216 167.220308 241.723176 167.055302 241.501248 166.899907 
z
" clip-path="url(#pf67aa0bc8d)" style="fill: #ff0000"/>
   </g>
   <g id="patch_16">
    <path d="M 236.16 174.528 
C 236.16 174.528 236.16 174.528 236.16 174.528 
C 236.16 174.528 236.16 174.528 236.16 174.528 
L 242.744707 167.943293 
C 242.553135 167.751721 242.353295 167.568601 242.145755 167.394455 
C 241.938216 167.220308 241.723176 167.055302 241.501248 166.899907 
z
" clip-path="url(#pf67aa0bc8d)" style="fill: #ffa500"/>
   </g>
   <g id="patch_17">
    <path d="M 236.16 174.528 
C 236.16 174.528 236.16 174.528 236.16 174.528 
C 236.16 174.528 236.16 174.528 236.16 174.528 
L 242.651965 168.036035 
C 242.463091 167.847162 242.266065 167.66662 242.061449 167.494927 
C 241.856833 167.323234 241.644821 167.160551 241.426019 167.007345 
z
" clip-path="url(#pf67aa0bc8d)" style="fill: #008000"/>
   </g>
   <g id="patch_18">
    <path d="M 236.16 174.528 
C 236.16 174.528 236.16 174.528 236.16 174.528 
C 236.16 174.528 236.16 174.528 236.16 174.528 
L 243.250903 169.562896 
C 243.106451 169.356597 242.953065 169.156701 242.791183 168.963777 
C 242.629301 168.770853 242.459076 168.585085 242.280995 168.407005 
z
" clip-path="url(#pf67aa0bc8d)" style="fill: #ff0000"/>
   </g>
   <g id="patch_19">
    <path d="M 236.16 174.528 
C 236.16 174.528 236.16 174.528 236.16 174.528 
C 236.16 174.528 236.16 174.528 236.16 174.528 
L 243.250903 169.562896 
C 243.106451 169.356597 242.953065 169.156701 242.791183 168.963777 
C 242.629301 168.770853 242.459076 168.585085 242.280995 168.407005 
z
" clip-path="url(#pf67aa0bc8d)" style="fill: #ffa500"/>
   </g>
   <g id="patch_20">
    <path d="M 236.16 174.528 
C 236.16 174.528 236.16 174.528 236.16 174.528 
C 236.16 174.528 236.16 174.528 236.16 174.528 
L 243.179278 169.613049 
C 243.036285 169.408834 242.884449 169.210956 242.724201 169.019981 
C 242.563954 168.829006 242.395449 168.645115 242.219167 168.468833 
z
" clip-path="url(#pf67aa0bc8d)" style="fill: #008000"/>
   </g>
   <g id="patch_21">
    <path d="M 236.16 174.528 
C 236.16 174.528 236.16 174.528 236.16 174.528 
C 236.16 174.528 236.16 174.528 236.16 174.528 
L 244.896876 170.453928 
C 244.778347 170.199742 244.648782 169.95085 244.508551 169.707962 
C 244.368319 169.465074 244.217555 169.228421 244.056688 168.99868 
z
" clip-path="url(#pf67aa0bc8d)" style="fill: #ff0000"/>
   </g>
   <g id="patch_22">
    <path d="M 236.16 174.528 
C 236.16 174.528 236.16 174.528 236.16 174.528 
C 236.16 174.528 236.16 174.528 236.16 174.528 
L 244.896876 170.453928 
C 244.778347 170.199742 244.648782 169.95085 244.508551 169.707962 
C 244.368319 169.465074 244.217555 169.228421 244.056688 168.99868 
z
" clip-path="url(#pf67aa0bc8d)" style="fill: #ffa500"/>
   </g>
   <g id="patch_23">
    <path d="M 236.16 174.528 
C 236.16 174.528 236.16 174.528 236.16 174.528 
C 236.16 174.528 236.16 174.528 236.16 174.528 
L 244.738384 170.527834 
C 244.622005 170.278259 244.494791 170.033882 244.357103 169.7954 
C 244.219415 169.556918 244.071386 169.324559 243.913437 169.098985 
z
" clip-path="url(#pf67aa0bc8d)" style="fill: #008000"/>
   </g>
   <g id="patch_24">
    <path d="M 236.16 174.528 
C 236.16 174.528 236.16 174.528 236.16 174.528 
C 236.16 174.528 236.16 174.528 236.16 174.528 
L 246.50622 171.755739 
C 246.425566 171.454732 246.331814 171.157388 246.225231 170.864555 
C 246.118649 170.571723 245.999338 170.283682 245.86764 170.001253 
z
" clip-path="url(#pf67aa0bc8d)" style="fill: #ff0000"/>
   </g>
   <g id="patch_25">
    <path d="M 236.16 174.528 
C 236.16 174.528 236.16 174.528 236.16 174.528 
C 236.16 174.528 236.16 174.528 236.16 174.528 
L 246.50622 171.755739 
C 246.425566 171.454732 246.331814 171.157388 246.225231 170.864555 
C 246.118649 170.571723 245.999338 170.283682 245.86764 170.001253 
z
" clip-path="url(#pf67aa0bc8d)" style="fill: #ffa500"/>
   </g>
   <g id="patch_26">
    <path d="M 236.16 174.528 
C 236.16 174.528 236.16 174.528 236.16 174.528 
C 236.16 174.528 236.16 174.528 236.16 174.528 
L 246.316188 171.806658 
C 246.237014 171.511179 246.144984 171.219297 246.04036 170.931843 
C 245.935735 170.64439 245.818616 170.361639 245.689336 170.084398 
z
" clip-path="url(#pf67aa0bc8d)" style="fill: #008000"/>
   </g>
   <g id="patch_27">
    <path d="M 236.16 174.528 
C 236.16 174.528 236.16 174.528 236.16 174.528 
C 236.16 174.528 236.16 174.528 236.16 174.528 
L 249.073405 173.398223 
C 249.040536 173.022528 248.991287 172.648446 248.925799 172.277045 
C 248.860311 171.905644 248.778647 171.537278 248.681038 171.172998 
z
" clip-path="url(#pf67aa0bc8d)" style="fill: #ff0000"/>
   </g>
   <g id="patch_28">
    <path d="M 236.16 174.528 
C 236.16 174.528 236.16 174.528 236.16 174.528 
C 236.16 174.528 236.16 174.528 236.16 174.528 
L 249.051629 173.400129 
C 249.018815 173.025067 248.96965 172.651616 248.904272 172.280841 
C 248.838894 171.910066 248.757367 171.542321 248.659923 171.178656 
z
" clip-path="url(#pf67aa0bc8d)" style="fill: #ffa500"/>
   </g>
   <g id="patch_29">
    <path d="M 236.16 174.528 
C 236.16 174.528 236.16 174.528 236.16 174.528 
C 236.16 174.528 236.16 174.528 236.16 174.528 
L 248.093467 173.483957 
C 248.063093 173.136771 248.017581 172.791077 247.957063 172.44786 
C 247.896544 172.104643 247.821076 171.76423 247.730875 171.427593 
z
" clip-path="url(#pf67aa0bc8d)" style="fill: #008000"/>
   </g>
   <g id="patch_30">
    <path d="M 236.16 174.528 
C 236.16 174.528 236.16 174.528 236.16 174.528 
C 236.16 174.528 236.16 174.528 236.16 174.528 
L 254.865928 176.164557 
C 254.913541 175.620337 254.937381 175.074299 254.937381 174.528 
C 254.937381 173.981701 254.913541 173.435663 254.865928 172.891443 
z
" clip-path="url(#pf67aa0bc8d)" style="fill: #ff0000"/>
   </g>
   <g id="patch_31">
    <path d="M 236.16 174.528 
C 236.16 174.528 236.16 174.528 236.16 174.528 
C 236.16 174.528 236.16 174.528 236.16 174.528 
L 254.473953 176.130263 
C 254.520568 175.597447 254.543909 175.062851 254.543909 174.528 
C 254.543909 173.993149 254.520568 173.458553 254.473953 172.925737 
z
" clip-path="url(#pf67aa0bc8d)" style="fill: #ffa500"/>
   </g>
   <g id="patch_32">
    <path d="M 236.16 174.528 
C 236.16 174.528 236.16 174.528 236.16 174.528 
C 236.16 174.528 236.16 174.528 236.16 174.528 
L 250.728412 175.802571 
C 250.765493 175.378726 250.784061 174.953464 250.784061 174.528 
C 250.784061 174.102536 250.765493 173.677274 250.728412 173.253429 
z
" clip-path="url(#pf67aa0bc8d)" style="fill: #008000"/>
   </g>
   <g id="patch_33">
    <path d="M 236.16 174.528 
C 236.16 174.528 236.16 174.528 236.16 174.528 
C 236.16 174.528 236.16 174.528 236.16 174.528 
L 273.575311 184.553402 
C 273.866984 183.464862 274.111015 182.364112 274.306706 181.254293 
C 274.502397 180.144475 274.649562 179.026645 274.747781 177.903993 
z
" clip-path="url(#pf67aa0bc8d)" style="fill: #ff0000"/>
   </g>
   <g id="patch_34">
    <path d="M 236.16 174.528 
C 236.16 174.528 236.16 174.528 236.16 174.528 
C 236.16 174.528 236.16 174.528 236.16 174.528 
L 271.210461 183.919743 
C 271.483699 182.900004 271.712305 181.868827 271.895627 180.829155 
C 272.07895 179.789483 272.216813 178.742306 272.308824 177.690612 
z
" clip-path="url(#pf67aa0bc8d)" style="fill: #ffa500"/>
   </g>
   <g id="patch_35">
    <path d="M 236.16 174.528 
C 236.16 174.528 236.16 174.528 236.16 174.528 
C 236.16 174.528 236.16 174.528 236.16 174.528 
L 256.240113 179.90845 
C 256.396649 179.324251 256.527616 178.733498 256.63264 178.137879 
C 256.737663 177.542259 256.816644 176.94234 256.869357 176.339834 
z
" clip-path="url(#pf67aa0bc8d)" style="fill: #008000"/>
   </g>
   <g id="patch_36">
    <path d="M 236.16 174.528 
C 236.16 174.528 236.16 174.528 236.16 174.528 
C 236.16 174.528 236.16 174.528 236.16 174.528 
L 308.353142 208.192215 
C 309.33255 206.091868 310.219832 203.949781 311.012455 201.772066 
C 311.805078 199.594351 312.502289 197.383082 313.102096 195.144572 
z
" clip-path="url(#pf67aa0bc8d)" style="fill: #ff0000"/>
   </g>
   <g id="patch_37">
    <path d="M 236.16 174.528 
C 236.16 174.528 236.16 174.528 236.16 174.528 
C 236.16 174.528 236.16 174.528 236.16 174.528 
L 298.903052 203.785566 
C 299.754255 201.960155 300.525391 200.098466 301.21426 198.205814 
C 301.903129 196.313162 302.509075 194.391349 303.030367 192.445861 
z
" clip-path="url(#pf67aa0bc8d)" style="fill: #ffa500"/>
   </g>
   <g id="patch_38">
    <path d="M 236.16 174.528 
C 236.16 174.528 236.16 174.528 236.16 174.528 
C 236.16 174.528 236.16 174.528 236.16 174.528 
L 264.331967 187.664804 
C 264.714162 186.845185 265.060406 186.009277 265.369712 185.159466 
C 265.679018 184.309655 265.951091 183.446751 266.185154 182.573216 
z
" clip-path="url(#pf67aa0bc8d)" style="fill: #008000"/>
   </g>
   <g id="patch_39">
    <path d="M 236.16 174.528 
C 236.16 174.528 236.16 174.528 236.16 174.528 
C 236.16 174.528 236.16 174.528 236.16 174.528 
L 311.008425 226.937431 
C 312.533195 224.759833 313.962209 222.516731 315.291387 220.214528 
C 316.620565 217.912324 317.848641 215.55321 318.972111 213.143922 
z
" clip-path="url(#pf67aa0bc8d)" style="fill: #ff0000"/>
   </g>
   <g id="patch_40">
    <path d="M 236.16 174.528 
C 236.16 174.528 236.16 174.528 236.16 174.528 
C 236.16 174.528 236.16 174.528 236.16 174.528 
L 301.321105 220.154297 
C 302.64853 218.258536 303.892593 216.30575 305.049741 214.30151 
C 306.206889 212.297271 307.276021 210.243488 308.254084 208.146024 
z
" clip-path="url(#pf67aa0bc8d)" style="fill: #ffa500"/>
   </g>
   <g id="patch_41">
    <path d="M 236.16 174.528 
C 236.16 174.528 236.16 174.528 236.16 174.528 
C 236.16 174.528 236.16 174.528 236.16 174.528 
L 264.989178 194.714408 
C 265.57647 193.875668 266.126879 193.011698 266.638836 192.124964 
C 267.150792 191.23823 267.623807 190.329576 268.056531 189.401597 
z
" clip-path="url(#pf67aa0bc8d)" style="fill: #008000"/>
   </g>
   <g id="patch_42">
    <path d="M 236.16 174.528 
C 236.16 174.528 236.16 174.528 236.16 174.528 
C 236.16 174.528 236.16 174.528 236.16 174.528 
L 278.465971 216.833971 
C 279.696797 215.603145 280.873323 214.319191 281.992192 212.985775 
C 283.111061 211.652359 284.171206 210.270751 285.169603 208.844893 
z
" clip-path="url(#pf67aa0bc8d)" style="fill: #ff0000"/>
   </g>
   <g id="patch_43">
    <path d="M 236.16 174.528 
C 236.16 174.528 236.16 174.528 236.16 174.528 
C 236.16 174.528 236.16 174.528 236.16 174.528 
L 277.121206 215.489206 
C 278.312909 214.297504 279.452037 213.054363 280.535341 211.763332 
C 281.618645 210.472301 282.645092 209.134609 283.611753 207.754075 
z
" clip-path="url(#pf67aa0bc8d)" style="fill: #ffa500"/>
   </g>
   <g id="patch_44">
    <path d="M 236.16 174.528 
C 236.16 174.528 236.16 174.528 236.16 174.528 
C 236.16 174.528 236.16 174.528 236.16 174.528 
L 260.365754 198.733754 
C 261.069983 198.029526 261.743144 197.2949 262.383315 196.531974 
C 263.023486 195.769047 263.630058 194.978547 264.2013 194.16273 
z
" clip-path="url(#pf67aa0bc8d)" style="fill: #008000"/>
   </g>
   <g id="patch_45">
    <path d="M 236.16 174.528 
C 236.16 174.528 236.16 174.528 236.16 174.528 
C 236.16 174.528 236.16 174.528 236.16 174.528 
L 256.847933 204.073431 
C 257.707511 203.471548 258.540414 202.832439 259.344264 202.157929 
C 260.148113 201.483419 260.922144 200.774151 261.664147 200.032147 
z
" clip-path="url(#pf67aa0bc8d)" style="fill: #ff0000"/>
   </g>
   <g id="patch_46">
    <path d="M 236.16 174.528 
C 236.16 174.528 236.16 174.528 236.16 174.528 
C 236.16 174.528 236.16 174.528 236.16 174.528 
L 256.722552 203.894368 
C 257.57692 203.296132 258.404775 202.660897 259.203753 201.990475 
C 260.002731 201.320053 260.772071 200.615083 261.509577 199.877577 
z
" clip-path="url(#pf67aa0bc8d)" style="fill: #ffa500"/>
   </g>
   <g id="patch_47">
    <path d="M 236.16 174.528 
C 236.16 174.528 236.16 174.528 236.16 174.528 
C 236.16 174.528 236.16 174.528 236.16 174.528 
L 251.230846 196.051399 
C 251.857036 195.612936 252.463792 195.147355 253.049385 194.655985 
C 253.634977 194.164615 254.198847 193.647923 254.739385 193.107385 
z
" clip-path="url(#pf67aa0bc8d)" style="fill: #008000"/>
   </g>
   <g id="patch_48">
    <path d="M 236.16 174.528 
C 236.16 174.528 236.16 174.528 236.16 174.528 
C 236.16 174.528 236.16 174.528 236.16 174.528 
L 243.43051 190.119658 
C 243.884125 189.908134 244.328293 189.676915 244.761746 189.426661 
C 245.195199 189.176406 245.617525 188.907355 246.027517 188.620275 
z
" clip-path="url(#pf67aa0bc8d)" style="fill: #ff0000"/>
   </g>
   <g id="patch_49">
    <path d="M 236.16 174.528 
C 236.16 174.528 236.16 174.528 236.16 174.528 
C 236.16 174.528 236.16 174.528 236.16 174.528 
L 243.43051 190.119658 
C 243.884125 189.908134 244.328293 189.676915 244.761746 189.426661 
C 245.195199 189.176406 245.617525 188.907355 246.027517 188.620275 
z
" clip-path="url(#pf67aa0bc8d)" style="fill: #ffa500"/>
   </g>
   <g id="patch_50">
    <path d="M 236.16 174.528 
C 236.16 174.528 236.16 174.528 236.16 174.528 
C 236.16 174.528 236.16 174.528 236.16 174.528 
L 242.654496 188.455491 
C 243.059694 188.266544 243.456454 188.060004 243.843643 187.836461 
C 244.230832 187.612917 244.608081 187.372583 244.974313 187.116144 
z
" clip-path="url(#pf67aa0bc8d)" style="fill: #008000"/>
   </g>
   <g id="patch_51">
    <path d="M 236.16 174.528 
C 236.16 174.528 236.16 174.528 236.16 174.528 
C 236.16 174.528 236.16 174.528 236.16 174.528 
L 239.27738 186.162219 
C 239.615859 186.071524 239.950219 185.9661 240.279506 185.84625 
C 240.608793 185.726399 240.932693 185.592236 241.250281 185.444142 
z
" clip-path="url(#pf67aa0bc8d)" style="fill: #ff0000"/>
   </g>
   <g id="patch_52">
    <path d="M 236.16 174.528 
C 236.16 174.528 236.16 174.528 236.16 174.528 
C 236.16 174.528 236.16 174.528 236.16 174.528 
L 239.27738 186.162219 
C 239.615859 186.071524 239.950219 185.9661 240.279506 185.84625 
C 240.608793 185.726399 240.932693 185.592236 241.250281 185.444142 
z
" clip-path="url(#pf67aa0bc8d)" style="fill: #ffa500"/>
   </g>
   <g id="patch_53">
    <path d="M 236.16 174.528 
C 236.16 174.528 236.16 174.528 236.16 174.528 
C 236.16 174.528 236.16 174.528 236.16 174.528 
L 239.181199 185.803269 
C 239.509235 185.715372 239.83328 185.613201 240.152407 185.497048 
C 240.471534 185.380895 240.785441 185.250871 241.09323 185.107346 
z
" clip-path="url(#pf67aa0bc8d)" style="fill: #008000"/>
   </g>
   <g id="patch_54">
    <path d="M 236.16 174.528 
C 236.16 174.528 236.16 174.528 236.16 174.528 
C 236.16 174.528 236.16 174.528 236.16 174.528 
L 237.748927 192.689518 
C 238.277308 192.64329 238.80342 192.574026 239.325761 192.481924 
C 239.848102 192.389821 240.366176 192.274967 240.878502 192.137689 
z
" clip-path="url(#pf67aa0bc8d)" style="fill: #ff0000"/>
   </g>
   <g id="patch_55">
    <path d="M 236.16 174.528 
C 236.16 174.528 236.16 174.528 236.16 174.528 
C 236.16 174.528 236.16 174.528 236.16 174.528 
L 237.748927 192.689518 
C 238.277308 192.64329 238.80342 192.574026 239.325761 192.481924 
C 239.848102 192.389821 240.366176 192.274967 240.878502 192.137689 
z
" clip-path="url(#pf67aa0bc8d)" style="fill: #ffa500"/>
   </g>
   <g id="patch_56">
    <path d="M 236.16 174.528 
C 236.16 174.528 236.16 174.528 236.16 174.528 
C 236.16 174.528 236.16 174.528 236.16 174.528 
L 237.729875 192.471754 
C 238.25192 192.426081 238.771724 192.357647 239.287802 192.266649 
C 239.803881 192.17565 240.315742 192.062173 240.821925 191.926542 
z
" clip-path="url(#pf67aa0bc8d)" style="fill: #008000"/>
   </g>
   <g id="patch_57">
    <path d="M 236.16 174.528 
C 236.16 174.528 236.16 174.528 236.16 174.528 
C 236.16 174.528 236.16 174.528 236.16 174.528 
L 232.711609 213.943284 
C 233.858335 214.04361 235.008894 214.093844 236.16 214.093844 
C 237.311106 214.093844 238.461665 214.04361 239.608391 213.943284 
z
" clip-path="url(#pf67aa0bc8d)" style="fill: #ff0000"/>
   </g>
   <g id="patch_58">
    <path d="M 236.16 174.528 
C 236.16 174.528 236.16 174.528 236.16 174.528 
C 236.16 174.528 236.16 174.528 236.16 174.528 
L 232.71542 213.899732 
C 233.860879 213.999946 235.010166 214.050125 236.16 214.050125 
C 237.309834 214.050125 238.459121 213.999946 239.60458 213.899732 
z
" clip-path="url(#pf67aa0bc8d)" style="fill: #ffa500"/>
   </g>
   <g id="patch_59">
    <path d="M 236.16 174.528 
C 236.16 174.528 236.16 174.528 236.16 174.528 
C 236.16 174.528 236.16 174.528 236.16 174.528 
L 232.736377 213.660191 
C 233.874867 213.759796 235.017161 213.80967 236.16 213.80967 
C 237.302839 213.80967 238.445133 213.759796 239.583623 213.660191 
z
" clip-path="url(#pf67aa0bc8d)" style="fill: #008000"/>
   </g>
   <g id="patch_60">
    <path d="M 236.16 174.528 
C 236.16 174.528 236.16 174.528 236.16 174.528 
C 236.16 174.528 236.16 174.528 236.16 174.528 
L 220.080884 234.536078 
C 221.826725 235.003875 223.59215 235.39526 225.372118 235.709116 
C 227.152087 236.022973 228.944905 236.259002 230.745455 236.416529 
z
" clip-path="url(#pf67aa0bc8d)" style="fill: #ff0000"/>
   </g>
   <g id="patch_61">
    <path d="M 236.16 174.528 
C 236.16 174.528 236.16 174.528 236.16 174.528 
C 236.16 174.528 236.16 174.528 236.16 174.528 
L 220.080884 234.536078 
C 221.826725 235.003875 223.59215 235.39526 225.372118 235.709116 
C 227.152087 236.022973 228.944905 236.259002 230.745455 236.416529 
z
" clip-path="url(#pf67aa0bc8d)" style="fill: #ffa500"/>
   </g>
   <g id="patch_62">
    <path d="M 236.16 174.528 
C 236.16 174.528 236.16 174.528 236.16 174.528 
C 236.16 174.528 236.16 174.528 236.16 174.528 
L 220.199695 234.092668 
C 221.932636 234.557008 223.685016 234.945502 225.451832 235.257039 
C 227.218648 235.568576 228.998219 235.802861 230.785464 235.959225 
z
" clip-path="url(#pf67aa0bc8d)" style="fill: #008000"/>
   </g>
   <g id="patch_63">
    <path d="M 236.16 174.528 
C 236.16 174.528 236.16 174.528 236.16 174.528 
C 236.16 174.528 236.16 174.528 236.16 174.528 
L 216.602606 216.468966 
C 217.822813 217.037958 219.06727 217.553429 220.332424 218.013908 
C 221.597578 218.474386 222.882226 218.879434 224.182699 219.227895 
z
" clip-path="url(#pf67aa0bc8d)" style="fill: #ff0000"/>
   </g>
   <g id="patch_64">
    <path d="M 236.16 174.528 
C 236.16 174.528 236.16 174.528 236.16 174.528 
C 236.16 174.528 236.16 174.528 236.16 174.528 
L 216.602606 216.468966 
C 217.822813 217.037958 219.06727 217.553429 220.332424 218.013908 
C 221.597578 218.474386 222.882226 218.879434 224.182699 219.227895 
z
" clip-path="url(#pf67aa0bc8d)" style="fill: #ffa500"/>
   </g>
   <g id="patch_65">
    <path d="M 236.16 174.528 
C 236.16 174.528 236.16 174.528 236.16 174.528 
C 236.16 174.528 236.16 174.528 236.16 174.528 
L 216.879754 215.874621 
C 218.082669 216.43555 219.309491 216.943716 220.556717 217.397669 
C 221.803942 217.851622 223.070385 218.25093 224.35243 218.594453 
z
" clip-path="url(#pf67aa0bc8d)" style="fill: #008000"/>
   </g>
   <g id="patch_66">
    <path d="M 236.16 174.528 
C 236.16 174.528 236.16 174.528 236.16 174.528 
C 236.16 174.528 236.16 174.528 236.16 174.528 
L 217.616089 201.01145 
C 218.386583 201.550956 219.180255 202.056581 219.994839 202.526881 
C 220.809422 202.997181 221.644142 203.431708 222.496615 203.829223 
z
" clip-path="url(#pf67aa0bc8d)" style="fill: #ff0000"/>
   </g>
   <g id="patch_67">
    <path d="M 236.16 174.528 
C 236.16 174.528 236.16 174.528 236.16 174.528 
C 236.16 174.528 236.16 174.528 236.16 174.528 
L 217.616089 201.01145 
C 218.386583 201.550956 219.180255 202.056581 219.994839 202.526881 
C 220.809422 202.997181 221.644142 203.431708 222.496615 203.829223 
z
" clip-path="url(#pf67aa0bc8d)" style="fill: #ffa500"/>
   </g>
   <g id="patch_68">
    <path d="M 236.16 174.528 
C 236.16 174.528 236.16 174.528 236.16 174.528 
C 236.16 174.528 236.16 174.528 236.16 174.528 
L 218.130153 200.277291 
C 218.879288 200.801841 219.650958 201.293449 220.44296 201.750712 
C 221.234962 202.207974 222.046542 202.630456 222.875384 203.016951 
z
" clip-path="url(#pf67aa0bc8d)" style="fill: #008000"/>
   </g>
   <g id="patch_69">
    <path d="M 236.16 174.528 
C 236.16 174.528 236.16 174.528 236.16 174.528 
C 236.16 174.528 236.16 174.528 236.16 174.528 
L 220.888426 189.799574 
C 221.332728 190.243877 221.796209 190.668578 222.277544 191.072467 
C 222.758879 191.476355 223.257611 191.859046 223.772316 192.219446 
z
" clip-path="url(#pf67aa0bc8d)" style="fill: #ff0000"/>
   </g>
   <g id="patch_70">
    <path d="M 236.16 174.528 
C 236.16 174.528 236.16 174.528 236.16 174.528 
C 236.16 174.528 236.16 174.528 236.16 174.528 
L 220.903883 189.784117 
C 221.347736 190.22797 221.810747 190.652242 222.291595 191.055721 
C 222.772443 191.459201 223.27067 191.841504 223.784854 192.20154 
z
" clip-path="url(#pf67aa0bc8d)" style="fill: #ffa500"/>
   </g>
   <g id="patch_71">
    <path d="M 236.16 174.528 
C 236.16 174.528 236.16 174.528 236.16 174.528 
C 236.16 174.528 236.16 174.528 236.16 174.528 
L 221.491251 189.196749 
C 221.918015 189.623513 222.3632 190.03145 222.825536 190.419396 
C 223.287871 190.807341 223.766916 191.174925 224.261304 191.521099 
z
" clip-path="url(#pf67aa0bc8d)" style="fill: #008000"/>
   </g>
   <g id="patch_72">
    <path d="M 236.16 174.528 
C 236.16 174.528 236.16 174.528 236.16 174.528 
C 236.16 174.528 236.16 174.528 236.16 174.528 
L 218.020896 187.229137 
C 218.390416 187.756866 218.78279 188.268218 219.196898 188.761733 
C 219.611006 189.255248 220.046454 189.730456 220.501999 190.186001 
z
" clip-path="url(#pf67aa0bc8d)" style="fill: #ff0000"/>
   </g>
   <g id="patch_73">
    <path d="M 236.16 174.528 
C 236.16 174.528 236.16 174.528 236.16 174.528 
C 236.16 174.528 236.16 174.528 236.16 174.528 
L 218.074615 187.191523 
C 218.44304 187.717689 218.834252 188.227526 219.247134 188.719579 
C 219.660016 189.211633 220.094174 189.685434 220.54837 190.13963 
z
" clip-path="url(#pf67aa0bc8d)" style="fill: #ffa500"/>
   </g>
   <g id="patch_74">
    <path d="M 236.16 174.528 
C 236.16 174.528 236.16 174.528 236.16 174.528 
C 236.16 174.528 236.16 174.528 236.16 174.528 
L 219.328058 186.313853 
C 219.670949 186.803552 220.035047 187.278054 220.419313 187.736005 
C 220.803579 188.193955 221.207647 188.634918 221.630364 189.057636 
z
" clip-path="url(#pf67aa0bc8d)" style="fill: #008000"/>
   </g>
   <g id="patch_75">
    <path d="M 236.16 174.528 
C 236.16 174.528 236.16 174.528 236.16 174.528 
C 236.16 174.528 236.16 174.528 236.16 174.528 
L 207.433311 187.923475 
C 207.823031 188.759233 208.249038 189.577586 208.710117 190.376197 
C 209.171195 191.174809 209.666906 191.952918 210.195833 192.708305 
z
" clip-path="url(#pf67aa0bc8d)" style="fill: #ff0000"/>
   </g>
   <g id="patch_76">
    <path d="M 236.16 174.528 
C 236.16 174.528 236.16 174.528 236.16 174.528 
C 236.16 174.528 236.16 174.528 236.16 174.528 
L 207.55218 187.868046 
C 207.940287 188.700345 208.364532 189.515312 208.823703 190.310619 
C 209.282873 191.105925 209.776533 191.880815 210.303271 192.633076 
z
" clip-path="url(#pf67aa0bc8d)" style="fill: #ffa500"/>
   </g>
   <g id="patch_77">
    <path d="M 236.16 174.528 
C 236.16 174.528 236.16 174.528 236.16 174.528 
C 236.16 174.528 236.16 174.528 236.16 174.528 
L 211.256932 186.140491 
C 211.594779 186.865007 211.964084 187.574434 212.363791 188.266748 
C 212.763498 188.959061 213.193228 189.633602 213.651754 190.288444 
z
" clip-path="url(#pf67aa0bc8d)" style="fill: #008000"/>
   </g>
   <g id="patch_78">
    <path d="M 236.16 174.528 
C 236.16 174.528 236.16 174.528 236.16 174.528 
C 236.16 174.528 236.16 174.528 236.16 174.528 
L 183.204244 188.717452 
C 183.617064 190.258117 184.096922 191.780033 184.642449 193.278855 
C 185.187975 194.777678 185.798651 196.25198 186.472733 197.697553 
z
" clip-path="url(#pf67aa0bc8d)" style="fill: #ff0000"/>
   </g>
   <g id="patch_79">
    <path d="M 236.16 174.528 
C 236.16 174.528 236.16 174.528 236.16 174.528 
C 236.16 174.528 236.16 174.528 236.16 174.528 
L 184.640046 188.33273 
C 185.041673 189.831623 185.50852 191.312274 186.039256 192.770459 
C 186.569992 194.228643 187.164111 195.662972 187.819916 197.069351 
z
" clip-path="url(#pf67aa0bc8d)" style="fill: #ffa500"/>
   </g>
   <g id="patch_80">
    <path d="M 236.16 174.528 
C 236.16 174.528 236.16 174.528 236.16 174.528 
C 236.16 174.528 236.16 174.528 236.16 174.528 
L 199.568164 184.332753 
C 199.853418 185.397335 200.184994 186.448962 200.561947 187.484632 
C 200.9389 188.520301 201.36087 189.539027 201.826653 190.537902 
z
" clip-path="url(#pf67aa0bc8d)" style="fill: #008000"/>
   </g>
   <g id="patch_81">
    <path d="M 236.16 174.528 
C 236.16 174.528 236.16 174.528 236.16 174.528 
C 236.16 174.528 236.16 174.528 236.16 174.528 
L 138.057317 183.110873 
C 138.307022 185.965017 138.681164 188.806904 139.178674 191.628424 
C 139.676184 194.449944 140.296589 197.248409 141.038117 200.015832 
z
" clip-path="url(#pf67aa0bc8d)" style="fill: #ff0000"/>
   </g>
   <g id="patch_82">
    <path d="M 236.16 174.528 
C 236.16 174.528 236.16 174.528 236.16 174.528 
C 236.16 174.528 236.16 174.528 236.16 174.528 
L 143.697405 182.617429 
C 143.932754 185.307483 144.285385 187.985986 144.754293 190.645292 
C 145.2232 193.304598 145.807937 195.942175 146.506834 198.550493 
z
" clip-path="url(#pf67aa0bc8d)" style="fill: #ffa500"/>
   </g>
   <g id="patch_83">
    <path d="M 236.16 174.528 
C 236.16 174.528 236.16 174.528 236.16 174.528 
C 236.16 174.528 236.16 174.528 236.16 174.528 
L 179.846229 179.454817 
C 179.989567 181.093178 180.204335 182.724503 180.48992 184.344137 
C 180.775505 185.963771 181.131636 187.570171 181.557294 189.158751 
z
" clip-path="url(#pf67aa0bc8d)" style="fill: #008000"/>
   </g>
   <g id="patch_84">
    <path d="M 236.16 174.528 
C 236.16 174.528 236.16 174.528 236.16 174.528 
C 236.16 174.528 236.16 174.528 236.16 174.528 
L 110.335959 163.519823 
C 110.015694 167.180476 109.855332 170.853363 109.855332 174.528 
C 109.855332 178.202637 110.015694 181.875524 110.335959 185.536177 
z
" clip-path="url(#pf67aa0bc8d)" style="fill: #ff0000"/>
   </g>
   <g id="patch_85">
    <path d="M 236.16 174.528 
C 236.16 174.528 236.16 174.528 236.16 174.528 
C 236.16 174.528 236.16 174.528 236.16 174.528 
L 120.788632 164.434313 
C 120.494972 167.790863 120.347932 171.158629 120.347932 174.528 
C 120.347932 177.897371 120.494972 181.265137 120.788632 184.621687 
z
" clip-path="url(#pf67aa0bc8d)" style="fill: #ffa500"/>
   </g>
   <g id="patch_86">
    <path d="M 236.16 174.528 
C 236.16 174.528 236.16 174.528 236.16 174.528 
C 236.16 174.528 236.16 174.528 236.16 174.528 
L 169.567768 168.701935 
C 169.398268 170.639331 169.313397 172.583203 169.313397 174.528 
C 169.313397 176.472797 169.398268 178.416669 169.567768 180.354065 
z
" clip-path="url(#pf67aa0bc8d)" style="fill: #008000"/>
   </g>
   <g id="patch_87">
    <path d="M 236.16 174.528 
C 236.16 174.528 236.16 174.528 236.16 174.528 
C 236.16 174.528 236.16 174.528 236.16 174.528 
L 113.757879 141.730451 
C 112.803686 145.291549 112.005354 148.892592 111.365162 152.523303 
C 110.724969 156.154013 110.243527 159.810933 109.922208 163.483624 
z
" clip-path="url(#pf67aa0bc8d)" style="fill: #ff0000"/>
   </g>
   <g id="patch_88">
    <path d="M 236.16 174.528 
C 236.16 174.528 236.16 174.528 236.16 174.528 
C 236.16 174.528 236.16 174.528 236.16 174.528 
L 122.45715 144.061413 
C 121.570773 147.36942 120.829179 150.714533 120.234486 154.087204 
C 119.639793 157.459876 119.192567 160.856893 118.894085 164.268562 
z
" clip-path="url(#pf67aa0bc8d)" style="fill: #ffa500"/>
   </g>
   <g id="patch_89">
    <path d="M 236.16 174.528 
C 236.16 174.528 236.16 174.528 236.16 174.528 
C 236.16 174.528 236.16 174.528 236.16 174.528 
L 172.097893 157.36261 
C 171.598493 159.226397 171.180666 161.11109 170.845606 163.01131 
C 170.510546 164.91153 170.258572 166.825468 170.090402 168.747659 
z
" clip-path="url(#pf67aa0bc8d)" style="fill: #008000"/>
   </g>
   <g id="patch_90">
    <path d="M 236.16 174.528 
C 236.16 174.528 236.16 174.528 236.16 174.528 
C 236.16 174.528 236.16 174.528 236.16 174.528 
L 138.01378 128.761666 
C 136.68228 131.617077 135.476025 134.529235 134.398457 137.489827 
C 133.32089 140.45042 132.373036 143.456629 131.557601 146.499872 
z
" clip-path="url(#pf67aa0bc8d)" style="fill: #ff0000"/>
   </g>
   <g id="patch_91">
    <path d="M 236.16 174.528 
C 236.16 174.528 236.16 174.528 236.16 174.528 
C 236.16 174.528 236.16 174.528 236.16 174.528 
L 143.26383 131.209805 
C 142.003555 133.912473 140.861825 136.668854 139.841899 139.471078 
C 138.821972 142.273303 137.924821 145.118702 137.153006 147.999156 
z
" clip-path="url(#pf67aa0bc8d)" style="fill: #ffa500"/>
   </g>
   <g id="patch_92">
    <path d="M 236.16 174.528 
C 236.16 174.528 236.16 174.528 236.16 174.528 
C 236.16 174.528 236.16 174.528 236.16 174.528 
L 182.88685 149.686322 
C 182.16412 151.236221 181.509372 152.816922 180.924475 154.423913 
C 180.339579 156.030904 179.825089 157.662655 179.382477 159.314508 
z
" clip-path="url(#pf67aa0bc8d)" style="fill: #008000"/>
   </g>
   <g id="patch_93">
    <path d="M 236.16 174.528 
C 236.16 174.528 236.16 174.528 236.16 174.528 
C 236.16 174.528 236.16 174.528 236.16 174.528 
L 162.761987 123.134158 
C 161.266764 125.269559 159.865442 127.469194 158.56202 129.726786 
C 157.258599 131.984377 156.05432 134.297776 154.952621 136.660377 
z
" clip-path="url(#pf67aa0bc8d)" style="fill: #ff0000"/>
   </g>
   <g id="patch_94">
    <path d="M 236.16 174.528 
C 236.16 174.528 236.16 174.528 236.16 174.528 
C 236.16 174.528 236.16 174.528 236.16 174.528 
L 166.361158 125.654325 
C 164.939255 127.685013 163.606648 129.776786 162.367142 131.923674 
C 161.127636 134.070561 159.98241 136.270519 158.934734 138.517267 
z
" clip-path="url(#pf67aa0bc8d)" style="fill: #ffa500"/>
   </g>
   <g id="patch_95">
    <path d="M 236.16 174.528 
C 236.16 174.528 236.16 174.528 236.16 174.528 
C 236.16 174.528 236.16 174.528 236.16 174.528 
L 193.131109 144.398846 
C 192.254548 145.650704 191.433036 146.94022 190.668918 148.263712 
C 189.9048 149.587203 189.198803 150.943411 188.552942 152.328464 
z
" clip-path="url(#pf67aa0bc8d)" style="fill: #008000"/>
   </g>
   <g id="patch_96">
    <path d="M 236.16 174.528 
C 236.16 174.528 236.16 174.528 236.16 174.528 
C 236.16 174.528 236.16 174.528 236.16 174.528 
L 188.104003 126.472003 
C 186.705889 127.870117 185.369455 129.32858 184.098515 130.843227 
C 182.827575 132.357875 181.623339 133.927265 180.489246 135.546918 
z
" clip-path="url(#pf67aa0bc8d)" style="fill: #ff0000"/>
   </g>
   <g id="patch_97">
    <path d="M 236.16 174.528 
C 236.16 174.528 236.16 174.528 236.16 174.528 
C 236.16 174.528 236.16 174.528 236.16 174.528 
L 189.665166 128.033166 
C 188.312472 129.385861 187.019453 130.796943 185.789801 132.262385 
C 184.56015 133.727827 183.395035 135.246234 182.297784 136.813271 
z
" clip-path="url(#pf67aa0bc8d)" style="fill: #ffa500"/>
   </g>
   <g id="patch_98">
    <path d="M 236.16 174.528 
C 236.16 174.528 236.16 174.528 236.16 174.528 
C 236.16 174.528 236.16 174.528 236.16 174.528 
L 205.15314 143.52114 
C 204.251043 144.423236 203.388745 145.36427 202.568704 146.341556 
C 201.748664 147.318842 200.971662 148.33145 200.239919 149.376488 
z
" clip-path="url(#pf67aa0bc8d)" style="fill: #008000"/>
   </g>
   <g id="patch_99">
    <path d="M 236.16 174.528 
C 236.16 174.528 236.16 174.528 236.16 174.528 
C 236.16 174.528 236.16 174.528 236.16 174.528 
L 208.714008 135.331062 
C 207.573635 136.12956 206.468651 136.977444 205.40221 137.872294 
C 204.33577 138.767143 203.308889 139.708107 202.324498 140.692498 
z
" clip-path="url(#pf67aa0bc8d)" style="fill: #ff0000"/>
   </g>
   <g id="patch_100">
    <path d="M 236.16 174.528 
C 236.16 174.528 236.16 174.528 236.16 174.528 
C 236.16 174.528 236.16 174.528 236.16 174.528 
L 209.152843 135.957783 
C 208.030703 136.743514 206.943387 137.577841 205.893998 138.458383 
C 204.844609 139.338925 203.834146 140.264843 202.865495 141.233495 
z
" clip-path="url(#pf67aa0bc8d)" style="fill: #ffa500"/>
   </g>
   <g id="patch_101">
    <path d="M 236.16 174.528 
C 236.16 174.528 236.16 174.528 236.16 174.528 
C 236.16 174.528 236.16 174.528 236.16 174.528 
L 216.26197 146.110667 
C 215.435212 146.689569 214.634111 147.304276 213.860954 147.953032 
C 213.087797 148.601787 212.34332 149.283975 211.629647 149.997647 
z
" clip-path="url(#pf67aa0bc8d)" style="fill: #008000"/>
   </g>
   <g id="patch_102">
    <path d="M 236.16 174.528 
C 236.16 174.528 236.16 174.528 236.16 174.528 
C 236.16 174.528 236.16 174.528 236.16 174.528 
L 222.866146 146.019237 
C 222.036728 146.406001 221.224583 146.828777 220.43203 147.286357 
C 219.639477 147.743938 218.867271 148.235888 218.117614 148.760803 
z
" clip-path="url(#pf67aa0bc8d)" style="fill: #ff0000"/>
   </g>
   <g id="patch_103">
    <path d="M 236.16 174.528 
C 236.16 174.528 236.16 174.528 236.16 174.528 
C 236.16 174.528 236.16 174.528 236.16 174.528 
L 223.050911 146.415467 
C 222.233021 146.796856 221.432164 147.213756 220.650626 147.664977 
C 219.869089 148.116198 219.107614 148.60131 218.368377 149.118929 
z
" clip-path="url(#pf67aa0bc8d)" style="fill: #ffa500"/>
   </g>
   <g id="patch_104">
    <path d="M 236.16 174.528 
C 236.16 174.528 236.16 174.528 236.16 174.528 
C 236.16 174.528 236.16 174.528 236.16 174.528 
L 225.646862 151.982502 
C 224.990936 152.288365 224.34867 152.622707 223.721898 152.984575 
C 223.095125 153.346442 222.484443 153.735489 221.891595 154.150606 
z
" clip-path="url(#pf67aa0bc8d)" style="fill: #008000"/>
   </g>
   <g id="patch_105">
    <path d="M 236.16 174.528 
C 236.16 174.528 236.16 174.528 236.16 174.528 
C 236.16 174.528 236.16 174.528 236.16 174.528 
L 230.706 154.173395 
C 230.113815 154.332071 229.528836 154.516514 228.952733 154.726198 
C 228.376631 154.935882 227.809954 155.170608 227.254319 155.429704 
z
" clip-path="url(#pf67aa0bc8d)" style="fill: #ff0000"/>
   </g>
   <g id="patch_106">
    <path d="M 236.16 174.528 
C 236.16 174.528 236.16 174.528 236.16 174.528 
C 236.16 174.528 236.16 174.528 236.16 174.528 
L 230.717315 154.215625 
C 230.126359 154.373971 229.542594 154.558031 228.967686 154.767281 
C 228.392779 154.97653 227.827277 155.210768 227.272795 155.469327 
z
" clip-path="url(#pf67aa0bc8d)" style="fill: #ffa500"/>
   </g>
   <g id="patch_107">
    <path d="M 236.16 174.528 
C 236.16 174.528 236.16 174.528 236.16 174.528 
C 236.16 174.528 236.16 174.528 236.16 174.528 
L 231.130326 155.757 
C 230.584213 155.903331 230.044746 156.073424 229.513465 156.266795 
C 228.982184 156.460165 228.459594 156.676629 227.947188 156.915568 
z
" clip-path="url(#pf67aa0bc8d)" style="fill: #008000"/>
   </g>
   <g id="patch_108">
    <path d="M 236.16 174.528 
C 236.16 174.528 236.16 174.528 236.16 174.528 
C 236.16 174.528 236.16 174.528 236.16 174.528 
L 234.809222 159.088532 
C 234.360034 159.127831 233.912776 159.186714 233.468723 159.265012 
C 233.024671 159.343311 232.584246 159.44095 232.148708 159.557653 
z
" clip-path="url(#pf67aa0bc8d)" style="fill: #ff0000"/>
   </g>
   <g id="patch_109">
    <path d="M 236.16 174.528 
C 236.16 174.528 236.16 174.528 236.16 174.528 
C 236.16 174.528 236.16 174.528 236.16 174.528 
L 234.811127 159.110309 
C 234.362573 159.149552 233.915946 159.208352 233.472519 159.28654 
C 233.029093 159.364728 232.58929 159.46223 232.154365 159.578767 
z
" clip-path="url(#pf67aa0bc8d)" style="fill: #ffa500"/>
   </g>
   <g id="patch_110">
    <path d="M 236.16 174.528 
C 236.16 174.528 236.16 174.528 236.16 174.528 
C 236.16 174.528 236.16 174.528 236.16 174.528 
L 234.847325 159.52406 
C 234.410809 159.56225 233.976168 159.619472 233.544641 159.695562 
C 233.113114 159.771652 232.685114 159.866537 232.261861 159.979947 
z
" clip-path="url(#pf67aa0bc8d)" style="fill: #008000"/>
   </g>
   <g id="matplotlib.axis_1">
    <g id="xtick_1">
     <g id="line2d_1">
      <path d="M 236.16 174.528 
L 236.16 41.472 
" clip-path="url(#pf67aa0bc8d)" style="fill: none; stroke: #b0b0b0; stroke-width: 0.8; stroke-linecap: square"/>
     </g>
     <g id="text_1">
      <!-- 0° -->
      <g transform="translate(230.47875 30.231375) scale(0.1 -0.1)">
       <defs>
        <path id="DejaVuSans-30" d="M 2034 4250 
Q 1547 4250 1301 3770 
Q 1056 3291 1056 2328 
Q 1056 1369 1301 889 
Q 1547 409 2034 409 
Q 2525 409 2770 889 
Q 3016 1369 3016 2328 
Q 3016 3291 2770 3770 
Q 2525 4250 2034 4250 
z
M 2034 4750 
Q 2819 4750 3233 4129 
Q 3647 3509 3647 2328 
Q 3647 1150 3233 529 
Q 2819 -91 2034 -91 
Q 1250 -91 836 529 
Q 422 1150 422 2328 
Q 422 3509 836 4129 
Q 1250 4750 2034 4750 
z
" transform="scale(0.015625)"/>
        <path id="DejaVuSans-b0" d="M 1600 4347 
Q 1350 4347 1178 4173 
Q 1006 4000 1006 3750 
Q 1006 3503 1178 3333 
Q 1350 3163 1600 3163 
Q 1850 3163 2022 3333 
Q 2194 3503 2194 3750 
Q 2194 3997 2020 4172 
Q 1847 4347 1600 4347 
z
M 1600 4750 
Q 1800 4750 1984 4673 
Q 2169 4597 2303 4453 
Q 2447 4313 2519 4134 
Q 2591 3956 2591 3750 
Q 2591 3338 2302 3052 
Q 2013 2766 1594 2766 
Q 1172 2766 890 3047 
Q 609 3328 609 3750 
Q 609 4169 896 4459 
Q 1184 4750 1600 4750 
z
" transform="scale(0.015625)"/>
       </defs>
       <use xlink:href="#DejaVuSans-30"/>
       <use xlink:href="#DejaVuSans-b0" x="63.623047"/>
      </g>
     </g>
    </g>
    <g id="xtick_2">
     <g id="line2d_2">
      <path d="M 236.16 174.528 
L 330.2448 80.4432 
" clip-path="url(#pf67aa0bc8d)" style="fill: none; stroke: #b0b0b0; stroke-width: 0.8; stroke-linecap: square"/>
     </g>
     <g id="text_2">
      <!-- 45° -->
      <g transform="translate(331.281795 73.30308) scale(0.1 -0.1)">
       <defs>
        <path id="DejaVuSans-34" d="M 2419 4116 
L 825 1625 
L 2419 1625 
L 2419 4116 
z
M 2253 4666 
L 3047 4666 
L 3047 1625 
L 3713 1625 
L 3713 1100 
L 3047 1100 
L 3047 0 
L 2419 0 
L 2419 1100 
L 313 1100 
L 313 1709 
L 2253 4666 
z
" transform="scale(0.015625)"/>
        <path id="DejaVuSans-35" d="M 691 4666 
L 3169 4666 
L 3169 4134 
L 1269 4134 
L 1269 2991 
Q 1406 3038 1543 3061 
Q 1681 3084 1819 3084 
Q 2600 3084 3056 2656 
Q 3513 2228 3513 1497 
Q 3513 744 3044 326 
Q 2575 -91 1722 -91 
Q 1428 -91 1123 -41 
Q 819 9 494 109 
L 494 744 
Q 775 591 1075 516 
Q 1375 441 1709 441 
Q 2250 441 2565 725 
Q 2881 1009 2881 1497 
Q 2881 1984 2565 2268 
Q 2250 2553 1709 2553 
Q 1456 2553 1204 2497 
Q 953 2441 691 2322 
L 691 4666 
z
" transform="scale(0.015625)"/>
       </defs>
       <use xlink:href="#DejaVuSans-34"/>
       <use xlink:href="#DejaVuSans-35" x="63.623047"/>
       <use xlink:href="#DejaVuSans-b0" x="127.246094"/>
      </g>
     </g>
    </g>
    <g id="xtick_3">
     <g id="line2d_3">
      <path d="M 236.16 174.528 
L 369.216 174.528 
" clip-path="url(#pf67aa0bc8d)" style="fill: none; stroke: #b0b0b0; stroke-width: 0.8; stroke-linecap: square"/>
     </g>
     <g id="text_3">
      <!-- 90° -->
      <g transform="translate(374.3535 177.287375) scale(0.1 -0.1)">
       <defs>
        <path id="DejaVuSans-39" d="M 703 97 
L 703 672 
Q 941 559 1184 500 
Q 1428 441 1663 441 
Q 2288 441 2617 861 
Q 2947 1281 2994 2138 
Q 2813 1869 2534 1725 
Q 2256 1581 1919 1581 
Q 1219 1581 811 2004 
Q 403 2428 403 3163 
Q 403 3881 828 4315 
Q 1253 4750 1959 4750 
Q 2769 4750 3195 4129 
Q 3622 3509 3622 2328 
Q 3622 1225 3098 567 
Q 2575 -91 1691 -91 
Q 1453 -91 1209 -44 
Q 966 3 703 97 
z
M 1959 2075 
Q 2384 2075 2632 2365 
Q 2881 2656 2881 3163 
Q 2881 3666 2632 3958 
Q 2384 4250 1959 4250 
Q 1534 4250 1286 3958 
Q 1038 3666 1038 3163 
Q 1038 2656 1286 2365 
Q 1534 2075 1959 2075 
z
" transform="scale(0.015625)"/>
       </defs>
       <use xlink:href="#DejaVuSans-39"/>
       <use xlink:href="#DejaVuSans-30" x="63.623047"/>
       <use xlink:href="#DejaVuSans-b0" x="127.246094"/>
      </g>
     </g>
    </g>
    <g id="xtick_4">
     <g id="line2d_4">
      <path d="M 236.16 174.528 
L 330.2448 268.6128 
" clip-path="url(#pf67aa0bc8d)" style="fill: none; stroke: #b0b0b0; stroke-width: 0.8; stroke-linecap: square"/>
     </g>
     <g id="text_4">
      <!-- 135° -->
      <g transform="translate(328.100545 281.27167) scale(0.1 -0.1)">
       <defs>
        <path id="DejaVuSans-31" d="M 794 531 
L 1825 531 
L 1825 4091 
L 703 3866 
L 703 4441 
L 1819 4666 
L 2450 4666 
L 2450 531 
L 3481 531 
L 3481 0 
L 794 0 
L 794 531 
z
" transform="scale(0.015625)"/>
        <path id="DejaVuSans-33" d="M 2597 2516 
Q 3050 2419 3304 2112 
Q 3559 1806 3559 1356 
Q 3559 666 3084 287 
Q 2609 -91 1734 -91 
Q 1441 -91 1130 -33 
Q 819 25 488 141 
L 488 750 
Q 750 597 1062 519 
Q 1375 441 1716 441 
Q 2309 441 2620 675 
Q 2931 909 2931 1356 
Q 2931 1769 2642 2001 
Q 2353 2234 1838 2234 
L 1294 2234 
L 1294 2753 
L 1863 2753 
Q 2328 2753 2575 2939 
Q 2822 3125 2822 3475 
Q 2822 3834 2567 4026 
Q 2313 4219 1838 4219 
Q 1578 4219 1281 4162 
Q 984 4106 628 3988 
L 628 4550 
Q 988 4650 1302 4700 
Q 1616 4750 1894 4750 
Q 2613 4750 3031 4423 
Q 3450 4097 3450 3541 
Q 3450 3153 3228 2886 
Q 3006 2619 2597 2516 
z
" transform="scale(0.015625)"/>
       </defs>
       <use xlink:href="#DejaVuSans-31"/>
       <use xlink:href="#DejaVuSans-33" x="63.623047"/>
       <use xlink:href="#DejaVuSans-35" x="127.246094"/>
       <use xlink:href="#DejaVuSans-b0" x="190.869141"/>
      </g>
     </g>
    </g>
    <g id="xtick_5">
     <g id="line2d_5">
      <path d="M 236.16 174.528 
L 236.16 307.584 
" clip-path="url(#pf67aa0bc8d)" style="fill: none; stroke: #b0b0b0; stroke-width: 0.8; stroke-linecap: square"/>
     </g>
     <g id="text_5">
      <!-- 180° -->
      <g transform="translate(224.11625 324.343375) scale(0.1 -0.1)">
       <defs>
        <path id="DejaVuSans-38" d="M 2034 2216 
Q 1584 2216 1326 1975 
Q 1069 1734 1069 1313 
Q 1069 891 1326 650 
Q 1584 409 2034 409 
Q 2484 409 2743 651 
Q 3003 894 3003 1313 
Q 3003 1734 2745 1975 
Q 2488 2216 2034 2216 
z
M 1403 2484 
Q 997 2584 770 2862 
Q 544 3141 544 3541 
Q 544 4100 942 4425 
Q 1341 4750 2034 4750 
Q 2731 4750 3128 4425 
Q 3525 4100 3525 3541 
Q 3525 3141 3298 2862 
Q 3072 2584 2669 2484 
Q 3125 2378 3379 2068 
Q 3634 1759 3634 1313 
Q 3634 634 3220 271 
Q 2806 -91 2034 -91 
Q 1263 -91 848 271 
Q 434 634 434 1313 
Q 434 1759 690 2068 
Q 947 2378 1403 2484 
z
M 1172 3481 
Q 1172 3119 1398 2916 
Q 1625 2713 2034 2713 
Q 2441 2713 2670 2916 
Q 2900 3119 2900 3481 
Q 2900 3844 2670 4047 
Q 2441 4250 2034 4250 
Q 1625 4250 1398 4047 
Q 1172 3844 1172 3481 
z
" transform="scale(0.015625)"/>
       </defs>
       <use xlink:href="#DejaVuSans-31"/>
       <use xlink:href="#DejaVuSans-38" x="63.623047"/>
       <use xlink:href="#DejaVuSans-30" x="127.246094"/>
       <use xlink:href="#DejaVuSans-b0" x="190.869141"/>
      </g>
     </g>
    </g>
    <g id="xtick_6">
     <g id="line2d_6">
      <path d="M 236.16 174.528 
L 142.0752 268.6128 
" clip-path="url(#pf67aa0bc8d)" style="fill: none; stroke: #b0b0b0; stroke-width: 0.8; stroke-linecap: square"/>
     </g>
     <g id="text_6">
      <!-- 225° -->
      <g transform="translate(120.131955 281.27167) scale(0.1 -0.1)">
       <defs>
        <path id="DejaVuSans-32" d="M 1228 531 
L 3431 531 
L 3431 0 
L 469 0 
L 469 531 
Q 828 903 1448 1529 
Q 2069 2156 2228 2338 
Q 2531 2678 2651 2914 
Q 2772 3150 2772 3378 
Q 2772 3750 2511 3984 
Q 2250 4219 1831 4219 
Q 1534 4219 1204 4116 
Q 875 4013 500 3803 
L 500 4441 
Q 881 4594 1212 4672 
Q 1544 4750 1819 4750 
Q 2544 4750 2975 4387 
Q 3406 4025 3406 3419 
Q 3406 3131 3298 2873 
Q 3191 2616 2906 2266 
Q 2828 2175 2409 1742 
Q 1991 1309 1228 531 
z
" transform="scale(0.015625)"/>
       </defs>
       <use xlink:href="#DejaVuSans-32"/>
       <use xlink:href="#DejaVuSans-32" x="63.623047"/>
       <use xlink:href="#DejaVuSans-35" x="127.246094"/>
       <use xlink:href="#DejaVuSans-b0" x="190.869141"/>
      </g>
     </g>
    </g>
    <g id="xtick_7">
     <g id="line2d_7">
      <path d="M 236.16 174.528 
L 103.104 174.528 
" clip-path="url(#pf67aa0bc8d)" style="fill: none; stroke: #b0b0b0; stroke-width: 0.8; stroke-linecap: square"/>
     </g>
     <g id="text_7">
      <!-- 270° -->
      <g transform="translate(77.06025 177.287375) scale(0.1 -0.1)">
       <defs>
        <path id="DejaVuSans-37" d="M 525 4666 
L 3525 4666 
L 3525 4397 
L 1831 0 
L 1172 0 
L 2766 4134 
L 525 4134 
L 525 4666 
z
" transform="scale(0.015625)"/>
       </defs>
       <use xlink:href="#DejaVuSans-32"/>
       <use xlink:href="#DejaVuSans-37" x="63.623047"/>
       <use xlink:href="#DejaVuSans-30" x="127.246094"/>
       <use xlink:href="#DejaVuSans-b0" x="190.869141"/>
      </g>
     </g>
    </g>
    <g id="xtick_8">
     <g id="line2d_8">
      <path d="M 236.16 174.528 
L 142.0752 80.4432 
" clip-path="url(#pf67aa0bc8d)" style="fill: none; stroke: #b0b0b0; stroke-width: 0.8; stroke-linecap: square"/>
     </g>
     <g id="text_8">
      <!-- 315° -->
      <g transform="translate(120.131955 73.30308) scale(0.1 -0.1)">
       <use xlink:href="#DejaVuSans-33"/>
       <use xlink:href="#DejaVuSans-31" x="63.623047"/>
       <use xlink:href="#DejaVuSans-35" x="127.246094"/>
       <use xlink:href="#DejaVuSans-b0" x="190.869141"/>
      </g>
     </g>
    </g>
   </g>
   <g id="patch_111">
    <path d="M 236.16 41.472 
C 218.687246 41.472 201.384393 44.913752 185.241673 51.600285 
C 169.098954 58.286818 154.430303 68.088097 142.0752 80.4432 
C 129.720097 92.798303 119.918818 107.466954 113.232285 123.609673 
C 106.545752 139.752393 103.104 157.055246 103.104 174.528 
C 103.104 192.000754 106.545752 209.303607 113.232285 225.446327 
C 119.918818 241.589046 129.720097 256.257697 142.0752 268.6128 
C 154.430303 280.967903 169.098954 290.769182 185.241673 297.455715 
C 201.384393 304.142248 218.687246 307.584 236.16 307.584 
C 253.632754 307.584 270.935607 304.142248 287.078327 297.455715 
C 303.221046 290.769182 317.889697 280.967903 330.2448 268.6128 
C 342.599903 256.257697 352.401182 241.589046 359.087715 225.446327 
C 365.774248 209.303607 369.216 192.000754 369.216 174.528 
C 369.216 157.055246 365.774248 139.752393 359.087715 123.609673 
C 352.401182 107.466954 342.599903 92.798303 330.2448 80.4432 
C 317.889697 68.088097 303.221046 58.286818 287.078327 51.600285 
C 270.935607 44.913752 253.632754 41.472 236.16 41.472 
" style="fill: none; stroke: #000000; stroke-width: 0.8; stroke-linejoin: miter; stroke-linecap: square"/>
   </g>
  </g>
 </g>
 <defs>
  <clipPath id="pf67aa0bc8d">
   <path d="M 369.216 174.528 
C 369.216 157.055246 365.774248 139.752393 359.087715 123.609673 
C 352.401182 107.466954 342.599903 92.798303 330.2448 80.4432 
C 317.889697 68.088097 303.221046 58.286818 287.078327 51.600285 
C 270.935607 44.913752 253.632754 41.472 236.16 41.472 
C 218.687246 41.472 201.384393 44.913752 185.241673 51.600285 
C 169.098954 58.286818 154.430303 68.088097 142.0752 80.4432 
C 129.720097 92.798303 119.918818 107.466954 113.232285 123.609673 
C 106.545752 139.752393 103.104 157.055246 103.104 174.528 
C 103.104 192.000754 106.545752 209.303607 113.232285 225.446327 
C 119.918818 241.589046 129.720097 256.257697 142.0752 268.6128 
C 154.430303 280.967903 169.098954 290.769182 185.241673 297.455715 
C 201.384393 304.142248 218.687246 307.584 236.16 307.584 
C 253.632754 307.584 270.935607 304.142248 287.078327 297.455715 
C 303.221046 290.769182 317.889697 280.967903 330.2448 268.6128 
C 342.599903 256.257697 352.401182 241.589046 359.087715 225.446327 
C 365.774248 209.303607 369.216 192.000754 369.216 174.528 
M 236.16 174.528 
C 236.16 174.528 236.16 174.528 236.16 174.528 
C 236.16 174.528 236.16 174.528 236.16 174.528 
C 236.16 174.528 236.16 174.528 236.16 174.528 
C 236.16 174.528 236.16 174.528 236.16 174.528 
C 236.16 174.528 236.16 174.528 236.16 174.528 
C 236.16 174.528 236.16 174.528 236.16 174.528 
C 236.16 174.528 236.16 174.528 236.16 174.528 
C 236.16 174.528 236.16 174.528 236.16 174.528 
C 236.16 174.528 236.16 174.528 236.16 174.528 
C 236.16 174.528 236.16 174.528 236.16 174.528 
C 236.16 174.528 236.16 174.528 236.16 174.528 
C 236.16 174.528 236.16 174.528 236.16 174.528 
C 236.16 174.528 236.16 174.528 236.16 174.528 
C 236.16 174.528 236.16 174.528 236.16 174.528 
C 236.16 174.528 236.16 174.528 236.16 174.528 
C 236.16 174.528 236.16 174.528 236.16 174.528 
z
"/>
  </clipPath>
 </defs>
</svg>
